<svg width="57" height="40" viewBox="0 0 57 40" fill="none" xmlns="http://www.w3.org/2000/svg">
<path d="M26.8975 0.107281C24.6718 0.536346 22.6798 1.70254 21.3667 3.3528C17.5718 8.07256 19.2077 14.8387 24.7608 17.3911C25.4619 17.7211 25.5176 17.7651 25.2171 17.7651C24.6607 17.7761 22.8245 18.2712 21.7228 18.7113C21.1552 18.9313 20.6878 19.0963 20.6767 19.0743C19.753 17.8091 18.6291 16.6649 17.6831 16.0268C16.9264 15.5208 15.4574 14.8607 14.6005 14.6406C14.1999 14.5306 13.7993 14.4316 13.7103 14.3986C13.6101 14.3656 13.7882 14.2226 14.1777 14.0135C18.3397 11.8022 18.6847 5.94922 14.7897 3.24278C13.7214 2.50566 12.5418 2.1316 11.2064 2.1206C9.34791 2.1206 7.94572 2.67069 6.63257 3.9689C4.64057 5.91621 4.15092 8.71066 5.37505 11.2521C5.83132 12.1982 7.24463 13.6285 8.14604 14.0575L8.74697 14.3436L8.25732 14.4646C5.97599 15.0367 4.52929 15.8288 3.02694 17.3251C1.72491 18.6123 0.86802 20.1195 0.322726 22.0118C0.133542 22.6719 0.100156 23.233 0.0556423 25.9284L0 29.0749L0.278212 29.394L0.556423 29.713L6.53241 29.746L12.5084 29.7791L12.4305 30.1311C12.3303 30.5822 12.2191 39.0535 12.3081 39.4056C12.475 40.0327 11.6515 39.9997 28.5 39.9997C39.6062 39.9997 44.0465 39.9667 44.2356 39.8787C44.7698 39.6366 44.7809 39.5596 44.7253 34.8729C44.6919 32.4635 44.6363 30.3181 44.5918 30.1311L44.5139 29.7791L50.4898 29.746L56.4658 29.713L56.7329 29.405C57 29.0969 57 29.0859 57 26.4235C57 23.42 56.8776 22.4409 56.3323 20.9336C55.8315 19.5694 54.9969 18.3152 53.884 17.226C52.4596 15.8288 50.9795 15.0367 48.7649 14.4756L48.2753 14.3436L48.8762 14.0575C49.7665 13.6395 51.1798 12.1982 51.6361 11.2631C52.8713 8.74367 52.3928 5.94922 50.3786 3.9689C49.0765 2.68169 47.6855 2.1206 45.8159 2.1206C42.3216 2.14261 39.5172 4.91505 39.5172 8.35861C39.5061 9.5798 39.6507 10.2069 40.1738 11.2851C40.6634 12.2972 41.8208 13.4854 42.8112 14.0025C43.2118 14.2115 43.4121 14.3766 43.312 14.3986C43.223 14.4316 42.8223 14.5306 42.4217 14.6406C41.5648 14.8607 40.0959 15.5208 39.3391 16.0268C38.6046 16.5219 37.3694 17.7101 36.8241 18.4362C36.5793 18.7663 36.3678 19.0633 36.3456 19.0853C36.3233 19.1073 35.9449 18.9753 35.4887 18.7883C34.4315 18.3482 32.9625 17.9301 32.1279 17.8311L31.4602 17.7431L32.2614 17.3911C34.7876 16.2469 36.5459 14.2336 37.3694 11.5381C37.6253 10.702 37.6699 10.3719 37.6699 9.08472C37.6699 7.79752 37.6253 7.46746 37.3694 6.63133C36.557 3.9689 34.8432 1.96658 32.4061 0.8554C31.8831 0.613361 31.1374 0.338318 30.7368 0.2393C29.7353 -0.0137405 27.8657 -0.0797501 26.8975 0.107281ZM29.9244 1.87856C32.6398 2.38465 34.9656 4.54099 35.7001 7.21442C35.9338 8.08356 35.9672 9.88785 35.7558 10.735C35.6779 11.065 35.3885 11.8022 35.1214 12.3633C34.4203 13.8045 33.3186 14.8827 31.8385 15.5978C30.5254 16.2359 29.8465 16.3899 28.5111 16.3899C27.2759 16.3899 26.5414 16.2359 25.4285 15.7298C23.4143 14.8276 21.9008 13.0674 21.3221 10.944C21.0551 9.99787 21.0551 8.17158 21.3221 7.21442C21.8786 5.1901 23.303 3.46282 25.1726 2.54967C26.7973 1.75755 28.2107 1.55951 29.9244 1.87856ZM12.0744 3.9689C14.4893 4.47498 16.0139 6.65333 15.6911 9.12873C15.3573 11.5711 12.8089 13.4084 10.3606 12.9573C7.27802 12.3963 5.60875 9.13973 6.97755 6.37829C7.67864 4.95906 9.3813 3.90289 11.0951 3.81488C11.2175 3.81488 11.6626 3.88089 12.0744 3.9689ZM46.5838 3.91389C49.1322 4.32096 50.8905 6.69734 50.4676 9.15074C50.0225 11.6811 47.6743 13.3754 45.1816 12.9573C43.1784 12.6163 41.5982 11.032 41.3311 9.10673C41.1197 7.62149 41.5759 6.26827 42.6443 5.2231C43.3676 4.49699 43.9686 4.16693 44.9145 3.9689C45.7714 3.78187 45.7936 3.78187 46.5838 3.91389ZM11.6515 16.2579C11.6738 16.4009 11.8741 17.7981 12.0966 19.3714C12.3081 20.9446 12.5084 22.3419 12.5307 22.4849C12.5529 22.6719 12.386 22.958 11.8963 23.53C11.5291 23.9701 11.1841 24.3222 11.1173 24.3222C11.0617 24.3222 10.7167 23.9701 10.3495 23.53L9.68177 22.7379L10.1603 19.3824L10.6277 16.0158H11.1062C11.518 16.0158 11.5959 16.0488 11.6515 16.2579ZM46.862 19.3824L47.3405 22.7379L46.6728 23.53C46.3055 23.9701 45.9606 24.3222 45.9049 24.3222C45.8382 24.3222 45.4932 23.9701 45.1259 23.53C44.6363 22.958 44.4693 22.6719 44.4916 22.4849C44.5139 22.3419 44.7142 20.9446 44.9256 19.3714C45.4375 15.6638 45.3374 16.0158 45.916 16.0158H46.3946L46.862 19.3824ZM8.35748 19.3824C8.11265 21.1317 7.90121 22.7379 7.89008 22.958C7.87895 23.321 8.0125 23.519 9.23663 24.9603C9.98223 25.8294 10.6722 26.5775 10.7724 26.6215C11.0506 26.7316 11.4178 26.6876 11.6181 26.5445C12.041 26.2255 14.378 23.321 14.378 23.112C14.378 22.991 14.1777 21.4177 13.9217 19.6134C13.6658 17.8091 13.4988 16.3019 13.5322 16.2579C13.6658 16.1369 14.6339 16.4449 15.6578 16.94C16.8596 17.5231 17.9391 18.3812 18.6402 19.3054L19.1521 19.9875L18.2952 20.6366C16.1697 22.2098 14.378 24.5202 13.3764 26.9626L12.9647 27.9528L9.49258 27.9858L6.03163 28.0078V25.5874V23.156L5.75342 22.8919C5.43069 22.5619 4.92991 22.5399 4.5738 22.8259C4.30672 23.035 4.30672 23.057 4.27333 25.5214L4.23995 28.0078H3.01581H1.80281V25.8624C1.80281 23.453 1.93635 22.5289 2.48165 21.2197C3.46095 18.8873 5.60875 17.028 8.09039 16.3349C8.45763 16.2359 8.76923 16.1589 8.78036 16.1809C8.80262 16.1919 8.61343 17.6331 8.35748 19.3824ZM50.1783 16.786C52.4707 17.8091 54.229 19.8665 54.9412 22.3419C55.0859 22.8479 55.1527 23.6071 55.1861 25.4994L55.2417 28.0078H54.0176H52.7823L52.7489 25.5214C52.7155 23.057 52.7155 23.035 52.4485 22.8259C52.0923 22.5399 51.5916 22.5619 51.2688 22.8919L50.9906 23.156V25.5874V28.0078L47.5185 27.9858L44.0576 27.9528L43.5902 26.8526C42.5553 24.3992 40.8526 22.2098 38.7271 20.6366L37.8702 19.9875L38.3821 19.3054C39.0832 18.3812 40.1626 17.5231 41.3645 16.94C42.3883 16.4449 43.3565 16.1369 43.49 16.2579C43.5234 16.3019 43.3565 17.8091 43.1005 19.6134C42.8446 21.4177 42.6443 22.991 42.6443 23.112C42.6443 23.321 44.9813 26.2255 45.4041 26.5445C45.6045 26.6876 45.9717 26.7316 46.2499 26.6215C46.3501 26.5775 47.04 25.8404 47.7745 24.9713C48.9875 23.5521 49.121 23.343 49.121 22.969C49.1099 22.7489 48.9096 21.1317 48.6648 19.3824C48.4088 17.6221 48.2085 16.1809 48.2085 16.1699C48.2085 16.0929 49.5996 16.5219 50.1783 16.786ZM29.6685 19.6134C29.7241 19.9105 31.0484 29.35 31.1041 29.8451C31.1152 30.0101 30.7368 30.5492 29.8688 31.5833C29.1677 32.3975 28.5556 33.0686 28.5111 33.0686C28.4666 33.0686 27.8545 32.3975 27.1535 31.5833C26.2854 30.5492 25.9071 30.0101 25.9182 29.8451C25.9738 29.35 27.2981 19.9105 27.3538 19.6134L27.4205 19.3164H28.5111H29.6017L29.6685 19.6134ZM25.5064 19.7124C25.5064 19.8225 25.1726 22.2428 24.772 25.1143C24.3713 27.9858 24.0709 30.4392 24.1043 30.5712C24.1376 30.7032 25.0279 31.8254 26.0963 33.0686L28.0215 35.3239H28.5111H29.0008L30.926 33.0686C31.9943 31.8254 32.8846 30.7032 32.918 30.5712C32.9514 30.4392 32.6509 27.9858 32.2503 25.1143C31.8497 22.2428 31.5158 19.8225 31.5158 19.7124C31.5158 19.4704 31.7384 19.4924 33.0293 19.8225C34.3424 20.1525 36.0896 20.9556 37.2692 21.7588C39.5394 23.31 41.4869 25.8844 42.2993 28.4478C42.8668 30.1861 42.9002 30.5162 42.9447 34.4658L43.0004 38.2394H40.5966H38.204L38.3153 37.9314C38.3821 37.7443 38.4155 36.2261 38.3932 34.1248L38.3598 30.6262L38.0927 30.4172C37.7478 30.1421 37.1468 30.1421 36.8575 30.4282C36.6349 30.6482 36.6238 30.7582 36.6572 34.4438L36.6906 38.2394H28.5111H20.3317L20.3651 34.4438C20.3985 30.7582 20.3873 30.6482 20.1648 30.4282C19.8754 30.1421 19.2745 30.1421 18.9295 30.4172L18.6624 30.6262L18.6291 34.1248C18.6068 36.2261 18.6402 37.7443 18.707 37.9314L18.8182 38.2394H16.4256H14.0219L14.0775 34.4658C14.122 30.5162 14.1777 30.0321 14.7341 28.3928C16.1697 24.1461 19.6863 20.9226 24.171 19.7674C25.2282 19.4924 25.5064 19.4814 25.5064 19.7124Z" fill="#EB680D"/>
</svg>
