<svg width="76" height="39" viewBox="0 0 76 39" fill="none" xmlns="http://www.w3.org/2000/svg">
<path d="M18.7714 0.330633C18.3585 0.53363 17.8867 0.881628 17.7392 1.09912C17.5918 1.31662 16.5448 3.7671 15.4094 6.56557L13.3302 11.6405L7.94799 12.1045C4.99883 12.3655 2.32984 12.6555 2.02018 12.728C0.870003 13.047 0 14.2215 0 15.425C0.0147458 16.063 0.501358 17.0055 1.04695 17.3969C1.32712 17.5999 3.5095 18.8179 5.89832 20.1229C8.28715 21.4134 10.2778 22.5009 10.3073 22.5299C10.3221 22.5444 9.48156 25.1399 8.41986 28.2718C7.10748 32.1288 6.48816 34.1733 6.48816 34.6083C6.48816 36.2757 8.25765 37.5082 9.83546 36.9427C10.0566 36.8557 12.4602 35.3478 15.1439 33.5788L20.0543 30.3743L21.6469 31.4183C22.6496 32.0708 23.3869 32.4478 23.6375 32.4478C24.4486 32.4478 25.0236 31.4473 24.6403 30.7223C24.4191 30.3308 20.4672 27.8078 20.0543 27.8078C19.8184 27.8078 17.6802 29.1128 14.3477 31.3168C11.3985 33.2308 8.95071 34.7678 8.89172 34.7098C8.83274 34.6518 9.74698 31.7808 10.9119 28.3153C12.7256 22.9359 13.0206 21.9644 12.9026 21.6164C12.7699 21.2684 11.9589 20.7754 7.66782 18.4264C4.86612 16.8895 2.52153 15.541 2.43306 15.425C2.34458 15.28 2.34458 15.1495 2.43306 15.0625C2.52153 14.99 5.26425 14.7 8.55257 14.3955C12.3275 14.062 14.6278 13.801 14.8195 13.685C15.026 13.5545 15.8517 11.6985 17.3263 8.03005C18.6977 4.62258 19.6414 2.50561 19.8036 2.41861C19.9511 2.33161 20.1575 2.33161 20.305 2.40411C20.4377 2.47661 21.4109 4.68059 22.5021 7.37756C23.7408 10.3935 24.596 12.322 24.7877 12.467C25.4218 12.989 26.4097 12.6265 26.6309 11.8C26.7194 11.423 22.974 2.04162 22.3547 1.12812C21.9418 0.504632 21.1455 0.0841354 20.2018 0.0116365C19.7004 -0.0318638 19.3612 0.0406351 18.7714 0.330633Z" fill="#EB680D"/>
<path d="M54.9938 0.151417C54.2265 0.455959 53.7247 0.862012 53.4444 1.41308C53.2968 1.70312 52.2934 4.09593 51.2309 6.70627C49.9028 9.9837 49.3125 11.5789 49.3715 11.7964C49.5929 12.623 50.5816 12.9856 51.2161 12.4635C51.408 12.3185 52.2638 10.3898 53.5034 7.37336C54.5954 4.67601 55.5693 2.47172 55.7021 2.39921C55.8497 2.3267 56.0563 2.3267 56.2039 2.41371C56.3662 2.50072 57.3106 4.618 58.683 8.02594C60.1734 11.6949 60.985 13.5512 61.1916 13.6817C61.3687 13.7977 63.715 14.0587 67.4632 14.3923C70.7539 14.6823 73.4986 14.9869 73.5872 15.0594C73.6757 15.1464 73.6757 15.2769 73.5872 15.4219C73.4986 15.5379 71.1523 16.8866 68.3486 18.4238C64.0544 20.7731 63.2428 21.2662 63.11 21.6142C62.9919 21.9623 63.2871 22.9339 65.1021 28.3141C66.2679 31.78 67.1828 34.6514 67.1238 34.7094C67.0648 34.7674 64.6152 33.2302 61.6638 31.316C58.3288 29.1117 56.1891 27.8065 55.953 27.8065C55.5398 27.8065 51.585 30.3299 51.3637 30.7214C50.98 31.4465 51.5555 32.4471 52.3671 32.4471C52.618 32.4471 53.3558 32.0701 54.3593 31.4175L55.953 30.3734L60.867 33.5783C63.5527 35.3475 65.958 36.8557 66.1794 36.9427C67.7583 37.5083 69.5291 36.2756 69.5291 34.6079C69.5291 34.1729 68.9093 32.1281 67.596 28.2706C66.5335 25.1382 65.6924 22.5423 65.7071 22.5278C65.7367 22.4988 67.8321 21.3677 70.3407 19.99C75.0776 17.4232 75.5941 17.0606 75.904 16.031C76.3024 14.6968 75.417 13.1016 74.0594 12.7391C73.72 12.652 71.0195 12.362 68.0682 12.101L62.682 11.6369L60.6161 6.56125C59.4651 3.76239 58.3878 1.28257 58.2108 1.03603C57.591 0.194925 55.9825 -0.254633 54.9938 0.151417Z" fill="#EB680D"/>
<path d="M37.0542 2.24867C36.6393 2.45166 36.165 2.79966 36.0168 3.01716C35.8686 3.23465 34.8164 5.68513 33.6752 8.4836L31.5856 13.5585L26.1762 14.0225C23.2121 14.2835 20.5296 14.5735 20.2184 14.646C19.0624 14.965 18.188 16.1395 18.188 17.343C18.2029 17.981 18.6919 18.9235 19.2403 19.315C19.5219 19.518 21.7153 20.736 24.1161 22.0409C26.517 23.3314 28.5178 24.4189 28.5474 24.4479C28.5622 24.4624 27.7175 27.0579 26.6504 30.1899C24.6497 36.0478 24.4867 36.7293 24.9164 37.5268C25.45 38.5128 26.6949 39.1363 27.7323 38.9478C28.088 38.8753 30.0591 37.6863 33.3047 35.5693L38.3436 32.2923L43.2788 35.4968C45.9761 37.2658 48.3918 38.7738 48.6141 38.8608C50.1998 39.4263 51.9783 38.1938 51.9783 36.5263C51.9783 36.0913 51.3558 34.0468 50.0368 30.1899C48.9697 27.0579 48.125 24.4624 48.1398 24.4479C48.1695 24.4189 50.2739 23.2879 52.7934 21.9104C55.3276 20.5475 57.5655 19.228 57.7878 18.996C58.3213 18.416 58.5585 17.5895 58.4251 16.734C58.351 16.183 58.188 15.9075 57.6989 15.429C57.3432 15.081 56.8393 14.762 56.4984 14.6605C56.1724 14.5735 53.4751 14.2835 50.5111 14.0225L45.1017 13.5585L43.0268 8.4836C41.8708 5.68513 40.789 3.20566 40.6111 2.95916C40.1961 2.40816 39.381 2.00217 38.4918 1.92967C37.9879 1.88617 37.6471 1.95867 37.0542 2.24867ZM38.6697 4.38014C38.7882 4.48164 39.8849 7.00461 41.1002 9.99158C42.5822 13.6165 43.4121 15.4725 43.6048 15.603C43.7826 15.719 46.1539 15.98 49.9034 16.3135C53.2083 16.6035 55.9649 16.908 56.0538 16.9805C56.1428 17.0675 56.1428 17.198 56.0538 17.343C55.9649 17.459 53.6085 18.8075 50.7926 20.3445C46.4799 22.6934 45.6648 23.1864 45.5314 23.5344C45.4129 23.8824 45.7093 24.8539 47.5322 30.2334C48.703 33.6988 49.6218 36.5698 49.5626 36.6278C49.5033 36.6858 47.0431 35.1488 44.0791 33.2348C40.6852 31.0164 38.5807 29.7259 38.3436 29.7259C38.1065 29.7259 36.002 31.0164 32.6082 33.2348C29.6441 35.1488 27.1839 36.6858 27.1247 36.6278C27.0654 36.5698 27.9842 33.6988 29.155 30.2334C30.9779 24.8539 31.2743 23.8824 31.1558 23.5344C31.0224 23.1864 30.2073 22.6934 25.8946 20.3445C23.0787 18.8075 20.7223 17.459 20.6334 17.343C20.5445 17.198 20.5445 17.0675 20.6334 16.9805C20.7223 16.908 23.4789 16.618 26.7838 16.3135C30.563 15.98 32.8897 15.719 33.0824 15.603C33.2751 15.4725 34.105 13.6165 35.587 9.99158C37.5433 5.16313 38.0027 4.20615 38.3436 4.20615C38.3881 4.20615 38.5363 4.29314 38.6697 4.38014Z" fill="#EB680D"/>
</svg>
