<svg width="103" height="23" viewBox="0 0 103 23" fill="none" xmlns="http://www.w3.org/2000/svg">
<path fill-rule="evenodd" clip-rule="evenodd" d="M95.152 1.22261C95.367 1.01903 95.7162 1.01903 95.9322 1.22261L97.1993 2.42962C97.3706 2.59315 97.6572 2.5798 97.8273 2.41738L97.9874 2.26497C98.1575 2.10144 98.1575 1.83557 97.9874 1.67426L97.909 1.59973L96.7203 0.4717C96.0654 -0.152387 95.0065 -0.159064 94.3528 0.462798L94.1435 0.660815C93.4864 1.28601 93.4943 2.29278 94.1513 2.91353L95.4252 4.12055C95.5942 4.28519 95.8684 4.27851 96.0408 4.1161L96.1998 3.96147C96.3721 3.79905 96.38 3.53428 96.2076 3.36964L94.9382 2.16374C94.7244 1.96016 94.7289 1.6242 94.9416 1.41951L95.152 1.22261ZM101.715 1.43286C101.928 1.63532 101.928 1.96572 101.715 2.1693L100.442 3.37631C100.272 3.53762 100.284 3.80906 100.454 3.97036L100.617 4.125C100.789 4.2863 101.066 4.2863 101.237 4.125L101.315 4.05046L102.506 2.92132C103.16 2.29946 103.168 1.29269 102.511 0.668603L102.302 0.470586C101.647 -0.151276 100.589 -0.144601 99.9328 0.47726L98.6612 1.68983C98.4911 1.85114 98.4978 2.10923 98.6679 2.27387L98.828 2.42628C98.9981 2.5887 99.2791 2.5976 99.4515 2.43295L100.722 1.22817C100.935 1.02348 101.289 1.02792 101.503 1.23039L101.715 1.43286ZM94.9371 6.73259C94.7211 6.93617 94.7211 7.26879 94.9371 7.47126L95.1453 7.6715C95.358 7.87397 95.7128 7.87841 95.9255 7.67595L97.196 6.46893C97.3684 6.30652 97.6482 6.31431 97.8206 6.47561L97.9807 6.63024C98.1542 6.79266 98.1575 7.05297 97.9874 7.21428L96.7147 8.42352C96.0587 9.04871 95.0009 9.05428 94.3439 8.4313L94.1345 8.23329C93.4808 7.61143 93.4876 6.60466 94.1435 5.98391L95.3311 4.85477L95.4095 4.78023C95.5796 4.61781 95.8617 4.61781 96.0319 4.78023L96.193 4.93486C96.3632 5.09617 96.3789 5.3665 96.2076 5.53003L94.9371 6.73259ZM101.494 7.66594C101.282 7.86951 100.931 7.86951 100.717 7.66594L99.4459 6.45892C99.2735 6.29539 98.9892 6.30874 98.8191 6.47005L98.659 6.62357C98.4866 6.7871 98.4866 7.05297 98.659 7.21428L98.7362 7.2877L99.9261 8.41684C100.58 9.04093 101.64 9.0476 102.298 8.42352L102.504 8.22884C103.159 7.60475 103.153 6.59798 102.495 5.97723L101.222 4.76688C101.051 4.60446 100.779 4.61114 100.607 4.77356L100.447 4.92596C100.274 5.0906 100.265 5.35537 100.438 5.5189L101.708 6.72591C101.923 6.92949 101.92 7.26323 101.705 7.47014L101.494 7.66594ZM13.7927 14.997C13.7927 13.4451 13.1726 12.029 12.1585 10.9577C13.1468 9.89195 13.7479 8.49694 13.7479 6.97065V5.95609H13.7334C13.6909 5.72137 13.4759 5.54004 13.214 5.54004H10.0541C9.79325 5.54004 9.57945 5.72137 9.5358 5.95609L9.46864 6.97065C9.46864 8.05752 8.53621 8.94526 7.38663 8.94526V8.9575H6.31765C5.58111 8.9575 4.8748 9.07986 4.2155 9.29902V0.501735C4.2155 0.228071 3.98043 0.00113045 3.68716 0.00113045H0.526097C0.235065 0.00113045 0 0.226959 0 0.501735V19.1409C0 19.4168 0.235065 19.6426 0.526097 19.6426H3.68716C3.97931 19.6426 4.2155 19.4168 4.2155 19.1409V14.9981H4.23788C4.23788 13.9079 5.17031 13.0213 6.31877 13.0213H7.43477C8.58099 13.0213 9.51565 13.9079 9.51565 14.9981V16.0093H9.52796V19.1409C9.52796 19.4168 9.76415 19.6426 10.0541 19.6426H13.214C13.5084 19.6426 13.7412 19.4168 13.7412 19.1409L13.7927 16.0093V14.997ZM29.0596 8.95638C29.3495 8.95638 29.5891 9.18332 29.5891 9.4581L29.5902 16.9594C29.5902 20.2901 26.7773 23 23.2692 23H22.1521C18.6485 23 15.8389 20.2912 15.8389 16.9594L15.8467 9.4581C15.8467 9.18332 16.0818 8.95638 16.3728 8.95638H19.5339C19.8216 8.95638 20.0622 9.18332 20.0622 9.4581L20.0712 16.9594C20.0712 18.0496 21.007 18.9373 22.1521 18.9373H23.2692C24.4188 18.9373 25.3747 18.0507 25.3747 16.9594V9.4581C25.3747 9.18332 25.6098 8.95638 25.9008 8.95638H29.0596ZM31.7259 19.2477C31.7259 19.5225 31.9632 19.7494 32.252 19.7494H35.4142C35.7041 19.7494 35.9437 19.5225 35.9437 19.2477L35.9414 11.7442C35.9414 10.6562 36.8951 9.76959 38.0436 9.76959H39.1585C40.308 9.76959 41.2405 10.6562 41.2405 11.7442L41.2528 19.2477C41.2528 19.5225 41.4901 19.7494 41.7789 19.7494H44.9411C45.231 19.7494 45.4694 19.5225 45.4694 19.2477L45.4772 11.7442C45.4772 8.41573 42.6654 5.70357 39.1596 5.70357H38.0447C34.5389 5.70357 31.7237 8.41462 31.7237 11.7442L31.7259 19.2477ZM60.837 8.95638C61.1281 8.95638 61.3654 9.18332 61.3654 9.4581L61.3676 16.9594C61.3676 20.2901 58.5524 23 55.0477 23H53.9306C50.4225 23 47.6152 20.2912 47.6152 16.9594L47.6208 9.4581C47.6208 9.18332 47.8592 8.95638 48.1469 8.95638H51.3124C51.6012 8.95638 51.8363 9.18332 51.8363 9.4581L51.8497 16.9594C51.8497 18.0496 52.781 18.9373 53.9306 18.9373H55.0477C56.1939 18.9373 57.1476 18.0507 57.1476 16.9594V9.4581C57.1476 9.18332 57.3849 8.95638 57.6737 8.95638H60.837ZM93.1417 9.4581C93.1417 9.18332 92.9055 8.95638 92.6156 8.95638H89.4534C89.1657 8.95638 88.9251 9.18221 88.9251 9.4581V16.9594C88.9251 18.0496 87.9714 18.9373 86.8251 18.9373H85.7069C84.5584 18.9373 83.6271 18.0507 83.6271 16.9594L83.6148 9.4581C83.6148 9.18332 83.3786 8.95638 83.0876 8.95638H79.9265C79.6389 8.95638 79.3982 9.18221 79.3982 9.4581L79.3904 16.9594C79.3904 20.2901 82.2 23 85.7069 23H86.8251C90.3298 23 93.145 20.2912 93.145 16.9594L93.1417 9.4581ZM64.0328 19.6426C63.744 19.6426 63.5067 19.419 63.5067 19.142L63.5045 11.6396C63.5045 8.30893 66.3185 5.60011 69.8232 5.60011H70.9415C74.4495 5.60011 77.258 8.30893 77.258 11.6396L77.2513 19.142C77.2513 19.419 77.0117 19.6426 76.7229 19.6426H73.5619C73.2697 19.6426 73.0347 19.419 73.0347 19.142L73.0212 11.6396C73.0212 10.5505 72.0899 9.66279 70.9404 9.66279H69.8221C68.677 9.66279 67.7222 10.5505 67.7222 11.6396V19.142C67.7222 19.419 67.4838 19.6426 67.195 19.6426H64.0328Z" fill="white"/>
</svg>
