<svg width="250" height="54" viewBox="0 0 250 54" fill="none" xmlns="http://www.w3.org/2000/svg">
<path d="M48.4093 50.8755C48.4143 50.7391 48.3882 50.6034 48.3332 50.4785C48.2781 50.3537 48.1955 50.243 48.0915 50.1549C47.7584 49.9109 47.3816 49.7336 46.9815 49.6327C46.2344 49.4469 45.5278 49.1247 44.8972 48.6823C44.6665 48.5071 44.4815 48.2786 44.3581 48.0162C44.2347 47.7539 44.1765 47.4655 44.1885 47.1757C44.1843 46.8675 44.2563 46.5632 44.3981 46.2898C44.54 46.0164 44.7473 45.7825 45.0014 45.609C45.6111 45.1835 46.3435 44.9706 47.0858 45.0033C47.8398 44.9708 48.5802 45.2129 49.1701 45.6848C49.4237 45.8826 49.6269 46.138 49.7627 46.4298C49.8986 46.7217 49.9634 47.0418 49.9517 47.3637V47.395H48.4432C48.4495 47.2323 48.4206 47.0701 48.3585 46.9196C48.2965 46.769 48.2027 46.6337 48.0836 46.5229C47.8025 46.2846 47.4402 46.1648 47.0727 46.1887C46.7291 46.1666 46.3885 46.2644 46.1087 46.4655C46.0006 46.5491 45.9135 46.6568 45.8543 46.7801C45.795 46.9034 45.7653 47.0388 45.7674 47.1757C45.768 47.3062 45.8019 47.4344 45.8657 47.5481C45.9295 47.6619 46.0212 47.7575 46.1322 47.8258C46.5263 48.0608 46.9505 48.2409 47.3932 48.3611C48.104 48.5273 48.7689 48.8502 49.3395 49.3063C49.5564 49.4992 49.728 49.7379 49.8419 50.0051C49.9559 50.2724 50.0094 50.5616 49.9986 50.852C50.008 51.1576 49.9415 51.4607 49.805 51.7342C49.6686 52.0076 49.4665 52.2428 49.217 52.4187C48.602 52.8303 47.8712 53.0326 47.1327 52.9957C46.3453 53.013 45.5721 52.7839 44.9206 52.3403C44.6209 52.1435 44.3782 51.8708 44.2172 51.5499C44.0562 51.229 43.9825 50.8712 44.0035 50.5126V50.4787H45.5173C45.5008 50.6701 45.5308 50.8628 45.6048 51.0401C45.6787 51.2174 45.7944 51.3742 45.942 51.497C46.2889 51.7326 46.7039 51.8465 47.1222 51.8207C47.4652 51.8428 47.8058 51.7511 48.0915 51.5596C48.194 51.4783 48.2761 51.3741 48.3313 51.2553C48.3865 51.1366 48.4132 51.0065 48.4093 50.8755Z" fill="#EB680D"/>
<path d="M54.0219 45L55.9794 50.8906H56.0103L57.9858 45H60V53H58.4526V50.6169L58.5996 47.0879H58.5687L56.5261 53H55.4945L53.4313 47.0959H53.4004L53.5474 50.6035V53H52V45H54.0219Z" fill="#EB680D"/>
<path d="M65.8726 51.269H63.1116L62.5837 52.992H61L63.7055 45H65.3209L68 53H66.4163L65.8726 51.269ZM63.497 50.0104H65.4766L64.5053 46.8705H64.4736L63.497 50.0104Z" fill="#EB680D"/>
<path d="M70.5126 49.7984V53H69V45H71.8311C72.6882 45 73.3563 45.2066 73.8479 45.6226C74.088 45.8314 74.2785 46.0973 74.4042 46.3989C74.5299 46.7005 74.5872 47.0294 74.5714 47.3589C74.5828 47.7422 74.4766 48.119 74.2689 48.4324C74.037 48.7525 73.7289 49.0009 73.3765 49.1516C73.7649 49.2507 74.1052 49.4992 74.3319 49.8494C74.5365 50.2136 74.638 50.6329 74.6244 51.057V51.6447C74.6256 51.8811 74.6544 52.1164 74.7101 52.3452C74.749 52.553 74.8508 52.7416 75 52.8819V53H73.4496C73.2945 52.8463 73.1984 52.6369 73.1798 52.4123C73.1408 52.1549 73.1206 51.8947 73.1193 51.634V51.0678C73.1288 50.8986 73.1065 50.7291 73.0537 50.5692C73.0008 50.4093 72.9186 50.2622 72.8118 50.1365C72.6964 50.0217 72.5601 49.9332 72.4114 49.8765C72.2627 49.8197 72.1047 49.7959 71.9471 49.8064L70.5126 49.7984ZM70.5126 48.5612H71.8109C72.1479 48.5897 72.4832 48.4888 72.7563 48.2768C72.8646 48.1698 72.9489 48.0383 73.003 47.892C73.0571 47.7456 73.0796 47.5882 73.0689 47.4314C73.0766 47.2709 73.0528 47.1104 72.9989 46.9602C72.9451 46.8101 72.8625 46.6735 72.7563 46.5592C72.6306 46.4431 72.4846 46.3546 72.3267 46.2989C72.1688 46.2432 72.0021 46.2213 71.8361 46.2345H70.5126V48.5612Z" fill="#EB680D"/>
<path d="M82 46.2345H79.7835V53H78.206V46.2345H76V45H81.9921L82 46.2345Z" fill="#EB680D"/>
<path d="M92 46.2345H89.7835V53H88.206V46.2345H86V45H91.9921L92 46.2345Z" fill="#EB680D"/>
<path d="M97.4899 49.479H94.464V51.7575H98V53H93V45H97.9902V46.2345H94.464V48.2445H97.4899V49.479Z" fill="#EB680D"/>
<path d="M105.991 50.2367V50.2706C106.016 50.6382 105.961 51.0068 105.832 51.3508C105.702 51.6947 105.501 52.0056 105.241 52.2617C104.729 52.7523 104.014 52.9976 103.096 52.9976C102.682 53.0143 102.27 52.9426 101.884 52.7871C101.499 52.6316 101.15 52.3958 100.86 52.0947C100.572 51.7853 100.348 51.4205 100.201 51.0217C100.054 50.6229 99.9863 50.1981 100.002 49.7722V48.23C99.9707 47.3737 100.271 46.5392 100.839 45.9075C101.119 45.6078 101.457 45.3721 101.833 45.216C102.208 45.0598 102.612 44.9869 103.017 45.0019C103.959 45.0019 104.695 45.2481 105.226 45.7404C105.492 45.9971 105.7 46.311 105.832 46.6595C105.965 47.0079 106.02 47.3822 105.993 47.755V47.7889H104.507C104.535 47.3636 104.406 46.943 104.146 46.6094C103.997 46.4637 103.82 46.352 103.626 46.2817C103.432 46.2115 103.225 46.1845 103.02 46.2023C102.806 46.1971 102.595 46.2464 102.405 46.3458C102.215 46.4451 102.052 46.5914 101.932 46.7712C101.649 47.1967 101.507 47.7034 101.528 48.2169V49.7618C101.505 50.2828 101.655 50.7965 101.952 51.2205C102.084 51.4032 102.257 51.5505 102.457 51.6497C102.656 51.7488 102.877 51.7968 103.099 51.7894C103.293 51.8061 103.488 51.7795 103.671 51.7115C103.854 51.6434 104.021 51.5356 104.158 51.3954C104.41 51.0628 104.532 50.6475 104.501 50.2289L105.991 50.2367Z" fill="#EB680D"/>
<path d="M113 53H111.519V49.6696H108.493V53H107V45H108.493V48.4378H111.519V45.0027H113V53Z" fill="#EB680D"/>
<path d="M122 53H120.517L117.526 47.5387H117.496V53H116V45H117.496L120.487 50.4559H120.517V45H122V53Z" fill="#EB680D"/>
<path d="M129.998 49.6993C130.013 50.1339 129.935 50.5668 129.767 50.9728C129.599 51.3788 129.346 51.7496 129.021 52.0635C128.692 52.3739 128.297 52.6172 127.86 52.7781C127.424 52.9389 126.957 53.0137 126.487 52.9977C126.021 53.0144 125.555 52.9399 125.122 52.779C124.688 52.618 124.296 52.3742 123.97 52.0635C123.648 51.7484 123.397 51.3772 123.23 50.9714C123.064 50.5656 122.987 50.1332 123.002 49.6993V48.3007C122.987 47.8675 123.065 47.4358 123.23 47.0305C123.396 46.6253 123.647 46.2543 123.968 45.9391C124.292 45.6276 124.683 45.3831 125.117 45.2217C125.55 45.0602 126.015 44.9855 126.482 45.0023C126.951 44.9866 127.419 45.0618 127.855 45.2231C128.291 45.3844 128.687 45.6283 129.016 45.9391C129.341 46.2522 129.595 46.6224 129.763 47.028C129.932 47.4336 130.01 47.8664 129.995 48.3007L129.998 49.6993ZM128.309 48.2929C128.333 47.759 128.16 47.2334 127.819 46.8029C127.661 46.6124 127.456 46.4598 127.222 46.3581C126.987 46.2564 126.729 46.2084 126.47 46.2183C126.214 46.2069 125.959 46.254 125.726 46.3554C125.494 46.4569 125.292 46.6096 125.139 46.8002C124.809 47.2364 124.644 47.761 124.669 48.2929V49.7046C124.642 50.2428 124.81 50.7738 125.147 51.2128C125.301 51.4032 125.502 51.556 125.733 51.6578C125.965 51.7597 126.22 51.8076 126.476 51.7973C126.735 51.8079 126.993 51.7603 127.228 51.6585C127.463 51.5567 127.667 51.4038 127.825 51.2128C128.164 50.7744 128.334 50.2434 128.309 49.7046V48.2929Z" fill="#EB680D"/>
<path d="M133.552 51.7575H137V53H132V45H133.56L133.552 51.7575Z" fill="#EB680D"/>
<path d="M143.998 49.6994C144.013 50.1339 143.935 50.5668 143.767 50.9728C143.599 51.3788 143.346 51.7496 143.021 52.0635C142.692 52.3739 142.297 52.6172 141.86 52.7781C141.424 52.9389 140.957 53.0137 140.487 52.9977C140.021 53.0144 139.555 52.9399 139.122 52.779C138.688 52.618 138.296 52.3742 137.97 52.0635C137.648 51.7485 137.397 51.3773 137.23 50.9714C137.064 50.5656 136.987 50.1332 137.002 49.6994V48.3007C136.987 47.8675 137.065 47.4359 137.23 47.0306C137.396 46.6253 137.647 46.2544 137.968 45.9392C138.292 45.6274 138.683 45.3827 139.116 45.2213C139.55 45.0598 140.015 44.9852 140.482 45.0024C140.951 44.9867 141.419 45.0619 141.855 45.2232C142.291 45.3845 142.687 45.6284 143.016 45.9392C143.341 46.2523 143.595 46.6225 143.763 47.0281C143.932 47.4337 144.01 47.8664 143.995 48.3007L143.998 49.6994ZM142.309 48.2929C142.333 47.7591 142.16 47.2335 141.819 46.8029C141.662 46.6123 141.458 46.4596 141.223 46.3579C140.989 46.2561 140.732 46.2083 140.473 46.2184C140.217 46.207 139.961 46.2541 139.729 46.3555C139.497 46.457 139.295 46.6097 139.142 46.8003C138.811 47.2359 138.646 47.7609 138.671 48.2929V49.7046C138.645 50.2424 138.812 50.773 139.147 51.2128C139.302 51.4035 139.504 51.5563 139.736 51.6582C139.969 51.76 140.225 51.8078 140.482 51.7974C140.741 51.8077 140.998 51.76 141.233 51.6582C141.468 51.5564 141.673 51.4037 141.83 51.2128C142.168 50.7741 142.338 50.2431 142.312 49.7046L142.309 48.2929Z" fill="#EB680D"/>
<path d="M151 51.8221C150.716 52.1754 150.355 52.4553 149.947 52.6397C149.38 52.897 148.764 53.0193 148.145 52.9975C147.728 53.0145 147.313 52.9445 146.924 52.7919C146.535 52.6392 146.18 52.4071 145.881 52.1094C145.587 51.8092 145.358 51.4497 145.207 51.0536C145.056 50.6575 144.986 50.2334 145.002 49.8082V48.1913C144.986 47.7693 145.053 47.3482 145.197 46.953C145.342 46.5578 145.562 46.1964 145.845 45.8901C146.128 45.595 146.467 45.3637 146.842 45.2108C147.216 45.0579 147.618 44.9868 148.02 45.002C148.939 45.002 149.644 45.2327 150.134 45.6942C150.381 45.9249 150.577 46.2076 150.709 46.5231C150.84 46.8386 150.904 47.1795 150.896 47.5226V47.554H149.467C149.459 47.1904 149.323 46.8422 149.084 46.5745C148.948 46.4457 148.787 46.3473 148.613 46.2852C148.438 46.2232 148.253 46.199 148.068 46.214C147.852 46.2074 147.637 46.2542 147.442 46.3506C147.247 46.4469 147.077 46.59 146.947 46.7678C146.649 47.1766 146.499 47.6786 146.52 48.1887V49.8213C146.497 50.3397 146.653 50.8498 146.962 51.2605C147.105 51.4415 147.287 51.5857 147.494 51.6818C147.7 51.7779 147.926 51.8233 148.152 51.8143C148.44 51.8227 148.726 51.7848 149.002 51.7019C149.183 51.6473 149.349 51.5528 149.49 51.4251V49.9675H148.152V48.8888H151V51.8221Z" fill="#EB680D"/>
<path d="M156.485 48.682H156.517L158.255 45H160L157.27 50.1822V53H155.669V50.099L153 45H154.745L156.485 48.682Z" fill="#EB680D"/>
<path d="M164 53V45.0019H166.702C167.137 44.9869 167.571 45.0618 167.978 45.2223C168.384 45.3827 168.755 45.6253 169.067 45.9356C169.378 46.2502 169.621 46.6273 169.781 47.043C169.941 47.4587 170.015 47.9039 169.997 48.3503V49.673C170.011 50.115 169.936 50.555 169.776 50.9659C169.616 51.3767 169.374 51.7495 169.067 52.0609C168.755 52.3708 168.384 52.613 167.978 52.773C167.571 52.933 167.137 53.0075 166.702 52.992L164 53ZM165.577 46.2441V51.7658H166.615C166.863 51.7774 167.11 51.7309 167.338 51.63C167.566 51.5291 167.768 51.3764 167.929 51.1836C168.263 50.7531 168.433 50.2136 168.407 49.665V48.3235C168.433 47.7782 168.263 47.2423 167.929 46.8156C167.768 46.6228 167.566 46.4701 167.338 46.3692C167.11 46.2683 166.863 46.2218 166.615 46.2334L165.577 46.2441Z" fill="#EB680D"/>
<path d="M173 53H171V45H173V53Z" fill="#EB680D"/>
<path d="M179.419 50.8755C179.425 50.7393 179.399 50.6036 179.344 50.4787C179.29 50.3539 179.208 50.2431 179.104 50.1548C178.77 49.9109 178.392 49.7336 177.991 49.6326C177.244 49.4458 176.537 49.1237 175.905 48.6822C175.675 48.5066 175.49 48.278 175.367 48.0158C175.244 47.7535 175.185 47.4654 175.197 47.1756C175.192 46.8675 175.264 46.5632 175.406 46.2898C175.548 46.0164 175.756 45.7825 176.01 45.609C176.62 45.1835 177.352 44.9706 178.095 45.0033C178.849 44.9708 179.59 45.2129 180.18 45.6847C180.434 45.8829 180.637 46.1383 180.773 46.4301C180.909 46.7219 180.974 47.0418 180.962 47.3636L180.949 47.395H179.44C179.446 47.2322 179.417 47.0701 179.355 46.9195C179.293 46.769 179.199 46.6337 179.08 46.5229C178.8 46.285 178.438 46.1652 178.072 46.1887C177.728 46.1661 177.387 46.264 177.107 46.4654C176.999 46.5486 176.911 46.6563 176.852 46.7797C176.792 46.9031 176.763 47.0387 176.766 47.1756C176.766 47.3063 176.799 47.4348 176.863 47.5487C176.927 47.6625 177.019 47.758 177.131 47.8258C177.524 48.0614 177.947 48.2415 178.39 48.3611C179.101 48.5273 179.766 48.8502 180.337 49.3063C180.554 49.499 180.726 49.7376 180.841 50.0048C180.955 50.2721 181.009 50.5614 180.999 50.852C181.008 51.1576 180.942 51.4607 180.805 51.7341C180.669 52.0076 180.466 52.2428 180.217 52.4186C179.602 52.8305 178.87 53.0329 178.132 52.9956C177.344 53.0122 176.571 52.7832 175.919 52.3403C175.619 52.1431 175.377 51.8703 175.216 51.5494C175.056 51.2285 174.982 50.8709 175.004 50.5125V50.4786H176.518C176.502 50.6698 176.532 50.8622 176.605 51.0394C176.679 51.2167 176.794 51.3736 176.94 51.4969C177.288 51.7318 177.703 51.8456 178.121 51.8207C178.465 51.8433 178.807 51.7516 179.093 51.5596C179.197 51.4788 179.28 51.3749 179.337 51.2561C179.394 51.1374 179.422 51.007 179.419 50.8755Z" fill="#EB680D"/>
<path d="M188 46.2345H185.784V53H184.205V46.2345H182V45H187.995L188 46.2345Z" fill="#EB680D"/>
<path d="M190.513 49.7984V53H189V45H191.831C192.688 45 193.344 45.2066 193.848 45.6226C194.088 45.8311 194.279 46.0969 194.406 46.3985C194.532 46.7002 194.589 47.0292 194.574 47.3589C194.584 47.7425 194.477 48.1193 194.269 48.4324C194.037 48.7525 193.729 49.0009 193.376 49.1516C193.765 49.2507 194.105 49.4992 194.332 49.8494C194.537 50.2136 194.638 50.6329 194.624 51.057V51.6447C194.626 51.8811 194.654 52.1164 194.71 52.3452C194.749 52.553 194.851 52.7416 195 52.8819V53H193.45C193.294 52.8471 193.197 52.6373 193.18 52.4123C193.141 52.1549 193.121 51.8947 193.119 51.634V51.0678C193.129 50.8986 193.106 50.7291 193.054 50.5692C193.001 50.4093 192.919 50.2622 192.812 50.1365C192.696 50.0217 192.56 49.9332 192.411 49.8765C192.263 49.8197 192.105 49.7959 191.947 49.8064L190.513 49.7984ZM190.513 48.5612H191.811C192.148 48.5897 192.483 48.4888 192.756 48.2768C192.865 48.1698 192.949 48.0383 193.003 47.892C193.057 47.7456 193.08 47.5882 193.069 47.4314C193.077 47.2709 193.053 47.1104 192.999 46.9602C192.945 46.8101 192.862 46.6735 192.756 46.5592C192.631 46.4431 192.485 46.3546 192.327 46.2989C192.169 46.2432 192.002 46.2213 191.836 46.2345H190.513V48.5612Z" fill="#EB680D"/>
<path d="M199 53H197V45H199V53Z" fill="#EB680D"/>
<path d="M200 53V45H202.702C203.646 45 204.38 45.1789 204.905 45.5367C205.168 45.7192 205.38 45.9659 205.521 46.2533C205.663 46.5408 205.728 46.8595 205.711 47.1791C205.716 47.5316 205.613 47.8771 205.415 48.1694C205.206 48.4716 204.907 48.7014 204.561 48.8269C204.991 48.9 205.375 49.1354 205.636 49.4844C205.878 49.8257 206.004 50.236 205.996 50.6545C206.017 50.9833 205.96 51.3125 205.828 51.6146C205.696 51.9167 205.494 52.1828 205.238 52.3908C204.733 52.7862 204.017 52.983 203.089 52.9812L200 53ZM201.612 48.3573H202.764C203.115 48.3782 203.463 48.2839 203.755 48.0889C203.871 47.9986 203.963 47.8816 204.023 47.7479C204.084 47.6142 204.111 47.4678 204.102 47.3214C204.111 47.1692 204.085 47.0169 204.024 46.8769C203.963 46.737 203.87 46.6134 203.753 46.5163C203.443 46.3182 203.078 46.2242 202.71 46.2479H201.612V48.3573ZM201.612 49.4656V51.7655H203.089C203.434 51.7906 203.778 51.6958 204.061 51.4971C204.176 51.3953 204.266 51.2686 204.324 51.1267C204.382 50.9849 204.407 50.8316 204.397 50.6786C204.42 50.3545 204.318 50.0339 204.113 49.7823C203.992 49.6706 203.85 49.5854 203.694 49.5322C203.539 49.4791 203.374 49.4591 203.21 49.4737L201.612 49.4656Z" fill="#EB680D"/>
<path d="M213.996 45V50.2347C214.017 50.6199 213.953 51.0048 213.808 51.3593C213.664 51.7138 213.443 52.028 213.164 52.2774C212.542 52.7795 211.772 53.0341 210.99 52.9961C210.211 53.0351 209.445 52.7802 208.829 52.2774C208.551 52.0267 208.333 51.712 208.19 51.3577C208.047 51.0034 207.983 50.6191 208.004 50.2347V45H209.508V50.2162C209.493 50.4287 209.52 50.6423 209.587 50.843C209.655 51.0438 209.762 51.2273 209.902 51.3816C210.204 51.6527 210.594 51.7909 210.99 51.7674C211.39 51.7909 211.785 51.654 212.093 51.3842C212.235 51.2306 212.343 51.0469 212.412 50.8455C212.481 50.6441 212.508 50.4296 212.492 50.2162V45H213.996Z" fill="#EB680D"/>
<path d="M221 46.2345H218.781V53H217.201V46.2345H215V45H221V46.2345Z" fill="#EB680D"/>
<path d="M224 53H222V45H224V53Z" fill="#EB680D"/>
<path d="M232.998 49.6994C233.013 50.1339 232.935 50.5668 232.767 50.9728C232.599 51.3788 232.346 51.7496 232.021 52.0635C231.692 52.3739 231.297 52.6172 230.86 52.7781C230.424 52.9389 229.957 53.0137 229.487 52.9977C229.021 53.0144 228.555 52.9399 228.122 52.779C227.688 52.618 227.296 52.3742 226.97 52.0635C226.648 51.7485 226.397 51.3773 226.23 50.9714C226.064 50.5656 225.987 50.1332 226.002 49.6994V48.3007C225.987 47.8675 226.065 47.4359 226.23 47.0306C226.396 46.6253 226.647 46.2544 226.968 45.9392C227.292 45.6274 227.683 45.3827 228.116 45.2213C228.55 45.0598 229.015 44.9852 229.482 45.0024C229.951 44.9867 230.419 45.0619 230.855 45.2232C231.291 45.3845 231.687 45.6284 232.016 45.9392C232.341 46.2523 232.595 46.6225 232.763 47.0281C232.932 47.4337 233.01 47.8664 232.995 48.3007L232.998 49.6994ZM231.309 48.2929C231.333 47.7591 231.16 47.2335 230.819 46.8029C230.661 46.6124 230.456 46.4599 230.222 46.3582C229.987 46.2564 229.729 46.2085 229.47 46.2184C229.214 46.207 228.959 46.2541 228.726 46.3555C228.494 46.457 228.292 46.6097 228.139 46.8003C227.809 47.2365 227.644 47.761 227.669 48.2929V49.7046C227.642 50.2428 227.81 50.7739 228.147 51.2128C228.3 51.4028 228.501 51.5554 228.732 51.6572C228.963 51.7591 229.218 51.8072 229.473 51.7974C229.732 51.8079 229.99 51.7603 230.225 51.6585C230.46 51.5567 230.665 51.4038 230.822 51.2128C231.161 50.7744 231.331 50.2434 231.306 49.7046L231.309 48.2929Z" fill="#EB680D"/>
<path d="M240 53H238.507L235.522 47.5387H235.493V53H234V45H235.493L238.478 50.4559H238.507V45H240V53Z" fill="#EB680D"/>
<path d="M37 53C39.2091 53 41 51.2091 41 49C41 46.7909 39.2091 45 37 45C34.7909 45 33 46.7909 33 49C33 51.2091 34.7909 53 37 53Z" fill="#EB680D"/>
<path d="M26 53C28.2091 53 30 51.2091 30 49C30 46.7909 28.2091 45 26 45C23.7909 45 22 46.7909 22 49C22 51.2091 23.7909 53 26 53Z" fill="#EB680D"/>
<path d="M15 53C17.2091 53 19 51.2091 19 49C19 46.7909 17.2091 45 15 45C12.7909 45 11 46.7909 11 49C11 51.2091 12.7909 53 15 53Z" fill="#EB680D"/>
<path d="M21.223 33H10.6741V8.3438H1V1H31V8.46028H21.223V33Z" fill="#B2B4B4"/>
<path d="M35 1H61.3068V8.2319H45.7844V13.771H56.7843V19.6544H45.7844V25.7526H62V33H35V1Z" fill="#B2B4B4"/>
<path d="M65 1.01552H75.5891V33H65V1.01552ZM75.943 16.599L87.901 1H101.099L87.1132 16.1565L102 33H88.1282L75.943 16.599Z" fill="#B2B4B4"/>
<path d="M116.064 22.3609V33H108V1H119.705C130.612 1 133 6.43601 133 11.5096C133 17.0492 129.129 22.247 120.382 22.247L116.079 22.3609H116.064ZM116.064 6.87089V16.4771H119.474C122.998 16.4771 124.697 15.4598 124.697 11.6106C124.697 7.98657 122.998 6.85536 119.474 6.85536L116.064 6.87089Z" fill="#EB690F"/>
<path d="M174 1H182V33H174V1Z" fill="#EB690F"/>
<path d="M195.503 11.3957H194.949V33H188V1H197.969L209.508 22.3765H210.062V1H217V33H207.146L195.503 11.3957Z" fill="#EB690F"/>
<path d="M239.17 33H230.846V7.21259H221V1H249V7.21259H239.17V33Z" fill="#EB690F"/>
<path d="M153.003 1C149.64 0.999484 146.353 1.99614 143.557 3.86393C140.761 5.73171 138.582 8.38672 137.295 11.4932C136.008 14.5996 135.671 18.018 136.327 21.3159C136.982 24.6138 138.602 27.6432 140.979 30.0208C143.357 32.3985 146.386 34.0176 149.684 34.6735C152.982 35.3293 156.4 34.9925 159.507 33.7054C162.613 32.4184 165.268 30.2391 167.136 27.4431C169.004 24.647 170.001 21.3599 170 17.9974C169.99 13.4926 168.196 9.17523 165.01 5.98984C161.825 2.80446 157.507 1.01034 153.003 1ZM153.003 27.8042C151.063 27.8047 149.167 27.23 147.554 26.1527C145.94 25.0754 144.683 23.544 143.94 21.7521C143.198 19.9602 143.003 17.9883 143.381 16.0858C143.759 14.1833 144.693 12.4356 146.065 11.0639C147.436 9.6921 149.183 8.75783 151.086 8.37922C152.988 8.00062 154.96 8.19467 156.752 8.93685C158.544 9.67902 160.076 10.936 161.154 12.5488C162.232 14.1615 162.807 16.0577 162.807 17.9974C162.924 23.4543 158.475 27.7937 153.003 27.7937V27.8042Z" fill="#EB690F"/>
<path d="M153 23C155.761 23 158 20.7614 158 18C158 15.2386 155.761 13 153 13C150.239 13 148 15.2386 148 18C148 20.7614 150.239 23 153 23Z" fill="#B2B4B4"/>
</svg>
