<svg width="32" height="32" viewBox="0 0 32 32" fill="none" xmlns="http://www.w3.org/2000/svg">
<path d="M8.03125 4.31875C3.7375 6.6875 0.16875 8.6875 0.1125 8.75625C0.00625 8.88125 0 9.525 0 20.2625V31.6375L0.18125 31.8187L0.3625 32H1.86875C3.3625 32 3.36875 32 3.54375 31.85L3.71875 31.7L3.7375 24.3812L3.75 17.0625H16H28.25L28.2625 24.3812L28.2812 31.7L28.4563 31.85C28.6313 32 28.6375 32 30.1313 32H31.6375L31.8188 31.8187L32 31.6375V20.5375V9.4375L31.8313 9.25625C31.5875 9.00625 16.1812 0 15.9938 0C15.9125 0.00625038 12.3313 1.94375 8.03125 4.31875ZM23.525 5.5625L30.9375 9.90625V20.4187V30.9375H30.125H29.3125V21.5V12.0562L29.1562 11.9062L29.0063 11.75H16H2.99375L2.84375 11.9062L2.6875 12.0562V21.5V30.9375H1.875H1.0625L1.075 20.15L1.09375 9.36875L8.5 5.275C12.575 3.025 15.9563 1.19375 16.0125 1.20625C16.0688 1.2125 19.45 3.175 23.525 5.5625ZM28.25 13.3438V13.875H16H3.75V13.3438V12.8125H16H28.25V13.3438ZM28.25 15.4688V16H16H3.75V15.4688V14.9375H16H28.25V15.4688Z" fill="white"/>
<path d="M13.2063 7.48125C13.125 7.49375 13.0063 7.58125 12.9375 7.66875C12.8188 7.81875 12.8125 7.91875 12.8125 9.06875C12.8125 10.2875 12.8125 10.3063 12.9625 10.4813L13.1125 10.6562H16H18.8875L19.0375 10.4813C19.1875 10.3063 19.1875 10.2875 19.1875 9.0625C19.1875 7.8375 19.1875 7.81875 19.0375 7.64375L18.8875 7.46875L16.1125 7.4625C14.5938 7.45625 13.2812 7.4625 13.2063 7.48125ZM18.125 9.09375V9.625H16H13.875V9.09375V8.5625H16H18.125V9.09375Z" fill="white"/>
<path d="M20.0312 18.2C19.9625 18.2375 19.8812 18.3125 19.8438 18.3687C19.8063 18.4312 19.7688 19.6438 19.75 21.5L19.7188 24.5312L16.6813 24.55L13.6438 24.5625L13.4938 24.725L13.3438 24.8875V28.2938V31.7L13.5187 31.85L13.6937 32H20.225C26.9625 32 26.9187 32 27.1062 31.7562C27.1687 31.6813 27.1813 30.1437 27.1875 25.0563V18.4563L27.025 18.3062L26.8625 18.1562L23.5125 18.1438C21.0813 18.1312 20.1188 18.1438 20.0312 18.2ZM21.875 20.0938C21.875 20.9812 21.8813 21.0125 22.0312 21.1562C22.1813 21.3125 22.1875 21.3125 23.4688 21.3125H24.7563L24.9062 21.15C25.0563 20.9875 25.0625 20.95 25.0625 20.0875V19.1875H25.5938H26.125V21.8438V24.5H23.4688H20.8125V21.8438V19.1875H21.3438H21.875V20.0938ZM24 19.7188V20.25H23.4688H22.9375V19.7188V19.1875H23.4688H24V19.7188ZM15.4375 26.3562C15.4375 27.3 15.5 27.5437 15.7812 27.6625C16.0812 27.7875 18.0438 27.7875 18.3375 27.6625C18.625 27.5437 18.6875 27.3187 18.6875 26.4V25.625H19.2188H19.75L19.7375 28.2625L19.7188 30.9062L17.05 30.925L14.375 30.9375V28.2812V25.625H14.9062H15.4375V26.3562ZM17.6125 26.1375L17.5938 26.6562L17.0812 26.675L16.5625 26.6937V26.1562V25.625H17.0938H17.6312L17.6125 26.1375ZM21.875 26.4938C21.875 27.325 21.8813 27.375 22.025 27.5437L22.175 27.7188H23.4688H24.7625L24.9125 27.5437C25.0563 27.375 25.0625 27.325 25.0625 26.4938V25.625H25.5938H26.125V28.2812V30.9375H23.4688H20.8125V28.2812V25.625H21.3438H21.875V26.4938ZM24 26.1562V26.6875H23.4688H22.9375V26.1562V25.625H23.4688H24V26.1562Z" fill="white"/>
</svg>
