<svg width="32" height="33" viewBox="0 0 32 33" fill="none" xmlns="http://www.w3.org/2000/svg">
<path d="M22.6313 0.109573C22.3125 0.225589 21.95 0.573636 21.7812 0.934573C21.6625 1.17949 21.6562 1.33418 21.6562 3.73828C21.6562 6.22617 21.6562 6.29063 21.7938 6.542C21.8688 6.68379 22.0188 6.89004 22.1375 7.00606C22.4938 7.36055 22.75 7.43145 23.7062 7.46368L24.5688 7.48946L24.5375 7.66348C24.425 8.22422 24.0563 10.5252 24.075 10.5703C24.0875 10.6025 25.1938 9.91934 26.5312 9.04922L28.9688 7.47657H29.7C30.1 7.47657 30.575 7.44434 30.75 7.40567C31.1813 7.30899 31.5563 7.00606 31.7625 6.58067L31.9375 6.22618V3.7125C31.9375 1.40508 31.925 1.17305 31.8188 0.934573C31.675 0.605863 31.2063 0.174026 30.8875 0.0773468C30.7125 0.0193386 29.5687 2.86102e-06 26.775 0.00644779C23.4563 0.00644779 22.8687 0.0257845 22.6313 0.109573ZM30.7812 1.25684L30.9375 1.41153V3.67383C30.9375 5.98125 30.925 6.11661 30.6938 6.29707C30.625 6.34864 30.2937 6.37442 29.6625 6.38086H28.725L27.1125 7.41856C26.225 7.99219 25.4875 8.44981 25.475 8.43692C25.4625 8.42403 25.5312 7.95352 25.625 7.39278L25.7938 6.38086H24.3937H22.9937L22.8438 6.21973L22.6875 6.06504V3.73184C22.6875 1.41797 22.6875 1.39219 22.825 1.24395L22.9563 1.09571H26.7938H30.6313L30.7812 1.25684Z" fill="white"/>
<path d="M23.7001 2.65547L23.7189 3.19043L26.8001 3.20977L29.8751 3.22266V2.6748V2.12695H26.7814H23.6814L23.7001 2.65547Z" fill="white"/>
<path d="M23.7001 4.78242L23.7189 5.31738L25.7689 5.33672L27.8126 5.34961V4.80176V4.25391H25.7501H23.6814L23.7001 4.78242Z" fill="white"/>
<path d="M28.875 4.80176V5.34961H29.375H29.875V4.80176V4.25391H29.375H28.875V4.80176Z" fill="white"/>
<path d="M14.5938 1.64999C13.95 1.72089 12.7438 1.95937 12.1438 2.13339C9.70004 2.84238 7.56254 4.12499 5.78129 5.96191C4.00629 7.78593 2.78129 9.91289 2.10004 12.3492L1.89379 13.1033L1.43754 12.317C1.18754 11.8852 0.956288 11.5178 0.925038 11.4984C0.887538 11.4727 0.250038 11.8207 0.0687884 11.9625C0.0500384 11.9818 1.46254 14.4568 1.80629 15.0111C1.85004 15.0756 2.18754 14.8951 3.35004 14.1797C4.17504 13.6705 4.85004 13.2516 4.86254 13.2451C4.87504 13.2322 4.42504 12.4266 4.35004 12.3299C4.35004 12.3234 4.05004 12.5039 3.68754 12.7295C3.32504 12.9615 3.01254 13.1484 2.98754 13.1484C2.92504 13.1484 3.17504 12.2783 3.46879 11.4984C5.03754 7.32187 8.43754 4.22167 12.6625 3.09374C14.75 2.53945 17.1563 2.533 19.2688 3.09374L19.9375 3.26777L20.0875 2.77792C20.2 2.41699 20.2188 2.27519 20.1625 2.24296C20.0313 2.16562 19.0813 1.93359 18.3313 1.79824C17.7625 1.69511 17.2813 1.65644 16.2188 1.64355C15.4625 1.63066 14.7313 1.6371 14.5938 1.64999Z" fill="white"/>
<path d="M14.969 5.3947C13.6878 5.60095 12.3628 6.26481 11.394 7.18005C10.5315 7.9986 9.78778 9.28766 9.45653 10.5509L9.28778 11.1826L9.28153 13.8252V16.4677L9.44403 16.8222C9.68153 17.3443 9.95653 17.6343 10.4503 17.8793L10.894 18.0984L11.0628 18.6527C11.1628 18.9621 11.3628 19.4326 11.5128 19.7033C11.8128 20.2576 12.6003 21.1277 13.0753 21.4306C13.2878 21.566 13.3753 21.6691 13.3753 21.7658C13.3753 21.9269 13.5253 21.8883 11.1753 22.333C10.3315 22.4877 9.48153 22.681 9.29403 22.7519C8.29403 23.1386 7.53153 23.9572 7.15028 25.0593C7.05653 25.3365 6.96278 25.575 6.93778 25.6008C6.91903 25.633 6.48778 25.2205 5.98153 24.6984C4.73778 23.4029 4.73153 23.5898 6.13778 22.1267L7.21903 21.0117L5.31278 19.0459L3.40653 17.0736L2.02528 18.5109C0.862784 19.7226 0.612784 20.0127 0.450284 20.3672C0.144034 21.0246 0.0440341 21.5144 0.0752841 22.2621C0.106534 22.984 0.237784 23.448 0.575284 24.0152C0.706534 24.2408 2.12528 25.749 4.68153 28.3787C8.33778 32.1299 8.62528 32.407 9.02528 32.6068C10.1503 33.1547 11.519 33.0967 12.5003 32.4586C12.669 32.349 13.4565 31.6465 14.244 30.9052L15.6815 29.5517L15.294 29.1521L14.9128 28.7461H20.4253C23.4565 28.7461 25.9378 28.7267 25.9378 28.6945C25.9378 28.5269 24.6628 24.75 24.494 24.4148C24.2253 23.8992 23.5815 23.2353 23.094 22.9646C22.5753 22.6875 22.2628 22.6037 20.469 22.2685C18.394 21.8818 18.5628 21.9269 18.569 21.7658C18.569 21.6691 18.7128 21.5144 19.044 21.2695C19.3065 21.0761 19.6378 20.7668 19.794 20.5863L20.069 20.2511L20.8003 20.2254C21.3878 20.206 21.5815 20.1738 21.7815 20.0642C22.1003 19.8902 22.3503 19.6324 22.5253 19.3037C22.6565 19.0459 22.6565 19.0136 22.6565 15.2431C22.6565 11.8271 22.644 11.3888 22.544 10.9054C21.9878 8.24352 20.1565 6.24548 17.6253 5.53649C17.269 5.43337 16.919 5.40114 16.1565 5.38181C15.6065 5.36892 15.0753 5.37536 14.969 5.3947ZM16.894 6.47751C18.9378 6.84489 20.6565 8.3402 21.319 10.3318C21.569 11.0859 21.6253 11.5435 21.6253 12.9035V14.1023L21.3753 14.0056C21.1315 13.9025 21.1253 13.8961 21.1253 13.5867V13.2773H20.5315C19.0128 13.2773 17.5815 12.6392 16.444 11.4468L15.9815 10.9634L15.4315 11.4984C14.194 12.7166 12.9253 13.2773 11.4065 13.2773H10.8128V13.5867C10.8128 13.8961 10.8065 13.9025 10.5565 14.0056L10.3003 14.1088L10.3315 12.6134C10.3628 10.9441 10.4003 10.7314 10.819 9.80974C11.569 8.14684 13.0378 6.91579 14.694 6.54841C15.5878 6.35505 16.119 6.33571 16.894 6.47751ZM16.4065 12.8455C17.219 13.5351 18.394 14.083 19.4065 14.2441C19.6815 14.2892 19.944 14.3343 19.9878 14.3472C20.044 14.3666 20.0628 14.7468 20.0628 15.9972C20.0628 17.7504 20.019 18.0791 19.7253 18.7687L19.5628 19.1425L17.769 19.1554L15.969 19.1748V19.6904V20.206L17.3128 20.2383L18.6565 20.2705L18.3628 20.4832C17.919 20.799 17.344 21.0633 16.8253 21.1793C16.2065 21.3211 15.2503 21.2759 14.6878 21.0826C13.419 20.6379 12.4503 19.6131 12.019 18.2724C11.8628 17.7826 11.8565 17.6795 11.8253 16.0875C11.794 14.2634 11.7878 14.3086 12.1628 14.3086C12.4628 14.3086 13.4878 14.025 14.0003 13.7929C14.4815 13.5867 15.569 12.8777 15.7753 12.6392C15.844 12.5619 15.919 12.5039 15.9503 12.5039C15.9815 12.5039 16.1815 12.6586 16.4065 12.8455ZM10.8128 15.9972V16.906L10.6503 16.7513C10.5628 16.6675 10.4503 16.5193 10.4003 16.4226C10.294 16.2164 10.2878 15.7072 10.3815 15.5138C10.4753 15.3334 10.694 15.082 10.7628 15.082C10.7878 15.082 10.8128 15.4945 10.8128 15.9972ZM21.5128 15.4752C21.7315 15.8941 21.6378 16.4162 21.2878 16.7513L21.1253 16.906V15.9908V15.0691L21.2628 15.1593C21.3378 15.2109 21.4503 15.3527 21.5128 15.4752ZM21.6253 18.3369C21.6253 18.7687 21.6065 18.8461 21.469 18.9814C21.3503 19.1103 21.2565 19.1425 21.0128 19.1425H20.7065L20.8503 18.7043C20.9315 18.4658 21.0003 18.2273 21.0003 18.1758C21.0003 18.092 21.3628 17.8986 21.5815 17.8599C21.6065 17.8599 21.6253 18.0726 21.6253 18.3369ZM5.50028 21.3017L5.21903 21.5918L4.03153 20.3672L2.85028 19.1425L3.12528 18.8525L3.40653 18.5625L4.59403 19.7871L5.78153 21.0117L5.50028 21.3017ZM4.28778 22.5908C3.96278 23.0742 3.92528 23.7058 4.18153 24.215C4.36903 24.5888 8.35028 28.6494 8.65653 28.7847C9.13778 28.991 9.88153 28.875 10.219 28.5527C10.3503 28.4302 10.3503 28.4302 11.5315 29.6549L12.719 30.8795L12.394 31.1953C12.2128 31.3693 11.9003 31.5884 11.7065 31.6916C11.369 31.8592 11.2878 31.872 10.6253 31.872C9.45028 31.872 9.78154 32.1427 5.33153 27.5601C1.16278 23.2675 1.27528 23.4029 1.11278 22.4941C0.975284 21.7336 1.23153 20.8828 1.79403 20.2383L2.08153 19.9031L3.26278 21.1277L4.45028 22.3459L4.28778 22.5908ZM16.0003 22.3201C16.5065 22.3201 16.9003 22.2814 17.1253 22.217C17.3128 22.1654 17.4753 22.1267 17.4815 22.1332C17.4878 22.1396 17.1503 22.5006 16.7315 22.9324L15.969 23.7187L15.194 22.9195L14.419 22.1203L14.819 22.2234C15.0815 22.2879 15.4815 22.3265 16.0003 22.3201ZM14.8253 24.0861L15.9378 25.2334L17.0565 24.0797L18.1753 22.9259L20.1378 23.2933C21.719 23.5898 22.169 23.6929 22.4753 23.8476C22.9003 24.0603 23.2878 24.4148 23.5315 24.8144C23.669 25.0336 24.5003 27.4312 24.5003 27.5988C24.5003 27.6246 22.1003 27.6504 19.169 27.6504H13.844L12.8753 26.6513C12.344 26.1035 11.8815 25.6523 11.8565 25.6523C11.8253 25.6523 11.4003 26.0261 10.9128 26.4773C9.50028 27.805 9.45028 27.8437 9.23778 27.8437C9.07528 27.8437 8.93778 27.7342 8.40653 27.1927L7.76278 26.5418L8.00653 25.8006C8.28153 24.9562 8.52528 24.5244 8.90028 24.2021C9.38778 23.7961 9.74403 23.68 11.6565 23.3062C12.6565 23.1193 13.5253 22.9582 13.594 22.9517C13.6753 22.9453 14.094 23.332 14.8253 24.0861ZM13.8628 29.8224L13.5315 30.164L12.344 28.9394L11.1565 27.7084L11.494 27.3861L11.8315 27.0574L13.0065 28.2691L14.1878 29.4873L13.8628 29.8224Z" fill="white"/>
<path d="M28.6 10.0676C28.55 10.1514 28.1438 10.8475 27.6938 11.6209L26.8813 13.0195L27.1438 13.1871C27.2875 13.2773 27.4688 13.3934 27.5438 13.4449C27.6188 13.4965 27.7063 13.5352 27.7313 13.5352C27.7625 13.5352 27.975 13.2 28.2125 12.7875C28.5 12.2977 28.6625 12.0721 28.6938 12.1301C28.7188 12.1752 28.8125 12.491 28.9 12.8262C29.9625 16.8609 29.2 21.1986 26.8438 24.5889C26.6438 24.8725 26.475 25.1367 26.4563 25.1754C26.4313 25.2398 27.0938 25.8457 27.1938 25.8457C27.2688 25.8457 27.9625 24.8209 28.3875 24.0861C29.725 21.7658 30.3875 19.2457 30.3938 16.5C30.3938 15.0176 30.1875 13.5223 29.8125 12.2525C29.7438 12.0205 29.7 11.8271 29.7063 11.8143C29.725 11.8014 30.2688 12.1301 30.9813 12.5748L31.1813 12.7037L31.4438 12.2461C31.5875 11.9947 31.6938 11.782 31.6813 11.7691C31.65 11.7369 28.975 10.0805 28.8125 9.99023C28.7125 9.93867 28.675 9.95156 28.6 10.0676Z" fill="white"/>
</svg>
