<svg width="34" height="34" viewBox="0 0 34 34" fill="none" xmlns="http://www.w3.org/2000/svg">
<path d="M21.7399 0.648701C20.8466 0.809422 19.8698 1.22087 19.1564 1.72874C18.6744 2.0759 17.9354 2.8345 17.6012 3.32309L17.2991 3.76025H16.6565C15.1912 3.76668 13.4818 4.12026 11.9779 4.73743L11.3546 4.98815L10.9561 4.66028C10.2106 4.03669 9.45873 3.76025 8.52045 3.76025C7.47292 3.76025 6.63747 4.10098 5.91126 4.821C4.64523 6.08748 4.44601 7.99041 5.4357 9.50761L5.72489 9.95763L5.20434 10.9862C4.41388 12.5613 3.98972 14.0078 3.81621 15.6986L3.73909 16.4893H3.07073C2.33167 16.4893 2.06176 16.5857 1.80469 16.9265C1.67616 17.0936 1.67616 17.2158 1.65688 22.6095L1.64403 28.119L1.38697 28.1897C1.07207 28.2733 0.750737 28.5369 0.641486 28.8133C0.583646 28.9483 0.551514 29.2826 0.551514 29.752C0.551514 30.6584 0.673618 30.967 1.1299 31.192C1.39982 31.3334 1.48979 31.3399 2.74297 31.3399H4.07327L4.37532 31.7899C5.83415 33.9821 9.07956 34.0078 10.487 31.8285L10.8019 31.3463H13.8288L16.8493 31.3399L16.9521 31.5456C17.2799 32.2335 18.2438 33.0178 19.0793 33.2814C19.6834 33.4742 20.7181 33.4871 21.245 33.3071C22.1319 33.0114 23.0059 32.3235 23.3658 31.6485L23.52 31.3463L24.4262 31.327C25.3066 31.3077 25.3452 31.3013 25.5701 31.1277C25.9686 30.8256 26.0007 30.697 26.0007 29.5591C26.0007 28.6719 25.9814 28.4533 25.8272 27.8233L25.6537 27.1033L26.3927 26.3447C26.7976 25.9268 27.2667 25.4061 27.4402 25.1875L27.7551 24.7825L28.7448 26.1068C29.2911 26.8333 29.7602 27.4054 29.7924 27.3797C30.133 27.0004 32.9671 23.1046 33.0956 22.8281C33.764 21.4138 33.4684 19.7616 32.3373 18.6365C31.836 18.1351 31.2062 17.7751 30.5957 17.6401L30.2422 17.5629V16.74C30.2422 14.7985 29.7474 12.8377 28.7962 10.9798L28.3914 10.1891L28.6484 9.60404C29.0662 8.62686 29.1754 8.06755 29.1754 6.91037C29.169 5.81104 29.079 5.36102 28.6934 4.43527C27.5752 1.7416 24.6126 0.127968 21.7399 0.648701ZM24.1113 1.76731C25.9236 2.22376 27.3695 3.61239 27.9415 5.43174C28.07 5.84961 28.0893 6.04248 28.0893 6.91037C28.0893 8.8583 27.9736 9.08331 25.0688 12.7927C23.8671 14.3228 22.8645 15.5764 22.8388 15.57C22.8067 15.5571 19.5998 11.5005 18.6616 10.2791C17.0613 8.19613 17.1899 5.21959 18.9508 3.32952C19.7155 2.51306 20.5124 2.03733 21.5985 1.76089C22.2476 1.60017 23.4429 1.60017 24.1113 1.76731ZM9.58083 5.03315C10.05 5.25816 10.5641 5.70175 10.7955 6.10034C11.1939 6.78179 11.2646 7.75254 10.9561 8.45329C10.8726 8.64615 10.2878 9.49475 9.65795 10.3369L8.51402 11.8734L7.33796 10.2984C6.66317 9.39832 6.11049 8.59472 6.0398 8.41471C5.94982 8.17685 5.91769 7.93255 5.91769 7.42467C5.91769 6.78822 5.93054 6.7175 6.12977 6.31892C6.36112 5.84319 6.77242 5.38674 7.19658 5.14244C7.89065 4.73743 8.84178 4.69243 9.58083 5.03315ZM16.785 4.93029C16.2452 6.74322 16.4444 8.66544 17.3377 10.2019C17.5176 10.5105 21.3671 15.5057 22.8195 17.3122C22.8324 17.3251 23.8992 15.9814 25.1974 14.3228C26.4955 12.6706 27.6009 11.2755 27.6459 11.2241C27.7166 11.1405 27.7744 11.2241 28.0315 11.7706C28.7834 13.3842 29.214 15.2871 29.214 16.9972V17.5693L28.8798 17.6465C26.3027 18.2444 25.1845 21.3945 26.804 23.5096C26.9261 23.6767 27.0289 23.8503 27.0289 23.8953C27.0289 24.011 26.3092 24.9111 25.7822 25.4704C25.4866 25.7854 25.358 25.8818 25.3323 25.8111C25.313 25.7597 25.011 24.5575 24.6575 23.1496C23.9378 20.2759 23.9185 20.218 23.2951 19.8709L22.9481 19.6716L20.2361 19.6523L17.5176 19.633V18.4244C17.5176 17.2736 17.5112 17.2029 17.3698 16.9972C17.2927 16.8815 17.1256 16.7143 17.0099 16.6372L16.7914 16.4893H10.8276C7.55004 16.4893 4.85088 16.47 4.83803 16.4379C4.79304 16.3543 4.91515 15.255 5.05653 14.5607C5.27504 13.4549 5.79559 12.0148 6.28401 11.1662L6.44467 10.8898L7.46007 12.2463C8.01918 12.992 8.50117 13.5899 8.52688 13.5835C8.63613 13.5449 11.6181 9.50118 11.798 9.15403C12.235 8.29899 12.3378 7.23824 12.0615 6.39606C11.9908 6.16463 11.9265 5.9589 11.9265 5.93319C11.9265 5.86247 13.2118 5.38031 13.8545 5.20673C14.6385 5.00101 15.7568 4.82743 16.5472 4.80172C16.8107 4.78886 16.8236 4.79529 16.785 4.93029ZM6.92666 19.543L6.94594 21.5681L8.25053 20.9059L9.5487 20.2502L10.8661 20.9123C11.5923 21.2723 12.1964 21.5681 12.2157 21.5681C12.235 21.5681 12.2479 20.6552 12.2479 19.543V17.5179H14.3686H16.4894V22.8217V28.1255H13.6488H10.8019L10.5834 27.7719C9.56155 26.1454 7.48577 25.5796 5.75703 26.454C5.56423 26.5504 5.26861 26.7433 5.10152 26.8847C4.77376 27.1483 4.24679 27.7976 4.18252 28.0033C4.14396 28.1126 4.0797 28.1255 3.40491 28.1255H2.67228V22.8217V17.5179H4.79304H6.91381L6.92666 19.543ZM11.1553 18.6751C11.1553 19.3116 11.1425 19.8323 11.1232 19.8323C11.1039 19.8323 10.7505 19.6651 10.3327 19.453L9.58083 19.0737L8.84178 19.453C8.4369 19.6587 8.08344 19.8259 8.05774 19.8259C8.0256 19.8323 8.00632 19.3116 8.00632 18.6751V17.5179H9.58083H11.1553V18.6751ZM30.9042 18.8873C31.4633 19.1637 31.8746 19.5751 32.1509 20.1409C32.318 20.4816 32.3309 20.5652 32.3309 21.2466C32.3309 21.8574 32.3051 22.0374 32.1959 22.2752C32.0352 22.6224 29.7988 25.6311 29.7217 25.6054C29.6895 25.5925 29.1626 24.9046 28.5392 24.0753C27.3117 22.4295 27.1639 22.1467 27.1061 21.3945C27.0354 20.3337 27.6652 19.2858 28.6356 18.8487C29.079 18.6494 29.2654 18.6172 29.8695 18.6301C30.3643 18.6494 30.48 18.6751 30.9042 18.8873ZM22.8774 20.8738C22.9738 20.9638 23.0766 21.1631 23.1344 21.3881L23.2244 21.7609H21.9005C20.2361 21.7609 20.0047 21.8445 19.7348 22.4874C19.6255 22.7574 19.5998 23.8503 19.7027 24.1975C19.7669 24.4225 20.0176 24.7375 20.2489 24.8661C20.3325 24.9175 20.988 24.9561 22.2026 24.9753L24.0342 25.0075L24.4069 26.4861C24.6061 27.2961 24.7796 28.0033 24.7796 28.0419C24.7796 28.1062 24.6126 28.1255 24.1563 28.1255H23.5265L23.3337 27.7976C22.9031 27.0711 22.0355 26.4218 21.1422 26.1582C20.6088 25.9975 19.6705 26.0104 19.1243 26.1904C18.6744 26.3318 18.0382 26.6854 17.7683 26.9426C17.6783 27.0261 17.5883 27.0968 17.5626 27.0968C17.5369 27.0968 17.5176 25.6632 17.5176 23.9146V20.7323H20.114H22.7167L22.8774 20.8738ZM23.52 22.9631C23.5393 23.0274 23.5843 23.2074 23.6229 23.3681C23.6614 23.5289 23.7064 23.7089 23.7257 23.7667C23.7578 23.876 23.655 23.8824 22.2476 23.8824H20.7309V23.3681V22.8538H22.1062C23.3658 22.8538 23.4879 22.8667 23.52 22.9631ZM8.5333 27.3347C9.89573 27.984 10.4613 29.5077 9.84432 30.8577C9.61939 31.3527 9.10527 31.8735 8.59114 32.1306C8.19269 32.3235 8.12843 32.3363 7.46007 32.3363C6.80456 32.3363 6.72101 32.3235 6.32899 32.137C4.63238 31.3334 4.28535 29.0705 5.66706 27.8104C6.24545 27.2833 6.79813 27.084 7.60145 27.1226C8.01918 27.1419 8.21197 27.1869 8.5333 27.3347ZM21.2707 27.3411C22.3697 27.8554 23.0059 29.0319 22.7938 30.157C22.6332 31.0377 22.1126 31.7385 21.3222 32.1242C20.9173 32.3235 20.8594 32.3363 20.1847 32.3363C19.5484 32.3363 19.4392 32.317 19.105 32.1628C18.3274 31.7963 17.7297 31.0249 17.5755 30.1698C17.3827 29.1091 17.9546 27.9455 18.9186 27.4311C19.4327 27.1547 19.7027 27.0968 20.326 27.1226C20.7502 27.1419 20.9366 27.1869 21.2707 27.3411ZM3.76479 29.7327V30.247H2.70441H1.64403V29.7327V29.2184H2.70441H3.76479V29.7327ZM16.4894 29.7327V30.247H13.8224H11.1553V29.7327V29.2184H13.8224H16.4894V29.7327ZM24.9724 29.7327V30.247H24.4262H23.8799V29.7327V29.2184H24.4262H24.9724V29.7327Z" fill="white"/>
<path d="M21.9842 2.76379C20.4868 3.09165 19.3301 4.12027 18.8224 5.57318C18.5974 6.2032 18.5524 7.14181 18.7067 7.83612C18.9766 9.05117 19.8442 10.1698 20.9367 10.6969C21.9778 11.2048 23.096 11.282 24.1821 10.9348C26.1679 10.2919 27.4082 8.18328 27.0034 6.13891C26.5407 3.79882 24.2528 2.26234 21.9842 2.76379ZM24.2207 4.06883C25.3389 4.62171 26.0008 5.68247 26.0008 6.90394C26.0008 7.46968 25.898 7.89398 25.6474 8.38257C25.4417 8.80044 24.9404 9.34046 24.5291 9.60405C22.9675 10.6069 20.821 9.9962 19.9984 8.31828C19.2786 6.83965 19.7542 5.16173 21.1488 4.23598C21.7143 3.85668 22.1256 3.75382 22.9611 3.77954C23.6616 3.79882 23.7001 3.81168 24.2207 4.06883Z" fill="white"/>
<path d="M7.90327 5.97176C7.61407 6.10034 7.24776 6.4475 7.09994 6.73036C6.7015 7.51468 7.00997 8.434 7.80687 8.85187C8.84797 9.39832 10.0883 8.63329 10.0883 7.45682C10.0883 6.77537 9.64486 6.13891 9.04077 5.95891C8.71301 5.85605 8.1539 5.8689 7.90327 5.97176ZM8.77085 7.0068C9.32996 7.2961 8.92509 8.13827 8.32742 7.93255C7.97396 7.80398 7.88399 7.34753 8.16675 7.07109C8.3467 6.88466 8.51379 6.8718 8.77085 7.0068Z" fill="white"/>
<path d="M13.2761 14.8821V15.3964H13.8224H14.3686V14.8821V14.3678H13.8224H13.2761V14.8821Z" fill="white"/>
<path d="M15.397 14.8821V15.3964H15.9432H16.4895V14.8821V14.3678H15.9432H15.397V14.8821Z" fill="white"/>
<path d="M17.5176 14.8821V15.3964H18.0638H18.6101V14.8821V14.3678H18.0638H17.5176V14.8821Z" fill="white"/>
<path d="M29.2268 19.7616C27.9093 20.2244 27.7936 22.0245 29.034 22.6674C30.2743 23.3038 31.7074 22.0566 31.2383 20.7387C30.9491 19.9094 30.0429 19.4658 29.2268 19.7616ZM30.0751 20.8673C30.1972 20.9637 30.2422 21.0537 30.2422 21.2338C30.2422 21.7159 29.7088 21.9409 29.3746 21.6002C28.9054 21.1373 29.5545 20.4559 30.0751 20.8673Z" fill="white"/>
<path d="M7.11964 28.1961C6.38701 28.3376 5.89217 28.9676 5.88574 29.7519C5.88574 30.1955 6.00785 30.5234 6.29062 30.8127C7.07466 31.6291 8.35354 31.4427 8.86124 30.4462C9.45248 29.2633 8.43066 27.939 7.11964 28.1961ZM7.73659 29.3212C7.94224 29.4626 8.01293 29.6876 7.93581 29.9255C7.80728 30.2791 7.351 30.3691 7.07466 30.0862C6.63765 29.6555 7.23532 28.9676 7.73659 29.3212Z" fill="white"/>
<path d="M19.8828 28.1897C19.7478 28.2154 19.5036 28.3183 19.3365 28.4212C18.3211 29.0512 18.3918 30.5941 19.4715 31.1663C19.8442 31.3591 20.5319 31.3591 20.8982 31.1663C21.438 30.877 21.7593 30.3369 21.7593 29.7069C21.7593 28.7555 20.8339 28.0033 19.8828 28.1897ZM20.5511 29.4112C20.7118 29.5783 20.7375 29.6426 20.7054 29.8162C20.609 30.3112 19.9599 30.4205 19.735 29.9834C19.6 29.7262 19.6129 29.6169 19.8249 29.4048C20.0756 29.1605 20.3005 29.1605 20.5511 29.4112Z" fill="white"/>
</svg>
