<svg width="30" height="31" viewBox="0 0 30 31" fill="none" xmlns="http://www.w3.org/2000/svg">
<path d="M9.64375 1.21074L8.5 2.39023V4.14981C8.5 5.31641 8.525 5.99961 8.575 6.16719C8.6625 6.47656 9.05 6.94707 9.3125 7.05664L9.5 7.13398V10.1311V13.1217L9.65625 13.2764L9.80625 13.4375H15H20.1938L20.3438 13.2764L20.5 13.1217V10.1246C20.5 7.15332 20.5 7.12754 20.6313 7.08887C20.8625 7.01152 21.2063 6.64414 21.35 6.31543C21.4938 5.99961 21.5 5.9416 21.5 4.18848V2.39023L20.3562 1.21074L19.2125 0.03125H15H10.7875L9.64375 1.21074ZM19.2812 1.57812L19.7812 2.09375H15H10.2188L10.7188 1.57812L11.2188 1.0625H15H18.7812L19.2812 1.57812ZM20.5 3.64062V4.15625H15H9.5V3.64062V3.125H15H20.5V3.64062ZM10.5 5.54199C10.5 5.97383 10.3188 6.21875 10 6.21875C9.68125 6.21875 9.5 5.97383 9.5 5.54199V5.1875H10H10.5V5.54199ZM12.5 5.54199C12.5 5.97383 12.3188 6.21875 12 6.21875C11.6813 6.21875 11.5 5.97383 11.5 5.54199V5.1875H12H12.5V5.54199ZM14.5 5.54199C14.5 5.97383 14.3187 6.21875 14 6.21875C13.6813 6.21875 13.5 5.97383 13.5 5.54199V5.1875H14H14.5V5.54199ZM16.5 5.54199C16.5 5.97383 16.3187 6.21875 16 6.21875C15.6813 6.21875 15.5 5.97383 15.5 5.54199V5.1875H16H16.5V5.54199ZM18.5 5.54199C18.5 5.97383 18.3188 6.21875 18 6.21875C17.6813 6.21875 17.5 5.97383 17.5 5.54199V5.1875H18H18.5V5.54199ZM20.5 5.54199C20.5 5.97383 20.3188 6.21875 20 6.21875C19.6813 6.21875 19.5 5.97383 19.5 5.54199V5.1875H20H20.5V5.54199ZM11.3375 7.05664C11.825 7.31445 12.175 7.31445 12.65 7.06953L13 6.88262L13.35 7.06953C13.5938 7.19199 13.8 7.25 14 7.25C14.2 7.25 14.4062 7.19199 14.65 7.06953L15 6.88262L15.35 7.06953C15.5938 7.19199 15.8 7.25 16 7.25C16.2 7.25 16.4062 7.19199 16.65 7.06953L17 6.88262L17.35 7.06953C17.825 7.31445 18.175 7.30801 18.65 7.06309L19.0063 6.87617L19.2563 7.01797L19.5 7.15332V9.77656V12.4062H17.25H15V10.5049V8.59707L14.8438 8.44238L14.6937 8.28125H13H11.3063L11.1562 8.44238L11 8.59707V10.5049V12.4062H10.75H10.5V9.77656V7.15332L10.7375 7.01797C10.8625 6.94063 10.9688 6.87617 10.9688 6.86973C10.9688 6.86973 11.1375 6.95352 11.3375 7.05664ZM14 10.8594V12.4062H13H12V10.8594V9.3125H13H14V10.8594Z" fill="white"/>
<path d="M15.6563 8.44238C15.5 8.59707 15.5 8.60996 15.5 9.82812C15.5 11.0463 15.5 11.0592 15.6563 11.2139L15.8063 11.375H17.25H18.6938L18.8438 11.2139C19 11.0592 19 11.0463 19 9.82812C19 8.60996 19 8.59707 18.8438 8.44238L18.6938 8.28125H17.25H15.8063L15.6563 8.44238ZM18 9.82812V10.3438H17.25H16.5V9.82812V9.3125H17.25H18V9.82812Z" fill="white"/>
<path d="M3.5 9.82812V10.3438H4H4.5V9.82812V9.3125H4H3.5V9.82812Z" fill="white"/>
<path d="M5.5 9.82812V10.3438H6H6.5V9.82812V9.3125H6H5.5V9.82812Z" fill="white"/>
<path d="M7.5 9.82812V10.3438H8H8.5V9.82812V9.3125H8H7.5V9.82812Z" fill="white"/>
<path d="M21.5 9.82812V10.3438H22H22.5V9.82812V9.3125H22H21.5V9.82812Z" fill="white"/>
<path d="M23.5 9.82812V10.3438H24H24.5V9.82812V9.3125H24H23.5V9.82812Z" fill="white"/>
<path d="M25.5 9.82812V10.3438H26H26.5V9.82812V9.3125H26H25.5V9.82812Z" fill="white"/>
<path d="M3.5 11.8906V12.4062H4H4.5V11.8906V11.375H4H3.5V11.8906Z" fill="white"/>
<path d="M25.5 11.8906V12.4062H26H26.5V11.8906V11.375H26H25.5V11.8906Z" fill="white"/>
<path d="M3.5 13.9531V14.4688H4H4.5V13.9531V13.4375H4H3.5V13.9531Z" fill="white"/>
<path d="M25.5 13.9531V14.4688H26H26.5V13.9531V13.4375H26H25.5V13.9531Z" fill="white"/>
<path d="M3.5 16.0156V16.5312H4H4.5V16.0156V15.5H4H3.5V16.0156Z" fill="white"/>
<path d="M25.5 16.0156V16.5312H26H26.5V16.0156V15.5H26H25.5V16.0156Z" fill="white"/>
<path d="M1.14375 18.742L0 19.9215V21.6811C0 22.8477 0.025 23.5309 0.075 23.6984C0.1625 24.0078 0.55 24.4783 0.8125 24.5879L1 24.6652V27.6623V30.6529L1.15625 30.8076L1.30625 30.9688H6.5H11.6938L11.8438 30.8076L12 30.6529V27.6559C12 24.6846 12 24.6588 12.1313 24.6201C12.3625 24.5428 12.7063 24.1754 12.85 23.8467C12.9938 23.5309 13 23.4729 13 21.7197V19.9215L11.8562 18.742L10.7125 17.5625H6.5H2.2875L1.14375 18.742ZM10.7812 19.1094L11.2812 19.625H6.5H1.71875L2.21875 19.1094L2.71875 18.5938H6.5H10.2812L10.7812 19.1094ZM12 21.1719V21.6875H6.5H1V21.1719V20.6562H6.5H12V21.1719ZM2 23.0732C2 23.5051 1.81875 23.75 1.5 23.75C1.18125 23.75 1 23.5051 1 23.0732V22.7188H1.5H2V23.0732ZM4 23.0732C4 23.5051 3.81875 23.75 3.5 23.75C3.18125 23.75 3 23.5051 3 23.0732V22.7188H3.5H4V23.0732ZM6 23.0732C6 23.5051 5.81875 23.75 5.5 23.75C5.18125 23.75 5 23.5051 5 23.0732V22.7188H5.5H6V23.0732ZM8 23.0732C8 23.5051 7.81875 23.75 7.5 23.75C7.18125 23.75 7 23.5051 7 23.0732V22.7188H7.5H8V23.0732ZM10 23.0732C10 23.5051 9.81875 23.75 9.5 23.75C9.18125 23.75 9 23.5051 9 23.0732V22.7188H9.5H10V23.0732ZM12 23.0732C12 23.5051 11.8188 23.75 11.5 23.75C11.1813 23.75 11 23.5051 11 23.0732V22.7188H11.5H12V23.0732ZM2.8375 24.5879C3.325 24.8457 3.675 24.8457 4.15 24.6008L4.5 24.4139L4.85 24.6008C5.31875 24.8393 5.68125 24.8393 6.15 24.6008L6.5 24.4139L6.85 24.6008C7.31875 24.8393 7.68125 24.8393 8.15 24.6008L8.5 24.4139L8.85 24.6008C9.325 24.8457 9.675 24.8393 10.15 24.5943L10.5063 24.4074L10.7563 24.5492L11 24.6846V27.3078V29.9375H8.75H6.5V28.0361V26.1283L6.34375 25.9736L6.19375 25.8125H4.5H2.80625L2.65625 25.9736L2.5 26.1283V28.0361V29.9375H2.25H2V27.3078V24.6846L2.2375 24.5492C2.3625 24.4719 2.46875 24.4074 2.46875 24.401C2.46875 24.401 2.6375 24.4848 2.8375 24.5879ZM5.5 28.3906V29.9375H4.5H3.5V28.3906V26.8438H4.5H5.5V28.3906Z" fill="white"/>
<path d="M7.15625 25.9736C7 26.1283 7 26.1412 7 27.3594C7 28.5775 7 28.5904 7.15625 28.7451L7.30625 28.9062H8.75H10.1938L10.3438 28.7451C10.5 28.5904 10.5 28.5775 10.5 27.3594C10.5 26.1412 10.5 26.1283 10.3438 25.9736L10.1938 25.8125H8.75H7.30625L7.15625 25.9736ZM9.5 27.3594V27.875H8.75H8V27.3594V26.8438H8.75H9.5V27.3594Z" fill="white"/>
<path d="M18.1438 18.742L17 19.9215V21.6811C17 22.8477 17.025 23.5309 17.075 23.6984C17.1625 24.0078 17.55 24.4783 17.8125 24.5879L18 24.6652V27.6623V30.6529L18.1562 30.8076L18.3062 30.9688H23.5H28.6938L28.8438 30.8076L29 30.6529V27.6559C29 24.6846 29 24.6588 29.1313 24.6201C29.3625 24.5428 29.7063 24.1754 29.85 23.8467C29.9938 23.5309 30 23.4729 30 21.7197V19.9215L28.8562 18.742L27.7125 17.5625H23.5H19.2875L18.1438 18.742ZM27.7812 19.1094L28.2812 19.625H23.5H18.7188L19.2188 19.1094L19.7188 18.5938H23.5H27.2812L27.7812 19.1094ZM29 21.1719V21.6875H23.5H18V21.1719V20.6562H23.5H29V21.1719ZM19 23.0732C19 23.5051 18.8188 23.75 18.5 23.75C18.1812 23.75 18 23.5051 18 23.0732V22.7188H18.5H19V23.0732ZM21 23.0732C21 23.5051 20.8188 23.75 20.5 23.75C20.1813 23.75 20 23.5051 20 23.0732V22.7188H20.5H21V23.0732ZM23 23.0732C23 23.5051 22.8187 23.75 22.5 23.75C22.1813 23.75 22 23.5051 22 23.0732V22.7188H22.5H23V23.0732ZM25 23.0732C25 23.5051 24.8187 23.75 24.5 23.75C24.1813 23.75 24 23.5051 24 23.0732V22.7188H24.5H25V23.0732ZM27 23.0732C27 23.5051 26.8188 23.75 26.5 23.75C26.1813 23.75 26 23.5051 26 23.0732V22.7188H26.5H27V23.0732ZM29 23.0732C29 23.5051 28.8188 23.75 28.5 23.75C28.1813 23.75 28 23.5051 28 23.0732V22.7188H28.5H29V23.0732ZM19.8375 24.5879C20.325 24.8457 20.675 24.8457 21.15 24.6008L21.5 24.4139L21.85 24.6008C22.3187 24.8393 22.6813 24.8393 23.15 24.6008L23.5 24.4139L23.85 24.6008C24.3187 24.8393 24.6813 24.8393 25.15 24.6008L25.5 24.4139L25.85 24.6008C26.325 24.8457 26.675 24.8393 27.15 24.5943L27.5063 24.4074L27.7563 24.5492L28 24.6846V27.3078V29.9375H25.75H23.5V28.0361V26.1283L23.3438 25.9736L23.1937 25.8125H21.5H19.8063L19.6562 25.9736L19.5 26.1283V28.0361V29.9375H19.25H19V27.3078V24.6846L19.2375 24.5492C19.3625 24.4719 19.4688 24.4074 19.4688 24.401C19.4688 24.401 19.6375 24.4848 19.8375 24.5879ZM22.5 28.3906V29.9375H21.5H20.5V28.3906V26.8438H21.5H22.5V28.3906Z" fill="white"/>
<path d="M24.1563 25.9736C24 26.1283 24 26.1412 24 27.3594C24 28.5775 24 28.5904 24.1563 28.7451L24.3063 28.9062H25.75H27.1938L27.3438 28.7451C27.5 28.5904 27.5 28.5775 27.5 27.3594C27.5 26.1412 27.5 26.1283 27.3438 25.9736L27.1938 25.8125H25.75H24.3063L24.1563 25.9736ZM26.5 27.3594V27.875H25.75H25V27.3594V26.8438H25.75H26.5V27.3594Z" fill="white"/>
</svg>
