<svg width="186" height="186" viewBox="0 0 186 186" fill="none" xmlns="http://www.w3.org/2000/svg">
<path d="M7.89453 167.684L7.89453 178.105H18.3156V167.684H7.89453Z" fill="white"/>
<path d="M0.947266 185.052H25.2631L25.2631 160.737H0.947266L0.947266 185.052ZM4.42095 181.579L4.42095 164.21H21.7894L21.7894 181.579H4.42095Z" fill="white"/>
<path d="M178.105 18.3156V7.89453L167.684 7.89453V18.3156H178.105Z" fill="white"/>
<path d="M185.053 0.947266L160.737 0.947266V25.2631L185.053 25.2631V0.947266ZM181.579 4.42095V21.7894L164.211 21.7894V4.42095L181.579 4.42095Z" fill="white"/>
<path d="M18.3156 7.89453H7.89453V18.3156H18.3156V7.89453Z" fill="white"/>
<path d="M0.947266 0.947266V25.2631H25.2631V0.947266H0.947266ZM4.42095 4.42095H21.7894V21.7894H4.42095V4.42095Z" fill="white"/>
<path d="M39.1583 0.947266H35.6846V4.42095H39.1583V0.947266Z" fill="white"/>
<path d="M42.6319 0.947266H39.1582V4.42095H42.6319V0.947266Z" fill="white"/>
<path d="M53.0528 0.947266H49.5791V4.42095H53.0528V0.947266Z" fill="white"/>
<path d="M80.8418 0.947266H77.3682V4.42095H80.8418V0.947266Z" fill="white"/>
<path d="M94.7364 0.947266H91.2627V4.42095H94.7364V0.947266Z" fill="white"/>
<path d="M98.21 0.947266H94.7363V4.42095H98.21V0.947266Z" fill="white"/>
<path d="M101.684 0.947266H98.21V4.42095H101.684V0.947266Z" fill="white"/>
<path d="M105.158 0.947266H101.685V4.42095H105.158V0.947266Z" fill="white"/>
<path d="M108.632 0.947266H105.158V4.42095H108.632V0.947266Z" fill="white"/>
<path d="M115.579 0.947266H112.105V4.42095H115.579V0.947266Z" fill="white"/>
<path d="M122.526 0.947266H119.053V4.42095H122.526V0.947266Z" fill="white"/>
<path d="M126 0.947266H122.526V4.42095H126V0.947266Z" fill="white"/>
<path d="M136.421 0.947266H132.947V4.42095H136.421V0.947266Z" fill="white"/>
<path d="M150.315 0.947266H146.842V4.42095H150.315V0.947266Z" fill="white"/>
<path d="M39.1583 4.4209H35.6846V7.89458H39.1583V4.4209Z" fill="white"/>
<path d="M42.6319 4.4209H39.1582V7.89458H42.6319V4.4209Z" fill="white"/>
<path d="M46.1055 4.4209H42.6318V7.89458H46.1055V4.4209Z" fill="white"/>
<path d="M53.0528 4.4209H49.5791V7.89458H53.0528V4.4209Z" fill="white"/>
<path d="M60.0001 4.4209H56.5264V7.89458H60.0001V4.4209Z" fill="white"/>
<path d="M63.4737 4.4209H60V7.89458H63.4737V4.4209Z" fill="white"/>
<path d="M66.9473 4.4209H63.4736V7.89458H66.9473V4.4209Z" fill="white"/>
<path d="M70.4209 4.4209H66.9473V7.89458H70.4209V4.4209Z" fill="white"/>
<path d="M77.3682 4.4209H73.8945V7.89458H77.3682V4.4209Z" fill="white"/>
<path d="M80.8418 4.4209H77.3682V7.89458H80.8418V4.4209Z" fill="white"/>
<path d="M87.7891 4.4209H84.3154V7.89458H87.7891V4.4209Z" fill="white"/>
<path d="M94.7364 4.4209H91.2627V7.89458H94.7364V4.4209Z" fill="white"/>
<path d="M101.684 4.4209H98.21V7.89458H101.684V4.4209Z" fill="white"/>
<path d="M112.106 4.4209H108.632V7.89458H112.106V4.4209Z" fill="white"/>
<path d="M115.579 4.4209H112.105V7.89458H115.579V4.4209Z" fill="white"/>
<path d="M136.421 4.4209H132.947V7.89458H136.421V4.4209Z" fill="white"/>
<path d="M139.895 4.4209H136.421V7.89458H139.895V4.4209Z" fill="white"/>
<path d="M146.842 4.4209H143.368V7.89458H146.842V4.4209Z" fill="white"/>
<path d="M150.315 4.4209H146.842V7.89458H150.315V4.4209Z" fill="white"/>
<path d="M153.789 4.4209H150.315V7.89458H153.789V4.4209Z" fill="white"/>
<path d="M39.1583 7.89453H35.6846V11.3682H39.1583V7.89453Z" fill="white"/>
<path d="M46.1055 7.89453H42.6318V11.3682H46.1055V7.89453Z" fill="white"/>
<path d="M49.5792 7.89453H46.1055V11.3682H49.5792V7.89453Z" fill="white"/>
<path d="M80.8418 7.89453H77.3682V11.3682H80.8418V7.89453Z" fill="white"/>
<path d="M91.2627 7.89453H87.7891V11.3682H91.2627V7.89453Z" fill="white"/>
<path d="M112.106 7.89453H108.632V11.3682H112.106V7.89453Z" fill="white"/>
<path d="M122.526 7.89453H119.053V11.3682H122.526V7.89453Z" fill="white"/>
<path d="M132.947 7.89453H129.474V11.3682H132.947V7.89453Z" fill="white"/>
<path d="M139.895 7.89453H136.421V11.3682H139.895V7.89453Z" fill="white"/>
<path d="M143.368 7.89453H139.895V11.3682H143.368V7.89453Z" fill="white"/>
<path d="M146.842 7.89453H143.368V11.3682H146.842V7.89453Z" fill="white"/>
<path d="M153.789 7.89453H150.315V11.3682H153.789V7.89453Z" fill="white"/>
<path d="M32.21 11.3684H28.7363V14.8421H32.21V11.3684Z" fill="white"/>
<path d="M39.1583 11.3684H35.6846V14.8421H39.1583V11.3684Z" fill="white"/>
<path d="M46.1055 11.3684H42.6318V14.8421H46.1055V11.3684Z" fill="white"/>
<path d="M49.5792 11.3684H46.1055V14.8421H49.5792V11.3684Z" fill="white"/>
<path d="M56.5264 11.3684H53.0527V14.8421H56.5264V11.3684Z" fill="white"/>
<path d="M63.4737 11.3684H60V14.8421H63.4737V11.3684Z" fill="white"/>
<path d="M66.9473 11.3684H63.4736V14.8421H66.9473V11.3684Z" fill="white"/>
<path d="M77.3682 11.3684H73.8945V14.8421H77.3682V11.3684Z" fill="white"/>
<path d="M80.8418 11.3684H77.3682V14.8421H80.8418V11.3684Z" fill="white"/>
<path d="M87.7891 11.3684H84.3154V14.8421H87.7891V11.3684Z" fill="white"/>
<path d="M94.7364 11.3684H91.2627V14.8421H94.7364V11.3684Z" fill="white"/>
<path d="M101.684 11.3684H98.21V14.8421H101.684V11.3684Z" fill="white"/>
<path d="M108.632 11.3684H105.158V14.8421H108.632V11.3684Z" fill="white"/>
<path d="M112.106 11.3684H108.632V14.8421H112.106V11.3684Z" fill="white"/>
<path d="M119.053 11.3684H115.579V14.8421H119.053V11.3684Z" fill="white"/>
<path d="M122.526 11.3684H119.053V14.8421H122.526V11.3684Z" fill="white"/>
<path d="M126 11.3684H122.526V14.8421H126V11.3684Z" fill="white"/>
<path d="M139.895 11.3684H136.421V14.8421H139.895V11.3684Z" fill="white"/>
<path d="M150.315 11.3684H146.842V14.8421H150.315V11.3684Z" fill="white"/>
<path d="M157.263 11.3684H153.789V14.8421H157.263V11.3684Z" fill="white"/>
<path d="M35.6836 14.842H32.21V18.3157H35.6836V14.842Z" fill="white"/>
<path d="M46.1055 14.842H42.6318V18.3157H46.1055V14.842Z" fill="white"/>
<path d="M53.0528 14.842H49.5791V18.3157H53.0528V14.842Z" fill="white"/>
<path d="M60.0001 14.842H56.5264V18.3157H60.0001V14.842Z" fill="white"/>
<path d="M63.4737 14.842H60V18.3157H63.4737V14.842Z" fill="white"/>
<path d="M66.9473 14.842H63.4736V18.3157H66.9473V14.842Z" fill="white"/>
<path d="M70.4209 14.842H66.9473V18.3157H70.4209V14.842Z" fill="white"/>
<path d="M73.8946 14.842H70.4209V18.3157H73.8946V14.842Z" fill="white"/>
<path d="M80.8418 14.842H77.3682V18.3157H80.8418V14.842Z" fill="white"/>
<path d="M84.3155 14.842H80.8418V18.3157H84.3155V14.842Z" fill="white"/>
<path d="M87.7891 14.842H84.3154V18.3157H87.7891V14.842Z" fill="white"/>
<path d="M91.2627 14.842H87.7891V18.3157H91.2627V14.842Z" fill="white"/>
<path d="M94.7364 14.842H91.2627V18.3157H94.7364V14.842Z" fill="white"/>
<path d="M98.21 14.842H94.7363V18.3157H98.21V14.842Z" fill="white"/>
<path d="M101.684 14.842H98.21V18.3157H101.684V14.842Z" fill="white"/>
<path d="M112.106 14.842H108.632V18.3157H112.106V14.842Z" fill="white"/>
<path d="M122.526 14.842H119.053V18.3157H122.526V14.842Z" fill="white"/>
<path d="M126 14.842H122.526V18.3157H126V14.842Z" fill="white"/>
<path d="M136.421 14.842H132.947V18.3157H136.421V14.842Z" fill="white"/>
<path d="M139.895 14.842H136.421V18.3157H139.895V14.842Z" fill="white"/>
<path d="M150.315 14.842H146.842V18.3157H150.315V14.842Z" fill="white"/>
<path d="M32.21 18.3157H28.7363V21.7894H32.21V18.3157Z" fill="white"/>
<path d="M39.1583 18.3157H35.6846V21.7894H39.1583V18.3157Z" fill="white"/>
<path d="M42.6319 18.3157H39.1582V21.7894H42.6319V18.3157Z" fill="white"/>
<path d="M49.5792 18.3157H46.1055V21.7894H49.5792V18.3157Z" fill="white"/>
<path d="M56.5264 18.3157H53.0527V21.7894H56.5264V18.3157Z" fill="white"/>
<path d="M63.4737 18.3157H60V21.7894H63.4737V18.3157Z" fill="white"/>
<path d="M70.4209 18.3157H66.9473V21.7894H70.4209V18.3157Z" fill="white"/>
<path d="M73.8946 18.3157H70.4209V21.7894H73.8946V18.3157Z" fill="white"/>
<path d="M77.3682 18.3157H73.8945V21.7894H77.3682V18.3157Z" fill="white"/>
<path d="M87.7891 18.3157H84.3154V21.7894H87.7891V18.3157Z" fill="white"/>
<path d="M101.684 18.3157H98.21V21.7894H101.684V18.3157Z" fill="white"/>
<path d="M115.579 18.3157H112.105V21.7894H115.579V18.3157Z" fill="white"/>
<path d="M122.526 18.3157H119.053V21.7894H122.526V18.3157Z" fill="white"/>
<path d="M132.947 18.3157H129.474V21.7894H132.947V18.3157Z" fill="white"/>
<path d="M136.421 18.3157H132.947V21.7894H136.421V18.3157Z" fill="white"/>
<path d="M143.368 18.3157H139.895V21.7894H143.368V18.3157Z" fill="white"/>
<path d="M150.315 18.3157H146.842V21.7894H150.315V18.3157Z" fill="white"/>
<path d="M32.21 21.7893H28.7363V25.263H32.21V21.7893Z" fill="white"/>
<path d="M39.1583 21.7893H35.6846V25.263H39.1583V21.7893Z" fill="white"/>
<path d="M46.1055 21.7893H42.6318V25.263H46.1055V21.7893Z" fill="white"/>
<path d="M53.0528 21.7893H49.5791V25.263H53.0528V21.7893Z" fill="white"/>
<path d="M60.0001 21.7893H56.5264V25.263H60.0001V21.7893Z" fill="white"/>
<path d="M66.9473 21.7893H63.4736V25.263H66.9473V21.7893Z" fill="white"/>
<path d="M73.8946 21.7893H70.4209V25.263H73.8946V21.7893Z" fill="white"/>
<path d="M80.8418 21.7893H77.3682V25.263H80.8418V21.7893Z" fill="white"/>
<path d="M87.7891 21.7893H84.3154V25.263H87.7891V21.7893Z" fill="white"/>
<path d="M94.7364 21.7893H91.2627V25.263H94.7364V21.7893Z" fill="white"/>
<path d="M101.684 21.7893H98.21V25.263H101.684V21.7893Z" fill="white"/>
<path d="M108.632 21.7893H105.158V25.263H108.632V21.7893Z" fill="white"/>
<path d="M115.579 21.7893H112.105V25.263H115.579V21.7893Z" fill="white"/>
<path d="M122.526 21.7893H119.053V25.263H122.526V21.7893Z" fill="white"/>
<path d="M129.474 21.7893H126V25.263H129.474V21.7893Z" fill="white"/>
<path d="M136.421 21.7893H132.947V25.263H136.421V21.7893Z" fill="white"/>
<path d="M143.368 21.7893H139.895V25.263H143.368V21.7893Z" fill="white"/>
<path d="M150.315 21.7893H146.842V25.263H150.315V21.7893Z" fill="white"/>
<path d="M157.263 21.7893H153.789V25.263H157.263V21.7893Z" fill="white"/>
<path d="M32.21 25.2629H28.7363V28.7366H32.21V25.2629Z" fill="white"/>
<path d="M42.6319 25.2629H39.1582V28.7366H42.6319V25.2629Z" fill="white"/>
<path d="M46.1055 25.2629H42.6318V28.7366H46.1055V25.2629Z" fill="white"/>
<path d="M49.5792 25.2629H46.1055V28.7366H49.5792V25.2629Z" fill="white"/>
<path d="M53.0528 25.2629H49.5791V28.7366H53.0528V25.2629Z" fill="white"/>
<path d="M56.5264 25.2629H53.0527V28.7366H56.5264V25.2629Z" fill="white"/>
<path d="M66.9473 25.2629H63.4736V28.7366H66.9473V25.2629Z" fill="white"/>
<path d="M70.4209 25.2629H66.9473V28.7366H70.4209V25.2629Z" fill="white"/>
<path d="M80.8418 25.2629H77.3682V28.7366H80.8418V25.2629Z" fill="white"/>
<path d="M87.7891 25.2629H84.3154V28.7366H87.7891V25.2629Z" fill="white"/>
<path d="M101.684 25.2629H98.21V28.7366H101.684V25.2629Z" fill="white"/>
<path d="M105.158 25.2629H101.685V28.7366H105.158V25.2629Z" fill="white"/>
<path d="M108.632 25.2629H105.158V28.7366H108.632V25.2629Z" fill="white"/>
<path d="M119.053 25.2629H115.579V28.7366H119.053V25.2629Z" fill="white"/>
<path d="M122.526 25.2629H119.053V28.7366H122.526V25.2629Z" fill="white"/>
<path d="M136.421 25.2629H132.947V28.7366H136.421V25.2629Z" fill="white"/>
<path d="M7.89458 28.7368H4.4209V32.2105H7.89458V28.7368Z" fill="white"/>
<path d="M11.3682 28.7368H7.89453V32.2105H11.3682V28.7368Z" fill="white"/>
<path d="M25.2627 28.7368H21.7891V32.2105H25.2627V28.7368Z" fill="white"/>
<path d="M35.6836 28.7368H32.21V32.2105H35.6836V28.7368Z" fill="white"/>
<path d="M42.6319 28.7368H39.1582V32.2105H42.6319V28.7368Z" fill="white"/>
<path d="M49.5792 28.7368H46.1055V32.2105H49.5792V28.7368Z" fill="white"/>
<path d="M53.0528 28.7368H49.5791V32.2105H53.0528V28.7368Z" fill="white"/>
<path d="M60.0001 28.7368H56.5264V32.2105H60.0001V28.7368Z" fill="white"/>
<path d="M66.9473 28.7368H63.4736V32.2105H66.9473V28.7368Z" fill="white"/>
<path d="M70.4209 28.7368H66.9473V32.2105H70.4209V28.7368Z" fill="white"/>
<path d="M80.8418 28.7368H77.3682V32.2105H80.8418V28.7368Z" fill="white"/>
<path d="M87.7891 28.7368H84.3154V32.2105H87.7891V28.7368Z" fill="white"/>
<path d="M91.2627 28.7368H87.7891V32.2105H91.2627V28.7368Z" fill="white"/>
<path d="M94.7364 28.7368H91.2627V32.2105H94.7364V28.7368Z" fill="white"/>
<path d="M98.21 28.7368H94.7363V32.2105H98.21V28.7368Z" fill="white"/>
<path d="M101.684 28.7368H98.21V32.2105H101.684V28.7368Z" fill="white"/>
<path d="M105.158 28.7368H101.685V32.2105H105.158V28.7368Z" fill="white"/>
<path d="M115.579 28.7368H112.105V32.2105H115.579V28.7368Z" fill="white"/>
<path d="M119.053 28.7368H115.579V32.2105H119.053V28.7368Z" fill="white"/>
<path d="M126 28.7368H122.526V32.2105H126V28.7368Z" fill="white"/>
<path d="M129.474 28.7368H126V32.2105H129.474V28.7368Z" fill="white"/>
<path d="M143.368 28.7368H139.895V32.2105H143.368V28.7368Z" fill="white"/>
<path d="M150.315 28.7368H146.842V32.2105H150.315V28.7368Z" fill="white"/>
<path d="M164.21 28.7368H160.736V32.2105H164.21V28.7368Z" fill="white"/>
<path d="M167.684 28.7368H164.21V32.2105H167.684V28.7368Z" fill="white"/>
<path d="M174.632 28.7368H171.158V32.2105H174.632V28.7368Z" fill="white"/>
<path d="M7.89458 32.2104H4.4209V35.6841H7.89458V32.2104Z" fill="white"/>
<path d="M11.3682 32.2104H7.89453V35.6841H11.3682V32.2104Z" fill="white"/>
<path d="M18.3155 32.2104H14.8418V35.6841H18.3155V32.2104Z" fill="white"/>
<path d="M21.7891 32.2104H18.3154V35.6841H21.7891V32.2104Z" fill="white"/>
<path d="M28.7364 32.2104H25.2627V35.6841H28.7364V32.2104Z" fill="white"/>
<path d="M39.1583 32.2104H35.6846V35.6841H39.1583V32.2104Z" fill="white"/>
<path d="M42.6319 32.2104H39.1582V35.6841H42.6319V32.2104Z" fill="white"/>
<path d="M46.1055 32.2104H42.6318V35.6841H46.1055V32.2104Z" fill="white"/>
<path d="M49.5792 32.2104H46.1055V35.6841H49.5792V32.2104Z" fill="white"/>
<path d="M56.5264 32.2104H53.0527V35.6841H56.5264V32.2104Z" fill="white"/>
<path d="M60.0001 32.2104H56.5264V35.6841H60.0001V32.2104Z" fill="white"/>
<path d="M66.9473 32.2104H63.4736V35.6841H66.9473V32.2104Z" fill="white"/>
<path d="M70.4209 32.2104H66.9473V35.6841H70.4209V32.2104Z" fill="white"/>
<path d="M73.8946 32.2104H70.4209V35.6841H73.8946V32.2104Z" fill="white"/>
<path d="M84.3155 32.2104H80.8418V35.6841H84.3155V32.2104Z" fill="white"/>
<path d="M87.7891 32.2104H84.3154V35.6841H87.7891V32.2104Z" fill="white"/>
<path d="M94.7364 32.2104H91.2627V35.6841H94.7364V32.2104Z" fill="white"/>
<path d="M105.158 32.2104H101.685V35.6841H105.158V32.2104Z" fill="white"/>
<path d="M112.106 32.2104H108.632V35.6841H112.106V32.2104Z" fill="white"/>
<path d="M119.053 32.2104H115.579V35.6841H119.053V32.2104Z" fill="white"/>
<path d="M129.474 32.2104H126V35.6841H129.474V32.2104Z" fill="white"/>
<path d="M132.947 32.2104H129.474V35.6841H132.947V32.2104Z" fill="white"/>
<path d="M139.895 32.2104H136.421V35.6841H139.895V32.2104Z" fill="white"/>
<path d="M143.368 32.2104H139.895V35.6841H143.368V32.2104Z" fill="white"/>
<path d="M146.842 32.2104H143.368V35.6841H146.842V32.2104Z" fill="white"/>
<path d="M160.736 32.2104H157.263V35.6841H160.736V32.2104Z" fill="white"/>
<path d="M178.106 32.2104H174.632V35.6841H178.106V32.2104Z" fill="white"/>
<path d="M181.579 32.2104H178.105V35.6841H181.579V32.2104Z" fill="white"/>
<path d="M4.42095 35.6841H0.947266V39.1578H4.42095V35.6841Z" fill="white"/>
<path d="M21.7891 35.6841H18.3154V39.1578H21.7891V35.6841Z" fill="white"/>
<path d="M25.2627 35.6841H21.7891V39.1578H25.2627V35.6841Z" fill="white"/>
<path d="M32.21 35.6841H28.7363V39.1578H32.21V35.6841Z" fill="white"/>
<path d="M39.1583 35.6841H35.6846V39.1578H39.1583V35.6841Z" fill="white"/>
<path d="M42.6319 35.6841H39.1582V39.1578H42.6319V35.6841Z" fill="white"/>
<path d="M49.5792 35.6841H46.1055V39.1578H49.5792V35.6841Z" fill="white"/>
<path d="M66.9473 35.6841H63.4736V39.1578H66.9473V35.6841Z" fill="white"/>
<path d="M70.4209 35.6841H66.9473V39.1578H70.4209V35.6841Z" fill="white"/>
<path d="M73.8946 35.6841H70.4209V39.1578H73.8946V35.6841Z" fill="white"/>
<path d="M91.2627 35.6841H87.7891V39.1578H91.2627V35.6841Z" fill="white"/>
<path d="M94.7364 35.6841H91.2627V39.1578H94.7364V35.6841Z" fill="white"/>
<path d="M101.684 35.6841H98.21V39.1578H101.684V35.6841Z" fill="white"/>
<path d="M108.632 35.6841H105.158V39.1578H108.632V35.6841Z" fill="white"/>
<path d="M112.106 35.6841H108.632V39.1578H112.106V35.6841Z" fill="white"/>
<path d="M119.053 35.6841H115.579V39.1578H119.053V35.6841Z" fill="white"/>
<path d="M136.421 35.6841H132.947V39.1578H136.421V35.6841Z" fill="white"/>
<path d="M139.895 35.6841H136.421V39.1578H139.895V35.6841Z" fill="white"/>
<path d="M143.368 35.6841H139.895V39.1578H143.368V35.6841Z" fill="white"/>
<path d="M153.789 35.6841H150.315V39.1578H153.789V35.6841Z" fill="white"/>
<path d="M167.684 35.6841H164.21V39.1578H167.684V35.6841Z" fill="white"/>
<path d="M171.158 35.6841H167.685V39.1578H171.158V35.6841Z" fill="white"/>
<path d="M174.632 35.6841H171.158V39.1578H174.632V35.6841Z" fill="white"/>
<path d="M185.053 35.6841H181.579V39.1578H185.053V35.6841Z" fill="white"/>
<path d="M18.3155 39.1577H14.8418V42.6314H18.3155V39.1577Z" fill="white"/>
<path d="M21.7891 39.1577H18.3154V42.6314H21.7891V39.1577Z" fill="white"/>
<path d="M28.7364 39.1577H25.2627V42.6314H28.7364V39.1577Z" fill="white"/>
<path d="M35.6836 39.1577H32.21V42.6314H35.6836V39.1577Z" fill="white"/>
<path d="M49.5792 39.1577H46.1055V42.6314H49.5792V39.1577Z" fill="white"/>
<path d="M53.0528 39.1577H49.5791V42.6314H53.0528V39.1577Z" fill="white"/>
<path d="M56.5264 39.1577H53.0527V42.6314H56.5264V39.1577Z" fill="white"/>
<path d="M66.9473 39.1577H63.4736V42.6314H66.9473V39.1577Z" fill="white"/>
<path d="M73.8946 39.1577H70.4209V42.6314H73.8946V39.1577Z" fill="white"/>
<path d="M77.3682 39.1577H73.8945V42.6314H77.3682V39.1577Z" fill="white"/>
<path d="M84.3155 39.1577H80.8418V42.6314H84.3155V39.1577Z" fill="white"/>
<path d="M91.2627 39.1577H87.7891V42.6314H91.2627V39.1577Z" fill="white"/>
<path d="M105.158 39.1577H101.685V42.6314H105.158V39.1577Z" fill="white"/>
<path d="M112.106 39.1577H108.632V42.6314H112.106V39.1577Z" fill="white"/>
<path d="M115.579 39.1577H112.105V42.6314H115.579V39.1577Z" fill="white"/>
<path d="M153.789 39.1577H150.315V42.6314H153.789V39.1577Z" fill="white"/>
<path d="M157.263 39.1577H153.789V42.6314H157.263V39.1577Z" fill="white"/>
<path d="M164.21 39.1577H160.736V42.6314H164.21V39.1577Z" fill="white"/>
<path d="M174.632 39.1577H171.158V42.6314H174.632V39.1577Z" fill="white"/>
<path d="M7.89458 42.6316H4.4209V46.1053H7.89458V42.6316Z" fill="white"/>
<path d="M11.3682 42.6316H7.89453V46.1053H11.3682V42.6316Z" fill="white"/>
<path d="M14.8418 42.6316H11.3682V46.1053H14.8418V42.6316Z" fill="white"/>
<path d="M25.2627 42.6316H21.7891V46.1053H25.2627V42.6316Z" fill="white"/>
<path d="M49.5792 42.6316H46.1055V46.1053H49.5792V42.6316Z" fill="white"/>
<path d="M53.0528 42.6316H49.5791V46.1053H53.0528V42.6316Z" fill="white"/>
<path d="M56.5264 42.6316H53.0527V46.1053H56.5264V42.6316Z" fill="white"/>
<path d="M63.4737 42.6316H60V46.1053H63.4737V42.6316Z" fill="white"/>
<path d="M70.4209 42.6316H66.9473V46.1053H70.4209V42.6316Z" fill="white"/>
<path d="M73.8946 42.6316H70.4209V46.1053H73.8946V42.6316Z" fill="white"/>
<path d="M77.3682 42.6316H73.8945V46.1053H77.3682V42.6316Z" fill="white"/>
<path d="M80.8418 42.6316H77.3682V46.1053H80.8418V42.6316Z" fill="white"/>
<path d="M91.2627 42.6316H87.7891V46.1053H91.2627V42.6316Z" fill="white"/>
<path d="M98.21 42.6316H94.7363V46.1053H98.21V42.6316Z" fill="white"/>
<path d="M101.684 42.6316H98.21V46.1053H101.684V42.6316Z" fill="white"/>
<path d="M115.579 42.6316H112.105V46.1053H115.579V42.6316Z" fill="white"/>
<path d="M122.526 42.6316H119.053V46.1053H122.526V42.6316Z" fill="white"/>
<path d="M129.474 42.6316H126V46.1053H129.474V42.6316Z" fill="white"/>
<path d="M139.895 42.6316H136.421V46.1053H139.895V42.6316Z" fill="white"/>
<path d="M143.368 42.6316H139.895V46.1053H143.368V42.6316Z" fill="white"/>
<path d="M146.842 42.6316H143.368V46.1053H146.842V42.6316Z" fill="white"/>
<path d="M150.315 42.6316H146.842V46.1053H150.315V42.6316Z" fill="white"/>
<path d="M153.789 42.6316H150.315V46.1053H153.789V42.6316Z" fill="white"/>
<path d="M157.263 42.6316H153.789V46.1053H157.263V42.6316Z" fill="white"/>
<path d="M160.736 42.6316H157.263V46.1053H160.736V42.6316Z" fill="white"/>
<path d="M171.158 42.6316H167.685V46.1053H171.158V42.6316Z" fill="white"/>
<path d="M174.632 42.6316H171.158V46.1053H174.632V42.6316Z" fill="white"/>
<path d="M178.106 42.6316H174.632V46.1053H178.106V42.6316Z" fill="white"/>
<path d="M181.579 42.6316H178.105V46.1053H181.579V42.6316Z" fill="white"/>
<path d="M185.053 42.6316H181.579V46.1053H185.053V42.6316Z" fill="white"/>
<path d="M7.89458 46.1052H4.4209V49.5789H7.89458V46.1052Z" fill="white"/>
<path d="M11.3682 46.1052H7.89453V49.5789H11.3682V46.1052Z" fill="white"/>
<path d="M18.3155 46.1052H14.8418V49.5789H18.3155V46.1052Z" fill="white"/>
<path d="M21.7891 46.1052H18.3154V49.5789H21.7891V46.1052Z" fill="white"/>
<path d="M46.1055 46.1052H42.6318V49.5789H46.1055V46.1052Z" fill="white"/>
<path d="M53.0528 46.1052H49.5791V49.5789H53.0528V46.1052Z" fill="white"/>
<path d="M56.5264 46.1052H53.0527V49.5789H56.5264V46.1052Z" fill="white"/>
<path d="M66.9473 46.1052H63.4736V49.5789H66.9473V46.1052Z" fill="white"/>
<path d="M80.8418 46.1052H77.3682V49.5789H80.8418V46.1052Z" fill="white"/>
<path d="M84.3155 46.1052H80.8418V49.5789H84.3155V46.1052Z" fill="white"/>
<path d="M87.7891 46.1052H84.3154V49.5789H87.7891V46.1052Z" fill="white"/>
<path d="M94.7364 46.1052H91.2627V49.5789H94.7364V46.1052Z" fill="white"/>
<path d="M98.21 46.1052H94.7363V49.5789H98.21V46.1052Z" fill="white"/>
<path d="M105.158 46.1052H101.685V49.5789H105.158V46.1052Z" fill="white"/>
<path d="M112.106 46.1052H108.632V49.5789H112.106V46.1052Z" fill="white"/>
<path d="M115.579 46.1052H112.105V49.5789H115.579V46.1052Z" fill="white"/>
<path d="M126 46.1052H122.526V49.5789H126V46.1052Z" fill="white"/>
<path d="M129.474 46.1052H126V49.5789H129.474V46.1052Z" fill="white"/>
<path d="M132.947 46.1052H129.474V49.5789H132.947V46.1052Z" fill="white"/>
<path d="M146.842 46.1052H143.368V49.5789H146.842V46.1052Z" fill="white"/>
<path d="M153.789 46.1052H150.315V49.5789H153.789V46.1052Z" fill="white"/>
<path d="M160.736 46.1052H157.263V49.5789H160.736V46.1052Z" fill="white"/>
<path d="M171.158 46.1052H167.685V49.5789H171.158V46.1052Z" fill="white"/>
<path d="M174.632 46.1052H171.158V49.5789H174.632V46.1052Z" fill="white"/>
<path d="M178.106 46.1052H174.632V49.5789H178.106V46.1052Z" fill="white"/>
<path d="M7.89458 49.5789H4.4209V53.0525H7.89458V49.5789Z" fill="white"/>
<path d="M11.3682 49.5789H7.89453V53.0525H11.3682V49.5789Z" fill="white"/>
<path d="M18.3155 49.5789H14.8418V53.0525H18.3155V49.5789Z" fill="white"/>
<path d="M21.7891 49.5789H18.3154V53.0525H21.7891V49.5789Z" fill="white"/>
<path d="M25.2627 49.5789H21.7891V53.0525H25.2627V49.5789Z" fill="white"/>
<path d="M28.7364 49.5789H25.2627V53.0525H28.7364V49.5789Z" fill="white"/>
<path d="M35.6836 49.5789H32.21V53.0525H35.6836V49.5789Z" fill="white"/>
<path d="M39.1583 49.5789H35.6846V53.0525H39.1583V49.5789Z" fill="white"/>
<path d="M53.0528 49.5789H49.5791V53.0525H53.0528V49.5789Z" fill="white"/>
<path d="M56.5264 49.5789H53.0527V53.0525H56.5264V49.5789Z" fill="white"/>
<path d="M60.0001 49.5789H56.5264V53.0525H60.0001V49.5789Z" fill="white"/>
<path d="M63.4737 49.5789H60V53.0525H63.4737V49.5789Z" fill="white"/>
<path d="M77.3682 49.5789H73.8945V53.0525H77.3682V49.5789Z" fill="white"/>
<path d="M80.8418 49.5789H77.3682V53.0525H80.8418V49.5789Z" fill="white"/>
<path d="M87.7891 49.5789H84.3154V53.0525H87.7891V49.5789Z" fill="white"/>
<path d="M91.2627 49.5789H87.7891V53.0525H91.2627V49.5789Z" fill="white"/>
<path d="M101.684 49.5789H98.21V53.0525H101.684V49.5789Z" fill="white"/>
<path d="M105.158 49.5789H101.685V53.0525H105.158V49.5789Z" fill="white"/>
<path d="M122.526 49.5789H119.053V53.0525H122.526V49.5789Z" fill="white"/>
<path d="M126 49.5789H122.526V53.0525H126V49.5789Z" fill="white"/>
<path d="M132.947 49.5789H129.474V53.0525H132.947V49.5789Z" fill="white"/>
<path d="M143.368 49.5789H139.895V53.0525H143.368V49.5789Z" fill="white"/>
<path d="M150.315 49.5789H146.842V53.0525H150.315V49.5789Z" fill="white"/>
<path d="M164.21 49.5789H160.736V53.0525H164.21V49.5789Z" fill="white"/>
<path d="M174.632 49.5789H171.158V53.0525H174.632V49.5789Z" fill="white"/>
<path d="M185.053 49.5789H181.579V53.0525H185.053V49.5789Z" fill="white"/>
<path d="M4.42095 53.0525H0.947266V56.5262H4.42095V53.0525Z" fill="white"/>
<path d="M11.3682 53.0525H7.89453V56.5262H11.3682V53.0525Z" fill="white"/>
<path d="M14.8418 53.0525H11.3682V56.5262H14.8418V53.0525Z" fill="white"/>
<path d="M18.3155 53.0525H14.8418V56.5262H18.3155V53.0525Z" fill="white"/>
<path d="M21.7891 53.0525H18.3154V56.5262H21.7891V53.0525Z" fill="white"/>
<path d="M28.7364 53.0525H25.2627V56.5262H28.7364V53.0525Z" fill="white"/>
<path d="M39.1583 53.0525H35.6846V56.5262H39.1583V53.0525Z" fill="white"/>
<path d="M46.1055 53.0525H42.6318V56.5262H46.1055V53.0525Z" fill="white"/>
<path d="M49.5792 53.0525H46.1055V56.5262H49.5792V53.0525Z" fill="white"/>
<path d="M53.0528 53.0525H49.5791V56.5262H53.0528V53.0525Z" fill="white"/>
<path d="M60.0001 53.0525H56.5264V56.5262H60.0001V53.0525Z" fill="white"/>
<path d="M66.9473 53.0525H63.4736V56.5262H66.9473V53.0525Z" fill="white"/>
<path d="M70.4209 53.0525H66.9473V56.5262H70.4209V53.0525Z" fill="white"/>
<path d="M73.8946 53.0525H70.4209V56.5262H73.8946V53.0525Z" fill="white"/>
<path d="M77.3682 53.0525H73.8945V56.5262H77.3682V53.0525Z" fill="white"/>
<path d="M84.3155 53.0525H80.8418V56.5262H84.3155V53.0525Z" fill="white"/>
<path d="M87.7891 53.0525H84.3154V56.5262H87.7891V53.0525Z" fill="white"/>
<path d="M91.2627 53.0525H87.7891V56.5262H91.2627V53.0525Z" fill="white"/>
<path d="M94.7364 53.0525H91.2627V56.5262H94.7364V53.0525Z" fill="white"/>
<path d="M101.684 53.0525H98.21V56.5262H101.684V53.0525Z" fill="white"/>
<path d="M108.632 53.0525H105.158V56.5262H108.632V53.0525Z" fill="white"/>
<path d="M122.526 53.0525H119.053V56.5262H122.526V53.0525Z" fill="white"/>
<path d="M136.421 53.0525H132.947V56.5262H136.421V53.0525Z" fill="white"/>
<path d="M143.368 53.0525H139.895V56.5262H143.368V53.0525Z" fill="white"/>
<path d="M160.736 53.0525H157.263V56.5262H160.736V53.0525Z" fill="white"/>
<path d="M181.579 53.0525H178.105V56.5262H181.579V53.0525Z" fill="white"/>
<path d="M185.053 53.0525H181.579V56.5262H185.053V53.0525Z" fill="white"/>
<path d="M11.3682 56.5261H7.89453V59.9998H11.3682V56.5261Z" fill="white"/>
<path d="M25.2627 56.5261H21.7891V59.9998H25.2627V56.5261Z" fill="white"/>
<path d="M28.7364 56.5261H25.2627V59.9998H28.7364V56.5261Z" fill="white"/>
<path d="M32.21 56.5261H28.7363V59.9998H32.21V56.5261Z" fill="white"/>
<path d="M42.6319 56.5261H39.1582V59.9998H42.6319V56.5261Z" fill="white"/>
<path d="M46.1055 56.5261H42.6318V59.9998H46.1055V56.5261Z" fill="white"/>
<path d="M63.4737 56.5261H60V59.9998H63.4737V56.5261Z" fill="white"/>
<path d="M66.9473 56.5261H63.4736V59.9998H66.9473V56.5261Z" fill="white"/>
<path d="M73.8946 56.5261H70.4209V59.9998H73.8946V56.5261Z" fill="white"/>
<path d="M84.3155 56.5261H80.8418V59.9998H84.3155V56.5261Z" fill="white"/>
<path d="M91.2627 56.5261H87.7891V59.9998H91.2627V56.5261Z" fill="white"/>
<path d="M94.7364 56.5261H91.2627V59.9998H94.7364V56.5261Z" fill="white"/>
<path d="M98.21 56.5261H94.7363V59.9998H98.21V56.5261Z" fill="white"/>
<path d="M101.684 56.5261H98.21V59.9998H101.684V56.5261Z" fill="white"/>
<path d="M105.158 56.5261H101.685V59.9998H105.158V56.5261Z" fill="white"/>
<path d="M115.579 56.5261H112.105V59.9998H115.579V56.5261Z" fill="white"/>
<path d="M119.053 56.5261H115.579V59.9998H119.053V56.5261Z" fill="white"/>
<path d="M126 56.5261H122.526V59.9998H126V56.5261Z" fill="white"/>
<path d="M129.474 56.5261H126V59.9998H129.474V56.5261Z" fill="white"/>
<path d="M136.421 56.5261H132.947V59.9998H136.421V56.5261Z" fill="white"/>
<path d="M143.368 56.5261H139.895V59.9998H143.368V56.5261Z" fill="white"/>
<path d="M150.315 56.5261H146.842V59.9998H150.315V56.5261Z" fill="white"/>
<path d="M153.789 56.5261H150.315V59.9998H153.789V56.5261Z" fill="white"/>
<path d="M171.158 56.5261H167.685V59.9998H171.158V56.5261Z" fill="white"/>
<path d="M174.632 56.5261H171.158V59.9998H174.632V56.5261Z" fill="white"/>
<path d="M181.579 56.5261H178.105V59.9998H181.579V56.5261Z" fill="white"/>
<path d="M185.053 56.5261H181.579V59.9998H185.053V56.5261Z" fill="white"/>
<path d="M4.42095 60H0.947266V63.4737H4.42095V60Z" fill="white"/>
<path d="M7.89458 60H4.4209V63.4737H7.89458V60Z" fill="white"/>
<path d="M11.3682 60H7.89453V63.4737H11.3682V60Z" fill="white"/>
<path d="M21.7891 60H18.3154V63.4737H21.7891V60Z" fill="white"/>
<path d="M35.6836 60H32.21V63.4737H35.6836V60Z" fill="white"/>
<path d="M39.1583 60H35.6846V63.4737H39.1583V60Z" fill="white"/>
<path d="M42.6319 60H39.1582V63.4737H42.6319V60Z" fill="white"/>
<path d="M46.1055 60H42.6318V63.4737H46.1055V60Z" fill="white"/>
<path d="M49.5792 60H46.1055V63.4737H49.5792V60Z" fill="white"/>
<path d="M56.5264 60H53.0527V63.4737H56.5264V60Z" fill="white"/>
<path d="M60.0001 60H56.5264V63.4737H60.0001V60Z" fill="white"/>
<path d="M63.4737 60H60V63.4737H63.4737V60Z" fill="white"/>
<path d="M66.9473 60H63.4736V63.4737H66.9473V60Z" fill="white"/>
<path d="M77.3682 60H73.8945V63.4737H77.3682V60Z" fill="white"/>
<path d="M84.3155 60H80.8418V63.4737H84.3155V60Z" fill="white"/>
<path d="M87.7891 60H84.3154V63.4737H87.7891V60Z" fill="white"/>
<path d="M94.7364 60H91.2627V63.4737H94.7364V60Z" fill="white"/>
<path d="M101.684 60H98.21V63.4737H101.684V60Z" fill="white"/>
<path d="M105.158 60H101.685V63.4737H105.158V60Z" fill="white"/>
<path d="M115.579 60H112.105V63.4737H115.579V60Z" fill="white"/>
<path d="M119.053 60H115.579V63.4737H119.053V60Z" fill="white"/>
<path d="M132.947 60H129.474V63.4737H132.947V60Z" fill="white"/>
<path d="M139.895 60H136.421V63.4737H139.895V60Z" fill="white"/>
<path d="M143.368 60H139.895V63.4737H143.368V60Z" fill="white"/>
<path d="M146.842 60H143.368V63.4737H146.842V60Z" fill="white"/>
<path d="M153.789 60H150.315V63.4737H153.789V60Z" fill="white"/>
<path d="M160.736 60H157.263V63.4737H160.736V60Z" fill="white"/>
<path d="M171.158 60H167.685V63.4737H171.158V60Z" fill="white"/>
<path d="M174.632 60H171.158V63.4737H174.632V60Z" fill="white"/>
<path d="M7.89458 63.4736H4.4209V66.9473H7.89458V63.4736Z" fill="white"/>
<path d="M14.8418 63.4736H11.3682V66.9473H14.8418V63.4736Z" fill="white"/>
<path d="M25.2627 63.4736H21.7891V66.9473H25.2627V63.4736Z" fill="white"/>
<path d="M28.7364 63.4736H25.2627V66.9473H28.7364V63.4736Z" fill="white"/>
<path d="M32.21 63.4736H28.7363V66.9473H32.21V63.4736Z" fill="white"/>
<path d="M35.6836 63.4736H32.21V66.9473H35.6836V63.4736Z" fill="white"/>
<path d="M39.1583 63.4736H35.6846V66.9473H39.1583V63.4736Z" fill="white"/>
<path d="M49.5792 63.4736H46.1055V66.9473H49.5792V63.4736Z" fill="white"/>
<path d="M53.0528 63.4736H49.5791V66.9473H53.0528V63.4736Z" fill="white"/>
<path d="M60.0001 63.4736H56.5264V66.9473H60.0001V63.4736Z" fill="white"/>
<path d="M63.4737 63.4736H60V66.9473H63.4737V63.4736Z" fill="white"/>
<path d="M66.9473 63.4736H63.4736V66.9473H66.9473V63.4736Z" fill="white"/>
<path d="M73.8946 63.4736H70.4209V66.9473H73.8946V63.4736Z" fill="white"/>
<path d="M80.8418 63.4736H77.3682V66.9473H80.8418V63.4736Z" fill="white"/>
<path d="M87.7891 63.4736H84.3154V66.9473H87.7891V63.4736Z" fill="white"/>
<path d="M98.21 63.4736H94.7363V66.9473H98.21V63.4736Z" fill="white"/>
<path d="M105.158 63.4736H101.685V66.9473H105.158V63.4736Z" fill="white"/>
<path d="M108.632 63.4736H105.158V66.9473H108.632V63.4736Z" fill="white"/>
<path d="M115.579 63.4736H112.105V66.9473H115.579V63.4736Z" fill="white"/>
<path d="M122.526 63.4736H119.053V66.9473H122.526V63.4736Z" fill="white"/>
<path d="M129.474 63.4736H126V66.9473H129.474V63.4736Z" fill="white"/>
<path d="M132.947 63.4736H129.474V66.9473H132.947V63.4736Z" fill="white"/>
<path d="M146.842 63.4736H143.368V66.9473H146.842V63.4736Z" fill="white"/>
<path d="M150.315 63.4736H146.842V66.9473H150.315V63.4736Z" fill="white"/>
<path d="M157.263 63.4736H153.789V66.9473H157.263V63.4736Z" fill="white"/>
<path d="M160.736 63.4736H157.263V66.9473H160.736V63.4736Z" fill="white"/>
<path d="M164.21 63.4736H160.736V66.9473H164.21V63.4736Z" fill="white"/>
<path d="M167.684 63.4736H164.21V66.9473H167.684V63.4736Z" fill="white"/>
<path d="M178.106 63.4736H174.632V66.9473H178.106V63.4736Z" fill="white"/>
<path d="M185.053 63.4736H181.579V66.9473H185.053V63.4736Z" fill="white"/>
<path d="M4.42095 66.9473H0.947266V70.4209H4.42095V66.9473Z" fill="white"/>
<path d="M7.89458 66.9473H4.4209V70.4209H7.89458V66.9473Z" fill="white"/>
<path d="M35.6836 66.9473H32.21V70.4209H35.6836V66.9473Z" fill="white"/>
<path d="M42.6319 66.9473H39.1582V70.4209H42.6319V66.9473Z" fill="white"/>
<path d="M46.1055 66.9473H42.6318V70.4209H46.1055V66.9473Z" fill="white"/>
<path d="M53.0528 66.9473H49.5791V70.4209H53.0528V66.9473Z" fill="white"/>
<path d="M63.4737 66.9473H60V70.4209H63.4737V66.9473Z" fill="white"/>
<path d="M73.8946 66.9473H70.4209V70.4209H73.8946V66.9473Z" fill="white"/>
<path d="M77.3682 66.9473H73.8945V70.4209H77.3682V66.9473Z" fill="white"/>
<path d="M94.7364 66.9473H91.2627V70.4209H94.7364V66.9473Z" fill="white"/>
<path d="M101.684 66.9473H98.21V70.4209H101.684V66.9473Z" fill="white"/>
<path d="M115.579 66.9473H112.105V70.4209H115.579V66.9473Z" fill="white"/>
<path d="M122.526 66.9473H119.053V70.4209H122.526V66.9473Z" fill="white"/>
<path d="M132.947 66.9473H129.474V70.4209H132.947V66.9473Z" fill="white"/>
<path d="M136.421 66.9473H132.947V70.4209H136.421V66.9473Z" fill="white"/>
<path d="M139.895 66.9473H136.421V70.4209H139.895V66.9473Z" fill="white"/>
<path d="M150.315 66.9473H146.842V70.4209H150.315V66.9473Z" fill="white"/>
<path d="M153.789 66.9473H150.315V70.4209H153.789V66.9473Z" fill="white"/>
<path d="M160.736 66.9473H157.263V70.4209H160.736V66.9473Z" fill="white"/>
<path d="M164.21 66.9473H160.736V70.4209H164.21V66.9473Z" fill="white"/>
<path d="M171.158 66.9473H167.685V70.4209H171.158V66.9473Z" fill="white"/>
<path d="M174.632 66.9473H171.158V70.4209H174.632V66.9473Z" fill="white"/>
<path d="M185.053 66.9473H181.579V70.4209H185.053V66.9473Z" fill="white"/>
<path d="M21.7891 70.4209H18.3154V73.8946H21.7891V70.4209Z" fill="white"/>
<path d="M25.2627 70.4209H21.7891V73.8946H25.2627V70.4209Z" fill="white"/>
<path d="M28.7364 70.4209H25.2627V73.8946H28.7364V70.4209Z" fill="white"/>
<path d="M39.1583 70.4209H35.6846V73.8946H39.1583V70.4209Z" fill="white"/>
<path d="M53.0528 70.4209H49.5791V73.8946H53.0528V70.4209Z" fill="white"/>
<path d="M66.9473 70.4209H63.4736V73.8946H66.9473V70.4209Z" fill="white"/>
<path d="M70.4209 70.4209H66.9473V73.8946H70.4209V70.4209Z" fill="white"/>
<path d="M87.7891 70.4209H84.3154V73.8946H87.7891V70.4209Z" fill="white"/>
<path d="M98.21 70.4209H94.7363V73.8946H98.21V70.4209Z" fill="white"/>
<path d="M101.684 70.4209H98.21V73.8946H101.684V70.4209Z" fill="white"/>
<path d="M108.632 70.4209H105.158V73.8946H108.632V70.4209Z" fill="white"/>
<path d="M115.579 70.4209H112.105V73.8946H115.579V70.4209Z" fill="white"/>
<path d="M119.053 70.4209H115.579V73.8946H119.053V70.4209Z" fill="white"/>
<path d="M132.947 70.4209H129.474V73.8946H132.947V70.4209Z" fill="white"/>
<path d="M143.368 70.4209H139.895V73.8946H143.368V70.4209Z" fill="white"/>
<path d="M146.842 70.4209H143.368V73.8946H146.842V70.4209Z" fill="white"/>
<path d="M160.736 70.4209H157.263V73.8946H160.736V70.4209Z" fill="white"/>
<path d="M171.158 70.4209H167.685V73.8946H171.158V70.4209Z" fill="white"/>
<path d="M178.106 70.4209H174.632V73.8946H178.106V70.4209Z" fill="white"/>
<path d="M181.579 70.4209H178.105V73.8946H181.579V70.4209Z" fill="white"/>
<path d="M4.42095 73.8945H0.947266V77.3682H4.42095V73.8945Z" fill="white"/>
<path d="M14.8418 73.8945H11.3682V77.3682H14.8418V73.8945Z" fill="white"/>
<path d="M21.7891 73.8945H18.3154V77.3682H21.7891V73.8945Z" fill="white"/>
<path d="M28.7364 73.8945H25.2627V77.3682H28.7364V73.8945Z" fill="white"/>
<path d="M32.21 73.8945H28.7363V77.3682H32.21V73.8945Z" fill="white"/>
<path d="M35.6836 73.8945H32.21V77.3682H35.6836V73.8945Z" fill="white"/>
<path d="M39.1583 73.8945H35.6846V77.3682H39.1583V73.8945Z" fill="white"/>
<path d="M42.6319 73.8945H39.1582V77.3682H42.6319V73.8945Z" fill="white"/>
<path d="M53.0528 73.8945H49.5791V77.3682H53.0528V73.8945Z" fill="white"/>
<path d="M56.5264 73.8945H53.0527V77.3682H56.5264V73.8945Z" fill="white"/>
<path d="M60.0001 73.8945H56.5264V77.3682H60.0001V73.8945Z" fill="white"/>
<path d="M63.4737 73.8945H60V77.3682H63.4737V73.8945Z" fill="white"/>
<path d="M70.4209 73.8945H66.9473V77.3682H70.4209V73.8945Z" fill="white"/>
<path d="M73.8946 73.8945H70.4209V77.3682H73.8946V73.8945Z" fill="white"/>
<path d="M77.3682 73.8945H73.8945V77.3682H77.3682V73.8945Z" fill="white"/>
<path d="M80.8418 73.8945H77.3682V77.3682H80.8418V73.8945Z" fill="white"/>
<path d="M84.3155 73.8945H80.8418V77.3682H84.3155V73.8945Z" fill="white"/>
<path d="M87.7891 73.8945H84.3154V77.3682H87.7891V73.8945Z" fill="white"/>
<path d="M91.2627 73.8945H87.7891V77.3682H91.2627V73.8945Z" fill="white"/>
<path d="M101.684 73.8945H98.21V77.3682H101.684V73.8945Z" fill="white"/>
<path d="M119.053 73.8945H115.579V77.3682H119.053V73.8945Z" fill="white"/>
<path d="M129.474 73.8945H126V77.3682H129.474V73.8945Z" fill="white"/>
<path d="M132.947 73.8945H129.474V77.3682H132.947V73.8945Z" fill="white"/>
<path d="M136.421 73.8945H132.947V77.3682H136.421V73.8945Z" fill="white"/>
<path d="M143.368 73.8945H139.895V77.3682H143.368V73.8945Z" fill="white"/>
<path d="M146.842 73.8945H143.368V77.3682H146.842V73.8945Z" fill="white"/>
<path d="M167.684 73.8945H164.21V77.3682H167.684V73.8945Z" fill="white"/>
<path d="M171.158 73.8945H167.685V77.3682H171.158V73.8945Z" fill="white"/>
<path d="M4.42095 77.3684H0.947266V80.8421H4.42095V77.3684Z" fill="white"/>
<path d="M7.89458 77.3684H4.4209V80.8421H7.89458V77.3684Z" fill="white"/>
<path d="M11.3682 77.3684H7.89453V80.8421H11.3682V77.3684Z" fill="white"/>
<path d="M14.8418 77.3684H11.3682V80.8421H14.8418V77.3684Z" fill="white"/>
<path d="M21.7891 77.3684H18.3154V80.8421H21.7891V77.3684Z" fill="white"/>
<path d="M25.2627 77.3684H21.7891V80.8421H25.2627V77.3684Z" fill="white"/>
<path d="M35.6836 77.3684H32.21V80.8421H35.6836V77.3684Z" fill="white"/>
<path d="M39.1583 77.3684H35.6846V80.8421H39.1583V77.3684Z" fill="white"/>
<path d="M42.6319 77.3684H39.1582V80.8421H42.6319V77.3684Z" fill="white"/>
<path d="M49.5792 77.3684H46.1055V80.8421H49.5792V77.3684Z" fill="white"/>
<path d="M53.0528 77.3684H49.5791V80.8421H53.0528V77.3684Z" fill="white"/>
<path d="M56.5264 77.3684H53.0527V80.8421H56.5264V77.3684Z" fill="white"/>
<path d="M66.9473 77.3684H63.4736V80.8421H66.9473V77.3684Z" fill="white"/>
<path d="M73.8946 77.3684H70.4209V80.8421H73.8946V77.3684Z" fill="white"/>
<path d="M87.7891 77.3684H84.3154V80.8421H87.7891V77.3684Z" fill="white"/>
<path d="M94.7364 77.3684H91.2627V80.8421H94.7364V77.3684Z" fill="white"/>
<path d="M98.21 77.3684H94.7363V80.8421H98.21V77.3684Z" fill="white"/>
<path d="M108.632 77.3684H105.158V80.8421H108.632V77.3684Z" fill="white"/>
<path d="M112.106 77.3684H108.632V80.8421H112.106V77.3684Z" fill="white"/>
<path d="M119.053 77.3684H115.579V80.8421H119.053V77.3684Z" fill="white"/>
<path d="M132.947 77.3684H129.474V80.8421H132.947V77.3684Z" fill="white"/>
<path d="M136.421 77.3684H132.947V80.8421H136.421V77.3684Z" fill="white"/>
<path d="M146.842 77.3684H143.368V80.8421H146.842V77.3684Z" fill="white"/>
<path d="M150.315 77.3684H146.842V80.8421H150.315V77.3684Z" fill="white"/>
<path d="M153.789 77.3684H150.315V80.8421H153.789V77.3684Z" fill="white"/>
<path d="M157.263 77.3684H153.789V80.8421H157.263V77.3684Z" fill="white"/>
<path d="M174.632 77.3684H171.158V80.8421H174.632V77.3684Z" fill="white"/>
<path d="M185.053 77.3684H181.579V80.8421H185.053V77.3684Z" fill="white"/>
<path d="M21.7891 80.842H18.3154V84.3157H21.7891V80.842Z" fill="white"/>
<path d="M35.6836 80.842H32.21V84.3157H35.6836V80.842Z" fill="white"/>
<path d="M46.1055 80.842H42.6318V84.3157H46.1055V80.842Z" fill="white"/>
<path d="M56.5264 80.842H53.0527V84.3157H56.5264V80.842Z" fill="white"/>
<path d="M63.4737 80.842H60V84.3157H63.4737V80.842Z" fill="white"/>
<path d="M70.4209 80.842H66.9473V84.3157H70.4209V80.842Z" fill="white"/>
<path d="M73.8946 80.842H70.4209V84.3157H73.8946V80.842Z" fill="white"/>
<path d="M105.158 80.842H101.685V84.3157H105.158V80.842Z" fill="white"/>
<path d="M108.632 80.842H105.158V84.3157H108.632V80.842Z" fill="white"/>
<path d="M112.106 80.842H108.632V84.3157H112.106V80.842Z" fill="white"/>
<path d="M119.053 80.842H115.579V84.3157H119.053V80.842Z" fill="white"/>
<path d="M122.526 80.842H119.053V84.3157H122.526V80.842Z" fill="white"/>
<path d="M129.474 80.842H126V84.3157H129.474V80.842Z" fill="white"/>
<path d="M139.895 80.842H136.421V84.3157H139.895V80.842Z" fill="white"/>
<path d="M143.368 80.842H139.895V84.3157H143.368V80.842Z" fill="white"/>
<path d="M150.315 80.842H146.842V84.3157H150.315V80.842Z" fill="white"/>
<path d="M153.789 80.842H150.315V84.3157H153.789V80.842Z" fill="white"/>
<path d="M164.21 80.842H160.736V84.3157H164.21V80.842Z" fill="white"/>
<path d="M171.158 80.842H167.685V84.3157H171.158V80.842Z" fill="white"/>
<path d="M174.632 80.842H171.158V84.3157H174.632V80.842Z" fill="white"/>
<path d="M181.579 80.842H178.105V84.3157H181.579V80.842Z" fill="white"/>
<path d="M4.42095 84.3157H0.947266V87.7894H4.42095V84.3157Z" fill="white"/>
<path d="M7.89458 84.3157H4.4209V87.7894H7.89458V84.3157Z" fill="white"/>
<path d="M11.3682 84.3157H7.89453V87.7894H11.3682V84.3157Z" fill="white"/>
<path d="M14.8418 84.3157H11.3682V87.7894H14.8418V84.3157Z" fill="white"/>
<path d="M18.3155 84.3157H14.8418V87.7894H18.3155V84.3157Z" fill="white"/>
<path d="M21.7891 84.3157H18.3154V87.7894H21.7891V84.3157Z" fill="white"/>
<path d="M25.2627 84.3157H21.7891V87.7894H25.2627V84.3157Z" fill="white"/>
<path d="M28.7364 84.3157H25.2627V87.7894H28.7364V84.3157Z" fill="white"/>
<path d="M32.21 84.3157H28.7363V87.7894H32.21V84.3157Z" fill="white"/>
<path d="M46.1055 84.3157H42.6318V87.7894H46.1055V84.3157Z" fill="white"/>
<path d="M49.5792 84.3157H46.1055V87.7894H49.5792V84.3157Z" fill="white"/>
<path d="M56.5264 84.3157H53.0527V87.7894H56.5264V84.3157Z" fill="white"/>
<path d="M63.4737 84.3157H60V87.7894H63.4737V84.3157Z" fill="white"/>
<path d="M66.9473 84.3157H63.4736V87.7894H66.9473V84.3157Z" fill="white"/>
<path d="M73.8946 84.3157H70.4209V87.7894H73.8946V84.3157Z" fill="white"/>
<path d="M77.3682 84.3157H73.8945V87.7894H77.3682V84.3157Z" fill="white"/>
<path d="M87.7891 84.3157H84.3154V87.7894H87.7891V84.3157Z" fill="white"/>
<path d="M91.2627 84.3157H87.7891V87.7894H91.2627V84.3157Z" fill="white"/>
<path d="M94.7364 84.3157H91.2627V87.7894H94.7364V84.3157Z" fill="white"/>
<path d="M98.21 84.3157H94.7363V87.7894H98.21V84.3157Z" fill="white"/>
<path d="M101.684 84.3157H98.21V87.7894H101.684V84.3157Z" fill="white"/>
<path d="M105.158 84.3157H101.685V87.7894H105.158V84.3157Z" fill="white"/>
<path d="M108.632 84.3157H105.158V87.7894H108.632V84.3157Z" fill="white"/>
<path d="M115.579 84.3157H112.105V87.7894H115.579V84.3157Z" fill="white"/>
<path d="M122.526 84.3157H119.053V87.7894H122.526V84.3157Z" fill="white"/>
<path d="M126 84.3157H122.526V87.7894H126V84.3157Z" fill="white"/>
<path d="M129.474 84.3157H126V87.7894H129.474V84.3157Z" fill="white"/>
<path d="M136.421 84.3157H132.947V87.7894H136.421V84.3157Z" fill="white"/>
<path d="M139.895 84.3157H136.421V87.7894H139.895V84.3157Z" fill="white"/>
<path d="M143.368 84.3157H139.895V87.7894H143.368V84.3157Z" fill="white"/>
<path d="M153.789 84.3157H150.315V87.7894H153.789V84.3157Z" fill="white"/>
<path d="M157.263 84.3157H153.789V87.7894H157.263V84.3157Z" fill="white"/>
<path d="M160.736 84.3157H157.263V87.7894H160.736V84.3157Z" fill="white"/>
<path d="M164.21 84.3157H160.736V87.7894H164.21V84.3157Z" fill="white"/>
<path d="M167.684 84.3157H164.21V87.7894H167.684V84.3157Z" fill="white"/>
<path d="M171.158 84.3157H167.685V87.7894H171.158V84.3157Z" fill="white"/>
<path d="M174.632 84.3157H171.158V87.7894H174.632V84.3157Z" fill="white"/>
<path d="M185.053 84.3157H181.579V87.7894H185.053V84.3157Z" fill="white"/>
<path d="M7.89458 87.7893H4.4209V91.263H7.89458V87.7893Z" fill="white"/>
<path d="M18.3155 87.7893H14.8418V91.263H18.3155V87.7893Z" fill="white"/>
<path d="M32.21 87.7893H28.7363V91.263H32.21V87.7893Z" fill="white"/>
<path d="M39.1583 87.7893H35.6846V91.263H39.1583V87.7893Z" fill="white"/>
<path d="M46.1055 87.7893H42.6318V91.263H46.1055V87.7893Z" fill="white"/>
<path d="M53.0528 87.7893H49.5791V91.263H53.0528V87.7893Z" fill="white"/>
<path d="M56.5264 87.7893H53.0527V91.263H56.5264V87.7893Z" fill="white"/>
<path d="M66.9473 87.7893H63.4736V91.263H66.9473V87.7893Z" fill="white"/>
<path d="M80.8418 87.7893H77.3682V91.263H80.8418V87.7893Z" fill="white"/>
<path d="M87.7891 87.7893H84.3154V91.263H87.7891V87.7893Z" fill="white"/>
<path d="M101.684 87.7893H98.21V91.263H101.684V87.7893Z" fill="white"/>
<path d="M112.106 87.7893H108.632V91.263H112.106V87.7893Z" fill="white"/>
<path d="M132.947 87.7893H129.474V91.263H132.947V87.7893Z" fill="white"/>
<path d="M146.842 87.7893H143.368V91.263H146.842V87.7893Z" fill="white"/>
<path d="M157.263 87.7893H153.789V91.263H157.263V87.7893Z" fill="white"/>
<path d="M171.158 87.7893H167.685V91.263H171.158V87.7893Z" fill="white"/>
<path d="M174.632 87.7893H171.158V91.263H174.632V87.7893Z" fill="white"/>
<path d="M178.106 87.7893H174.632V91.263H178.106V87.7893Z" fill="white"/>
<path d="M181.579 87.7893H178.105V91.263H181.579V87.7893Z" fill="white"/>
<path d="M185.053 87.7893H181.579V91.263H185.053V87.7893Z" fill="white"/>
<path d="M18.3155 91.2629H14.8418V94.7366H18.3155V91.2629Z" fill="white"/>
<path d="M25.2627 91.2629H21.7891V94.7366H25.2627V91.2629Z" fill="white"/>
<path d="M32.21 91.2629H28.7363V94.7366H32.21V91.2629Z" fill="white"/>
<path d="M35.6836 91.2629H32.21V94.7366H35.6836V91.2629Z" fill="white"/>
<path d="M39.1583 91.2629H35.6846V94.7366H39.1583V91.2629Z" fill="white"/>
<path d="M46.1055 91.2629H42.6318V94.7366H46.1055V91.2629Z" fill="white"/>
<path d="M49.5792 91.2629H46.1055V94.7366H49.5792V91.2629Z" fill="white"/>
<path d="M53.0528 91.2629H49.5791V94.7366H53.0528V91.2629Z" fill="white"/>
<path d="M56.5264 91.2629H53.0527V94.7366H56.5264V91.2629Z" fill="white"/>
<path d="M60.0001 91.2629H56.5264V94.7366H60.0001V91.2629Z" fill="white"/>
<path d="M63.4737 91.2629H60V94.7366H63.4737V91.2629Z" fill="white"/>
<path d="M70.4209 91.2629H66.9473V94.7366H70.4209V91.2629Z" fill="white"/>
<path d="M73.8946 91.2629H70.4209V94.7366H73.8946V91.2629Z" fill="white"/>
<path d="M84.3155 91.2629H80.8418V94.7366H84.3155V91.2629Z" fill="white"/>
<path d="M87.7891 91.2629H84.3154V94.7366H87.7891V91.2629Z" fill="white"/>
<path d="M94.7364 91.2629H91.2627V94.7366H94.7364V91.2629Z" fill="white"/>
<path d="M101.684 91.2629H98.21V94.7366H101.684V91.2629Z" fill="white"/>
<path d="M115.579 91.2629H112.105V94.7366H115.579V91.2629Z" fill="white"/>
<path d="M119.053 91.2629H115.579V94.7366H119.053V91.2629Z" fill="white"/>
<path d="M122.526 91.2629H119.053V94.7366H122.526V91.2629Z" fill="white"/>
<path d="M129.474 91.2629H126V94.7366H129.474V91.2629Z" fill="white"/>
<path d="M136.421 91.2629H132.947V94.7366H136.421V91.2629Z" fill="white"/>
<path d="M157.263 91.2629H153.789V94.7366H157.263V91.2629Z" fill="white"/>
<path d="M164.21 91.2629H160.736V94.7366H164.21V91.2629Z" fill="white"/>
<path d="M171.158 91.2629H167.685V94.7366H171.158V91.2629Z" fill="white"/>
<path d="M174.632 91.2629H171.158V94.7366H174.632V91.2629Z" fill="white"/>
<path d="M185.053 91.2629H181.579V94.7366H185.053V91.2629Z" fill="white"/>
<path d="M4.42095 94.7368H0.947266V98.2105H4.42095V94.7368Z" fill="white"/>
<path d="M11.3682 94.7368H7.89453V98.2105H11.3682V94.7368Z" fill="white"/>
<path d="M14.8418 94.7368H11.3682V98.2105H14.8418V94.7368Z" fill="white"/>
<path d="M18.3155 94.7368H14.8418V98.2105H18.3155V94.7368Z" fill="white"/>
<path d="M32.21 94.7368H28.7363V98.2105H32.21V94.7368Z" fill="white"/>
<path d="M39.1583 94.7368H35.6846V98.2105H39.1583V94.7368Z" fill="white"/>
<path d="M42.6319 94.7368H39.1582V98.2105H42.6319V94.7368Z" fill="white"/>
<path d="M53.0528 94.7368H49.5791V98.2105H53.0528V94.7368Z" fill="white"/>
<path d="M60.0001 94.7368H56.5264V98.2105H60.0001V94.7368Z" fill="white"/>
<path d="M63.4737 94.7368H60V98.2105H63.4737V94.7368Z" fill="white"/>
<path d="M70.4209 94.7368H66.9473V98.2105H70.4209V94.7368Z" fill="white"/>
<path d="M87.7891 94.7368H84.3154V98.2105H87.7891V94.7368Z" fill="white"/>
<path d="M101.684 94.7368H98.21V98.2105H101.684V94.7368Z" fill="white"/>
<path d="M105.158 94.7368H101.685V98.2105H105.158V94.7368Z" fill="white"/>
<path d="M108.632 94.7368H105.158V98.2105H108.632V94.7368Z" fill="white"/>
<path d="M112.106 94.7368H108.632V98.2105H112.106V94.7368Z" fill="white"/>
<path d="M122.526 94.7368H119.053V98.2105H122.526V94.7368Z" fill="white"/>
<path d="M126 94.7368H122.526V98.2105H126V94.7368Z" fill="white"/>
<path d="M129.474 94.7368H126V98.2105H129.474V94.7368Z" fill="white"/>
<path d="M132.947 94.7368H129.474V98.2105H132.947V94.7368Z" fill="white"/>
<path d="M136.421 94.7368H132.947V98.2105H136.421V94.7368Z" fill="white"/>
<path d="M143.368 94.7368H139.895V98.2105H143.368V94.7368Z" fill="white"/>
<path d="M157.263 94.7368H153.789V98.2105H157.263V94.7368Z" fill="white"/>
<path d="M171.158 94.7368H167.685V98.2105H171.158V94.7368Z" fill="white"/>
<path d="M174.632 94.7368H171.158V98.2105H174.632V94.7368Z" fill="white"/>
<path d="M181.579 94.7368H178.105V98.2105H181.579V94.7368Z" fill="white"/>
<path d="M185.053 94.7368H181.579V98.2105H185.053V94.7368Z" fill="white"/>
<path d="M11.3682 98.2104H7.89453V101.684H11.3682V98.2104Z" fill="white"/>
<path d="M14.8418 98.2104H11.3682V101.684H14.8418V98.2104Z" fill="white"/>
<path d="M18.3155 98.2104H14.8418V101.684H18.3155V98.2104Z" fill="white"/>
<path d="M21.7891 98.2104H18.3154V101.684H21.7891V98.2104Z" fill="white"/>
<path d="M25.2627 98.2104H21.7891V101.684H25.2627V98.2104Z" fill="white"/>
<path d="M28.7364 98.2104H25.2627V101.684H28.7364V98.2104Z" fill="white"/>
<path d="M32.21 98.2104H28.7363V101.684H32.21V98.2104Z" fill="white"/>
<path d="M46.1055 98.2104H42.6318V101.684H46.1055V98.2104Z" fill="white"/>
<path d="M60.0001 98.2104H56.5264V101.684H60.0001V98.2104Z" fill="white"/>
<path d="M66.9473 98.2104H63.4736V101.684H66.9473V98.2104Z" fill="white"/>
<path d="M73.8946 98.2104H70.4209V101.684H73.8946V98.2104Z" fill="white"/>
<path d="M77.3682 98.2104H73.8945V101.684H77.3682V98.2104Z" fill="white"/>
<path d="M87.7891 98.2104H84.3154V101.684H87.7891V98.2104Z" fill="white"/>
<path d="M91.2627 98.2104H87.7891V101.684H91.2627V98.2104Z" fill="white"/>
<path d="M94.7364 98.2104H91.2627V101.684H94.7364V98.2104Z" fill="white"/>
<path d="M98.21 98.2104H94.7363V101.684H98.21V98.2104Z" fill="white"/>
<path d="M101.684 98.2104H98.21V101.684H101.684V98.2104Z" fill="white"/>
<path d="M108.632 98.2104H105.158V101.684H108.632V98.2104Z" fill="white"/>
<path d="M112.106 98.2104H108.632V101.684H112.106V98.2104Z" fill="white"/>
<path d="M115.579 98.2104H112.105V101.684H115.579V98.2104Z" fill="white"/>
<path d="M119.053 98.2104H115.579V101.684H119.053V98.2104Z" fill="white"/>
<path d="M129.474 98.2104H126V101.684H129.474V98.2104Z" fill="white"/>
<path d="M132.947 98.2104H129.474V101.684H132.947V98.2104Z" fill="white"/>
<path d="M143.368 98.2104H139.895V101.684H143.368V98.2104Z" fill="white"/>
<path d="M150.315 98.2104H146.842V101.684H150.315V98.2104Z" fill="white"/>
<path d="M157.263 98.2104H153.789V101.684H157.263V98.2104Z" fill="white"/>
<path d="M160.736 98.2104H157.263V101.684H160.736V98.2104Z" fill="white"/>
<path d="M164.21 98.2104H160.736V101.684H164.21V98.2104Z" fill="white"/>
<path d="M167.684 98.2104H164.21V101.684H167.684V98.2104Z" fill="white"/>
<path d="M171.158 98.2104H167.685V101.684H171.158V98.2104Z" fill="white"/>
<path d="M174.632 98.2104H171.158V101.684H174.632V98.2104Z" fill="white"/>
<path d="M178.106 98.2104H174.632V101.684H178.106V98.2104Z" fill="white"/>
<path d="M14.8418 101.684H11.3682V105.158H14.8418V101.684Z" fill="white"/>
<path d="M21.7891 101.684H18.3154V105.158H21.7891V101.684Z" fill="white"/>
<path d="M35.6836 101.684H32.21V105.158H35.6836V101.684Z" fill="white"/>
<path d="M39.1583 101.684H35.6846V105.158H39.1583V101.684Z" fill="white"/>
<path d="M42.6319 101.684H39.1582V105.158H42.6319V101.684Z" fill="white"/>
<path d="M46.1055 101.684H42.6318V105.158H46.1055V101.684Z" fill="white"/>
<path d="M49.5792 101.684H46.1055V105.158H49.5792V101.684Z" fill="white"/>
<path d="M56.5264 101.684H53.0527V105.158H56.5264V101.684Z" fill="white"/>
<path d="M60.0001 101.684H56.5264V105.158H60.0001V101.684Z" fill="white"/>
<path d="M66.9473 101.684H63.4736V105.158H66.9473V101.684Z" fill="white"/>
<path d="M73.8946 101.684H70.4209V105.158H73.8946V101.684Z" fill="white"/>
<path d="M80.8418 101.684H77.3682V105.158H80.8418V101.684Z" fill="white"/>
<path d="M94.7364 101.684H91.2627V105.158H94.7364V101.684Z" fill="white"/>
<path d="M98.21 101.684H94.7363V105.158H98.21V101.684Z" fill="white"/>
<path d="M101.684 101.684H98.21V105.158H101.684V101.684Z" fill="white"/>
<path d="M105.158 101.684H101.685V105.158H105.158V101.684Z" fill="white"/>
<path d="M112.106 101.684H108.632V105.158H112.106V101.684Z" fill="white"/>
<path d="M119.053 101.684H115.579V105.158H119.053V101.684Z" fill="white"/>
<path d="M139.895 101.684H136.421V105.158H139.895V101.684Z" fill="white"/>
<path d="M143.368 101.684H139.895V105.158H143.368V101.684Z" fill="white"/>
<path d="M146.842 101.684H143.368V105.158H146.842V101.684Z" fill="white"/>
<path d="M157.263 101.684H153.789V105.158H157.263V101.684Z" fill="white"/>
<path d="M167.684 101.684H164.21V105.158H167.684V101.684Z" fill="white"/>
<path d="M7.89458 105.158H4.4209V108.631H7.89458V105.158Z" fill="white"/>
<path d="M18.3155 105.158H14.8418V108.631H18.3155V105.158Z" fill="white"/>
<path d="M21.7891 105.158H18.3154V108.631H21.7891V105.158Z" fill="white"/>
<path d="M25.2627 105.158H21.7891V108.631H25.2627V105.158Z" fill="white"/>
<path d="M28.7364 105.158H25.2627V108.631H28.7364V105.158Z" fill="white"/>
<path d="M39.1583 105.158H35.6846V108.631H39.1583V105.158Z" fill="white"/>
<path d="M46.1055 105.158H42.6318V108.631H46.1055V105.158Z" fill="white"/>
<path d="M49.5792 105.158H46.1055V108.631H49.5792V105.158Z" fill="white"/>
<path d="M60.0001 105.158H56.5264V108.631H60.0001V105.158Z" fill="white"/>
<path d="M63.4737 105.158H60V108.631H63.4737V105.158Z" fill="white"/>
<path d="M73.8946 105.158H70.4209V108.631H73.8946V105.158Z" fill="white"/>
<path d="M80.8418 105.158H77.3682V108.631H80.8418V105.158Z" fill="white"/>
<path d="M87.7891 105.158H84.3154V108.631H87.7891V105.158Z" fill="white"/>
<path d="M98.21 105.158H94.7363V108.631H98.21V105.158Z" fill="white"/>
<path d="M105.158 105.158H101.685V108.631H105.158V105.158Z" fill="white"/>
<path d="M112.106 105.158H108.632V108.631H112.106V105.158Z" fill="white"/>
<path d="M115.579 105.158H112.105V108.631H115.579V105.158Z" fill="white"/>
<path d="M119.053 105.158H115.579V108.631H119.053V105.158Z" fill="white"/>
<path d="M126 105.158H122.526V108.631H126V105.158Z" fill="white"/>
<path d="M139.895 105.158H136.421V108.631H139.895V105.158Z" fill="white"/>
<path d="M143.368 105.158H139.895V108.631H143.368V105.158Z" fill="white"/>
<path d="M150.315 105.158H146.842V108.631H150.315V105.158Z" fill="white"/>
<path d="M157.263 105.158H153.789V108.631H157.263V105.158Z" fill="white"/>
<path d="M164.21 105.158H160.736V108.631H164.21V105.158Z" fill="white"/>
<path d="M174.632 105.158H171.158V108.631H174.632V105.158Z" fill="white"/>
<path d="M185.053 105.158H181.579V108.631H185.053V105.158Z" fill="white"/>
<path d="M7.89458 108.632H4.4209V112.105H7.89458V108.632Z" fill="white"/>
<path d="M11.3682 108.632H7.89453V112.105H11.3682V108.632Z" fill="white"/>
<path d="M14.8418 108.632H11.3682V112.105H14.8418V108.632Z" fill="white"/>
<path d="M18.3155 108.632H14.8418V112.105H18.3155V108.632Z" fill="white"/>
<path d="M21.7891 108.632H18.3154V112.105H21.7891V108.632Z" fill="white"/>
<path d="M28.7364 108.632H25.2627V112.105H28.7364V108.632Z" fill="white"/>
<path d="M42.6319 108.632H39.1582V112.105H42.6319V108.632Z" fill="white"/>
<path d="M46.1055 108.632H42.6318V112.105H46.1055V108.632Z" fill="white"/>
<path d="M53.0528 108.632H49.5791V112.105H53.0528V108.632Z" fill="white"/>
<path d="M56.5264 108.632H53.0527V112.105H56.5264V108.632Z" fill="white"/>
<path d="M63.4737 108.632H60V112.105H63.4737V108.632Z" fill="white"/>
<path d="M70.4209 108.632H66.9473V112.105H70.4209V108.632Z" fill="white"/>
<path d="M73.8946 108.632H70.4209V112.105H73.8946V108.632Z" fill="white"/>
<path d="M77.3682 108.632H73.8945V112.105H77.3682V108.632Z" fill="white"/>
<path d="M84.3155 108.632H80.8418V112.105H84.3155V108.632Z" fill="white"/>
<path d="M94.7364 108.632H91.2627V112.105H94.7364V108.632Z" fill="white"/>
<path d="M108.632 108.632H105.158V112.105H108.632V108.632Z" fill="white"/>
<path d="M115.579 108.632H112.105V112.105H115.579V108.632Z" fill="white"/>
<path d="M122.526 108.632H119.053V112.105H122.526V108.632Z" fill="white"/>
<path d="M126 108.632H122.526V112.105H126V108.632Z" fill="white"/>
<path d="M132.947 108.632H129.474V112.105H132.947V108.632Z" fill="white"/>
<path d="M136.421 108.632H132.947V112.105H136.421V108.632Z" fill="white"/>
<path d="M143.368 108.632H139.895V112.105H143.368V108.632Z" fill="white"/>
<path d="M150.315 108.632H146.842V112.105H150.315V108.632Z" fill="white"/>
<path d="M153.789 108.632H150.315V112.105H153.789V108.632Z" fill="white"/>
<path d="M160.736 108.632H157.263V112.105H160.736V108.632Z" fill="white"/>
<path d="M164.21 108.632H160.736V112.105H164.21V108.632Z" fill="white"/>
<path d="M174.632 108.632H171.158V112.105H174.632V108.632Z" fill="white"/>
<path d="M11.3682 112.105H7.89453V115.579H11.3682V112.105Z" fill="white"/>
<path d="M14.8418 112.105H11.3682V115.579H14.8418V112.105Z" fill="white"/>
<path d="M18.3155 112.105H14.8418V115.579H18.3155V112.105Z" fill="white"/>
<path d="M21.7891 112.105H18.3154V115.579H21.7891V112.105Z" fill="white"/>
<path d="M25.2627 112.105H21.7891V115.579H25.2627V112.105Z" fill="white"/>
<path d="M28.7364 112.105H25.2627V115.579H28.7364V112.105Z" fill="white"/>
<path d="M35.6836 112.105H32.21V115.579H35.6836V112.105Z" fill="white"/>
<path d="M42.6319 112.105H39.1582V115.579H42.6319V112.105Z" fill="white"/>
<path d="M49.5792 112.105H46.1055V115.579H49.5792V112.105Z" fill="white"/>
<path d="M53.0528 112.105H49.5791V115.579H53.0528V112.105Z" fill="white"/>
<path d="M63.4737 112.105H60V115.579H63.4737V112.105Z" fill="white"/>
<path d="M70.4209 112.105H66.9473V115.579H70.4209V112.105Z" fill="white"/>
<path d="M73.8946 112.105H70.4209V115.579H73.8946V112.105Z" fill="white"/>
<path d="M77.3682 112.105H73.8945V115.579H77.3682V112.105Z" fill="white"/>
<path d="M84.3155 112.105H80.8418V115.579H84.3155V112.105Z" fill="white"/>
<path d="M87.7891 112.105H84.3154V115.579H87.7891V112.105Z" fill="white"/>
<path d="M91.2627 112.105H87.7891V115.579H91.2627V112.105Z" fill="white"/>
<path d="M94.7364 112.105H91.2627V115.579H94.7364V112.105Z" fill="white"/>
<path d="M98.21 112.105H94.7363V115.579H98.21V112.105Z" fill="white"/>
<path d="M105.158 112.105H101.685V115.579H105.158V112.105Z" fill="white"/>
<path d="M108.632 112.105H105.158V115.579H108.632V112.105Z" fill="white"/>
<path d="M115.579 112.105H112.105V115.579H115.579V112.105Z" fill="white"/>
<path d="M129.474 112.105H126V115.579H129.474V112.105Z" fill="white"/>
<path d="M143.368 112.105H139.895V115.579H143.368V112.105Z" fill="white"/>
<path d="M146.842 112.105H143.368V115.579H146.842V112.105Z" fill="white"/>
<path d="M153.789 112.105H150.315V115.579H153.789V112.105Z" fill="white"/>
<path d="M157.263 112.105H153.789V115.579H157.263V112.105Z" fill="white"/>
<path d="M160.736 112.105H157.263V115.579H160.736V112.105Z" fill="white"/>
<path d="M167.684 112.105H164.21V115.579H167.684V112.105Z" fill="white"/>
<path d="M171.158 112.105H167.685V115.579H171.158V112.105Z" fill="white"/>
<path d="M174.632 112.105H171.158V115.579H174.632V112.105Z" fill="white"/>
<path d="M178.106 112.105H174.632V115.579H178.106V112.105Z" fill="white"/>
<path d="M185.053 112.105H181.579V115.579H185.053V112.105Z" fill="white"/>
<path d="M11.3682 115.579H7.89453V119.053H11.3682V115.579Z" fill="white"/>
<path d="M14.8418 115.579H11.3682V119.053H14.8418V115.579Z" fill="white"/>
<path d="M21.7891 115.579H18.3154V119.053H21.7891V115.579Z" fill="white"/>
<path d="M32.21 115.579H28.7363V119.053H32.21V115.579Z" fill="white"/>
<path d="M42.6319 115.579H39.1582V119.053H42.6319V115.579Z" fill="white"/>
<path d="M49.5792 115.579H46.1055V119.053H49.5792V115.579Z" fill="white"/>
<path d="M60.0001 115.579H56.5264V119.053H60.0001V115.579Z" fill="white"/>
<path d="M63.4737 115.579H60V119.053H63.4737V115.579Z" fill="white"/>
<path d="M66.9473 115.579H63.4736V119.053H66.9473V115.579Z" fill="white"/>
<path d="M70.4209 115.579H66.9473V119.053H70.4209V115.579Z" fill="white"/>
<path d="M87.7891 115.579H84.3154V119.053H87.7891V115.579Z" fill="white"/>
<path d="M94.7364 115.579H91.2627V119.053H94.7364V115.579Z" fill="white"/>
<path d="M101.684 115.579H98.21V119.053H101.684V115.579Z" fill="white"/>
<path d="M112.106 115.579H108.632V119.053H112.106V115.579Z" fill="white"/>
<path d="M115.579 115.579H112.105V119.053H115.579V115.579Z" fill="white"/>
<path d="M126 115.579H122.526V119.053H126V115.579Z" fill="white"/>
<path d="M129.474 115.579H126V119.053H129.474V115.579Z" fill="white"/>
<path d="M132.947 115.579H129.474V119.053H132.947V115.579Z" fill="white"/>
<path d="M143.368 115.579H139.895V119.053H143.368V115.579Z" fill="white"/>
<path d="M146.842 115.579H143.368V119.053H146.842V115.579Z" fill="white"/>
<path d="M153.789 115.579H150.315V119.053H153.789V115.579Z" fill="white"/>
<path d="M157.263 115.579H153.789V119.053H157.263V115.579Z" fill="white"/>
<path d="M167.684 115.579H164.21V119.053H167.684V115.579Z" fill="white"/>
<path d="M178.106 115.579H174.632V119.053H178.106V115.579Z" fill="white"/>
<path d="M185.053 115.579H181.579V119.053H185.053V115.579Z" fill="white"/>
<path d="M7.89458 119.052H4.4209V122.526H7.89458V119.052Z" fill="white"/>
<path d="M14.8418 119.052H11.3682V122.526H14.8418V119.052Z" fill="white"/>
<path d="M25.2627 119.052H21.7891V122.526H25.2627V119.052Z" fill="white"/>
<path d="M28.7364 119.052H25.2627V122.526H28.7364V119.052Z" fill="white"/>
<path d="M32.21 119.052H28.7363V122.526H32.21V119.052Z" fill="white"/>
<path d="M39.1583 119.052H35.6846V122.526H39.1583V119.052Z" fill="white"/>
<path d="M46.1055 119.052H42.6318V122.526H46.1055V119.052Z" fill="white"/>
<path d="M60.0001 119.052H56.5264V122.526H60.0001V119.052Z" fill="white"/>
<path d="M70.4209 119.052H66.9473V122.526H70.4209V119.052Z" fill="white"/>
<path d="M73.8946 119.052H70.4209V122.526H73.8946V119.052Z" fill="white"/>
<path d="M77.3682 119.052H73.8945V122.526H77.3682V119.052Z" fill="white"/>
<path d="M80.8418 119.052H77.3682V122.526H80.8418V119.052Z" fill="white"/>
<path d="M84.3155 119.052H80.8418V122.526H84.3155V119.052Z" fill="white"/>
<path d="M91.2627 119.052H87.7891V122.526H91.2627V119.052Z" fill="white"/>
<path d="M94.7364 119.052H91.2627V122.526H94.7364V119.052Z" fill="white"/>
<path d="M105.158 119.052H101.685V122.526H105.158V119.052Z" fill="white"/>
<path d="M108.632 119.052H105.158V122.526H108.632V119.052Z" fill="white"/>
<path d="M139.895 119.052H136.421V122.526H139.895V119.052Z" fill="white"/>
<path d="M150.315 119.052H146.842V122.526H150.315V119.052Z" fill="white"/>
<path d="M157.263 119.052H153.789V122.526H157.263V119.052Z" fill="white"/>
<path d="M164.21 119.052H160.736V122.526H164.21V119.052Z" fill="white"/>
<path d="M178.106 119.052H174.632V122.526H178.106V119.052Z" fill="white"/>
<path d="M185.053 119.052H181.579V122.526H185.053V119.052Z" fill="white"/>
<path d="M14.8418 122.526H11.3682V126H14.8418V122.526Z" fill="white"/>
<path d="M18.3155 122.526H14.8418V126H18.3155V122.526Z" fill="white"/>
<path d="M35.6836 122.526H32.21V126H35.6836V122.526Z" fill="white"/>
<path d="M46.1055 122.526H42.6318V126H46.1055V122.526Z" fill="white"/>
<path d="M49.5792 122.526H46.1055V126H49.5792V122.526Z" fill="white"/>
<path d="M63.4737 122.526H60V126H63.4737V122.526Z" fill="white"/>
<path d="M70.4209 122.526H66.9473V126H70.4209V122.526Z" fill="white"/>
<path d="M77.3682 122.526H73.8945V126H77.3682V122.526Z" fill="white"/>
<path d="M80.8418 122.526H77.3682V126H80.8418V122.526Z" fill="white"/>
<path d="M98.21 122.526H94.7363V126H98.21V122.526Z" fill="white"/>
<path d="M105.158 122.526H101.685V126H105.158V122.526Z" fill="white"/>
<path d="M108.632 122.526H105.158V126H108.632V122.526Z" fill="white"/>
<path d="M112.106 122.526H108.632V126H112.106V122.526Z" fill="white"/>
<path d="M115.579 122.526H112.105V126H115.579V122.526Z" fill="white"/>
<path d="M126 122.526H122.526V126H126V122.526Z" fill="white"/>
<path d="M129.474 122.526H126V126H129.474V122.526Z" fill="white"/>
<path d="M132.947 122.526H129.474V126H132.947V122.526Z" fill="white"/>
<path d="M146.842 122.526H143.368V126H146.842V122.526Z" fill="white"/>
<path d="M150.315 122.526H146.842V126H150.315V122.526Z" fill="white"/>
<path d="M153.789 122.526H150.315V126H153.789V122.526Z" fill="white"/>
<path d="M157.263 122.526H153.789V126H157.263V122.526Z" fill="white"/>
<path d="M164.21 122.526H160.736V126H164.21V122.526Z" fill="white"/>
<path d="M167.684 122.526H164.21V126H167.684V122.526Z" fill="white"/>
<path d="M171.158 122.526H167.685V126H171.158V122.526Z" fill="white"/>
<path d="M174.632 122.526H171.158V126H174.632V122.526Z" fill="white"/>
<path d="M185.053 122.526H181.579V126H185.053V122.526Z" fill="white"/>
<path d="M7.89458 126H4.4209V129.474H7.89458V126Z" fill="white"/>
<path d="M14.8418 126H11.3682V129.474H14.8418V126Z" fill="white"/>
<path d="M25.2627 126H21.7891V129.474H25.2627V126Z" fill="white"/>
<path d="M28.7364 126H25.2627V129.474H28.7364V126Z" fill="white"/>
<path d="M39.1583 126H35.6846V129.474H39.1583V126Z" fill="white"/>
<path d="M49.5792 126H46.1055V129.474H49.5792V126Z" fill="white"/>
<path d="M80.8418 126H77.3682V129.474H80.8418V126Z" fill="white"/>
<path d="M84.3155 126H80.8418V129.474H84.3155V126Z" fill="white"/>
<path d="M101.684 126H98.21V129.474H101.684V126Z" fill="white"/>
<path d="M105.158 126H101.685V129.474H105.158V126Z" fill="white"/>
<path d="M115.579 126H112.105V129.474H115.579V126Z" fill="white"/>
<path d="M122.526 126H119.053V129.474H122.526V126Z" fill="white"/>
<path d="M129.474 126H126V129.474H129.474V126Z" fill="white"/>
<path d="M139.895 126H136.421V129.474H139.895V126Z" fill="white"/>
<path d="M143.368 126H139.895V129.474H143.368V126Z" fill="white"/>
<path d="M146.842 126H143.368V129.474H146.842V126Z" fill="white"/>
<path d="M153.789 126H150.315V129.474H153.789V126Z" fill="white"/>
<path d="M164.21 126H160.736V129.474H164.21V126Z" fill="white"/>
<path d="M167.684 126H164.21V129.474H167.684V126Z" fill="white"/>
<path d="M171.158 126H167.685V129.474H171.158V126Z" fill="white"/>
<path d="M174.632 126H171.158V129.474H174.632V126Z" fill="white"/>
<path d="M178.106 126H174.632V129.474H178.106V126Z" fill="white"/>
<path d="M181.579 126H178.105V129.474H181.579V126Z" fill="white"/>
<path d="M185.053 126H181.579V129.474H185.053V126Z" fill="white"/>
<path d="M4.42095 129.474H0.947266V132.947H4.42095V129.474Z" fill="white"/>
<path d="M7.89458 129.474H4.4209V132.947H7.89458V129.474Z" fill="white"/>
<path d="M14.8418 129.474H11.3682V132.947H14.8418V129.474Z" fill="white"/>
<path d="M18.3155 129.474H14.8418V132.947H18.3155V129.474Z" fill="white"/>
<path d="M28.7364 129.474H25.2627V132.947H28.7364V129.474Z" fill="white"/>
<path d="M39.1583 129.474H35.6846V132.947H39.1583V129.474Z" fill="white"/>
<path d="M49.5792 129.474H46.1055V132.947H49.5792V129.474Z" fill="white"/>
<path d="M53.0528 129.474H49.5791V132.947H53.0528V129.474Z" fill="white"/>
<path d="M56.5264 129.474H53.0527V132.947H56.5264V129.474Z" fill="white"/>
<path d="M60.0001 129.474H56.5264V132.947H60.0001V129.474Z" fill="white"/>
<path d="M73.8946 129.474H70.4209V132.947H73.8946V129.474Z" fill="white"/>
<path d="M77.3682 129.474H73.8945V132.947H77.3682V129.474Z" fill="white"/>
<path d="M87.7891 129.474H84.3154V132.947H87.7891V129.474Z" fill="white"/>
<path d="M94.7364 129.474H91.2627V132.947H94.7364V129.474Z" fill="white"/>
<path d="M98.21 129.474H94.7363V132.947H98.21V129.474Z" fill="white"/>
<path d="M101.684 129.474H98.21V132.947H101.684V129.474Z" fill="white"/>
<path d="M115.579 129.474H112.105V132.947H115.579V129.474Z" fill="white"/>
<path d="M119.053 129.474H115.579V132.947H119.053V129.474Z" fill="white"/>
<path d="M126 129.474H122.526V132.947H126V129.474Z" fill="white"/>
<path d="M132.947 129.474H129.474V132.947H132.947V129.474Z" fill="white"/>
<path d="M153.789 129.474H150.315V132.947H153.789V129.474Z" fill="white"/>
<path d="M157.263 129.474H153.789V132.947H157.263V129.474Z" fill="white"/>
<path d="M160.736 129.474H157.263V132.947H160.736V129.474Z" fill="white"/>
<path d="M167.684 129.474H164.21V132.947H167.684V129.474Z" fill="white"/>
<path d="M181.579 129.474H178.105V132.947H181.579V129.474Z" fill="white"/>
<path d="M185.053 129.474H181.579V132.947H185.053V129.474Z" fill="white"/>
<path d="M11.3682 132.947H7.89453V136.421H11.3682V132.947Z" fill="white"/>
<path d="M25.2627 132.947H21.7891V136.421H25.2627V132.947Z" fill="white"/>
<path d="M32.21 132.947H28.7363V136.421H32.21V132.947Z" fill="white"/>
<path d="M42.6319 132.947H39.1582V136.421H42.6319V132.947Z" fill="white"/>
<path d="M49.5792 132.947H46.1055V136.421H49.5792V132.947Z" fill="white"/>
<path d="M53.0528 132.947H49.5791V136.421H53.0528V132.947Z" fill="white"/>
<path d="M56.5264 132.947H53.0527V136.421H56.5264V132.947Z" fill="white"/>
<path d="M60.0001 132.947H56.5264V136.421H60.0001V132.947Z" fill="white"/>
<path d="M66.9473 132.947H63.4736V136.421H66.9473V132.947Z" fill="white"/>
<path d="M73.8946 132.947H70.4209V136.421H73.8946V132.947Z" fill="white"/>
<path d="M84.3155 132.947H80.8418V136.421H84.3155V132.947Z" fill="white"/>
<path d="M87.7891 132.947H84.3154V136.421H87.7891V132.947Z" fill="white"/>
<path d="M98.21 132.947H94.7363V136.421H98.21V132.947Z" fill="white"/>
<path d="M112.106 132.947H108.632V136.421H112.106V132.947Z" fill="white"/>
<path d="M115.579 132.947H112.105V136.421H115.579V132.947Z" fill="white"/>
<path d="M126 132.947H122.526V136.421H126V132.947Z" fill="white"/>
<path d="M129.474 132.947H126V136.421H129.474V132.947Z" fill="white"/>
<path d="M132.947 132.947H129.474V136.421H132.947V132.947Z" fill="white"/>
<path d="M139.895 132.947H136.421V136.421H139.895V132.947Z" fill="white"/>
<path d="M143.368 132.947H139.895V136.421H143.368V132.947Z" fill="white"/>
<path d="M153.789 132.947H150.315V136.421H153.789V132.947Z" fill="white"/>
<path d="M164.21 132.947H160.736V136.421H164.21V132.947Z" fill="white"/>
<path d="M171.158 132.947H167.685V136.421H171.158V132.947Z" fill="white"/>
<path d="M181.579 132.947H178.105V136.421H181.579V132.947Z" fill="white"/>
<path d="M185.053 132.947H181.579V136.421H185.053V132.947Z" fill="white"/>
<path d="M4.42095 136.421H0.947266V139.895H4.42095V136.421Z" fill="white"/>
<path d="M18.3155 136.421H14.8418V139.895H18.3155V136.421Z" fill="white"/>
<path d="M21.7891 136.421H18.3154V139.895H21.7891V136.421Z" fill="white"/>
<path d="M28.7364 136.421H25.2627V139.895H28.7364V136.421Z" fill="white"/>
<path d="M39.1583 136.421H35.6846V139.895H39.1583V136.421Z" fill="white"/>
<path d="M42.6319 136.421H39.1582V139.895H42.6319V136.421Z" fill="white"/>
<path d="M46.1055 136.421H42.6318V139.895H46.1055V136.421Z" fill="white"/>
<path d="M49.5792 136.421H46.1055V139.895H49.5792V136.421Z" fill="white"/>
<path d="M53.0528 136.421H49.5791V139.895H53.0528V136.421Z" fill="white"/>
<path d="M60.0001 136.421H56.5264V139.895H60.0001V136.421Z" fill="white"/>
<path d="M63.4737 136.421H60V139.895H63.4737V136.421Z" fill="white"/>
<path d="M66.9473 136.421H63.4736V139.895H66.9473V136.421Z" fill="white"/>
<path d="M70.4209 136.421H66.9473V139.895H70.4209V136.421Z" fill="white"/>
<path d="M77.3682 136.421H73.8945V139.895H77.3682V136.421Z" fill="white"/>
<path d="M98.21 136.421H94.7363V139.895H98.21V136.421Z" fill="white"/>
<path d="M101.684 136.421H98.21V139.895H101.684V136.421Z" fill="white"/>
<path d="M108.632 136.421H105.158V139.895H108.632V136.421Z" fill="white"/>
<path d="M129.474 136.421H126V139.895H129.474V136.421Z" fill="white"/>
<path d="M132.947 136.421H129.474V139.895H132.947V136.421Z" fill="white"/>
<path d="M153.789 136.421H150.315V139.895H153.789V136.421Z" fill="white"/>
<path d="M167.684 136.421H164.21V139.895H167.684V136.421Z" fill="white"/>
<path d="M174.632 136.421H171.158V139.895H174.632V136.421Z" fill="white"/>
<path d="M185.053 136.421H181.579V139.895H185.053V136.421Z" fill="white"/>
<path d="M4.42095 139.895H0.947266V143.368H4.42095V139.895Z" fill="white"/>
<path d="M25.2627 139.895H21.7891V143.368H25.2627V139.895Z" fill="white"/>
<path d="M28.7364 139.895H25.2627V143.368H28.7364V139.895Z" fill="white"/>
<path d="M39.1583 139.895H35.6846V143.368H39.1583V139.895Z" fill="white"/>
<path d="M46.1055 139.895H42.6318V143.368H46.1055V139.895Z" fill="white"/>
<path d="M53.0528 139.895H49.5791V143.368H53.0528V139.895Z" fill="white"/>
<path d="M60.0001 139.895H56.5264V143.368H60.0001V139.895Z" fill="white"/>
<path d="M63.4737 139.895H60V143.368H63.4737V139.895Z" fill="white"/>
<path d="M66.9473 139.895H63.4736V143.368H66.9473V139.895Z" fill="white"/>
<path d="M70.4209 139.895H66.9473V143.368H70.4209V139.895Z" fill="white"/>
<path d="M73.8946 139.895H70.4209V143.368H73.8946V139.895Z" fill="white"/>
<path d="M87.7891 139.895H84.3154V143.368H87.7891V139.895Z" fill="white"/>
<path d="M101.684 139.895H98.21V143.368H101.684V139.895Z" fill="white"/>
<path d="M105.158 139.895H101.685V143.368H105.158V139.895Z" fill="white"/>
<path d="M108.632 139.895H105.158V143.368H108.632V139.895Z" fill="white"/>
<path d="M115.579 139.895H112.105V143.368H115.579V139.895Z" fill="white"/>
<path d="M129.474 139.895H126V143.368H129.474V139.895Z" fill="white"/>
<path d="M143.368 139.895H139.895V143.368H143.368V139.895Z" fill="white"/>
<path d="M146.842 139.895H143.368V143.368H146.842V139.895Z" fill="white"/>
<path d="M153.789 139.895H150.315V143.368H153.789V139.895Z" fill="white"/>
<path d="M157.263 139.895H153.789V143.368H157.263V139.895Z" fill="white"/>
<path d="M164.21 139.895H160.736V143.368H164.21V139.895Z" fill="white"/>
<path d="M174.632 139.895H171.158V143.368H174.632V139.895Z" fill="white"/>
<path d="M14.8418 143.368H11.3682V146.842H14.8418V143.368Z" fill="white"/>
<path d="M32.21 143.368H28.7363V146.842H32.21V143.368Z" fill="white"/>
<path d="M46.1055 143.368H42.6318V146.842H46.1055V143.368Z" fill="white"/>
<path d="M49.5792 143.368H46.1055V146.842H49.5792V143.368Z" fill="white"/>
<path d="M56.5264 143.368H53.0527V146.842H56.5264V143.368Z" fill="white"/>
<path d="M60.0001 143.368H56.5264V146.842H60.0001V143.368Z" fill="white"/>
<path d="M66.9473 143.368H63.4736V146.842H66.9473V143.368Z" fill="white"/>
<path d="M70.4209 143.368H66.9473V146.842H70.4209V143.368Z" fill="white"/>
<path d="M80.8418 143.368H77.3682V146.842H80.8418V143.368Z" fill="white"/>
<path d="M84.3155 143.368H80.8418V146.842H84.3155V143.368Z" fill="white"/>
<path d="M87.7891 143.368H84.3154V146.842H87.7891V143.368Z" fill="white"/>
<path d="M94.7364 143.368H91.2627V146.842H94.7364V143.368Z" fill="white"/>
<path d="M98.21 143.368H94.7363V146.842H98.21V143.368Z" fill="white"/>
<path d="M101.684 143.368H98.21V146.842H101.684V143.368Z" fill="white"/>
<path d="M105.158 143.368H101.685V146.842H105.158V143.368Z" fill="white"/>
<path d="M108.632 143.368H105.158V146.842H108.632V143.368Z" fill="white"/>
<path d="M112.106 143.368H108.632V146.842H112.106V143.368Z" fill="white"/>
<path d="M115.579 143.368H112.105V146.842H115.579V143.368Z" fill="white"/>
<path d="M119.053 143.368H115.579V146.842H119.053V143.368Z" fill="white"/>
<path d="M129.474 143.368H126V146.842H129.474V143.368Z" fill="white"/>
<path d="M132.947 143.368H129.474V146.842H132.947V143.368Z" fill="white"/>
<path d="M143.368 143.368H139.895V146.842H143.368V143.368Z" fill="white"/>
<path d="M146.842 143.368H143.368V146.842H146.842V143.368Z" fill="white"/>
<path d="M153.789 143.368H150.315V146.842H153.789V143.368Z" fill="white"/>
<path d="M160.736 143.368H157.263V146.842H160.736V143.368Z" fill="white"/>
<path d="M178.106 143.368H174.632V146.842H178.106V143.368Z" fill="white"/>
<path d="M185.053 143.368H181.579V146.842H185.053V143.368Z" fill="white"/>
<path d="M4.42095 146.842H0.947266V150.316H4.42095V146.842Z" fill="white"/>
<path d="M7.89458 146.842H4.4209V150.316H7.89458V146.842Z" fill="white"/>
<path d="M14.8418 146.842H11.3682V150.316H14.8418V146.842Z" fill="white"/>
<path d="M18.3155 146.842H14.8418V150.316H18.3155V146.842Z" fill="white"/>
<path d="M21.7891 146.842H18.3154V150.316H21.7891V146.842Z" fill="white"/>
<path d="M25.2627 146.842H21.7891V150.316H25.2627V146.842Z" fill="white"/>
<path d="M32.21 146.842H28.7363V150.316H32.21V146.842Z" fill="white"/>
<path d="M39.1583 146.842H35.6846V150.316H39.1583V146.842Z" fill="white"/>
<path d="M49.5792 146.842H46.1055V150.316H49.5792V146.842Z" fill="white"/>
<path d="M60.0001 146.842H56.5264V150.316H60.0001V146.842Z" fill="white"/>
<path d="M73.8946 146.842H70.4209V150.316H73.8946V146.842Z" fill="white"/>
<path d="M91.2627 146.842H87.7891V150.316H91.2627V146.842Z" fill="white"/>
<path d="M108.632 146.842H105.158V150.316H108.632V146.842Z" fill="white"/>
<path d="M112.106 146.842H108.632V150.316H112.106V146.842Z" fill="white"/>
<path d="M119.053 146.842H115.579V150.316H119.053V146.842Z" fill="white"/>
<path d="M126 146.842H122.526V150.316H126V146.842Z" fill="white"/>
<path d="M129.474 146.842H126V150.316H129.474V146.842Z" fill="white"/>
<path d="M132.947 146.842H129.474V150.316H132.947V146.842Z" fill="white"/>
<path d="M136.421 146.842H132.947V150.316H136.421V146.842Z" fill="white"/>
<path d="M143.368 146.842H139.895V150.316H143.368V146.842Z" fill="white"/>
<path d="M157.263 146.842H153.789V150.316H157.263V146.842Z" fill="white"/>
<path d="M164.21 146.842H160.736V150.316H164.21V146.842Z" fill="white"/>
<path d="M167.684 146.842H164.21V150.316H167.684V146.842Z" fill="white"/>
<path d="M171.158 146.842H167.685V150.316H171.158V146.842Z" fill="white"/>
<path d="M174.632 146.842H171.158V150.316H174.632V146.842Z" fill="white"/>
<path d="M181.579 146.842H178.105V150.316H181.579V146.842Z" fill="white"/>
<path d="M185.053 146.842H181.579V150.316H185.053V146.842Z" fill="white"/>
<path d="M7.89458 150.316H4.4209V153.789H7.89458V150.316Z" fill="white"/>
<path d="M11.3682 150.316H7.89453V153.789H11.3682V150.316Z" fill="white"/>
<path d="M32.21 150.316H28.7363V153.789H32.21V150.316Z" fill="white"/>
<path d="M39.1583 150.316H35.6846V153.789H39.1583V150.316Z" fill="white"/>
<path d="M53.0528 150.316H49.5791V153.789H53.0528V150.316Z" fill="white"/>
<path d="M63.4737 150.316H60V153.789H63.4737V150.316Z" fill="white"/>
<path d="M84.3155 150.316H80.8418V153.789H84.3155V150.316Z" fill="white"/>
<path d="M87.7891 150.316H84.3154V153.789H87.7891V150.316Z" fill="white"/>
<path d="M108.632 150.316H105.158V153.789H108.632V150.316Z" fill="white"/>
<path d="M115.579 150.316H112.105V153.789H115.579V150.316Z" fill="white"/>
<path d="M119.053 150.316H115.579V153.789H119.053V150.316Z" fill="white"/>
<path d="M122.526 150.316H119.053V153.789H122.526V150.316Z" fill="white"/>
<path d="M126 150.316H122.526V153.789H126V150.316Z" fill="white"/>
<path d="M129.474 150.316H126V153.789H129.474V150.316Z" fill="white"/>
<path d="M157.263 150.316H153.789V153.789H157.263V150.316Z" fill="white"/>
<path d="M160.736 150.316H157.263V153.789H160.736V150.316Z" fill="white"/>
<path d="M167.684 150.316H164.21V153.789H167.684V150.316Z" fill="white"/>
<path d="M174.632 150.316H171.158V153.789H174.632V150.316Z" fill="white"/>
<path d="M185.053 150.316H181.579V153.789H185.053V150.316Z" fill="white"/>
<path d="M14.8418 153.789H11.3682V157.263H14.8418V153.789Z" fill="white"/>
<path d="M25.2627 153.789H21.7891V157.263H25.2627V153.789Z" fill="white"/>
<path d="M28.7364 153.789H25.2627V157.263H28.7364V153.789Z" fill="white"/>
<path d="M32.21 153.789H28.7363V157.263H32.21V153.789Z" fill="white"/>
<path d="M39.1583 153.789H35.6846V157.263H39.1583V153.789Z" fill="white"/>
<path d="M42.6319 153.789H39.1582V157.263H42.6319V153.789Z" fill="white"/>
<path d="M46.1055 153.789H42.6318V157.263H46.1055V153.789Z" fill="white"/>
<path d="M49.5792 153.789H46.1055V157.263H49.5792V153.789Z" fill="white"/>
<path d="M53.0528 153.789H49.5791V157.263H53.0528V153.789Z" fill="white"/>
<path d="M56.5264 153.789H53.0527V157.263H56.5264V153.789Z" fill="white"/>
<path d="M66.9473 153.789H63.4736V157.263H66.9473V153.789Z" fill="white"/>
<path d="M73.8946 153.789H70.4209V157.263H73.8946V153.789Z" fill="white"/>
<path d="M77.3682 153.789H73.8945V157.263H77.3682V153.789Z" fill="white"/>
<path d="M80.8418 153.789H77.3682V157.263H80.8418V153.789Z" fill="white"/>
<path d="M87.7891 153.789H84.3154V157.263H87.7891V153.789Z" fill="white"/>
<path d="M91.2627 153.789H87.7891V157.263H91.2627V153.789Z" fill="white"/>
<path d="M94.7364 153.789H91.2627V157.263H94.7364V153.789Z" fill="white"/>
<path d="M98.21 153.789H94.7363V157.263H98.21V153.789Z" fill="white"/>
<path d="M101.684 153.789H98.21V157.263H101.684V153.789Z" fill="white"/>
<path d="M105.158 153.789H101.685V157.263H105.158V153.789Z" fill="white"/>
<path d="M115.579 153.789H112.105V157.263H115.579V153.789Z" fill="white"/>
<path d="M119.053 153.789H115.579V157.263H119.053V153.789Z" fill="white"/>
<path d="M126 153.789H122.526V157.263H126V153.789Z" fill="white"/>
<path d="M129.474 153.789H126V157.263H129.474V153.789Z" fill="white"/>
<path d="M143.368 153.789H139.895V157.263H143.368V153.789Z" fill="white"/>
<path d="M153.789 153.789H150.315V157.263H153.789V153.789Z" fill="white"/>
<path d="M157.263 153.789H153.789V157.263H157.263V153.789Z" fill="white"/>
<path d="M160.736 153.789H157.263V157.263H160.736V153.789Z" fill="white"/>
<path d="M164.21 153.789H160.736V157.263H164.21V153.789Z" fill="white"/>
<path d="M167.684 153.789H164.21V157.263H167.684V153.789Z" fill="white"/>
<path d="M171.158 153.789H167.685V157.263H171.158V153.789Z" fill="white"/>
<path d="M174.632 153.789H171.158V157.263H174.632V153.789Z" fill="white"/>
<path d="M32.21 157.263H28.7363V160.737H32.21V157.263Z" fill="white"/>
<path d="M35.6836 157.263H32.21V160.737H35.6836V157.263Z" fill="white"/>
<path d="M39.1583 157.263H35.6846V160.737H39.1583V157.263Z" fill="white"/>
<path d="M42.6319 157.263H39.1582V160.737H42.6319V157.263Z" fill="white"/>
<path d="M46.1055 157.263H42.6318V160.737H46.1055V157.263Z" fill="white"/>
<path d="M49.5792 157.263H46.1055V160.737H49.5792V157.263Z" fill="white"/>
<path d="M53.0528 157.263H49.5791V160.737H53.0528V157.263Z" fill="white"/>
<path d="M60.0001 157.263H56.5264V160.737H60.0001V157.263Z" fill="white"/>
<path d="M63.4737 157.263H60V160.737H63.4737V157.263Z" fill="white"/>
<path d="M66.9473 157.263H63.4736V160.737H66.9473V157.263Z" fill="white"/>
<path d="M70.4209 157.263H66.9473V160.737H70.4209V157.263Z" fill="white"/>
<path d="M73.8946 157.263H70.4209V160.737H73.8946V157.263Z" fill="white"/>
<path d="M77.3682 157.263H73.8945V160.737H77.3682V157.263Z" fill="white"/>
<path d="M87.7891 157.263H84.3154V160.737H87.7891V157.263Z" fill="white"/>
<path d="M101.684 157.263H98.21V160.737H101.684V157.263Z" fill="white"/>
<path d="M105.158 157.263H101.685V160.737H105.158V157.263Z" fill="white"/>
<path d="M112.106 157.263H108.632V160.737H112.106V157.263Z" fill="white"/>
<path d="M115.579 157.263H112.105V160.737H115.579V157.263Z" fill="white"/>
<path d="M119.053 157.263H115.579V160.737H119.053V157.263Z" fill="white"/>
<path d="M122.526 157.263H119.053V160.737H122.526V157.263Z" fill="white"/>
<path d="M129.474 157.263H126V160.737H129.474V157.263Z" fill="white"/>
<path d="M132.947 157.263H129.474V160.737H132.947V157.263Z" fill="white"/>
<path d="M143.368 157.263H139.895V160.737H143.368V157.263Z" fill="white"/>
<path d="M146.842 157.263H143.368V160.737H146.842V157.263Z" fill="white"/>
<path d="M153.789 157.263H150.315V160.737H153.789V157.263Z" fill="white"/>
<path d="M157.263 157.263H153.789V160.737H157.263V157.263Z" fill="white"/>
<path d="M171.158 157.263H167.685V160.737H171.158V157.263Z" fill="white"/>
<path d="M181.579 157.263H178.105V160.737H181.579V157.263Z" fill="white"/>
<path d="M35.6836 160.737H32.21V164.211H35.6836V160.737Z" fill="white"/>
<path d="M39.1583 160.737H35.6846V164.211H39.1583V160.737Z" fill="white"/>
<path d="M49.5792 160.737H46.1055V164.211H49.5792V160.737Z" fill="white"/>
<path d="M53.0528 160.737H49.5791V164.211H53.0528V160.737Z" fill="white"/>
<path d="M56.5264 160.737H53.0527V164.211H56.5264V160.737Z" fill="white"/>
<path d="M60.0001 160.737H56.5264V164.211H60.0001V160.737Z" fill="white"/>
<path d="M63.4737 160.737H60V164.211H63.4737V160.737Z" fill="white"/>
<path d="M73.8946 160.737H70.4209V164.211H73.8946V160.737Z" fill="white"/>
<path d="M87.7891 160.737H84.3154V164.211H87.7891V160.737Z" fill="white"/>
<path d="M94.7364 160.737H91.2627V164.211H94.7364V160.737Z" fill="white"/>
<path d="M101.684 160.737H98.21V164.211H101.684V160.737Z" fill="white"/>
<path d="M115.579 160.737H112.105V164.211H115.579V160.737Z" fill="white"/>
<path d="M119.053 160.737H115.579V164.211H119.053V160.737Z" fill="white"/>
<path d="M122.526 160.737H119.053V164.211H122.526V160.737Z" fill="white"/>
<path d="M126 160.737H122.526V164.211H126V160.737Z" fill="white"/>
<path d="M132.947 160.737H129.474V164.211H132.947V160.737Z" fill="white"/>
<path d="M139.895 160.737H136.421V164.211H139.895V160.737Z" fill="white"/>
<path d="M143.368 160.737H139.895V164.211H143.368V160.737Z" fill="white"/>
<path d="M146.842 160.737H143.368V164.211H146.842V160.737Z" fill="white"/>
<path d="M153.789 160.737H150.315V164.211H153.789V160.737Z" fill="white"/>
<path d="M157.263 160.737H153.789V164.211H157.263V160.737Z" fill="white"/>
<path d="M164.21 160.737H160.736V164.211H164.21V160.737Z" fill="white"/>
<path d="M171.158 160.737H167.685V164.211H171.158V160.737Z" fill="white"/>
<path d="M174.632 160.737H171.158V164.211H174.632V160.737Z" fill="white"/>
<path d="M178.106 160.737H174.632V164.211H178.106V160.737Z" fill="white"/>
<path d="M185.053 160.737H181.579V164.211H185.053V160.737Z" fill="white"/>
<path d="M39.1583 164.21H35.6846V167.684H39.1583V164.21Z" fill="white"/>
<path d="M42.6319 164.21H39.1582V167.684H42.6319V164.21Z" fill="white"/>
<path d="M46.1055 164.21H42.6318V167.684H46.1055V164.21Z" fill="white"/>
<path d="M63.4737 164.21H60V167.684H63.4737V164.21Z" fill="white"/>
<path d="M70.4209 164.21H66.9473V167.684H70.4209V164.21Z" fill="white"/>
<path d="M73.8946 164.21H70.4209V167.684H73.8946V164.21Z" fill="white"/>
<path d="M80.8418 164.21H77.3682V167.684H80.8418V164.21Z" fill="white"/>
<path d="M87.7891 164.21H84.3154V167.684H87.7891V164.21Z" fill="white"/>
<path d="M101.684 164.21H98.21V167.684H101.684V164.21Z" fill="white"/>
<path d="M108.632 164.21H105.158V167.684H108.632V164.21Z" fill="white"/>
<path d="M119.053 164.21H115.579V167.684H119.053V164.21Z" fill="white"/>
<path d="M132.947 164.21H129.474V167.684H132.947V164.21Z" fill="white"/>
<path d="M136.421 164.21H132.947V167.684H136.421V164.21Z" fill="white"/>
<path d="M143.368 164.21H139.895V167.684H143.368V164.21Z" fill="white"/>
<path d="M150.315 164.21H146.842V167.684H150.315V164.21Z" fill="white"/>
<path d="M157.263 164.21H153.789V167.684H157.263V164.21Z" fill="white"/>
<path d="M171.158 164.21H167.685V167.684H171.158V164.21Z" fill="white"/>
<path d="M185.053 164.21H181.579V167.684H185.053V164.21Z" fill="white"/>
<path d="M42.6319 167.684H39.1582V171.158H42.6319V167.684Z" fill="white"/>
<path d="M49.5792 167.684H46.1055V171.158H49.5792V167.684Z" fill="white"/>
<path d="M66.9473 167.684H63.4736V171.158H66.9473V167.684Z" fill="white"/>
<path d="M73.8946 167.684H70.4209V171.158H73.8946V167.684Z" fill="white"/>
<path d="M84.3155 167.684H80.8418V171.158H84.3155V167.684Z" fill="white"/>
<path d="M87.7891 167.684H84.3154V171.158H87.7891V167.684Z" fill="white"/>
<path d="M91.2627 167.684H87.7891V171.158H91.2627V167.684Z" fill="white"/>
<path d="M94.7364 167.684H91.2627V171.158H94.7364V167.684Z" fill="white"/>
<path d="M98.21 167.684H94.7363V171.158H98.21V167.684Z" fill="white"/>
<path d="M101.684 167.684H98.21V171.158H101.684V167.684Z" fill="white"/>
<path d="M105.158 167.684H101.685V171.158H105.158V167.684Z" fill="white"/>
<path d="M108.632 167.684H105.158V171.158H108.632V167.684Z" fill="white"/>
<path d="M115.579 167.684H112.105V171.158H115.579V167.684Z" fill="white"/>
<path d="M119.053 167.684H115.579V171.158H119.053V167.684Z" fill="white"/>
<path d="M129.474 167.684H126V171.158H129.474V167.684Z" fill="white"/>
<path d="M132.947 167.684H129.474V171.158H132.947V167.684Z" fill="white"/>
<path d="M143.368 167.684H139.895V171.158H143.368V167.684Z" fill="white"/>
<path d="M150.315 167.684H146.842V171.158H150.315V167.684Z" fill="white"/>
<path d="M157.263 167.684H153.789V171.158H157.263V167.684Z" fill="white"/>
<path d="M160.736 167.684H157.263V171.158H160.736V167.684Z" fill="white"/>
<path d="M164.21 167.684H160.736V171.158H164.21V167.684Z" fill="white"/>
<path d="M167.684 167.684H164.21V171.158H167.684V167.684Z" fill="white"/>
<path d="M171.158 167.684H167.685V171.158H171.158V167.684Z" fill="white"/>
<path d="M174.632 167.684H171.158V171.158H174.632V167.684Z" fill="white"/>
<path d="M178.106 167.684H174.632V171.158H178.106V167.684Z" fill="white"/>
<path d="M181.579 167.684H178.105V171.158H181.579V167.684Z" fill="white"/>
<path d="M185.053 167.684H181.579V171.158H185.053V167.684Z" fill="white"/>
<path d="M35.6836 171.158H32.21V174.631H35.6836V171.158Z" fill="white"/>
<path d="M46.1055 171.158H42.6318V174.631H46.1055V171.158Z" fill="white"/>
<path d="M49.5792 171.158H46.1055V174.631H49.5792V171.158Z" fill="white"/>
<path d="M53.0528 171.158H49.5791V174.631H53.0528V171.158Z" fill="white"/>
<path d="M63.4737 171.158H60V174.631H63.4737V171.158Z" fill="white"/>
<path d="M77.3682 171.158H73.8945V174.631H77.3682V171.158Z" fill="white"/>
<path d="M87.7891 171.158H84.3154V174.631H87.7891V171.158Z" fill="white"/>
<path d="M94.7364 171.158H91.2627V174.631H94.7364V171.158Z" fill="white"/>
<path d="M98.21 171.158H94.7363V174.631H98.21V171.158Z" fill="white"/>
<path d="M101.684 171.158H98.21V174.631H101.684V171.158Z" fill="white"/>
<path d="M115.579 171.158H112.105V174.631H115.579V171.158Z" fill="white"/>
<path d="M119.053 171.158H115.579V174.631H119.053V171.158Z" fill="white"/>
<path d="M129.474 171.158H126V174.631H129.474V171.158Z" fill="white"/>
<path d="M132.947 171.158H129.474V174.631H132.947V171.158Z" fill="white"/>
<path d="M146.842 171.158H143.368V174.631H146.842V171.158Z" fill="white"/>
<path d="M160.736 171.158H157.263V174.631H160.736V171.158Z" fill="white"/>
<path d="M181.579 171.158H178.105V174.631H181.579V171.158Z" fill="white"/>
<path d="M185.053 171.158H181.579V174.631H185.053V171.158Z" fill="white"/>
<path d="M32.21 174.631H28.7363V178.105H32.21V174.631Z" fill="white"/>
<path d="M35.6836 174.631H32.21V178.105H35.6836V174.631Z" fill="white"/>
<path d="M42.6319 174.631H39.1582V178.105H42.6319V174.631Z" fill="white"/>
<path d="M53.0528 174.631H49.5791V178.105H53.0528V174.631Z" fill="white"/>
<path d="M56.5264 174.631H53.0527V178.105H56.5264V174.631Z" fill="white"/>
<path d="M63.4737 174.631H60V178.105H63.4737V174.631Z" fill="white"/>
<path d="M70.4209 174.631H66.9473V178.105H70.4209V174.631Z" fill="white"/>
<path d="M73.8946 174.631H70.4209V178.105H73.8946V174.631Z" fill="white"/>
<path d="M77.3682 174.631H73.8945V178.105H77.3682V174.631Z" fill="white"/>
<path d="M98.21 174.631H94.7363V178.105H98.21V174.631Z" fill="white"/>
<path d="M101.684 174.631H98.21V178.105H101.684V174.631Z" fill="white"/>
<path d="M112.106 174.631H108.632V178.105H112.106V174.631Z" fill="white"/>
<path d="M119.053 174.631H115.579V178.105H119.053V174.631Z" fill="white"/>
<path d="M122.526 174.631H119.053V178.105H122.526V174.631Z" fill="white"/>
<path d="M126 174.631H122.526V178.105H126V174.631Z" fill="white"/>
<path d="M129.474 174.631H126V178.105H129.474V174.631Z" fill="white"/>
<path d="M139.895 174.631H136.421V178.105H139.895V174.631Z" fill="white"/>
<path d="M143.368 174.631H139.895V178.105H143.368V174.631Z" fill="white"/>
<path d="M146.842 174.631H143.368V178.105H146.842V174.631Z" fill="white"/>
<path d="M150.315 174.631H146.842V178.105H150.315V174.631Z" fill="white"/>
<path d="M157.263 174.631H153.789V178.105H157.263V174.631Z" fill="white"/>
<path d="M160.736 174.631H157.263V178.105H160.736V174.631Z" fill="white"/>
<path d="M164.21 174.631H160.736V178.105H164.21V174.631Z" fill="white"/>
<path d="M171.158 174.631H167.685V178.105H171.158V174.631Z" fill="white"/>
<path d="M174.632 174.631H171.158V178.105H174.632V174.631Z" fill="white"/>
<path d="M185.053 174.631H181.579V178.105H185.053V174.631Z" fill="white"/>
<path d="M32.21 178.105H28.7363V181.579H32.21V178.105Z" fill="white"/>
<path d="M39.1583 178.105H35.6846V181.579H39.1583V178.105Z" fill="white"/>
<path d="M56.5264 178.105H53.0527V181.579H56.5264V178.105Z" fill="white"/>
<path d="M60.0001 178.105H56.5264V181.579H60.0001V178.105Z" fill="white"/>
<path d="M66.9473 178.105H63.4736V181.579H66.9473V178.105Z" fill="white"/>
<path d="M73.8946 178.105H70.4209V181.579H73.8946V178.105Z" fill="white"/>
<path d="M80.8418 178.105H77.3682V181.579H80.8418V178.105Z" fill="white"/>
<path d="M87.7891 178.105H84.3154V181.579H87.7891V178.105Z" fill="white"/>
<path d="M91.2627 178.105H87.7891V181.579H91.2627V178.105Z" fill="white"/>
<path d="M105.158 178.105H101.685V181.579H105.158V178.105Z" fill="white"/>
<path d="M108.632 178.105H105.158V181.579H108.632V178.105Z" fill="white"/>
<path d="M115.579 178.105H112.105V181.579H115.579V178.105Z" fill="white"/>
<path d="M119.053 178.105H115.579V181.579H119.053V178.105Z" fill="white"/>
<path d="M122.526 178.105H119.053V181.579H122.526V178.105Z" fill="white"/>
<path d="M126 178.105H122.526V181.579H126V178.105Z" fill="white"/>
<path d="M143.368 178.105H139.895V181.579H143.368V178.105Z" fill="white"/>
<path d="M150.315 178.105H146.842V181.579H150.315V178.105Z" fill="white"/>
<path d="M157.263 178.105H153.789V181.579H157.263V178.105Z" fill="white"/>
<path d="M160.736 178.105H157.263V181.579H160.736V178.105Z" fill="white"/>
<path d="M171.158 178.105H167.685V181.579H171.158V178.105Z" fill="white"/>
<path d="M174.632 178.105H171.158V181.579H174.632V178.105Z" fill="white"/>
<path d="M35.6836 181.579H32.21V185.053H35.6836V181.579Z" fill="white"/>
<path d="M42.6319 181.579H39.1582V185.053H42.6319V181.579Z" fill="white"/>
<path d="M49.5792 181.579H46.1055V185.053H49.5792V181.579Z" fill="white"/>
<path d="M56.5264 181.579H53.0527V185.053H56.5264V181.579Z" fill="white"/>
<path d="M60.0001 181.579H56.5264V185.053H60.0001V181.579Z" fill="white"/>
<path d="M70.4209 181.579H66.9473V185.053H70.4209V181.579Z" fill="white"/>
<path d="M73.8946 181.579H70.4209V185.053H73.8946V181.579Z" fill="white"/>
<path d="M77.3682 181.579H73.8945V185.053H77.3682V181.579Z" fill="white"/>
<path d="M91.2627 181.579H87.7891V185.053H91.2627V181.579Z" fill="white"/>
<path d="M98.21 181.579H94.7363V185.053H98.21V181.579Z" fill="white"/>
<path d="M115.579 181.579H112.105V185.053H115.579V181.579Z" fill="white"/>
<path d="M126 181.579H122.526V185.053H126V181.579Z" fill="white"/>
<path d="M129.474 181.579H126V185.053H129.474V181.579Z" fill="white"/>
<path d="M136.421 181.579H132.947V185.053H136.421V181.579Z" fill="white"/>
<path d="M139.895 181.579H136.421V185.053H139.895V181.579Z" fill="white"/>
<path d="M143.368 181.579H139.895V185.053H143.368V181.579Z" fill="white"/>
<path d="M146.842 181.579H143.368V185.053H146.842V181.579Z" fill="white"/>
<path d="M157.263 181.579H153.789V185.053H157.263V181.579Z" fill="white"/>
<path d="M160.736 181.579H157.263V185.053H160.736V181.579Z" fill="white"/>
<path d="M174.632 181.579H171.158V185.053H174.632V181.579Z" fill="white"/>
<path d="M178.106 181.579H174.632V185.053H178.106V181.579Z" fill="white"/>
<path d="M185.053 181.579H181.579V185.053H185.053V181.579Z" fill="white"/>
</svg>
