<svg width="38" height="34" viewBox="0 0 38 34" fill="none" xmlns="http://www.w3.org/2000/svg">
<path d="M2.64062 0.0869141C2.15625 0.204102 1.44531 0.618164 1.10156 0.993164C0.929687 1.18066 0.671875 1.57129 0.539062 1.86035L0.289062 2.38379L0.25 18.9854L0.4375 19.1807C0.695312 19.4385 1.05469 19.4385 1.30469 19.1807L1.5 18.9932V10.9307C1.5 4.8291 1.52344 2.79004 1.59375 2.54785C1.71875 2.11816 2.36719 1.46973 2.79688 1.34473C3.26562 1.2041 34.7344 1.2041 35.2031 1.34473C35.6328 1.46973 36.2812 2.11816 36.4062 2.54785C36.4688 2.75879 36.5 3.48535 36.5 4.68066V6.49317L36.6953 6.68066C36.9453 6.93848 37.3047 6.93848 37.5625 6.68066L37.7578 6.47754L37.7109 2.38379L37.4609 1.86035C37.1172 1.13379 36.6797 0.680664 35.9688 0.329102L35.375 0.0400391L19.1641 0.0244141C9.54688 0.0244141 2.82031 0.0478516 2.64062 0.0869141Z" fill="white"/>
<path d="M22.9297 4.55566C21.0781 6.39941 20.875 6.63379 20.875 6.86035C20.875 7.03223 20.9375 7.18066 21.0703 7.30566C21.2422 7.48535 21.3203 7.50098 22.0078 7.50098H22.75V9.18067C22.75 10.8682 22.75 10.8682 22.9453 11.0557L23.1328 11.251H27.3672L27.5547 11.0557C27.75 10.8682 27.75 10.8682 27.75 9.18067V7.50098H28.4922C29.1797 7.50098 29.2578 7.48535 29.4297 7.30566C29.5625 7.18066 29.625 7.03223 29.625 6.86035C29.625 6.63379 29.4219 6.39941 27.5703 4.55566C25.6797 2.65723 25.5 2.50098 25.25 2.50098C25 2.50098 24.8203 2.65723 22.9297 4.55566ZM26.3828 5.15723L27.4766 6.25098H27.1797C26.9687 6.25098 26.8281 6.30566 26.6953 6.44629C26.5 6.63379 26.5 6.63379 26.5 8.32129V10.001H24V8.32129C24 6.63379 24 6.63379 23.8047 6.44629C23.6719 6.30566 23.5312 6.25098 23.3203 6.25098H23.0234L24.1172 5.15723C24.7187 4.55566 25.2266 4.06348 25.25 4.06348C25.2734 4.06348 25.7812 4.55566 26.3828 5.15723Z" fill="white"/>
<path d="M3.57031 3.32129C3.17969 3.7041 3.45312 4.37598 4 4.37598C4.32031 4.37598 4.625 4.07129 4.625 3.75098C4.625 3.43067 4.32031 3.12598 4 3.12598C3.85156 3.12598 3.6875 3.19629 3.57031 3.32129Z" fill="white"/>
<path d="M6.5 6.0166C4.89063 6.91504 3.53125 7.7041 3.47656 7.78223C3.39844 7.8916 3.375 8.65722 3.375 11.2588C3.375 14.3213 3.38281 14.6025 3.50781 14.751C3.70313 14.9697 9.42188 18.126 9.625 18.126C9.82812 18.126 15.5469 14.9697 15.7422 14.751C15.8594 14.6104 15.875 14.3838 15.875 12.4854V10.3838L15.6797 10.1963C15.5625 10.0713 15.3984 10.001 15.25 10.001C15.1016 10.001 14.9375 10.0713 14.8203 10.1963C14.6328 10.3838 14.625 10.415 14.625 11.6182V12.8447L13.5078 11.7354C12.0234 10.2666 12.1016 10.2666 10.9141 11.7197C10.5781 12.126 10.2812 12.4697 10.2578 12.4775C10.2344 12.4932 9.59375 11.8135 8.84375 10.9775C8.08594 10.126 7.39844 9.43066 7.30469 9.39941C6.89844 9.30566 6.77344 9.42285 5.71875 10.8994C5.15625 11.6963 4.67188 12.3447 4.65625 12.3447C4.64062 12.3447 4.625 11.4775 4.625 10.4072L4.63281 8.47754L7.125 7.09473L9.625 5.71972L10.0703 5.96191L10.5234 6.21191L10.125 6.25879C9.57813 6.3291 9.20312 6.52441 8.85156 6.92285C8.39844 7.43848 8.27344 8.03222 8.46875 8.7041C8.59375 9.13379 9.24219 9.78222 9.67188 9.90722C10.4062 10.126 10.9922 9.96973 11.5391 9.41504C12.2188 8.73535 12.3203 7.84473 11.7969 7.08691C11.7109 6.96973 11.6641 6.87598 11.6797 6.87598C11.6953 6.87598 12.4688 7.29785 13.3984 7.81348C14.3516 8.34473 15.1719 8.75098 15.2891 8.75098C15.75 8.75098 16.0469 8.10254 15.7422 7.75098C15.5391 7.5166 9.82031 4.37598 9.60938 4.37598C9.50781 4.38379 8.10938 5.11816 6.5 6.0166ZM10.6797 7.69629C11.0703 8.0791 10.7969 8.75098 10.25 8.75098C9.92969 8.75098 9.625 8.44629 9.625 8.12598C9.625 7.80566 9.92969 7.50098 10.25 7.50098C10.3984 7.50098 10.5625 7.57129 10.6797 7.69629ZM9.3125 13.3682C10.4766 14.665 11.4063 15.751 11.3672 15.79C11.3359 15.8213 10.9297 16.0635 10.4688 16.3213L9.625 16.79L7.30469 15.4932C6.02344 14.7822 4.96094 14.1885 4.95313 14.1807C4.92969 14.1572 7.14062 11.0166 7.17969 11.0166C7.1875 11.0166 8.14844 12.0791 9.3125 13.3682ZM14.0547 14.3135C13.9766 14.3682 13.6172 14.5713 13.25 14.7666L12.5781 15.1182L12.1172 14.6104C11.8594 14.3291 11.5234 13.9541 11.375 13.7744L11.0938 13.4463L12.1562 12.1807L13.1719 13.1963C14.0859 14.1104 14.1797 14.2275 14.0547 14.3135Z" fill="white"/>
<path d="M31.6953 8.32129C31.4609 8.54785 31.4453 8.89941 31.6484 9.14941C31.7734 9.30566 31.8906 9.34473 32.3672 9.37598L32.9297 9.41504L30.5156 11.29L28.1094 13.165L24.6641 13.79L21.2187 14.4229L19.3047 16.0088C18.2578 16.8838 17.3359 17.665 17.2656 17.751C17.0625 17.9775 17.0859 18.3291 17.3203 18.5557C17.7031 18.9463 17.8125 18.8916 19.875 17.1729L21.7734 15.5947L25.2109 14.9619L28.6484 14.3369L30.9531 12.5479C32.2187 11.5635 33.3281 10.7041 33.4062 10.6338C33.5469 10.5166 33.5547 10.5166 33.5 10.665C33.4687 10.7432 33.4219 10.9619 33.3984 11.1416C33.3594 11.4229 33.3828 11.501 33.5547 11.6729C33.6797 11.7979 33.8437 11.876 33.9844 11.876C34.4375 11.876 34.5312 11.7041 34.8984 10.2354C35.0937 9.48535 35.25 8.79004 35.25 8.68848C35.25 8.58691 35.1641 8.42285 35.0547 8.32129C34.8672 8.12598 34.8516 8.12598 33.375 8.12598C31.8984 8.12598 31.8828 8.12598 31.6953 8.32129Z" fill="white"/>
<path d="M36.6953 8.32129L36.5 8.50879V15.9463C36.5 21.5557 36.4766 23.4619 36.4062 23.7041C36.2812 24.1338 35.6328 24.7822 35.2031 24.9072C34.7344 25.0479 3.26562 25.0479 2.79688 24.9072C2.36719 24.7822 1.71875 24.1338 1.59375 23.7041C1.53906 23.5088 1.5 22.8994 1.5 22.1963C1.5 21.04 1.49219 21.001 1.30469 20.8213C1.05469 20.5635 0.695312 20.5635 0.4375 20.8213L0.234375 21.0244L0.265625 22.4463C0.289062 23.8525 0.289063 23.876 0.539062 24.3916C0.882812 25.1182 1.32031 25.5713 2.03125 25.9229L2.625 26.2119L12.0625 26.2588L12.0156 26.5479C11.9219 27.0635 11.4453 27.9541 11.0234 28.3994C10.5312 28.9228 10.1016 29.2041 9.14844 29.626L8.41406 29.9541L7.07812 30.001L5.74219 30.04L5.15625 30.3291C4.14844 30.8291 3.5 31.751 3.39844 32.8369C3.35937 33.3135 3.36719 33.3604 3.55469 33.5479L3.75781 33.751H27.3672L27.5547 33.5557C27.8125 33.3057 27.8125 32.9463 27.5547 32.6963L27.3672 32.501H16.0703C5.88281 32.501 4.78125 32.4854 4.78125 32.376C4.78125 32.165 5.57031 31.4463 5.92187 31.3447C6.39062 31.2119 31.6094 31.2119 32.0781 31.3447C32.4297 31.4463 33.2188 32.165 33.2188 32.376C33.2188 32.4854 32.9922 32.501 31.3047 32.501H29.3828L29.1953 32.6963C29.0703 32.8135 29 32.9775 29 33.126C29 33.2744 29.0703 33.4385 29.1953 33.5557L29.3828 33.751H34.2422L34.4453 33.5479C34.6328 33.3604 34.6406 33.3135 34.6016 32.8291C34.5312 32.1416 34.1328 31.3135 33.6406 30.8682C33.4453 30.6807 33.0547 30.4229 32.7656 30.29C32.2656 30.0557 32.1875 30.04 30.9141 29.9932L29.5859 29.9463L28.8516 29.626C27.9062 29.2041 27.4688 28.9228 26.9766 28.3994C26.5547 27.9541 26.0781 27.0635 25.9844 26.5479L25.9375 26.2588L35.375 26.2119L35.9688 25.9229C36.6797 25.5713 37.1172 25.1182 37.4609 24.3916L37.7109 23.8682L37.7344 16.1885L37.75 8.5166L37.5625 8.32129C37.3047 8.06347 36.9453 8.06347 36.6953 8.32129ZM24.7656 26.7666C24.9531 27.7666 25.6406 28.9463 26.4375 29.6416L26.8516 30.001H11.1484L11.5625 29.6416C12.3594 28.9463 13.0469 27.7666 13.2344 26.7666L13.3359 26.251H24.6641L24.7656 26.7666Z" fill="white"/>
<path d="M31.6953 13.3213L31.5 13.5088V17.1182L31.6953 17.3057C31.8125 17.4307 31.9766 17.501 32.125 17.501C32.2734 17.501 32.4375 17.4307 32.5547 17.3057C32.75 17.1182 32.75 17.0947 32.75 15.7432V14.376H34V22.501H32.75V20.8213C32.75 19.1338 32.75 19.1338 32.5547 18.9463C32.4375 18.8213 32.2734 18.751 32.125 18.751C31.9766 18.751 31.8125 18.8213 31.6953 18.9463L31.5 19.1338V23.3682L31.6953 23.5557C31.8828 23.751 31.8984 23.751 33.375 23.751C34.8516 23.751 34.8672 23.751 35.0547 23.5557L35.25 23.3682V13.5088L35.0547 13.3213C34.8672 13.126 34.8516 13.126 33.375 13.126C31.8984 13.126 31.8828 13.126 31.6953 13.3213Z" fill="white"/>
<path d="M26.6953 16.4463L26.5 16.6338V23.3682L26.6953 23.5557C26.8828 23.751 26.8984 23.751 28.375 23.751C29.8516 23.751 29.8672 23.751 30.0547 23.5557L30.25 23.3682V16.6338L30.0547 16.4463C29.8672 16.251 29.8516 16.251 28.375 16.251C26.8984 16.251 26.8828 16.251 26.6953 16.4463ZM29 22.501H27.75V17.501H29V22.501Z" fill="white"/>
<path d="M21.6953 18.3213L21.5 18.5088V23.3682L21.6953 23.5557C21.8828 23.751 21.8984 23.751 23.375 23.751C24.8516 23.751 24.8672 23.751 25.0547 23.5557L25.25 23.3682V18.5088L25.0547 18.3213C24.8672 18.126 24.8516 18.126 23.375 18.126C21.8984 18.126 21.8828 18.126 21.6953 18.3213ZM24 22.501H22.75V19.376H24V22.501Z" fill="white"/>
<path d="M4.19531 20.1963C4.07031 20.3135 4 20.4775 4 20.626C4 20.7744 4.07031 20.9385 4.19531 21.0557L4.38281 21.251H14.2422L14.4297 21.0557C14.5547 20.9385 14.625 20.7744 14.625 20.626C14.625 20.4775 14.5547 20.3135 14.4297 20.1963L14.2422 20.001H4.38281L4.19531 20.1963Z" fill="white"/>
<path d="M16.6953 20.1963C16.5 20.3838 16.5 20.3994 16.5 21.876C16.5 23.8838 16.3672 23.751 18.375 23.751C20.3828 23.751 20.25 23.8838 20.25 21.876C20.25 19.8682 20.3828 20.001 18.375 20.001C16.8984 20.001 16.8828 20.001 16.6953 20.1963ZM19 22.501H17.75V21.251H19V22.501Z" fill="white"/>
<path d="M4.19531 22.6963C4.07031 22.8135 4 22.9775 4 23.126C4 23.2744 4.07031 23.4385 4.19531 23.5557L4.38281 23.751H14.2422L14.4297 23.5557C14.5547 23.4385 14.625 23.2744 14.625 23.126C14.625 22.9775 14.5547 22.8135 14.4297 22.6963L14.2422 22.501H4.38281L4.19531 22.6963Z" fill="white"/>
</svg>
