<svg width="37" height="37" viewBox="0 0 37 37" fill="none" xmlns="http://www.w3.org/2000/svg">
<path d="M16.966 0.163607C16.5498 0.387044 16.3417 0.749165 16.3417 1.24227C16.3417 1.59668 16.3263 1.61209 16.0179 1.77389C15.8329 1.86635 15.5323 2.04356 15.3473 2.17454L15.0158 2.39797L14.6844 2.23617C14.2296 2.01274 13.6823 2.02044 13.3354 2.25929C12.9731 2.50584 11.8631 4.42431 11.8169 4.87889C11.7706 5.31806 12.0404 5.83427 12.4413 6.05L12.7419 6.21951L12.7265 7.80668L12.4335 8.007C12.0096 8.29978 11.7937 8.65419 11.7937 9.07795C11.7937 9.38614 11.8785 9.57876 12.3796 10.434C13.0425 11.5666 13.1967 11.7592 13.5435 11.9056C13.8904 12.0597 14.2065 12.0366 14.6458 11.8516L15.0312 11.6898L15.3935 11.921C15.6017 12.052 15.8869 12.2138 16.041 12.2908C16.3108 12.4141 16.3263 12.4372 16.3571 12.8533C16.3956 13.3618 16.6038 13.7162 16.9815 13.9242C17.1896 14.0321 17.444 14.0552 18.5385 14.0552C19.7179 14.0552 19.8721 14.0398 20.1187 13.8934C20.4965 13.6777 20.7123 13.3155 20.7817 12.8147C20.8279 12.4064 20.8433 12.3833 21.1902 12.2061C21.3829 12.1059 21.6681 11.9364 21.8146 11.8362L22.0767 11.6513L22.4235 11.8285C22.809 12.0366 23.1713 12.0597 23.5335 11.9056C23.8881 11.7592 24.0423 11.5589 24.6744 10.4725C25.1908 9.58646 25.2371 9.47089 25.2448 9.07025C25.2448 8.56944 25.106 8.32289 24.6358 8.007L24.3506 7.80668L24.3198 6.26573L24.6435 6.06541C25.0675 5.79575 25.3142 5.32576 25.2602 4.87889C25.214 4.47054 24.104 2.51354 23.7879 2.29011C23.4488 2.04356 22.886 2.02044 22.4312 2.22847L22.0613 2.39797L21.7298 2.17454C21.5448 2.04356 21.2442 1.86635 21.0669 1.77389C20.7431 1.61209 20.7354 1.59668 20.7354 1.23456C20.7354 0.826212 20.5427 0.471796 20.1727 0.194426C19.9723 0.0480368 19.8335 0.0326274 18.631 0.00951324C17.3669 -0.0136009 17.2898 -0.00589617 16.966 0.163607ZM19.5021 1.48111C19.5021 2.1206 19.7565 2.50584 20.3885 2.82173C20.6044 2.9296 20.9744 3.16074 21.221 3.33795C21.6065 3.60761 21.7221 3.64613 22.069 3.64613C22.3619 3.64613 22.5546 3.59991 22.7781 3.46122C22.94 3.36106 23.0865 3.30713 23.1019 3.35336C23.1173 3.39188 23.3331 3.76941 23.5875 4.19317C23.9883 4.86348 24.0269 4.97134 23.919 5.04069C23.5413 5.27183 23.1944 5.65706 23.1404 5.91902C23.0402 6.31196 23.0788 8.1688 23.1867 8.36141C23.2715 8.52321 23.6646 8.88533 23.919 9.04713C24.0269 9.11648 23.9806 9.23205 23.5721 9.93317C23.3177 10.38 23.0942 10.7499 23.0865 10.7653C23.071 10.7807 22.9092 10.7113 22.7242 10.6189C22.2463 10.3723 21.83 10.3955 21.3752 10.6882C21.1748 10.8192 20.7817 11.0504 20.5042 11.1967C20.2267 11.3354 19.9415 11.5203 19.8721 11.6051C19.6717 11.8208 19.5021 12.2831 19.5021 12.5913V12.861H17.5904L17.5365 12.4526C17.4671 11.9287 17.205 11.5358 16.7887 11.3354C16.6115 11.2507 16.2183 11.0195 15.9177 10.8269C15.4629 10.5264 15.3319 10.4725 14.9927 10.4725C14.7537 10.4725 14.4994 10.5341 14.3144 10.6266C14.1602 10.7114 14.0138 10.7807 13.9983 10.7807C13.9752 10.7807 13.1196 9.33221 13.0425 9.14729C13.0271 9.11648 13.1581 9.00091 13.3354 8.89304C13.8904 8.53862 13.9521 8.36141 13.9521 7.05932C13.9521 6.2118 13.9213 5.86509 13.8365 5.70329C13.7285 5.49526 13.4356 5.21019 13.1427 5.03298C13.0117 4.96364 13.0425 4.8943 13.451 4.18546C13.6977 3.76941 13.929 3.39188 13.9598 3.36106C13.9829 3.32254 14.1525 3.36877 14.3221 3.45352C14.8462 3.72318 15.2933 3.67695 15.8406 3.29942C16.095 3.12221 16.4958 2.88337 16.7348 2.76009C17.2513 2.50584 17.4594 2.20535 17.5365 1.6275L17.5904 1.22686H19.5021V1.48111Z" fill="white"/>
<path d="M17.6135 4.05449C16.6808 4.39349 16.1027 4.902 15.6942 5.76493C15.4783 6.22721 15.4552 6.34278 15.4552 7.01309C15.4552 7.70652 15.4706 7.77586 15.7404 8.3306C16.0873 9.03173 16.5344 9.46319 17.2512 9.8022C17.7215 10.0256 17.8371 10.0487 18.5 10.0487C19.1629 10.0487 19.2785 10.0256 19.7488 9.8022C20.4656 9.46319 20.9127 9.03173 21.2596 8.3306C21.5294 7.77586 21.5448 7.70652 21.5448 7.00539C21.5448 6.30426 21.5294 6.23492 21.2596 5.68018C20.7277 4.61693 19.8104 4.00826 18.631 3.95432C18.1531 3.92351 17.9065 3.95432 17.6135 4.05449ZM19.0704 5.24872C19.4944 5.37199 20.1342 6.01148 20.2575 6.43524C20.4502 7.09785 20.3269 7.6834 19.8798 8.19191C19.1167 9.06254 17.8525 9.04714 17.0971 8.16109C16.4496 7.41374 16.5035 6.45065 17.2281 5.73411C17.7677 5.18708 18.3458 5.04069 19.0704 5.24872Z" fill="white"/>
<path d="M6.72937 6.72031C5.57312 7.11325 4.55562 7.49078 4.47083 7.56012C4.36292 7.65258 4.31667 7.79127 4.31667 8.007C4.31667 8.30748 4.33979 8.3306 5.11062 8.93927C5.54229 9.28598 5.90458 9.57876 5.92 9.58646C5.93542 9.60187 5.76583 9.87154 5.55 10.1951C4.46313 11.8131 3.63833 13.955 3.26063 16.1355C3.07562 17.2064 3.07562 19.7644 3.26063 20.8353C3.46104 21.9833 3.71542 22.9541 3.81562 22.9541C3.885 22.9541 4.84854 22.6536 4.91021 22.6151C4.91792 22.6074 4.85625 22.3455 4.77146 22.0373C4.51708 21.0511 4.38604 20.1804 4.33979 19.0633C4.24729 16.8058 4.69438 14.5791 5.66563 12.4988C6.06646 11.6436 6.76021 10.4802 6.89896 10.4263C6.95292 10.4032 7.35375 10.6651 7.78542 11.0041C8.66417 11.6976 8.88771 11.7669 9.21146 11.4356C9.31938 11.3354 9.40417 11.189 9.40417 11.112C9.40417 11.0349 9.47354 10.0873 9.55833 9.00861C9.64312 7.92995 9.7125 6.88211 9.7125 6.67408C9.7125 6.2118 9.5275 6.00377 9.11896 6.01148C8.95708 6.01148 7.87792 6.33508 6.72937 6.72031ZM8.37896 7.90684C8.34812 8.15339 8.30958 8.67731 8.27875 9.07025C8.24792 9.46319 8.20167 9.77138 8.17854 9.76367C8.14771 9.74826 7.68521 9.39385 7.14563 8.97009L6.16667 8.19962L7.23042 7.83749C7.80854 7.64488 8.31729 7.47537 8.35583 7.47537C8.39437 7.46767 8.40208 7.66799 8.37896 7.90684Z" fill="white"/>
<path d="M27.1333 6.48146L26.8019 6.95145L27.0254 7.13636C28.1123 8.04552 28.7444 8.64649 29.2608 9.25516C30.8025 11.0966 31.82 13.1306 32.3288 15.4189C32.6294 16.7518 32.6987 16.6363 31.5733 16.6363C30.5096 16.6363 30.3323 16.7056 30.2475 17.1448C30.209 17.3528 30.3554 17.6071 31.5425 19.3946C32.4983 20.843 32.9377 21.4286 33.0842 21.4979C33.5312 21.6828 33.6083 21.6058 35.0035 19.5178C35.7204 18.4315 36.3371 17.4992 36.3602 17.4376C36.4219 17.2681 36.3217 16.9599 36.1367 16.7904C35.9825 16.6517 35.8669 16.6363 34.8725 16.6363H33.7856L33.7317 16.1509C33.6469 15.4497 33.1998 13.7701 32.8683 12.9303C32.1129 11.0041 31.08 9.37843 29.6771 7.89913C29.0681 7.25964 27.6344 6.00377 27.5187 6.00377C27.4879 6.00377 27.3106 6.2195 27.1333 6.48146ZM33.9783 18.8321C33.6237 19.356 33.3231 19.7875 33.3 19.7875C33.2769 19.7875 32.9762 19.356 32.6217 18.8321L31.9896 17.869H34.6104L33.9783 18.8321Z" fill="white"/>
<path d="M29.6 22.1837H30.8333V20.9509H29.6V22.1837Z" fill="white"/>
<path d="M25.4375 22.9927L25.0135 23.4164L25.9 24.3025L26.7865 23.4164L26.3625 22.9927C26.1312 22.7615 25.9231 22.5689 25.9 22.5689C25.8769 22.5689 25.6687 22.7615 25.4375 22.9927Z" fill="white"/>
<path d="M29.0604 22.9156C27.7423 23.2084 26.4704 24.1869 25.8383 25.3965C25.4452 26.1516 25.2833 26.7988 25.2833 27.6463C25.2833 28.7327 25.5608 29.5571 26.2777 30.5433C27.1642 31.7683 27.4879 32.6544 27.5881 34.1259C27.6652 35.3433 27.8194 35.7362 28.436 36.3064C28.9602 36.7841 29.5075 37.0075 30.1781 36.9998C31.0569 36.9998 31.7815 36.6454 32.2671 35.9828C32.6294 35.482 32.745 35.0736 32.8298 33.9719C32.9377 32.5773 33.2383 31.7375 34.0092 30.6974C34.7646 29.6803 35.0575 28.933 35.1269 27.8851C35.2579 25.7355 33.9244 23.7785 31.82 23.0543C31.1031 22.8077 29.8235 22.7461 29.0604 22.9156ZM31.4885 24.2562C33.1998 24.8649 34.2404 26.7294 33.8088 28.4014C33.6546 29.0177 33.4927 29.3413 32.9454 30.0887C32.4752 30.7359 32.0898 31.4986 31.8663 32.2152L31.7275 32.6621H30.8333V30.4585L31.3344 29.9654C31.6119 29.6957 31.8354 29.4338 31.8354 29.3953C31.8354 29.2951 31.134 28.5786 31.0337 28.5786C30.9875 28.5786 30.7871 28.7404 30.5867 28.9407L30.2167 29.3028L29.8467 28.9407C29.6462 28.7404 29.4458 28.5786 29.4073 28.5786C29.3071 28.5786 28.5979 29.2874 28.5979 29.3876C28.5979 29.4338 28.8215 29.6957 29.099 29.9654L29.6 30.4585V32.6621H28.6827L28.5594 32.2152C28.359 31.5295 27.9658 30.7513 27.4802 30.081C26.825 29.1795 26.586 28.6248 26.5398 27.9005C26.4627 26.768 26.7865 25.905 27.5881 25.1114C28.1046 24.6029 28.5825 24.3102 29.2146 24.1329C29.7156 23.9866 30.9104 24.0559 31.4885 24.2562ZM31.6042 34.2184C31.6042 34.7577 31.4731 35.089 31.1417 35.3818C30.6329 35.8441 30.1242 35.9057 29.5229 35.5744C29.1067 35.3433 28.8985 34.9812 28.8446 34.3956L28.806 33.8948H31.6042V34.2184Z" fill="white"/>
<path d="M34.6875 23.609L34.2635 24.0328L35.15 24.9188L36.0365 24.0328L35.6125 23.609C35.3812 23.3779 35.1731 23.1853 35.15 23.1853C35.1269 23.1853 34.9188 23.3779 34.6875 23.609Z" fill="white"/>
<path d="M0.192708 24.8418L0 25.0267V29.3876C0 31.9532 0.0308333 33.8101 0.069375 33.8871C0.115625 33.9564 0.840208 34.6884 1.68813 35.4974L3.22979 36.9767H10.7223L10.9073 36.7841L11.1 36.5992V25.0267L10.9073 24.8418L10.7223 24.6492H0.377708L0.192708 24.8418ZM9.86667 35.7439H4.18563L4.47854 34.2723C4.81 32.6544 4.80229 32.4926 4.38604 32.2999C4.20875 32.2152 3.96979 32.246 2.70562 32.5003L1.23333 32.793V25.8819H9.86667V35.7439ZM3.27604 34.0258C3.24521 34.2338 3.19125 34.5651 3.145 34.7731L3.06792 35.143L2.45896 34.542C2.11979 34.2107 1.87312 33.9256 1.90396 33.9179C2.02729 33.8717 3.0525 33.6791 3.19125 33.6714C3.31458 33.6637 3.33 33.7022 3.27604 34.0258Z" fill="white"/>
<path d="M2.46667 28.3474H8.63333V27.1147H2.46667V28.3474Z" fill="white"/>
<path d="M2.46667 31.4293H8.63333V30.1966H2.46667V31.4293Z" fill="white"/>
<path d="M6.16667 34.5112H8.63333V33.2784H6.16667V34.5112Z" fill="white"/>
<path d="M23.4333 27.731H24.6667V26.4983H23.4333V27.731Z" fill="white"/>
<path d="M35.7667 27.731H37V26.4983H35.7667V27.731Z" fill="white"/>
<path d="M17.2281 30.4662C17.0585 30.5279 16.041 30.8515 14.9696 31.1982C13.0733 31.8068 13.0117 31.83 12.9115 32.0688C12.8344 32.2614 12.8267 32.3616 12.896 32.5234C12.9808 32.7237 15.6017 35.8518 15.9408 36.1523C16.1567 36.3449 16.5498 36.3449 16.7425 36.1523C16.835 36.0521 17.0123 35.5975 17.1896 34.9658L17.4825 33.9333L18.8546 33.8871C20.3346 33.8332 21.2519 33.7099 22.4621 33.394C23.256 33.186 24.79 32.6235 24.8594 32.508C24.8979 32.4463 24.4508 31.4293 24.3815 31.4293C24.3583 31.4293 24.0346 31.5449 23.6723 31.6913C22.2231 32.2614 20.72 32.5696 19.0242 32.6389C18.076 32.6775 17.8833 32.6698 17.8833 32.5773C17.8833 32.5157 17.9758 32.1767 18.076 31.8222C18.315 30.9978 18.3227 30.7821 18.076 30.5433C17.8679 30.3275 17.6829 30.3121 17.2281 30.4662ZM16.7271 32.0149C16.7271 32.1304 16.0873 34.2492 16.0333 34.3032C15.9794 34.3648 14.669 32.9086 14.6304 32.7391C14.615 32.6775 14.9773 32.5157 15.5708 32.3153C16.5498 31.9763 16.7271 31.9301 16.7271 32.0149Z" fill="white"/>
</svg>
