<svg width="40" height="40" viewBox="0 0 40 40" fill="none" xmlns="http://www.w3.org/2000/svg">
<path d="M16.0191 0.7048C12.8742 1.35413 12.5605 1.4254 12.3156 1.63129C11.7571 2.10641 11.7647 2.01931 11.7647 5.67775C11.7647 8.67102 11.78 9.02736 11.9254 9.75589C12.461 12.5116 14.2363 14.9189 16.6619 16.1859C17.45 16.5977 19.2635 17.2549 19.6155 17.2549C19.9981 17.2549 21.7198 16.6214 22.6303 16.1463C24.681 15.0693 26.2726 13.153 27.0301 10.8407C27.3132 9.98553 27.3515 9.50249 27.1679 9.26493C26.9766 9.02736 26.5863 9.00361 26.3797 9.22533C26.3032 9.30452 26.1655 9.66086 26.0737 10.0093C25.8594 10.8328 25.2702 12.0919 24.7881 12.7412C24.2525 13.4698 23.2884 14.3804 22.5844 14.8159C22.0182 15.1723 19.8833 16.0671 19.6155 16.0671C19.4165 16.0671 17.4194 15.2752 16.968 15.0218C15.1239 13.9686 13.8078 12.2582 13.165 10.0885L12.9584 9.37579L12.9507 5.97074V2.5657L13.3716 2.47067C13.6012 2.41524 15.1086 2.10641 16.7155 1.78174L19.6461 1.18784L22.9134 1.85301C24.704 2.21727 26.2037 2.54986 26.2343 2.58153C26.2649 2.61321 26.3032 3.69807 26.3185 4.98882C26.3415 7.17439 26.3491 7.3486 26.4868 7.50697C26.6781 7.72078 27.1449 7.73661 27.3209 7.53073C27.4357 7.40403 27.451 7.10312 27.451 4.90963C27.451 2.99331 27.428 2.38357 27.3439 2.1856C27.2214 1.88469 26.8771 1.53626 26.594 1.4254C26.3415 1.33038 19.7762 -0.00788371 19.5849 3.50016e-05C19.516 3.50016e-05 17.9091 0.324702 16.0191 0.7048Z" fill="white"/>
<path d="M16.8146 2.87673C15.1934 3.21505 14.3525 3.43255 14.2616 3.52115C14.1252 3.65004 14.1176 3.8192 14.1176 6.25191C14.1176 8.73295 14.1252 8.886 14.2995 9.61903C14.7085 11.3268 15.6706 12.7767 17.0418 13.7434C17.5191 14.0817 18.5039 14.5569 19.216 14.7986C19.6478 14.9436 19.6554 14.9436 20.163 14.7503C20.966 14.4603 21.8978 13.977 22.4054 13.5903C23.4584 12.7928 24.3599 11.4798 24.8068 10.0943L25.0644 9.31293L25.0871 6.49357C25.1098 3.7467 25.1098 3.66615 24.9583 3.52115C24.7765 3.34394 20.1327 2.33702 19.5721 2.35313C19.3827 2.36119 18.1479 2.59479 16.8146 2.87673ZM21.7236 3.95614C22.8144 4.18169 23.7614 4.38307 23.8371 4.40724C23.9584 4.44752 23.9659 4.62473 23.9659 6.60634C23.9659 8.97461 23.8978 9.50626 23.4659 10.4165C22.7917 11.8504 21.822 12.7687 20.3372 13.3809L19.6251 13.6789L18.9736 13.4211C17.4282 12.8009 16.4358 11.8745 15.7843 10.4407C15.2994 9.36932 15.254 9.02294 15.254 6.59829V4.44752L15.6934 4.35085C17.2236 4.01253 19.413 3.56949 19.5645 3.56143C19.663 3.55338 20.6402 3.73865 21.7236 3.95614Z" fill="white"/>
<path d="M21.6811 6.47106C21.5648 6.59137 20.867 7.33581 20.1442 8.12537L18.8317 9.57666L18.4662 9.29843C18.0176 8.97509 17.6604 8.93749 17.4195 9.19316C17.1121 9.54658 17.2118 9.77969 17.9179 10.3813C18.6157 10.9828 18.8151 11.0655 19.1225 10.9151C19.2969 10.8324 22.1546 7.75691 22.6114 7.17038C22.8108 6.91471 22.7859 6.66657 22.545 6.45602C22.2792 6.20787 21.9635 6.21539 21.6811 6.47106Z" fill="white"/>
<path d="M0.164574 14.3026C-0.0548579 14.5717 -0.0548579 14.7485 0.164574 14.9869C0.407516 15.2483 10.9794 20.1079 11.3086 20.1079C11.4418 20.1079 12.5233 19.9541 13.7067 19.7619C14.89 19.5696 16.0969 19.4158 16.379 19.4158C17.1078 19.4158 18.1658 19.6081 18.8476 19.8695C20.0623 20.3308 20.4228 20.6077 22.6328 22.7529C23.8319 23.9217 24.7409 24.8674 24.8115 25.0212C25.1014 25.6902 24.4588 26.4514 23.7221 26.3053C23.5889 26.2822 22.7034 25.7132 21.7551 25.052C20.7833 24.383 19.8899 23.814 19.7254 23.7679C19.2395 23.6372 18.8711 23.8602 17.4762 25.1289C16.3398 26.1515 16.2144 26.2899 16.2144 26.5206C16.2144 26.6821 16.2771 26.8282 16.3947 26.9358C16.7552 27.2664 16.9041 27.1896 18.2364 25.9977L19.4824 24.8905L21.0811 26.0054C23.1344 27.4356 23.1579 27.451 23.8946 27.451C24.3804 27.4433 24.5529 27.4125 24.882 27.2434C25.6108 26.8666 26.034 26.1746 26.034 25.3749C26.034 24.5906 25.8616 24.3138 24.3256 22.7914C23.5732 22.0378 22.9541 21.3919 22.9541 21.3458C22.9541 21.2228 23.6359 21.1459 24.7566 21.1536C25.9008 21.1536 26.0889 21.192 27.7111 21.7226C28.7456 22.0609 28.9415 22.084 29.3333 21.9225C29.5684 21.8302 38.6905 16.6478 39.5448 16.1172C39.9758 15.8635 40.0933 15.5943 39.9288 15.2791C39.8034 15.0407 39.6623 14.9561 39.4037 14.9561C39.3175 14.9561 36.9272 16.2864 34.0746 17.9165L28.9023 20.8845L27.8208 20.5385C27.2252 20.3462 26.4023 20.1309 26.0027 20.0617C25.0387 19.9003 23.6673 19.9464 22.625 20.1848L21.8648 20.3616L21.5984 20.1309C20.9322 19.5542 19.8116 18.9545 18.879 18.6623C17.3351 18.1779 16.1909 18.1779 13.3775 18.6315L11.3634 18.9622L6.1676 16.5709C3.00935 15.1099 0.84638 14.1565 0.650459 14.1334C0.368332 14.095 0.313474 14.118 0.164574 14.3026Z" fill="white"/>
<path d="M0.221662 24.4326C0.00251006 24.5912 -0.0679318 24.9003 0.0729519 25.1698C0.166874 25.3442 0.824332 25.7009 3.71245 27.1277L7.24237 28.8637L7.77459 29.4978C8.44771 30.3063 9.50433 31.1941 10.5531 31.8283C11.1323 32.177 11.4376 32.4148 11.555 32.613C11.7506 32.9301 12.3064 33.3185 12.7368 33.4374C13.0264 33.5167 13.0343 33.5246 13.0343 33.8892C13.0421 34.8642 13.8561 35.7124 14.9362 35.855C15.2806 35.9026 15.304 35.9264 15.304 36.1404C15.304 36.4337 15.4762 36.838 15.7345 37.1947C16.0085 37.5514 16.7912 37.9477 17.2295 37.9477C17.5582 37.9477 17.5582 37.9477 17.6365 38.2965C17.8556 39.3666 18.8183 40.08 19.8828 39.9928C20.2976 39.9532 20.8455 39.7233 21.182 39.4459L21.3855 39.2794L21.7299 39.4617C22.0038 39.6123 22.1995 39.652 22.7004 39.652C23.2405 39.652 23.3736 39.6203 23.6945 39.4379C24.211 39.1209 24.6024 38.6294 24.7511 38.0825L24.8763 37.6306H25.205C25.6199 37.6306 26.2617 37.3056 26.5826 36.9331C26.8643 36.616 27.1148 36.0929 27.1226 35.8392C27.1226 35.6965 27.1852 35.6648 27.4983 35.6172C28.3906 35.4983 29.142 34.8642 29.3689 34.0557L29.4942 33.6039L29.8699 33.5642C30.2847 33.5087 30.7386 33.3026 31.0987 32.9935C31.3804 32.7557 31.7405 32.0581 31.7405 31.7569C31.7405 31.5825 31.8109 31.4953 32.1162 31.321C32.9771 30.8136 33.6268 30.2112 34.3233 29.2759L34.6756 28.8082L37.2819 27.5161C39.5047 26.4143 39.8961 26.1924 39.9587 26.01C40.0761 25.7088 39.9352 25.3838 39.6378 25.2649C39.3639 25.146 39.3873 25.1381 36.0453 26.7948L33.8929 27.8649L33.3685 28.5783C32.8597 29.2679 32.4214 29.696 31.7953 30.124L31.4978 30.3301L30.9187 29.6326C29.9012 28.4118 29.5411 28.174 28.688 28.174C28.0853 28.174 27.7331 28.3088 27.2792 28.7289C26.9348 29.0381 26.5747 29.6881 26.5747 29.9972C26.5747 30.1478 26.5356 30.1795 26.3165 30.1795C25.479 30.1795 24.5711 30.9008 24.3363 31.7569C24.2032 32.2325 24.1954 32.2405 23.9214 32.2405C23.0605 32.2563 22.1213 33.0728 21.9882 33.9209C21.9412 34.1984 21.9178 34.2142 21.5734 34.2697C20.3602 34.4441 19.5227 35.4349 19.6323 36.6002C19.6793 37.1233 19.828 37.4483 20.2663 37.9715L20.5872 38.3599L20.368 38.5501C19.961 38.9068 19.3975 38.8989 19.0296 38.5343C18.7166 38.2172 18.6931 37.8605 18.9357 37.377C19.1705 36.9172 19.1549 36.6002 18.8809 36.402C18.6383 36.2276 18.4348 36.2593 18.0513 36.5209C17.5504 36.8617 17.1042 36.8538 16.7442 36.4892C16.525 36.2672 16.4781 36.1642 16.4781 35.8709C16.4781 35.6648 16.5407 35.4349 16.6346 35.2923C16.8616 34.9514 16.8381 34.5868 16.5877 34.3886C16.3137 34.1746 16.2433 34.1746 15.7189 34.4599C15.2258 34.7295 15.2179 34.7295 14.811 34.6106C14.2631 34.4599 14.0361 33.7545 14.3648 33.2075C14.5761 32.8667 14.5683 32.5258 14.3492 32.3197C14.2005 32.177 14.1144 32.1612 13.8561 32.2088C13.1908 32.3277 12.9012 32.288 12.6507 32.0423C12.5177 31.9234 12.3846 31.7014 12.3611 31.5588C12.2672 31.0514 12.4238 30.8295 13.7074 29.6643C15.304 28.2137 15.4919 28.0076 15.4214 27.7381C15.3432 27.4131 15.1553 27.2466 14.8657 27.2466C14.6388 27.2466 14.4118 27.4289 13.089 28.6259C11.8602 29.7515 11.5471 30.0844 11.3906 30.4173C11.1793 30.8691 11.1871 30.8691 10.5453 30.4252C9.8722 29.9576 9.12082 29.2679 8.48684 28.5228C8.02505 27.9917 7.82156 27.8173 7.43804 27.643C7.17975 27.5241 5.56742 26.7235 3.8455 25.8674C2.13142 25.0113 0.65214 24.3137 0.558218 24.3137C0.464296 24.3137 0.315585 24.3692 0.221662 24.4326ZM29.0246 29.4106C29.2907 29.5295 30.3786 30.7502 30.543 31.1149C30.676 31.4161 30.5899 31.7569 30.3082 32.0581C30.0264 32.3594 29.6429 32.4624 29.3141 32.3197C29.1185 32.2325 28.6176 31.7173 27.9601 30.9088C27.5531 30.4015 27.7331 29.6801 28.328 29.4185C28.6332 29.2838 28.7193 29.2838 29.0246 29.4106ZM26.7626 31.4557C26.9504 31.5429 27.9992 32.724 28.1949 33.0648C28.5471 33.6831 27.8818 34.563 27.1618 34.4282C26.7548 34.349 25.5025 32.9301 25.4242 32.4545C25.3146 31.7569 26.113 31.1545 26.7626 31.4557ZM24.9546 33.9923C25.252 34.3014 25.5964 34.7057 25.7216 34.8801C26.2382 35.6014 25.8234 36.4416 24.9546 36.4416C24.5867 36.4416 24.4693 36.3465 23.7258 35.4587C23.1857 34.8087 23.1309 34.7215 23.1309 34.4045C23.1309 33.81 23.5066 33.4374 24.1093 33.4295C24.391 33.4295 24.4615 33.477 24.9546 33.9923ZM22.0899 35.5301C22.3013 35.5855 23.4049 36.8459 23.5849 37.2184C23.6945 37.4483 23.6945 37.5117 23.6005 37.813C23.397 38.3837 22.7865 38.6532 22.2856 38.3916C22.0743 38.2806 21.0725 37.1471 20.8846 36.8142C20.7515 36.5685 20.7594 36.2276 20.9159 35.9581C21.0646 35.7124 21.6047 35.3953 21.8004 35.4429C21.863 35.4666 21.996 35.4983 22.0899 35.5301Z" fill="white"/>
</svg>
