<svg width="40" height="40" viewBox="0 0 40 40" fill="none" xmlns="http://www.w3.org/2000/svg">
<path d="M3.50604 1.49075C2.67651 2.30749 2 3.01322 2 3.05286C2 3.10044 2.68456 3.8141 3.5302 4.63877L5.0604 6.14538L5.50336 5.70925C5.74497 5.47137 5.94631 5.24141 5.94631 5.20176C5.94631 5.15419 5.63221 4.80529 5.24564 4.42467L4.53691 3.72687H14.3785C19.7906 3.72687 24.2765 3.75066 24.349 3.77445C24.7114 3.91718 24.7114 3.85375 24.7114 11.141V18H25.3557H26V10.9507V3.90132L25.7745 3.48106C25.5007 2.95771 25.0174 2.57709 24.4698 2.46608C24.1879 2.40264 21.047 2.37886 14.298 2.37886H4.53691L5.24564 1.68106C5.63221 1.30044 5.94631 0.951542 5.94631 0.903965C5.94631 0.8326 5.13289 0 5.0604 0C5.03624 0 4.33557 0.66608 3.50604 1.49075Z" fill="white"/>
<path d="M36.4971 2.43564L36.0767 2.87129L36.8084 3.62376L37.548 4.37624H33.0642C28.0745 4.37624 28.129 4.36832 27.5841 4.90693C26.9691 5.51683 27.0003 5.09703 27.0003 11.9168V18H27.623H28.2457V12.0673V6.12673L28.4326 5.90495L28.6194 5.68317L33.0876 5.65941L37.548 5.64356L36.8084 6.39604L36.0767 7.14851L36.4971 7.58416C36.7306 7.82178 36.9563 8.0198 37.0031 8.0198C37.042 8.0198 37.7426 7.35445 38.5443 6.53069L40 5.0495L38.4976 3.52079C37.6725 2.68911 36.9797 2 36.9641 2C36.9408 2 36.7306 2.19802 36.4971 2.43564Z" fill="white"/>
<path d="M7.53118 9.51948L6 11.039L7.50762 12.5351L9.02309 14.039L9.49422 13.5714L9.96536 13.1117L9.24295 12.387L8.5127 11.6623H14.9122C19.8199 11.6701 21.3432 11.6857 21.4374 11.7636C21.7358 11.9896 21.7436 12.0987 21.7436 16.0961V20H22.3718H23V15.9481C23 11.5455 23.0078 11.6468 22.5524 11.0545C22.4425 10.9065 22.1677 10.7039 21.9478 10.6026L21.5473 10.4156H15.0536C11.473 10.4156 8.55196 10.3922 8.55196 10.361C8.55196 10.3299 8.8739 9.98701 9.25866 9.5974L9.96536 8.88831L9.50993 8.44416L9.06235 8L7.53118 9.51948Z" fill="white"/>
<path d="M33.3158 10.428L32.8737 10.856L33.6351 11.5875L34.4047 12.3191L32.9392 12.3502C31.6292 12.3735 31.4409 12.3891 31.1462 12.5447C30.7287 12.7549 30.4012 13.0661 30.1719 13.463C30.0082 13.7665 30 13.8521 30 16.8872V20H30.655H31.3099L31.3345 17.0117C31.3509 14.0623 31.3591 14.0156 31.531 13.8366C31.7029 13.6654 31.752 13.6576 33.0211 13.6576H34.3392L33.6023 14.358L32.8737 15.0584L33.3567 15.5253L33.848 15.9922L35.4199 14.4981L37 12.9961L35.4281 11.5019C34.5602 10.677 33.8316 10 33.807 10C33.7825 10 33.5614 10.1946 33.3158 10.428Z" fill="white"/>
<path d="M13.0014 18.051C11.6966 18.2248 10.0461 18.8724 8.96925 19.6386C8.2933 20.1203 7.4523 20.9576 6.90997 21.6921C6.44623 22.3081 5.81744 23.5087 5.64453 24.101C5.55807 24.4011 5.51877 24.4406 5.26725 24.4801C3.12151 24.804 1.58098 25.8465 0.677093 27.592C-0.211072 29.298 -0.226792 31.1067 0.637793 32.8838C0.975768 33.5867 1.12511 33.7999 1.6753 34.3449C2.34338 35.0163 2.89357 35.3875 3.68742 35.7113C4.74064 36.1378 4.59131 36.1299 14.7934 36.1299H24.241L25.7894 37.6858L27.3456 39.2418L27.8565 38.989C28.6582 38.5941 28.7132 38.6178 29.004 39.4629L29.1927 40H31.5978H33.9951L34.1365 39.5419C34.3173 38.9653 34.4588 38.7363 34.6553 38.7363C34.7417 38.7363 35.0404 38.8548 35.3234 38.989L35.8343 39.2497L37.5241 37.5516L39.214 35.8535L38.9389 35.2769C38.7896 34.961 38.6874 34.6529 38.7188 34.5898C38.7739 34.4397 39.0332 34.3054 39.5913 34.1238L40 33.9816V31.5885V29.1953L39.4105 28.9821C39.0804 28.8557 38.7817 28.6977 38.7424 28.6188C38.6874 28.524 38.7346 28.3265 38.9389 27.9L39.2062 27.3235L37.5241 25.6333L35.8421 23.9352L35.2998 24.1879C35.0011 24.3301 34.7024 24.4406 34.6317 24.4406C34.4588 24.4406 34.3095 24.1879 34.1365 23.6271L33.9951 23.1769H33.0833H32.1716L31.7471 22.7346C30.914 21.8895 29.5228 21.1155 28.2416 20.7917C27.2749 20.5468 25.475 20.5468 24.5789 20.7917C23.7379 21.0207 22.9048 21.3841 22.2917 21.7869L21.7651 22.1344L21.5136 21.7711C21.1363 21.2261 20.1617 20.223 19.5722 19.7886C18.5504 19.0304 17.3479 18.4696 16.106 18.1932C15.3122 18.0194 13.7716 17.9405 13.0014 18.051ZM16.2868 19.5754C18.4404 20.223 20.1381 21.6684 21.1678 23.7061C21.2778 23.9352 21.3957 24.1247 21.4193 24.1247C21.4429 24.1247 21.7022 23.9194 21.9852 23.6666C22.9677 22.7978 23.7615 22.3634 24.8698 22.0633C25.7501 21.8342 27.0627 21.8263 27.9587 22.0633C28.6739 22.245 29.5778 22.6557 30.0101 22.9716L30.2852 23.1769H29.735H29.1927L29.004 23.7061C28.7054 24.5591 28.6897 24.567 27.8801 24.1879L27.3378 23.9352L25.64 25.6412L23.9502 27.3393L24.2331 27.9079C24.5947 28.6188 24.5554 28.6977 23.7694 28.9821L23.1799 29.2032V31.5964V33.9816L23.6986 34.1554C24.2017 34.3291 24.5161 34.5424 24.5161 34.7082C24.5161 34.7635 21.3014 34.7872 14.6362 34.7714L4.7485 34.7477L4.17473 34.5108C1.45522 33.3971 0.464876 30.151 2.09187 27.7342C2.50058 27.126 3.10579 26.5889 3.75816 26.2572C4.41053 25.9334 4.74064 25.8465 5.68383 25.7912L6.53269 25.7438L6.67417 25.1752C7.2951 22.7267 9.15789 20.6179 11.4372 19.7886C12.5533 19.3779 13.0328 19.3068 14.3768 19.3384C15.4143 19.3621 15.6973 19.3937 16.2868 19.5754ZM33.2169 24.8908C33.3663 25.3331 33.3741 25.341 33.9165 25.5701C34.671 25.886 34.7496 25.9018 35.1112 25.7122C35.2919 25.6175 35.4806 25.5464 35.5356 25.5464C35.5906 25.5464 36.0936 26.0045 36.6438 26.5573L37.6499 27.5683L37.4534 28.0027L37.2569 28.4292L37.5241 29.1005L37.7914 29.7719L38.2237 29.9299L38.6638 30.0878V31.5885V33.0891L38.2237 33.2471L37.7914 33.405L37.5163 34.0685L37.249 34.7398L37.4455 35.1742L37.6499 35.6086L36.6438 36.6196C36.0936 37.1725 35.5828 37.6306 35.5199 37.6306C35.457 37.6227 35.2448 37.5437 35.0561 37.441L34.7182 37.2593L34.0422 37.5516L33.3663 37.8438L33.2169 38.294L33.0676 38.7363H31.5899H30.1044L29.9629 38.294C29.8608 37.9623 29.7743 37.828 29.625 37.7648C29.5149 37.7253 29.2163 37.5911 28.949 37.4726L28.4774 37.2593L28.1237 37.441C27.9351 37.5437 27.7229 37.6227 27.66 37.6306C27.5971 37.6306 27.0862 37.1725 26.536 36.6196L25.53 35.6007L25.7186 35.1663L25.9151 34.724L25.6557 34.0606L25.3885 33.405L24.9562 33.2471L24.5161 33.0891V31.5885V30.0878L24.9562 29.9299L25.3885 29.7719L25.6557 29.1084L25.9151 28.445L25.7265 28.0106L25.53 27.5683L26.536 26.5573C27.0862 26.0045 27.5893 25.5464 27.6443 25.5464C27.6993 25.5464 27.8879 25.6175 28.0687 25.7122C28.4303 25.9018 28.5089 25.886 29.2634 25.5701C29.8058 25.341 29.8136 25.3331 29.9629 24.8908L30.1123 24.4406H31.5899H33.0676L33.2169 24.8908Z" fill="white"/>
<path d="M8.36628 27.7405V30.481L7.99563 30.6788C6.6695 31.3676 6.6695 33.0676 7.98739 33.7563C9.00875 34.2912 10.3596 33.9102 10.8456 32.9576C11.0515 32.562 11.0515 31.8732 10.8456 31.4775C10.6644 31.1258 10.1454 30.6568 9.87362 30.5982L9.68417 30.5542V27.7771V25H9.02523H8.36628V27.7405ZM9.4453 31.8072C9.72535 32.0564 9.75007 32.3055 9.51943 32.5693C9.30528 32.8111 9.00052 32.8697 8.70399 32.7378C8.09447 32.452 8.34981 31.6094 9.04994 31.5947C9.1323 31.5947 9.31351 31.69 9.4453 31.8072Z" fill="white"/>
<path d="M12.324 25.6585V26.3098L12.0367 26.4341C11.6918 26.5805 11.2812 26.9829 11.117 27.3341C10.961 27.6634 10.961 28.3366 11.117 28.6659C11.273 29.0098 11.6754 29.4049 12.0284 29.5732L12.324 29.7195V31.8561V34H12.9809H13.6378V31.8561V29.7195L13.9334 29.5732C14.6971 29.2073 15.1405 28.3805 14.9598 27.6634C14.8366 27.1805 14.4754 26.7268 14.0073 26.478L13.646 26.2805L13.6378 25.6366V25H12.9809H12.324V25.6585ZM13.4325 27.5976C13.8431 27.9561 13.5557 28.5854 12.9809 28.5854C12.8249 28.5854 12.6525 28.5195 12.5293 28.4024C12.3979 28.2927 12.324 28.139 12.324 28C12.324 27.861 12.3979 27.7073 12.5293 27.5976C12.6525 27.4805 12.8249 27.4146 12.9809 27.4146C13.1369 27.4146 13.3094 27.4805 13.4325 27.5976Z" fill="white"/>
<path d="M17.2986 26.2585V27.5244L16.9955 27.6707C16.6105 27.8537 16.1846 28.3512 16.0617 28.7537C15.8487 29.4634 16.2009 30.2683 16.9054 30.6707L17.2904 30.8902V32.4415L17.2986 34H17.9949H18.6911V32.4341V30.8683L18.9369 30.7805C19.2481 30.6634 19.7151 30.2098 19.8789 29.8585C20.0591 29.4707 20.0345 28.8415 19.8297 28.461C19.6577 28.139 18.9942 27.561 18.8058 27.561C18.7157 27.561 18.6911 27.3122 18.6911 26.2805V25H17.9949H17.2986V26.2585ZM18.4536 28.7976C18.5846 28.922 18.6911 29.0902 18.6911 29.1927C18.6911 29.4268 18.4208 29.7268 18.1587 29.7854C17.9211 29.8366 17.5116 29.6756 17.4297 29.5C17.143 28.8268 17.9048 28.3073 18.4536 28.7976Z" fill="white"/>
<path d="M30.8849 27.0811C29.0886 27.4948 27.6134 28.9349 27.1318 30.7351C26.9713 31.3326 26.956 32.5199 27.0936 33.1021C27.6745 35.4768 29.8301 37.1161 32.2226 36.9936C33.522 36.9246 34.6304 36.4267 35.5324 35.5151C37.4968 33.5158 37.4892 30.444 35.5094 28.437C34.5692 27.4871 33.5603 27.0505 32.1844 27.0045C31.6417 26.9892 31.183 27.0122 30.8849 27.0811ZM32.6506 28.2838C35.54 28.8047 36.7401 32.3974 34.7298 34.5269C33.3768 35.9671 31.2977 36.1586 29.7536 34.9866C28.2554 33.8605 27.8197 31.9148 28.6835 30.2065C29.1268 29.3256 30.174 28.5366 31.1754 28.3144C31.7716 28.1842 32.0774 28.1766 32.6506 28.2838Z" fill="white"/>
<path d="M30.7953 29.0447C30.1048 29.2693 29.4527 29.8579 29.1611 30.5085C29.0384 30.7796 29 31.0275 29 31.4922C29 32.2357 29.1611 32.654 29.6521 33.1961C30.1278 33.7151 30.6265 33.9474 31.3324 33.9939C32.1379 34.0404 32.675 33.8235 33.2581 33.2426C33.7031 32.7856 33.8949 32.3906 33.987 31.6703C34.0637 31.1049 33.7952 30.3304 33.3578 29.8347C32.8438 29.2538 32.3681 29.0292 31.6009 29.0059C31.2633 28.9904 30.9027 29.0059 30.7953 29.0447ZM32.161 30.4233C32.5292 30.7022 32.7134 31.0507 32.7134 31.4922C32.7134 32.0034 32.4909 32.3519 32.0229 32.5998C31.1943 33.0335 30.2582 32.4449 30.2582 31.4922C30.2582 30.9578 30.5575 30.5008 31.0255 30.2994C31.3093 30.1755 31.9231 30.2452 32.161 30.4233Z" fill="white"/>
</svg>
