<svg width="40" height="41" viewBox="0 0 40 41" fill="none" xmlns="http://www.w3.org/2000/svg">
<path d="M0.915613 0.152149C0.540778 0.32832 0.298697 0.584572 0.134706 0.976955C0.0331885 1.2332 0.0175704 1.85781 0.0175704 5.42129C0.0175704 9.28106 0.0331885 9.59336 0.165943 9.88965C0.337742 10.274 0.587632 10.5223 0.970277 10.6904C1.20455 10.7865 1.60281 10.8105 2.98502 10.8105H4.70301V15.1508C4.71082 19.8354 4.6952 19.6912 5.1247 19.8594C5.26526 19.9074 6.70213 19.9395 9.16199 19.9395H12.9806V21.2207V22.502H12.6292C12.3325 22.502 12.2622 22.4699 12.1451 22.2777C11.7312 21.5971 11.2548 21.3008 10.5598 21.3008C9.54463 21.3008 8.84182 22.0215 8.84182 23.0625C8.84182 24.0795 9.55244 24.8242 10.5208 24.8242C11.2158 24.8242 11.8093 24.4879 12.0904 23.9273C12.1919 23.7271 12.2466 23.7031 12.5824 23.7031H12.9572L12.9962 24.9764C13.0275 26.2096 13.0353 26.2576 13.2696 26.674C13.4414 26.9863 13.6132 27.1785 13.9021 27.3547C14.3863 27.651 14.7299 27.707 16.2839 27.707H17.4318V31.2705V34.834H13.9958H10.5598V33.1523C10.5598 31.807 10.5364 31.4066 10.4427 31.1664C10.2787 30.774 10.0366 30.5178 9.66177 30.3416C9.37283 30.2055 9.06828 30.1895 5.28869 30.1895C1.5091 30.1895 1.20455 30.2055 0.915613 30.3416C0.540778 30.5178 0.298697 30.774 0.134706 31.1664C-0.0449021 31.6148 -0.0449021 39.5746 0.134706 40.023C0.298697 40.4154 0.540778 40.6717 0.915613 40.8479C1.20455 40.984 1.5091 41 5.28869 41C9.06828 41 9.37283 40.984 9.66177 40.8479C10.0366 40.6717 10.2787 40.4154 10.4427 40.023C10.5364 39.7828 10.5598 39.3664 10.5598 37.885V36.0432L14.4253 36.0191L18.283 35.9951L18.4626 35.8109L18.6422 35.6268L18.6656 31.6709L18.6891 27.707H20.2431H21.8049V29.0283V30.3416L21.594 30.4617C21.0396 30.758 20.7116 31.3426 20.7116 32.0312C20.7116 33.0723 21.4144 33.793 22.4296 33.793C23.4448 33.793 24.1476 33.0723 24.1476 32.0312C24.1476 31.3426 23.8196 30.758 23.273 30.4617L23.0543 30.3416V29.0363V27.7311L24.3272 27.691C25.5767 27.659 25.6157 27.651 26.0296 27.4107C26.5528 27.1145 26.912 26.5539 26.9823 25.9293C27.0135 25.6971 27.0369 24.648 27.0369 23.599V21.7012H30.5901H34.1432V25.9453V30.1895H32.4096C30.8868 30.1895 30.6291 30.2135 30.3558 30.3416C29.6374 30.6779 29.4578 31.1104 29.4578 32.4957C29.4578 33.4166 29.4734 33.5367 29.6139 33.6969C29.8326 33.9371 30.2543 33.9371 30.4729 33.6969C30.6135 33.5447 30.6291 33.4166 30.6291 32.5518C30.6291 31.9031 30.6604 31.5508 30.7228 31.4867C30.7931 31.4146 31.7927 31.3906 34.7445 31.3906C38.5397 31.3906 38.6725 31.3986 38.7505 31.5428C38.7974 31.6469 38.8286 33.0723 38.8286 35.6268C38.8286 39.0861 38.813 39.5586 38.7037 39.6707C38.5944 39.7828 38.1336 39.7988 34.7601 39.7988C32.269 39.7988 30.879 39.7668 30.7775 39.7188C30.6369 39.6387 30.6291 39.5266 30.6291 37.6688C30.6291 36.5637 30.5979 35.6428 30.551 35.5627C30.512 35.4826 30.3792 35.3705 30.2465 35.3225C30.0591 35.2424 29.981 35.2424 29.7857 35.3465C29.6608 35.4105 29.5358 35.5307 29.5046 35.5947C29.4812 35.6668 29.4578 36.6357 29.4578 37.7408C29.4578 39.935 29.4968 40.1672 29.9341 40.5756C30.387 41 30.387 41 34.7445 41C38.5085 41 38.813 40.984 39.102 40.8479C39.4768 40.6717 39.7189 40.4154 39.8829 40.023C39.9844 39.7668 40 39.1422 40 35.5787C40 31.7189 39.9844 31.4066 39.8516 31.1104C39.6798 30.726 39.4299 30.4777 39.0473 30.3096C38.813 30.2135 38.4148 30.1895 37.0326 30.1895H35.3146V25.5449V20.8924L35.1193 20.7002L34.9319 20.5H30.9805H27.0369V19.499V18.498H28.427H29.8092L29.9653 18.7943C30.0512 18.9625 30.2777 19.2027 30.4573 19.3389C30.7697 19.5551 30.8556 19.5791 31.4413 19.5791C32.0113 19.5791 32.1206 19.5551 32.4096 19.3629C33.4326 18.6662 33.4326 17.0486 32.4096 16.352C32.1206 16.1598 32.0113 16.1357 31.4413 16.1357C30.8478 16.1357 30.7697 16.1518 30.4573 16.376C30.2777 16.5121 30.0434 16.7764 29.9419 16.9605L29.7623 17.2969H28.4113H27.0604L27.0213 16.0236C26.9901 14.7904 26.9823 14.7424 26.748 14.326C26.5762 14.0057 26.4044 13.8295 26.0999 13.6293L25.6782 13.373H24.3662H23.0543V9.68945V6.00586H26.256H29.4578V7.7836C29.4578 9.72149 29.5124 9.98574 29.9341 10.3861C30.387 10.8105 30.3948 10.8105 34.7289 10.8105C38.1883 10.8105 38.7974 10.7945 39.0473 10.6904C39.4299 10.5223 39.6798 10.274 39.8516 9.88965C39.9844 9.59336 40 9.28106 40 5.40527C40 1.52949 39.9844 1.21719 39.8516 0.920898C39.6798 0.536526 39.4299 0.28828 39.0473 0.120117C38.7974 0.0160179 38.1883 0 34.7289 0C30.3948 0 30.387 0 29.9341 0.424416C29.5124 0.824806 29.4578 1.08906 29.4578 3.01895V4.80469H25.85C21.883 4.81269 22.0235 4.79668 21.883 5.29316C21.8361 5.45332 21.8049 7.20703 21.8049 9.46523V13.373H20.2431H18.6812V12.1719V10.9787L18.8999 10.8586C19.8916 10.3221 20.0869 8.79258 19.2513 7.99981C18.8921 7.65547 18.5719 7.52734 18.0565 7.52734C17.0413 7.52734 16.3385 8.24805 16.3385 9.28906C16.3385 9.97774 16.6665 10.5623 17.2209 10.8586L17.4318 10.9787V12.1719V13.373H15.8856H14.3394L13.9177 13.6293C13.6132 13.8295 13.4414 14.0057 13.2618 14.334L13.0197 14.7744L12.9884 16.7523L12.965 18.7383H9.41969H5.87437V14.7744V10.8105H7.61579C9.13075 10.8105 9.38845 10.7865 9.66177 10.6584C10.3802 10.3221 10.5598 9.88965 10.5598 8.5043C10.5598 7.5834 10.5442 7.46328 10.4036 7.30313C10.185 7.06289 9.76329 7.06289 9.54463 7.30313C9.40407 7.45527 9.38845 7.5834 9.38845 8.41621C9.38845 9.16895 9.36502 9.38516 9.26351 9.48125C9.15418 9.59336 8.69345 9.60938 5.31993 9.60938C2.82884 9.60938 1.43882 9.57734 1.3373 9.5293C1.19674 9.44922 1.18893 9.31309 1.18893 5.42129C1.18893 2.39434 1.21236 1.36934 1.28264 1.29727C1.35292 1.2252 2.35248 1.20117 5.30431 1.20117C9.09952 1.20117 9.23227 1.20918 9.31036 1.35332C9.35722 1.44941 9.38845 2.25821 9.38845 3.41934C9.38845 5.23711 9.39626 5.34121 9.54463 5.50938C9.65396 5.62149 9.80233 5.68555 9.97413 5.68555C10.1459 5.68555 10.2943 5.62149 10.4036 5.50938C10.552 5.34121 10.5598 5.23711 10.5598 3.30723C10.5598 1.65762 10.5364 1.21719 10.4427 0.976955C10.2787 0.584572 10.0366 0.32832 9.66177 0.152149C9.37283 0.0160179 9.06828 0 5.28869 0C1.5091 0 1.20455 0.0160179 0.915613 0.152149ZM38.7505 1.35332C38.7974 1.45742 38.8286 2.88281 38.8286 5.43731C38.8286 8.89668 38.813 9.36914 38.7037 9.48125C38.5944 9.59336 38.1336 9.60938 34.7601 9.60938C32.269 9.60938 30.879 9.57734 30.7775 9.5293C30.6369 9.44922 30.6291 9.31309 30.6291 5.42129C30.6291 2.39434 30.6525 1.36934 30.7228 1.29727C30.7931 1.2252 31.7927 1.20117 34.7445 1.20117C38.5397 1.20117 38.6725 1.20918 38.7505 1.35332ZM18.4626 8.86465C18.6422 9.02481 18.65 9.50527 18.4704 9.70547C18.3142 9.88965 17.8457 9.89766 17.6504 9.71348C17.4708 9.55332 17.463 9.07285 17.6426 8.87266C17.7988 8.68848 18.2674 8.68047 18.4626 8.86465ZM25.6079 14.7504L25.7875 14.9186V20.5V26.0814L25.5845 26.2736L25.3814 26.4658H20.0088H14.6361L14.4331 26.2736L14.2301 26.0814V20.508V14.9426L14.4019 14.7584L14.5659 14.5742H20.001H25.4283L25.6079 14.7504ZM31.8708 17.5051C31.9645 17.6252 32.0347 17.7773 32.0347 17.8574C32.0347 17.9375 31.9645 18.0896 31.8708 18.2098C31.5506 18.6262 30.8634 18.3939 30.8634 17.8574C30.8634 17.3209 31.5506 17.0887 31.8708 17.5051ZM10.9659 22.6381C11.1455 22.7982 11.1533 23.2787 10.9737 23.4789C10.8175 23.6631 10.349 23.6711 10.1537 23.4869C9.97413 23.3268 9.96632 22.8463 10.1459 22.6461C10.3021 22.4619 10.7707 22.4539 10.9659 22.6381ZM9.31036 31.5428C9.35722 31.6469 9.38845 33.0723 9.38845 35.6268C9.38845 39.0861 9.37283 39.5586 9.26351 39.6707C9.15418 39.7828 8.69345 39.7988 5.31993 39.7988C2.82884 39.7988 1.43882 39.7668 1.3373 39.7188C1.19674 39.6387 1.18893 39.5025 1.18893 35.6107C1.18893 32.5838 1.21236 31.5588 1.28264 31.4867C1.35292 31.4146 2.35248 31.3906 5.30431 31.3906C9.09952 31.3906 9.23227 31.3986 9.31036 31.5428ZM22.8357 31.6068C23.0153 31.767 23.0231 32.2475 22.8435 32.4477C22.6873 32.6318 22.2188 32.6398 22.0235 32.4557C21.8439 32.2955 21.8361 31.815 22.0157 31.6148C22.1719 31.4307 22.6404 31.4227 22.8357 31.6068Z" fill="white"/>
<path d="M32.2708 3.19348C31.8195 3.39089 31.7949 3.51342 31.7949 5.63728C31.7949 7.77474 31.8195 7.88366 32.2872 8.08788C32.6401 8.23764 37.1036 8.23764 37.4565 8.08788C37.9242 7.88366 37.9488 7.77474 37.9488 5.63728C37.9488 3.49981 37.9242 3.39089 37.4565 3.18668C37.1118 3.03692 32.6072 3.03692 32.2708 3.19348ZM36.718 5.63728V7.1689H34.8718H33.0257V5.63728V4.10565H34.8718H36.718V5.63728Z" fill="white"/>
<path d="M15.3324 16.2022C15.1487 16.3573 15.0735 16.4921 15.0318 16.7617C15.0067 16.9505 14.99 18.5347 15.0067 20.2806C15.0318 23.759 15.0234 23.6646 15.5495 23.8938C15.8751 24.0354 24.1249 24.0354 24.4505 23.8938C24.9766 23.6646 24.9682 23.759 24.9933 20.2806C25.01 18.5347 24.9933 16.9505 24.9682 16.7617C24.9265 16.4921 24.8513 16.3573 24.6676 16.2022L24.4088 16H23.3901C22.2294 16 22.0875 16.0539 22.0875 16.4854C22.0875 16.8426 22.3046 16.9572 23.0477 16.9977L23.674 17.0314V20.0177V23.0107H20H16.326V20.0177V17.0179L18.2799 16.9977C20.0584 16.9775 20.2505 16.964 20.4091 16.8494C20.6346 16.6809 20.6513 16.2696 20.4342 16.1146C20.3006 16.0135 20 16 17.9292 16H15.5912L15.3324 16.2022Z" fill="white"/>
<path d="M2.52717 33.9435C2.07588 34.1409 2.05127 34.2634 2.05127 36.3873C2.05127 38.5247 2.07588 38.6337 2.54358 38.8379C2.8964 38.9876 7.35999 38.9876 7.71281 38.8379C8.1805 38.6337 8.20512 38.5247 8.20512 36.3873C8.20512 34.2498 8.1805 34.1409 7.71281 33.9367C7.36819 33.7869 2.86358 33.7869 2.52717 33.9435ZM6.97435 36.3873V37.9189H5.12819H3.28204V36.3873V34.8557H5.12819H6.97435V36.3873Z" fill="white"/>
<path d="M2.52717 3.19348C2.07588 3.39089 2.05127 3.51342 2.05127 5.63728C2.05127 7.77474 2.07588 7.88366 2.54358 8.08788C2.8964 8.23764 7.35999 8.23764 7.71281 8.08788C8.1805 7.88366 8.20512 7.77474 8.20512 5.63728C8.20512 3.49981 8.1805 3.39089 7.71281 3.18668C7.36819 3.03692 2.86358 3.03692 2.52717 3.19348ZM6.97435 5.63728V7.1689H5.12819H3.28204V5.63728V4.10565H5.12819H6.97435V5.63728Z" fill="white"/>
<path d="M32.2708 33.9435C31.8195 34.1409 31.7949 34.2634 31.7949 36.3873C31.7949 38.5247 31.8195 38.6337 32.2872 38.8379C32.6401 38.9876 37.1036 38.9876 37.4565 38.8379C37.9242 38.6337 37.9488 38.5247 37.9488 36.3873C37.9488 34.2498 37.9242 34.1409 37.4565 33.9367C37.1118 33.7869 32.6072 33.7869 32.2708 33.9435ZM36.718 36.3873V37.9189H34.8718H33.0257V36.3873V34.8557H34.8718H36.718V36.3873Z" fill="white"/>
</svg>
