<svg width="28" height="22" fill="none" xmlns="http://www.w3.org/2000/svg"><path d="m18.433 10.566-6.222-4.21a.513.513 0 0 0-.804.433v8.421a.52.52 0 0 0 .519.527.462.462 0 0 0 .285-.092l6.222-4.21A.51.51 0 0 0 18.67 11a.52.52 0 0 0-.236-.434zm-5.989 3.658V7.776L17.214 11l-4.77 3.224zm14.843-10.75a2.697 2.697 0 0 0-.577-1.082 2.645 2.645 0 0 0-.992-.708C21.337-.026 14.298 0 14 0c-.298 0-7.337-.026-11.719 1.684-.38.155-.72.397-.991.708-.273.31-.47.68-.577 1.082C.389 4.75 0 7.092 0 11s.389 6.25.713 7.526c.107.401.304.772.577 1.082.272.311.611.553.991.708C6.663 22.026 13.701 22 14 22h.09c.895 0 7.467-.053 11.628-1.684.38-.155.72-.397.992-.707.273-.311.47-.682.577-1.083C27.611 17.25 28 14.908 28 11s-.389-6.25-.713-7.526zm-1.011 14.79c-.062.239-.18.46-.341.645a1.556 1.556 0 0 1-.592.42c-4.2 1.645-11.265 1.618-11.343 1.618-.078 0-7.143.027-11.343-1.618a1.556 1.556 0 0 1-.592-.42 1.587 1.587 0 0 1-.34-.646C1.412 17.04 1.036 14.79 1.036 11c0-3.79.376-6.04.687-7.263.062-.24.18-.46.341-.646.163-.185.365-.33.592-.42C6.857 1.026 13.922 1.053 14 1.053c.078 0 7.143-.027 11.343 1.618.227.091.43.235.591.42.163.185.28.406.342.646.311 1.224.687 3.474.687 7.263 0 3.79-.376 6.04-.687 7.263z" fill="#B9B9B9"/></svg>