<svg width="862" height="261" viewBox="0 0 862 261" fill="none" xmlns="http://www.w3.org/2000/svg">
<path d="M190.853 168.3V206.811H12.0987L9.71304 176.991L113.148 12.8914H152.171L109.911 83.6092L58.4487 168.3H190.853ZM162.736 12.8914V261H113.66V12.8914H162.736Z" fill="#EB690F"/>
<path d="M403.52 1.53964e-06C377.708 -0.00396255 352.474 7.64686 331.011 21.9849C309.547 36.3229 292.817 56.704 282.938 80.5505C273.058 104.397 270.472 130.638 275.507 155.954C280.541 181.271 292.971 204.525 311.223 222.777C329.475 241.029 352.729 253.459 378.046 258.493C403.362 263.528 429.603 260.942 453.45 251.062C477.296 241.183 497.677 224.453 512.015 202.989C526.353 181.526 534.004 156.292 534 130.48C533.921 95.8989 520.148 62.7569 495.696 38.3044C471.243 13.8519 438.101 0.0794072 403.52 1.53964e-06ZM403.52 205.761C388.63 205.765 374.073 201.354 361.691 193.084C349.308 184.814 339.656 173.058 333.955 159.303C328.254 145.547 326.76 130.41 329.663 115.806C332.565 101.201 339.733 87.7853 350.261 77.2549C360.788 66.7246 374.202 59.5528 388.806 56.6464C403.41 53.74 418.547 55.2297 432.304 60.927C446.061 66.6243 457.82 76.2733 466.093 88.6537C474.366 101.034 478.782 115.59 478.782 130.48C479.684 172.37 445.53 205.681 403.52 205.681V205.761Z" fill="#EB690F"/>
<path d="M403.5 174C427.524 174 447 154.524 447 130.5C447 106.476 427.524 87 403.5 87C379.476 87 360 106.476 360 130.5C360 154.524 379.476 174 403.5 174Z" fill="#B2B4B4"/>
<path d="M800.853 168.3V206.811H622.099L619.713 176.991L723.148 12.8914H762.171L719.911 83.6092L668.449 168.3H800.853ZM772.736 12.8914V261H723.66V12.8914H772.736Z" fill="#EB690F"/>
</svg>
