<svg width="42" height="42" viewBox="0 0 42 42" fill="none" xmlns="http://www.w3.org/2000/svg">
<path d="M29.5725 0.602158C28.493 0.792679 26.9236 1.28259 25.5356 1.85416L24.3472 2.35314L23.5852 2.26242C20.646 1.92674 17.0355 2.48923 14.1144 3.74123C7.48305 6.58998 2.97445 12.7411 2.27593 19.8993C2.14893 21.1331 2.14893 22.5756 2.26686 23.5827L2.35758 24.3448L1.85864 25.5333C1.26898 26.9667 0.797256 28.509 0.59768 29.6521C0.416247 30.7136 0.416247 32.4011 0.588608 33.2448C1.0059 35.2408 2.50272 36.7287 4.53477 37.1551C5.38751 37.3365 7.51027 37.2821 8.58072 37.0553L9.30645 36.901L10.0322 37.4454C16.1465 42.0542 24.5468 42.6348 31.2507 38.906C35.9499 36.2932 39.3336 31.9565 40.6943 26.8034C42.2274 20.9517 41.039 14.7915 37.4467 10.0284L36.9024 9.30264L37.0566 8.57684C37.2834 7.51537 37.3378 5.38334 37.1564 4.54868C36.721 2.4983 35.2513 1.00135 33.2465 0.584015C32.4301 0.411636 30.5885 0.42071 29.5725 0.602158ZM33.5005 2.16262C34.4803 2.54366 35.1788 3.24224 35.5779 4.23114C35.7684 4.71198 35.7866 4.9025 35.7866 6.27244C35.7866 7.09803 35.7594 7.80569 35.7231 7.84197C35.6868 7.87826 35.3148 7.59702 34.8975 7.22505C32.8383 5.39241 30.5341 4.04062 28.0394 3.20595L27.0052 2.85213L27.3772 2.68882C27.74 2.53459 29.6088 2.04468 30.1622 1.95395C30.3164 1.93581 31.0058 1.92674 31.7043 1.93581C32.7748 1.95395 33.056 1.99024 33.5005 2.16262ZM23.5489 3.72308C27.604 4.1132 31.414 5.8914 34.3986 8.77644C35.2695 9.62017 35.2695 9.62017 35.1788 9.93771C34.9157 10.9085 33.6094 13.7572 32.8655 14.982C32.6931 15.2723 32.5752 15.5445 32.6024 15.5898C32.6569 15.6806 33.7545 16.3429 33.7908 16.3066C34.0811 15.9527 35.5961 12.9407 36.0224 11.852C36.1948 11.4165 36.3581 11.0627 36.3853 11.0627C36.5032 11.0627 37.5283 12.7502 38.0545 13.8298C38.7258 15.1907 39.2066 16.5787 39.5059 17.9759L39.7146 18.9648L39.2519 19.2551C38.9889 19.4184 38.4173 19.7722 37.9819 20.0444C37.5465 20.3075 37.1564 20.5706 37.1292 20.616C37.102 20.6704 36.7572 21.9587 36.3762 23.4829L35.6868 26.259L33.6094 26.9576C32.2033 27.4385 31.4685 27.7288 31.3687 27.8558C31.2235 28.0282 31.2054 28.2822 31.2054 30.1874V32.3285L30.4797 33.0725C29.9081 33.6531 29.7539 33.8708 29.7539 34.0704C29.763 34.2247 30.0896 34.896 30.5704 35.7398L31.3778 37.146L31.0421 37.3547C29.509 38.3073 27.1776 39.1964 25.1728 39.5865C23.5671 39.8949 21.3808 40.022 21.4534 39.8042C21.4715 39.7407 21.535 39.5139 21.5895 39.2962C21.6802 38.9423 21.7618 38.8607 22.7688 38.1893C23.4945 37.7085 23.8664 37.3909 23.9027 37.2549C23.9299 37.146 23.9572 36.6742 23.9753 36.2025L23.9934 35.3496L24.8915 35.0503C25.3814 34.8869 25.835 34.7055 25.9076 34.642C25.9711 34.5876 26.2251 33.9525 26.4609 33.2358L26.8964 31.9203L26.4428 30.5866C25.8441 28.8175 25.9438 28.8719 24.1204 29.3255C22.8595 29.634 22.7234 29.6521 22.5964 29.5251C22.4603 29.3981 22.5057 29.3346 23.0863 28.8175C23.431 28.509 23.8846 28.1008 24.0842 27.9193L24.447 27.5836L23.939 27.0665L23.431 26.5584L22.8051 27.1209C22.4603 27.4385 22.0067 27.8377 21.789 28.01L21.399 28.3276L20.646 27.5836L19.884 26.8488H18.369L17.2804 26.123C16.6817 25.7238 16.1011 25.3972 15.9832 25.3972C15.8743 25.3972 15.0579 25.7601 14.1689 26.2046C12.6176 26.9848 12.536 27.0484 11.783 27.8195C10.9031 28.7086 9.43346 30.8316 9.43346 31.2035C9.43346 31.5392 11.0029 33.8618 11.4383 34.1612C11.6379 34.2972 11.7649 34.4424 11.7286 34.4787C11.6832 34.5241 11.2024 34.7236 10.6581 34.9232L9.66025 35.3043L8.79844 34.4061C8.31764 33.9162 7.67356 33.1813 7.35605 32.764C6.75732 31.9747 5.89552 30.632 5.89552 30.4868C5.89552 30.4414 6.17674 30.1965 6.52146 29.9425C6.86618 29.6884 7.17462 29.4163 7.20183 29.3346C7.22905 29.253 7.25626 28.3911 7.25626 27.4112V25.633L7.86406 24.7167L8.46279 23.8004L10.259 23.0837L12.0552 22.376L12.926 21.496L13.7878 20.616V17.0051L14.5499 16.2431L15.321 15.481L16.3914 16.2884C18.1604 17.6221 20.0563 18.865 20.3285 18.865C20.5009 18.865 21.3627 18.2934 23.2314 16.9598C24.701 15.9074 25.9438 14.982 25.9983 14.8913C26.1797 14.6191 26.8782 11.6252 26.8147 11.3893C26.7784 11.226 26.4337 10.9357 25.6535 10.4095L24.5468 9.65646L24.2021 8.6222C24.0207 8.05971 23.8211 7.54258 23.7666 7.47908C23.7122 7.4065 22.7869 7.06174 21.7074 6.69885L19.757 6.0547L19.8114 5.70995C19.8386 5.51943 19.9475 4.99323 20.0563 4.5396C20.2106 3.8501 20.2741 3.72308 20.4374 3.68679C20.8456 3.60514 22.5873 3.62329 23.5489 3.72308ZM18.6593 4.09505C18.6321 4.21299 18.496 4.82992 18.3599 5.46499C18.0062 7.10711 17.861 6.9438 20.5099 7.8329L22.6508 8.5587L22.9865 9.58388L23.3312 10.6181L24.2928 11.2623C24.828 11.6161 25.2725 11.9064 25.2816 11.9155C25.2907 11.9246 25.1728 12.4145 25.0185 13.0133L24.7464 14.102L22.5329 15.6806L20.3104 17.2501L19.4485 16.6785C18.9768 16.3701 17.8882 15.5898 17.0355 14.9457C15.838 14.0566 15.4207 13.7844 15.203 13.7844C14.9672 13.7844 14.7313 13.984 13.6336 15.0818L12.3364 16.3792V20.0081L11.7286 20.5978C11.1208 21.1875 11.0754 21.2148 9.30645 21.9133L7.5012 22.6301L6.64846 23.9002L5.8048 25.1704V28.6542L5.51451 28.881L5.21514 29.1078L5.07 28.8175C4.78878 28.2731 4.27169 26.631 4.0449 25.5786C2.48458 18.2662 5.50544 10.854 11.7558 6.65348C13.4068 5.55572 15.7564 4.53053 17.6886 4.08598C18.7047 3.85917 18.7137 3.85917 18.6593 4.09505ZM39.887 22.1492C39.7599 26.1683 38.5625 29.6068 36.222 32.7277C35.1334 34.1702 32.7566 36.4202 32.548 36.2115C32.4936 36.1571 32.2123 35.6944 31.9221 35.1773L31.3959 34.2428L32.0037 33.6259L32.6115 33.018L32.7022 28.8175L34.698 28.1461C35.7866 27.7832 36.7391 27.4294 36.8117 27.3568C36.8842 27.2933 37.2562 25.9597 37.6463 24.3992C38.0363 22.8387 38.3901 21.5323 38.4355 21.496C38.5262 21.4053 39.8507 20.5888 39.9051 20.5888C39.9232 20.5888 39.9142 21.2964 39.887 22.1492ZM19.2853 28.3003L20.2378 29.2711L19.6663 29.7247C18.1513 30.9223 15.3572 32.7368 13.8967 33.4626L13.3252 33.7529L12.7446 33.3265C12.3001 32.9999 12.0189 32.6914 11.6016 32.0473L11.0391 31.2035L11.5925 30.3598C11.9009 29.9062 12.4634 29.2167 12.8535 28.8266C13.4613 28.2368 13.7243 28.0554 14.7404 27.5473L15.9106 26.9667L16.9176 27.629L17.9154 28.3003H19.2853ZM3.21938 28.0735C4.05397 30.5412 5.40565 32.8547 7.22905 34.896C7.60099 35.3134 7.88221 35.6853 7.84592 35.7216C7.80963 35.7579 7.10205 35.7851 6.27653 35.7851C4.90671 35.7851 4.7162 35.767 4.23541 35.5765C3.2466 35.1773 2.55715 34.4878 2.158 33.4989C1.9675 33.018 1.94935 32.8366 1.95843 31.4757C1.95843 30.133 1.98564 29.879 2.21243 28.9808C2.45737 28.0191 2.80209 26.9848 2.85652 27.0484C2.86559 27.0665 3.02888 27.5201 3.21938 28.0735ZM22.4059 31.2035C22.5148 31.2035 23.0863 31.0765 23.6759 30.9314C24.2656 30.7771 24.7917 30.6592 24.8462 30.6592C24.8915 30.6592 25.0276 30.9404 25.1365 31.2943L25.3451 31.9293L25.0911 32.7277L24.828 33.5352L23.8029 33.8708C23.1135 34.0976 22.7234 34.27 22.6327 34.4061C22.5329 34.5513 22.4966 34.8597 22.4966 35.6127V36.6198L21.4534 37.3093C20.3285 38.0623 20.4374 37.899 20.1017 39.2145C20.0291 39.5139 19.9475 39.7679 19.9293 39.7861C19.884 39.8314 18.487 39.6228 17.7159 39.4595C17.1806 39.3415 17.2623 39.6046 16.9085 37.0553C16.591 34.8053 16.6091 34.8325 15.4661 34.8325C15.0397 34.8325 14.695 34.8053 14.695 34.7599C14.695 34.7236 15.0488 34.4968 15.4933 34.2519C17.0808 33.3446 19.3125 31.8477 20.8184 30.6683L21.2719 30.3144L21.7437 30.759C21.9977 31.0039 22.297 31.2035 22.4059 31.2035ZM13.7334 35.8758C14.2324 36.2478 14.314 36.2841 14.7948 36.2841C15.321 36.2841 15.321 36.2841 15.3754 36.5744C15.5205 37.4635 15.6929 38.7609 15.6566 38.7972C15.5205 38.9333 12.9986 37.6994 11.7921 36.9101C11.1208 36.4656 10.9393 36.2841 11.1571 36.2841C11.2024 36.2841 11.656 36.1027 12.1731 35.8758C12.6902 35.6581 13.1256 35.4767 13.1528 35.4767C13.18 35.4767 13.4431 35.6581 13.7334 35.8758Z" fill="#EB680D"/>
<path d="M26.2077 17.5682C24.2271 18.1258 23.5243 18.3559 23.4057 18.4975C23.2597 18.6656 23.2414 18.9665 23.2414 21.7632C23.2414 24.5599 23.2597 24.8608 23.4057 25.029C23.5243 25.1706 24.2454 25.4095 26.3263 25.9848L29.1009 26.7459L31.8025 26.0025C33.7739 25.4626 34.568 25.206 34.7231 25.0644C34.9239 24.8697 34.9239 24.8697 34.9239 21.7809C34.9239 18.9577 34.9057 18.6656 34.7597 18.4886C34.641 18.347 33.9747 18.1258 31.912 17.5505C30.4335 17.1434 29.1374 16.8071 29.037 16.8159C28.9366 16.8248 27.668 17.1611 26.2077 17.5682ZM30.3057 18.586C30.8898 18.7453 31.3644 18.8957 31.3644 18.9311C31.3644 18.9577 30.8533 19.1259 30.2235 19.3029L29.0918 19.6126L27.9509 19.294C27.3212 19.117 26.8009 18.9488 26.8009 18.9223C26.8009 18.8603 29.0097 18.232 29.1374 18.2674C29.1922 18.2851 29.7216 18.4267 30.3057 18.586ZM25.9795 20.2233C26.6093 20.3914 27.3942 20.6127 27.741 20.71L28.3525 20.8871V22.958C28.3525 24.0997 28.316 25.0378 28.2795 25.0378C28.243 25.0378 27.4307 24.8166 26.4815 24.5511C25.5414 24.2855 24.7474 24.0643 24.7291 24.0643C24.7108 24.0643 24.7017 23.1262 24.7017 21.9845C24.7017 20.8428 24.7382 19.9047 24.7747 19.9047C24.8112 19.9047 25.3589 20.0463 25.9795 20.2233ZM33.4636 21.9845V24.0554L32.8521 24.2324C31.4283 24.6396 29.9497 25.0378 29.8858 25.0378C29.8493 25.0378 29.8128 24.0997 29.8128 22.958V20.8871L30.1597 20.7985C30.3422 20.7454 31.118 20.5242 31.8664 20.3118C32.6239 20.0994 33.2902 19.9224 33.3541 19.9135C33.4362 19.9047 33.4636 20.3737 33.4636 21.9845Z" fill="#EB680D"/>
<path d="M11.5589 10.9745H12.7271V9.80624H11.5589V10.9745Z" fill="#EB680D"/>
<path d="M20.9049 13.8951H22.0731V12.7269H20.9049V13.8951Z" fill="#EB680D"/>
<path d="M8.0541 19.7364H9.22235V18.5681H8.0541V19.7364Z" fill="#EB680D"/>
<path d="M33.7557 31.4189H34.9239V30.2507H33.7557V31.4189Z" fill="#EB680D"/>
<path d="M14.4795 30.2507H15.6478V29.0824H14.4795V30.2507Z" fill="#EB680D"/>
<path d="M19.1525 35.5078H20.3208V34.3396H19.1525V35.5078Z" fill="#EB680D"/>
</svg>
