<svg width="40" height="39" viewBox="0 0 40 39" fill="none" xmlns="http://www.w3.org/2000/svg">
<path d="M15.8065 3.44556C11.75 5.34494 8.41935 6.89898 8.41129 6.89898C8.39516 6.89898 8.3871 6.63212 8.3871 6.31033V5.72168H7.74194H7.09677V11.0588V16.388L7.78226 16.4116L8.45968 16.4351L7.29839 18.2481C6.05645 20.1789 5.92742 20.3123 5.53226 20.0612C5.3871 19.967 3.14516 16.5764 3.14516 16.4429C3.14516 16.4194 3.45161 16.3959 3.83065 16.3959H4.51613V9.80298V3.21011H3.87097H3.22581V9.17509V15.1401H2.01613C1.35484 15.1401 0.806452 15.1558 0.806452 15.1793C0.806452 15.2029 1.51613 16.3252 2.37903 17.6673L3.95968 20.124L1.97581 20.1475L0 20.1632V29.5816V39H19.3548H38.7097V25.1864V11.3727H39.3548H40L39.9839 9.59107L39.9597 7.80942L31.6129 3.90863C27.0242 1.7581 23.25 0 23.2258 0C23.2016 0 19.8629 1.55404 15.8065 3.44556ZM30.9677 5.00745L38.6694 8.60213L38.6935 9.36345L38.7177 10.1169H23.5484H8.37903L8.40323 9.20648L8.42742 8.29604L15.7661 4.85832C19.8065 2.9668 23.1452 1.42061 23.1855 1.41276C23.2339 1.41276 26.7339 3.02958 30.9677 5.00745ZM37.4194 24.5585V37.7442H36.7742H36.129V26.4421V15.1401H30.9677H25.8064V14.5122V13.8843H20H14.1935V21.419V28.9537H12.9032H11.6129V24.5585V20.1632H9.6371C8.54839 20.1632 7.66129 20.1397 7.66129 20.1004C7.66129 20.069 8.37097 18.9467 9.22581 17.6124L10.7903 15.1793L9.58871 15.1558L8.3871 15.1322V13.2564V11.3727H22.9032H37.4194V24.5585ZM18.0645 16.3959V17.6516H20H21.9355V16.3959V15.1401H23.2258H24.5161V18.2795V21.419H20H15.4839V18.2795V15.1401H16.7742H18.0645V16.3959ZM20.6452 15.768V16.3959H20H19.3548V15.768V15.1401H20H20.6452V15.768ZM28.3871 17.6516V18.9074H30.3226H32.2581V17.6516V16.3959H33.5484H34.8387V19.5353V22.6748H30.3226H25.8064V19.5353V16.3959H27.0968H28.3871V17.6516ZM30.9677 17.0237V17.6516H30.3226H29.6774V17.0237V16.3959H30.3226H30.9677V17.0237ZM3.87097 22.6748V23.9306H5.80645H7.74194V22.6748V21.419H9.03226H10.3226V25.1864V28.9537H5.80645H1.29032V25.1864V21.419H2.58065H3.87097V22.6748ZM6.45161 22.0469V22.6748H5.80645H5.16129V22.0469V21.419H5.80645H6.45161V22.0469ZM18.0645 23.9306V25.1864H20H21.9355V23.9306V22.6748H23.2258H24.5161V30.2095V37.7442H23.2258H21.9355V33.349V28.9537H18.7097H15.4839V25.8142V22.6748H16.7742H18.0645V23.9306ZM20.6452 23.3027V23.9306H20H19.3548V23.3027V22.6748H20H20.6452V23.3027ZM28.3871 25.1864V26.4421H30.3226H32.2581V25.1864V23.9306H33.5484H34.8387V27.07V30.2095H30.3226H25.8064V27.07V23.9306H27.0968H28.3871V25.1864ZM30.9677 24.5585V25.1864H30.3226H29.6774V24.5585V23.9306H30.3226H30.9677V24.5585ZM3.87097 31.4653V32.7211H5.80645H7.74194V31.4653V30.2095H9.03226H10.3226V33.9769V37.7442H5.80645H1.29032V33.9769V30.2095H2.58065H3.87097V31.4653ZM6.45161 30.8374V31.4653H5.80645H5.16129V30.8374V30.2095H5.80645H6.45161V30.8374ZM14.1935 31.4653V32.7211H16.129H18.0645V31.4653V30.2095H19.3548H20.6452V33.9769V37.7442H16.129H11.6129V33.9769V30.2095H12.9032H14.1935V31.4653ZM16.7742 30.8374V31.4653H16.129H15.4839V30.8374V30.2095H16.129H16.7742V30.8374ZM28.3871 32.7211V33.9769H30.3226H32.2581V32.7211V31.4653H33.5484H34.8387V34.6047V37.7442H30.3226H25.8064V34.6047V31.4653H27.0968H28.3871V32.7211ZM30.9677 32.0932V32.7211H30.3226H29.6774V32.0932V31.4653H30.3226H30.9677V32.0932Z" fill="#EB680D"/>
</svg>
