<svg width="22" height="22" fill="none" xmlns="http://www.w3.org/2000/svg"><path d="M5.293 7.705H.982a.534.534 0 0 0-.381.16.556.556 0 0 0-.158.39V21.45c0 .146.057.286.158.389A.534.534 0 0 0 .982 22h4.311c.143 0 .28-.058.381-.161a.556.556 0 0 0 .158-.389V8.254a.556.556 0 0 0-.158-.388.534.534 0 0 0-.38-.161zM4.754 20.9H1.521V8.804h3.233V20.9zM16.611 7.705c-1.17 0-2.307.393-3.234 1.12v-.57a.555.555 0 0 0-.158-.39.534.534 0 0 0-.38-.16H8.526a.534.534 0 0 0-.381.16.555.555 0 0 0-.158.39V21.45c0 .146.057.286.158.389a.534.534 0 0 0 .38.161h4.312c.143 0 .28-.058.381-.161a.556.556 0 0 0 .158-.389v-6.048c0-.437.17-.857.474-1.166a1.6 1.6 0 0 1 1.143-.483 1.6 1.6 0 0 1 1.143.483c.303.31.474.729.474 1.166v6.048c0 .146.057.286.158.389a.534.534 0 0 0 .38.161h4.312c.143 0 .28-.058.381-.161A.556.556 0 0 0 22 21.45v-8.247a5.562 5.562 0 0 0-1.58-3.886 5.342 5.342 0 0 0-3.81-1.612zM20.922 20.9H17.69v-5.498c0-.729-.284-1.428-.79-1.944a2.668 2.668 0 0 0-1.905-.805c-.715 0-1.4.29-1.905.805a2.778 2.778 0 0 0-.79 1.944V20.9H9.066V8.804h3.233v1.323c0 .114.035.225.1.318a.53.53 0 0 0 .86.026 4.29 4.29 0 0 1 2.17-1.492 4.212 4.212 0 0 1 2.616.07c.844.3 1.574.863 2.09 1.607.516.745.791 1.635.787 2.547V20.9zM3.534.01a2.884 2.884 0 0 0-.38-.003 2.9 2.9 0 0 0-1.19.167C1.585.312 1.235.528.94.81a3.013 3.013 0 0 0-.693 1A3.065 3.065 0 0 0 0 3.007c-.003.408.076.813.232 1.188.156.376.386.715.676.996.29.282.634.5 1.01.64.375.14.775.2 1.174.176h.03c.387.027.774-.023 1.141-.148s.707-.323.999-.582a3 3 0 0 0 .704-.928 3.054 3.054 0 0 0-.413-3.314 2.955 2.955 0 0 0-.91-.718A2.902 2.902 0 0 0 3.535.009zM3.497 4.91c-.125.012-.25.01-.374-.003h-.03a1.837 1.837 0 0 1-1.425-.515 1.943 1.943 0 0 1 .046-2.82 1.836 1.836 0 0 1 1.44-.467c.494-.046.987.11 1.369.434a1.937 1.937 0 0 1 .242 2.69c-.318.39-.774.635-1.268.681z" fill="#EB680D"/></svg>
