<svg width="31" height="31" viewBox="0 0 31 31" fill="none" xmlns="http://www.w3.org/2000/svg">
<path d="M11.625 0.587486C9.9437 0.949986 8.5812 2.23124 8.1437 3.87499C7.9687 4.51874 7.99995 5.70624 8.19995 6.32499C8.4437 7.06874 8.77495 7.59999 9.33745 8.16249C10.1437 8.96874 11.075 9.39999 12.175 9.47499C14.8937 9.66874 17.1562 7.41874 16.975 4.69999C16.9375 4.03124 16.7062 3.27499 16.3687 2.69999C16.0625 2.18749 15.2437 1.38124 14.7312 1.09374C13.8062 0.581236 12.5875 0.387486 11.625 0.587486ZM13.1625 1.56874C13.7625 1.67499 14.4937 2.06249 14.95 2.51874C15.65 3.21874 15.9687 3.98749 15.9687 4.99999C15.9687 5.99999 15.65 6.78124 14.9625 7.46249C14.2812 8.14999 13.5 8.46874 12.5 8.46874C11.4875 8.46874 10.7187 8.14999 10.0187 7.44999C8.53745 5.96874 8.72495 3.41249 10.4125 2.21249C11.2812 1.59374 12.1562 1.38749 13.1625 1.56874Z" fill="white"/>
<path d="M11.1562 3.15625L11 3.30625V5V6.69375L11.1562 6.84375C11.2437 6.9375 11.375 7 11.4812 7C11.575 6.99375 12.3875 6.625 13.2812 6.16875C14.6625 5.46875 14.9125 5.31875 14.9625 5.16875C15.1 4.775 15.0375 4.71875 13.2812 3.83125C12.3875 3.375 11.575 3.00625 11.4812 3C11.375 3 11.2437 3.0625 11.1562 3.15625ZM13.3125 5C13.3125 5.01875 13.0187 5.18125 12.6562 5.3625L12 5.6875V5V4.3125L12.6562 4.6375C13.0187 4.81875 13.3125 4.98125 13.3125 5Z" fill="white"/>
<path d="M22 1.08122C21.6938 1.18122 21.1688 1.71872 21.075 2.03747C21.0312 2.18122 21 2.61247 21 2.99372C21 3.64997 21.0063 3.69997 21.1562 3.84372C21.25 3.94372 21.3812 3.99997 21.5 3.99997C21.6188 3.99997 21.75 3.94372 21.8438 3.84372C21.9938 3.69997 22 3.64997 22 2.99997C22 2.34997 22.0063 2.29997 22.1562 2.15622L22.3062 1.99997H25.5H28.6937L28.8438 2.15622L29 2.30622V5.49997V8.69372L28.8438 8.84372L28.6937 8.99997H25.5H22.3062L22.1562 8.84372L22 8.69372V6.99997V5.30622L21.8438 5.15622C21.75 5.05622 21.6188 4.99997 21.5 4.99997C21.3812 4.99997 21.25 5.05622 21.1562 5.15622L21 5.30622V7.00622C21 8.15622 21.025 8.78747 21.075 8.96247C21.175 9.30622 21.6938 9.82497 22.0375 9.92497C22.225 9.98122 23.1688 9.99997 25.5125 9.99997C29.2 9.99997 29.125 10.0125 29.5813 9.49997C29.7312 9.33747 29.8875 9.08747 29.925 8.94997C30.0312 8.59997 30.0312 2.39997 29.925 2.04997C29.8875 1.91247 29.7312 1.66247 29.5813 1.49997C29.125 0.987473 29.2063 0.999974 25.475 1.00622C23.2938 1.01247 22.1438 1.03747 22 1.08122Z" fill="white"/>
<path d="M25.5 3.08125C25.1938 3.18125 24.6688 3.71875 24.575 4.0375C24.5312 4.18125 24.5 4.45625 24.5 4.65V5H24.1562C23.7375 5 23.5 5.18125 23.5 5.5C23.5 5.81875 23.7375 6 24.1562 6H24.5V6.84375C24.5 7.6625 24.5063 7.7 24.6562 7.84375C24.75 7.94375 24.8813 8 25 8C25.1187 8 25.25 7.94375 25.3438 7.84375C25.4937 7.7 25.5 7.6625 25.5 6.84375V6H25.8438C26.2625 6 26.5 5.81875 26.5 5.5C26.5 5.18125 26.2625 5 25.8438 5H25.5V4.65625C25.5 4.36875 25.525 4.28125 25.6562 4.15625C25.8 4.00625 25.85 4 26.5 4C27.15 4 27.2 3.99375 27.3438 3.84375C27.4438 3.75 27.5 3.61875 27.5 3.5C27.5 3.38125 27.4438 3.25 27.3438 3.15625C27.2 3.00625 27.1625 3 26.4562 3.00625C26.05 3.0125 25.6188 3.04375 25.5 3.08125Z" fill="white"/>
<path d="M0.15625 5.65625L0 5.80625V10V14.1937L0.15625 14.3438L0.30625 14.5H3.5H6.69375L6.84375 14.3438L7 14.1937V10V5.80625L6.84375 5.65625L6.69375 5.5H3.5H0.30625L0.15625 5.65625ZM6 10V13.5H3.5H1V10V6.5H3.5H6V10Z" fill="white"/>
<path d="M3.15625 7.65625C3.05625 7.75 3 7.88125 3 8C3 8.11875 3.05625 8.25 3.15625 8.34375C3.3 8.49375 3.35 8.5 4 8.5C4.65 8.5 4.7 8.49375 4.84375 8.34375C4.94375 8.25 5 8.11875 5 8C5 7.88125 4.94375 7.75 4.84375 7.65625C4.7 7.50625 4.65 7.5 4 7.5C3.35 7.5 3.3 7.50625 3.15625 7.65625Z" fill="white"/>
<path d="M2.15625 9.65625C2.05625 9.75 2 9.88125 2 10C2 10.1188 2.05625 10.25 2.15625 10.3438C2.30625 10.5 2.31875 10.5 3.5 10.5C4.68125 10.5 4.69375 10.5 4.84375 10.3438C4.94375 10.25 5 10.1188 5 10C5 9.88125 4.94375 9.75 4.84375 9.65625C4.69375 9.5 4.68125 9.5 3.5 9.5C2.31875 9.5 2.30625 9.5 2.15625 9.65625Z" fill="white"/>
<path d="M2.15625 11.6562C2.05625 11.75 2 11.8812 2 12C2 12.1188 2.05625 12.25 2.15625 12.3438C2.30625 12.5 2.31875 12.5 3.5 12.5C4.68125 12.5 4.69375 12.5 4.84375 12.3438C4.94375 12.25 5 12.1188 5 12C5 11.8812 4.94375 11.75 4.84375 11.6562C4.69375 11.5 4.68125 11.5 3.5 11.5C2.31875 11.5 2.30625 11.5 2.15625 11.6562Z" fill="white"/>
<path d="M18.7313 8.57501C18.6751 8.61876 18.2626 9.14376 17.8126 9.74376C16.9313 10.9313 16.8751 11.0625 17.1563 11.3438C17.3188 11.5125 17.6001 11.55 17.7688 11.4188C17.8251 11.3813 18.2376 10.8563 18.6876 10.2563C19.5688 9.06876 19.6251 8.93751 19.3438 8.65626C19.1813 8.48751 18.9001 8.45001 18.7313 8.57501Z" fill="white"/>
<path d="M19.7439 11.8125C19.1439 12.2625 18.6189 12.675 18.5814 12.7312C18.4501 12.9 18.4876 13.1812 18.6564 13.3437C18.9376 13.625 19.0689 13.5687 20.2564 12.6875C20.8564 12.2375 21.3814 11.825 21.4251 11.7687C21.5501 11.6 21.5126 11.3187 21.3439 11.1562C21.0626 10.875 20.9314 10.9312 19.7439 11.8125Z" fill="white"/>
<path d="M14.9064 11.575C14.8376 11.6125 13.2189 12.9375 11.3001 14.5187C7.85011 17.3625 7.81261 17.3875 6.67511 18.0437C5.41261 18.7687 5.13761 18.9937 4.88761 19.5C4.74386 19.7937 4.71886 19.9187 4.71886 20.375L4.72511 20.9125L4.35636 21.125C3.71886 21.5 3.40011 22.1625 3.55636 22.7812C3.73761 23.5 4.30011 23.9375 5.03761 23.9375C5.36261 23.9375 5.49386 23.9 5.83761 23.7187L6.25011 23.5L6.50636 23.6812C7.13136 24.1375 7.90636 24.1812 8.62511 23.8062C8.85011 23.6875 9.05011 23.5875 9.07511 23.575C9.09386 23.5625 9.33136 23.9437 9.60636 24.4187C9.87511 24.8937 10.1939 25.3937 10.3126 25.525C10.8939 26.175 11.9189 26.175 12.5064 25.5187C12.8001 25.1937 12.8939 24.8937 12.8626 24.4125C12.8439 24.0687 12.7876 23.9437 12.3251 23.1312C12.0439 22.6375 11.8251 22.2187 11.8376 22.2C11.8564 22.1875 13.5501 21.5437 15.6064 20.7687C19.4501 19.3312 19.6251 19.25 19.6251 18.925C19.6251 18.8 17.3189 14.725 17.0189 14.325C16.8939 14.1625 16.8251 14.125 16.6251 14.125C16.4376 14.125 16.3564 14.1625 16.2564 14.2875C16.0189 14.5937 15.9501 14.4437 17.3564 16.8687C17.9189 17.8375 18.3751 18.65 18.3564 18.6625C18.3439 18.675 16.4939 19.375 14.2501 20.2187C10.2126 21.7312 10.1564 21.7562 9.10011 22.3687C8.51261 22.7062 7.94386 23.0062 7.83136 23.025C7.54386 23.0875 7.18136 22.9687 6.96261 22.7375C6.85636 22.625 6.53761 22.125 6.25011 21.625C5.68136 20.6375 5.58761 20.3125 5.76886 19.9625C5.91261 19.6812 6.09386 19.55 7.02511 19.0062L7.89386 18.5062L8.55636 19.6437C9.27511 20.8812 9.38761 20.9937 9.74386 20.8687C9.96261 20.7937 10.0626 20.65 10.0626 20.4062C10.0626 20.3125 9.78761 19.7687 9.40636 19.1125C9.04386 18.4875 8.75636 17.9562 8.76261 17.9312C8.77511 17.9062 9.68136 17.15 10.7814 16.2375C11.8814 15.3312 13.2689 14.1937 13.8626 13.7C14.8814 12.8625 15.0626 12.7312 15.0626 12.8687C15.0626 13.0062 15.4876 13.375 15.6501 13.375C15.8751 13.375 16.1251 13.1187 16.1251 12.8937C16.1251 12.6937 15.6251 11.775 15.4314 11.6062C15.2814 11.4812 15.0876 11.4687 14.9064 11.575ZM5.45011 22.2375L5.68136 22.6625L5.41886 22.8C5.05636 22.9875 4.79386 22.9812 4.63136 22.775C4.40011 22.4875 4.48136 22.225 4.86261 21.9687C4.98761 21.8875 5.12511 21.8187 5.15636 21.8187C5.19386 21.8125 5.32511 22.0062 5.45011 22.2375ZM11.3689 23.5C11.9751 24.55 12.0126 24.8125 11.5689 25C11.2376 25.1375 11.0876 25 10.5189 24.0312C10.2376 23.55 10.0064 23.125 10.0064 23.0937C10.0001 23.025 10.6689 22.6312 10.7876 22.625C10.8314 22.625 11.0876 23.0187 11.3689 23.5Z" fill="white"/>
<path d="M21.5312 14.275C20.8437 14.4187 20.2374 14.5625 20.1749 14.5875C20.0374 14.65 19.9187 14.9625 19.9687 15.125C20.0312 15.3187 20.2499 15.5 20.4312 15.5C20.5187 15.5 21.1812 15.3813 21.9062 15.2375C22.9687 15.025 23.2437 14.95 23.3562 14.8375C23.6624 14.5312 23.4249 13.9937 22.9874 14.0063C22.8749 14.0125 22.2187 14.1313 21.5312 14.275Z" fill="white"/>
<path d="M1.65648 16.1562L1.50023 16.3062V21.6562V27H0.906483C0.343983 27 0.293983 27.0125 0.143983 27.1625C-0.0122668 27.3187 -0.0122668 27.325 0.0127332 28.2062C0.0314832 29.0437 0.0439832 29.1187 0.231483 29.5125C0.506483 30.0938 0.856483 30.4563 1.42523 30.7375L1.90023 30.9688H9.00023H16.1002L16.5752 30.7375C17.144 30.4563 17.494 30.0938 17.769 29.5125C17.9565 29.1187 17.969 29.0437 17.9877 28.2062C18.0127 27.325 18.0127 27.3187 17.8565 27.1625C17.7065 27.0125 17.6565 27 17.094 27H16.5002V24.475C16.5002 22.0188 16.494 21.95 16.369 21.7875C16.1877 21.5562 15.8127 21.5562 15.6315 21.7875C15.5065 21.95 15.5002 22.0188 15.5002 24.475V27H9.00023H2.50023V22V17H4.65023H6.80648L6.97523 16.8562C7.10023 16.75 7.14398 16.65 7.14398 16.5C7.14398 16.35 7.10023 16.25 6.97523 16.1438L6.80648 16H4.30648H1.80648L1.65648 16.1562ZM17.0002 28.35C17.0002 28.8937 16.8877 29.1812 16.5315 29.5312C16.1502 29.9187 15.9002 30 15.1002 30H14.5002V29.6562C14.5002 29.2375 14.319 29 14.0002 29C13.6815 29 13.5002 29.2375 13.5002 29.6562V30H9.00023H4.50023V29.6562C4.50023 29.2375 4.31898 29 4.00023 29C3.68148 29 3.50023 29.2375 3.50023 29.6562V30H2.90023C2.10023 30 1.85023 29.9187 1.46898 29.5312C1.11273 29.1812 1.00023 28.8937 1.00023 28.35V28H9.00023H17.0002V28.35Z" fill="white"/>
<path d="M22 16.5812C21.6938 16.6812 21.1688 17.2187 21.075 17.5375C20.9688 17.9062 20.9688 24.0937 21.075 24.4625C21.175 24.8062 21.6938 25.325 22.0375 25.425C22.225 25.4812 23.1688 25.5 25.5125 25.5C29.2 25.5 29.125 25.5125 29.5813 25C29.9313 24.6125 30 24.3625 30 23.5062C30 22.85 29.9938 22.8 29.8438 22.6562C29.6438 22.45 29.3563 22.45 29.1563 22.6562C29.0063 22.8 29 22.85 29 23.5C29 24.15 28.9938 24.2 28.8438 24.3437L28.6938 24.5H25.5H22.3063L22.1563 24.3437L22 24.1937V21V17.8062L22.1563 17.6562L22.3063 17.5H25.5H28.6938L28.8438 17.6562L29 17.8062V19.5V21.1937L29.1563 21.3437C29.25 21.4437 29.3813 21.5 29.5 21.5C29.6188 21.5 29.75 21.4437 29.8438 21.3437L30 21.1937V19.4937C30 18.3625 29.975 17.7125 29.925 17.55C29.8875 17.4125 29.7313 17.1625 29.5813 17C29.125 16.4875 29.2063 16.5 25.475 16.5062C23.2938 16.5125 22.1438 16.5375 22 16.5812Z" fill="white"/>
<path d="M25.0312 19.0562C24.4563 19.2062 23.95 19.6187 23.6875 20.1562C23.4688 20.6125 23.4688 21.4 23.6875 21.8438C23.8812 22.2437 24.2563 22.6188 24.6562 22.8125C25.1 23.0312 25.8875 23.0312 26.3438 22.8125C26.7438 22.6188 27.1188 22.2437 27.3125 21.8438C27.5312 21.3875 27.5312 20.6 27.3125 20.1562C27.1125 19.7562 26.7375 19.3812 26.3438 19.1937C26.0063 19.0375 25.3687 18.9688 25.0312 19.0562ZM25.8937 20.0875C26.5375 20.3563 26.6938 21.1938 26.1938 21.6938C25.7875 22.1 25.2125 22.1 24.8062 21.6938C24.0312 20.925 24.8875 19.6625 25.8937 20.0875Z" fill="white"/>
</svg>
