<svg  class="main-svg-sprite main-svg-sprite--icons" xmlns="http://www.w3.org/2000/svg" xmlns:xlink="http://www.w3.org/1999/xlink"><symbol viewBox="0 0 22 22" id="linkedin" xmlns="http://www.w3.org/2000/svg"><path d="M5.293 7.705H.982a.534.534 0 00-.381.16.556.556 0 00-.158.39V21.45c0 .146.057.286.158.389A.534.534 0 00.982 22h4.311c.143 0 .28-.058.381-.161a.556.556 0 00.158-.389V8.254a.556.556 0 00-.158-.388.534.534 0 00-.38-.161zM4.754 20.9H1.521V8.804h3.233V20.9zM16.611 7.705c-1.17 0-2.307.393-3.234 1.12v-.57a.555.555 0 00-.158-.39.534.534 0 00-.38-.16H8.526a.534.534 0 00-.381.16.555.555 0 00-.158.39V21.45c0 .146.057.286.158.389a.534.534 0 00.38.161h4.312c.143 0 .28-.058.381-.161a.556.556 0 00.158-.389v-6.048c0-.437.17-.857.474-1.166a1.6 1.6 0 011.143-.483 1.6 1.6 0 011.143.483c.303.31.474.729.474 1.166v6.048c0 .146.057.286.158.389a.534.534 0 00.38.161h4.312c.143 0 .28-.058.381-.161A.556.556 0 0022 21.45v-8.247a5.562 5.562 0 00-1.58-3.886 5.342 5.342 0 00-3.81-1.612zM20.922 20.9H17.69v-5.498c0-.729-.284-1.428-.79-1.944a2.668 2.668 0 00-1.905-.805c-.715 0-1.4.29-1.905.805a2.778 2.778 0 00-.79 1.944V20.9H9.066V8.804h3.233v1.323c0 .114.035.225.1.318a.53.53 0 00.86.026 4.29 4.29 0 012.17-1.492 4.212 4.212 0 012.616.07c.844.3 1.574.863 2.09 1.607a4.44 4.44 0 01.787 2.547V20.9zM3.534.01a2.884 2.884 0 00-.38-.003 2.9 2.9 0 00-1.19.167A2.938 2.938 0 00.94.81a3.013 3.013 0 00-.693 1A3.065 3.065 0 000 3.007c-.003.408.076.813.232 1.188.156.376.386.715.676.996.29.282.634.5 1.01.64.375.14.775.2 1.174.176h.03a2.907 2.907 0 002.14-.73 3 3 0 00.704-.928 3.054 3.054 0 00-.413-3.314 2.955 2.955 0 00-.91-.718A2.902 2.902 0 003.535.009zm-.037 4.9a1.87 1.87 0 01-.374-.003h-.03a1.837 1.837 0 01-1.425-.515 1.943 1.943 0 01.046-2.82 1.836 1.836 0 011.44-.467c.494-.046.987.11 1.369.434a1.937 1.937 0 01.242 2.69 1.86 1.86 0 01-1.268.681z"/></symbol><symbol viewBox="0 0 24 19" id="xi" xmlns="http://www.w3.org/2000/svg"><path d="M3.624 1.052l.847-.531-.294-.469h-.553v1zm4.314 6.879l-.847.531.847 1.35.848-1.35-.848-.531zm4.315-6.879v-1H11.7l-.294.469.847.531zm2.773 0l.843.538.981-1.538h-1.824v1zM9.356 9.94l-.843-.538-.344.54.345.537.842-.54zM15.162 19v1h1.828l-.986-1.54-.842.54zm-2.798 0l-.846.534.294.466h.552v-1zm-4.426-7.014l.846-.534-.846-1.34-.845 1.34.845.534zM3.513 19v1h.552l.294-.466L3.513 19zM.715 19l-.842-.54-.987 1.54H.715v-1zM6.52 9.94l.842.54.345-.539-.344-.539-.843.538zM.85 1.052v-1H-.974L.008 1.59l.843-.538zm1.926.532L7.09 8.462l1.695-1.063L4.47.521 2.777 1.584zm6.009 6.878L13.1 1.584 11.406.52 7.09 7.399l1.695 1.063zm3.467-6.41h2.773v-2h-2.773v2zm1.93-1.538l-5.67 8.888 1.686 1.076 5.67-8.888L14.183.514zM8.514 10.48l5.806 9.06 1.684-1.079-5.806-9.06-1.684 1.08zM15.162 18h-2.798v2h2.798v-2zm-1.953.466l-4.425-7.014-1.691 1.068 4.425 7.014 1.691-1.068zm-6.116-7.014l-4.426 7.014 1.692 1.068 4.425-7.014-1.691-1.067zM3.513 18H.715v2h2.798v-2zm-1.956 1.54l5.806-9.06L5.679 9.4l-5.806 9.06 1.684 1.08zM7.364 9.402L1.694.514.008 1.59l5.67 8.888 1.686-1.076zM.85 2.052h2.773v-2H.851v2zm21.97 3.61h1v-1h-1v1zm0 13.338v1h1v-1h-1zm-2.294 0h-1v1h1v-1zm0-13.337v-1h-1v1h1zm.16-4.475l-.741-.67-.007.006-.005.007.754.657zm2.01 0l-.742.67.006.007.006.006.73-.683zm0 1.849l-.73-.683h-.001l.73.683zm-2.01 0l-.753.657.01.013.013.012.73-.682zm1.133 2.626V19h2V5.663h-2zm1 12.337h-2.293v2h2.293v-2zm-1.293 1V5.663h-2V19h2zm-1-12.337h2.293v-2h-2.293v2zm.828-4.538c0-.153.039-.225.087-.28L19.934.53a2.375 2.375 0 00-.58 1.594h2zm.075-.267c.003-.003.01-.011.037-.021a.675.675 0 01.231-.031v-2c-.638 0-1.28.19-1.752.712l1.484 1.34zm.268-.052a.63.63 0 01.22.03c.024.009.032.016.037.022l1.484-1.34c-.468-.519-1.103-.712-1.74-.712v2zm.269.065c.053.058.087.12.087.254h2a2.32 2.32 0 00-.627-1.62l-1.46 1.366zm.087.254a.293.293 0 01-.087.229l1.46 1.366a2.29 2.29 0 00.627-1.595h-2zm-.088.23c-.003.003-.01.011-.039.022a.677.677 0 01-.229.03v2c.628 0 1.26-.184 1.73-.688l-1.462-1.364zm-.268.052a.724.724 0 01-.242-.032c-.03-.011-.036-.02-.037-.02l-1.462 1.364c.473.508 1.112.688 1.741.688v-2zm-.256-.027a.347.347 0 01-.087-.255h-2c0 .582.19 1.123.579 1.569l1.508-1.314z"/></symbol><symbol viewBox="0 0 28 22" id="ytub" xmlns="http://www.w3.org/2000/svg"><path d="M18.433 10.566l-6.222-4.21a.513.513 0 00-.804.433v8.421a.52.52 0 00.519.527.462.462 0 00.285-.092l6.222-4.21A.51.51 0 0018.67 11a.52.52 0 00-.236-.434zm-5.989 3.658V7.776L17.214 11l-4.77 3.224zm14.843-10.75a2.697 2.697 0 00-.577-1.082 2.645 2.645 0 00-.992-.708C21.337-.026 14.298 0 14 0c-.298 0-7.337-.026-11.719 1.684a2.677 2.677 0 00-1.568 1.79C.389 4.75 0 7.092 0 11s.389 6.25.713 7.526a2.683 2.683 0 001.568 1.79C6.663 22.026 13.701 22 14 22h.09c.895 0 7.467-.053 11.628-1.684.38-.155.72-.397.992-.707.273-.311.47-.682.577-1.083C27.611 17.25 28 14.908 28 11s-.389-6.25-.713-7.526zm-1.011 14.79c-.062.239-.18.46-.341.645a1.556 1.556 0 01-.592.42c-4.2 1.645-11.265 1.618-11.343 1.618-.078 0-7.143.027-11.343-1.618a1.556 1.556 0 01-.592-.42 1.587 1.587 0 01-.34-.646C1.412 17.04 1.036 14.79 1.036 11s.376-6.04.687-7.263c.062-.24.18-.46.341-.646.163-.185.365-.33.592-.42C6.857 1.026 13.922 1.053 14 1.053c.078 0 7.143-.027 11.343 1.618a1.57 1.57 0 01.933 1.066c.311 1.224.687 3.474.687 7.263 0 3.79-.376 6.04-.687 7.263z"/></symbol></svg>