<svg width="38" height="38" viewBox="0 0 38 38" fill="none" xmlns="http://www.w3.org/2000/svg">
<path d="M17.5547 0.336378C12.1484 1.06294 8.01563 5.56294 7.77344 10.9926C7.70313 12.4614 8 14.3598 8.45313 15.3833C8.70313 15.9536 9.21875 16.0239 9.57031 15.5473L9.73438 15.3364L9.48438 14.5317C9.09375 13.2504 9.03906 12.8833 9.03906 11.5004C9.03906 10.5395 9.07813 10.0395 9.1875 9.54732C10.0625 5.52388 13.0234 2.56294 17.0469 1.68794C17.5391 1.57857 18.0391 1.5395 19 1.5395C20.4219 1.5395 21.1016 1.64888 22.2813 2.06294C24.8359 2.96138 26.8125 4.73482 28.0078 7.20357C28.2656 7.74263 28.5391 8.21919 28.6016 8.27388C28.7969 8.42232 29.1094 8.39107 29.3516 8.20357C29.5391 8.06294 29.5625 7.99263 29.5313 7.71138C29.5078 7.5395 29.3438 7.07857 29.1641 6.69575C28.1563 4.5395 26.2031 2.53169 24.0859 1.46138C23.2891 1.06294 22.1563 0.664503 21.3047 0.484816C20.4063 0.297316 18.4375 0.211378 17.5547 0.336378Z" fill="white"/>
<path d="M17.8672 4.07857C16.2656 4.33638 14.8672 5.06294 13.6875 6.25825C12.6797 7.27388 12.0234 8.43794 11.6797 9.82857C11.4687 10.6879 11.4922 12.4458 11.7187 13.2973C12.1094 14.7192 12.6719 15.7114 13.6484 16.7036C14.4297 17.4926 14.7812 17.7504 15.6875 18.2036C17.9609 19.3442 20.6016 19.2426 22.8438 17.9301C23.7188 17.4223 24.9219 16.2192 25.4141 15.3676C25.9922 14.3676 26.1797 13.8208 26.4687 12.2973C26.5 12.1489 26.5547 12.1254 26.875 12.1254C27.2344 12.1254 27.2656 12.1411 27.8672 12.7583C28.2109 13.102 28.7969 13.6645 29.1719 14.0083L29.8594 14.6254H35.4922L35.6797 14.4301C35.8047 14.3051 35.875 14.1567 35.875 13.9848C35.875 13.7661 35.7422 13.602 34.7266 12.6176L33.5703 11.5004L34.7266 10.3833C35.7422 9.39888 35.875 9.23482 35.875 9.01607C35.875 8.84419 35.8047 8.69575 35.6797 8.57075L35.4922 8.37544H29.8594L29.4844 8.70357C29.2812 8.88325 28.6953 9.44575 28.1719 9.96138L27.2266 10.8833L26.4609 10.8364L26.4062 10.3833C26.3203 9.727 26.0625 8.89107 25.7031 8.17232C24.75 6.23482 23 4.81294 20.8359 4.23482C20.1172 4.0395 18.6172 3.96138 17.8672 4.07857ZM20.1094 5.35982C22.7031 5.85982 24.6406 7.78169 25.1328 10.3442L25.2344 10.8754H22.6875L22.6406 10.6098C22.5391 10.0864 22.0625 9.27388 21.5938 8.82857C20.1016 7.39888 17.9062 7.39888 16.4141 8.82075C14.8672 10.2895 14.875 12.7192 16.4297 14.1958C17.8828 15.5864 20.1172 15.5786 21.5859 14.1879C22.0625 13.727 22.5391 12.9145 22.6406 12.3911L22.6875 12.1254H25.1953L25.1406 12.5551C25.0703 13.1879 24.6562 14.2426 24.2344 14.8911C22.0703 18.2036 17.4297 18.7114 14.6328 15.9458C13.375 14.7036 12.7891 13.2895 12.7891 11.5004C12.7891 10.1411 13.0703 9.18013 13.7656 8.11763C15.1406 6.00044 17.6953 4.89888 20.1094 5.35982ZM20.0234 9.227C20.5625 9.477 20.8984 9.80513 21.1719 10.3129C21.3125 10.5708 21.4219 10.8051 21.4219 10.8286C21.4219 10.852 20.8203 10.8754 20.0938 10.8754C18.7812 10.8754 18.7578 10.8754 18.5703 11.0708C18.3125 11.3208 18.3125 11.6801 18.5703 11.9301C18.7578 12.1254 18.7812 12.1254 20.0938 12.1254C20.8203 12.1254 21.4219 12.1489 21.4219 12.1801C21.4219 12.2192 21.3047 12.4536 21.1641 12.7114C20.3594 14.1567 18.4062 14.4301 17.2422 13.2583C15.9297 11.9536 16.4453 9.77388 18.2187 9.12544C18.6875 8.95357 19.5469 9.00825 20.0234 9.227ZM33.0625 10.2504L32.3984 10.8676L30.7188 10.8754H29.0391L30.2891 9.62544H33.7188L33.0625 10.2504ZM33.0625 12.7504L33.7188 13.3754H30.2891L29.0391 12.1254H30.7188L32.3984 12.1333L33.0625 12.7504Z" fill="white"/>
<path d="M7.29688 16.6176C6.41406 16.8129 5.53125 17.2973 4.85156 17.977C2.89063 19.9458 2.89063 23.0629 4.85156 25.0083C6.82031 26.9692 9.90625 26.9926 11.8438 25.0551C12.7969 24.1098 13.2813 23.0551 13.3516 21.7817C13.4063 20.852 13.2422 20.0942 12.8125 19.2348C11.8125 17.2348 9.50781 16.1411 7.29688 16.6176ZM9.27344 17.8676C10.7578 18.2583 11.8516 19.4848 12.0703 21.0004C12.3438 22.8598 11.125 24.6489 9.27344 25.1333C7.3125 25.6411 5.26562 24.3989 4.74219 22.3989C4.04688 19.7192 6.59375 17.1723 9.27344 17.8676Z" fill="white"/>
<path d="M28.5469 16.6176C27.6641 16.8129 26.7812 17.2973 26.1016 17.977C24.1406 19.9458 24.1406 23.0629 26.1016 25.0083C28.0703 26.9692 31.1562 26.9926 33.0938 25.0551C34.0469 24.1098 34.5312 23.0551 34.6016 21.7817C34.6562 20.852 34.4922 20.0942 34.0625 19.2348C33.0625 17.2348 30.7578 16.1411 28.5469 16.6176ZM30.5234 17.8676C32.0078 18.2583 33.1016 19.4848 33.3203 21.0004C33.5938 22.8598 32.375 24.6489 30.5234 25.1333C28.5625 25.6411 26.5156 24.3989 25.9922 22.3989C25.2969 19.7192 27.8438 17.1723 30.5234 17.8676Z" fill="white"/>
<path d="M17.9219 19.7426C17.0391 19.9379 16.1562 20.4223 15.4766 21.102C13.5156 23.0708 13.5156 26.1879 15.4766 28.1333C17.4453 30.0942 20.5312 30.1176 22.4688 28.1801C23.4219 27.2348 23.9062 26.1801 23.9766 24.9067C24.0312 23.977 23.8672 23.2192 23.4375 22.3598C22.4375 20.3598 20.1328 19.2661 17.9219 19.7426ZM19.8984 20.9926C21.3828 21.3833 22.4766 22.6098 22.6953 24.1254C22.9687 25.9848 21.75 27.7739 19.8984 28.2583C17.9375 28.7661 15.8906 27.5239 15.3672 25.5239C14.6719 22.8442 17.2188 20.2973 19.8984 20.9926Z" fill="white"/>
<path d="M6.34375 27.2114C4.50781 27.3911 2.82812 27.8208 1.77344 28.3598C1.09375 28.7192 0.476563 29.3129 0.34375 29.7504C0.28125 29.9692 0.25 30.7504 0.25 32.1567V34.2426L0.445312 34.4301C0.695312 34.6879 1.05469 34.6879 1.30469 34.4301L1.5 34.2426V30.1254L1.75781 29.8833C1.89062 29.7426 2.27344 29.5083 2.59375 29.3598C5.35156 28.0473 11.6172 28.0708 14.25 29.3989C14.7969 29.6723 15.0391 29.6801 15.2891 29.4301C15.4922 29.2348 15.5391 28.9379 15.4062 28.6801C15.1562 28.227 13.0859 27.5551 11.0703 27.2817C10.2031 27.1645 7.24219 27.1176 6.34375 27.2114Z" fill="white"/>
<path d="M28.0625 27.1801C25.6797 27.4067 24.2734 27.7348 23.125 28.3051C22.4766 28.6333 22.3281 29.0473 22.7109 29.4301C22.9531 29.6801 23.1797 29.6723 23.7344 29.3989C26.4219 28.0708 32.6484 28.0473 35.4062 29.3598C35.7266 29.5083 36.1094 29.7426 36.25 29.8833L36.5 30.1254V34.2426L36.6953 34.4301C36.9453 34.6879 37.3047 34.6879 37.5547 34.4301L37.75 34.2426V32.1098C37.75 30.0317 37.7422 29.9692 37.5625 29.5786C37.0078 28.3833 34.7422 27.5004 31.5 27.2036C30.6719 27.1333 28.7031 27.1176 28.0625 27.1801Z" fill="white"/>
<path d="M16.9688 30.3442C13.7734 30.6333 11.3281 31.6723 10.9688 32.8754C10.9062 33.0942 10.875 33.8754 10.875 35.2817V37.3676L11.0703 37.5551C11.3203 37.8129 11.6797 37.8129 11.9297 37.5551L12.125 37.3676V33.2504L12.3828 33.0083C13.2109 32.2036 15.5312 31.6254 18.2969 31.5239C21.5156 31.4145 24.625 32.0395 25.625 33.0083L25.875 33.2504V37.3676L26.0703 37.5551C26.3203 37.8129 26.6797 37.8129 26.9297 37.5551L27.125 37.3676V35.2348C27.125 33.1567 27.1172 33.0942 26.9375 32.7036C26.3828 31.5083 24.1172 30.6254 20.875 30.3286C19.8281 30.2348 18.0312 30.2426 16.9688 30.3442Z" fill="white"/>
</svg>
