<svg width="40" height="41" viewBox="0 0 40 41" fill="none" xmlns="http://www.w3.org/2000/svg">
<path d="M25.7564 0.6954C25.7329 0.735439 25.6392 1.1038 25.5454 1.53622L25.3736 2.30497L24.8892 2.48114C24.6314 2.57724 24.1548 2.77743 23.8423 2.92958L23.272 3.19384L22.5611 2.7454L21.8579 2.29696L18.4907 5.74833L18.9282 6.46903L19.3736 7.18173L19.1079 7.77431C18.9673 8.10263 18.7642 8.5911 18.6704 8.85536L18.4986 9.35185L17.7095 9.54403L16.9126 9.72821L16.8657 10.9534L16.561 11.0815C16.397 11.1456 15.2798 11.9544 14.0767 12.8753C12.8814 13.8042 11.8267 14.597 11.7329 14.645C11.647 14.6931 11.2095 14.7331 10.772 14.7331H9.98292L10.1079 14.5489C10.9907 13.3237 11.2095 12.7231 11.2095 11.53C11.2095 10.2327 10.8267 9.27978 9.94386 8.36689C8.25636 6.62118 5.50636 6.62118 3.79542 8.37489C2.02199 10.2007 2.10011 13.1796 3.97511 14.8612L4.24855 15.1095L3.87355 15.2856C2.69386 15.8142 1.4673 17.1515 1.00636 18.4087C0.615737 19.4737 0.615737 19.4017 0.639175 29.2673L0.662612 38.4763L0.87355 38.8847C1.18605 39.4933 1.42042 39.7415 1.9673 40.0458L2.45949 40.3181L39.3736 40.3581L39.3345 9.72821L38.5376 9.54403L37.7486 9.35185L37.5767 8.85536C37.4829 8.5911 37.2876 8.10263 37.1392 7.77431L36.8736 7.18974L37.3111 6.46103L37.7486 5.74032L36.0689 4.02665L34.397 2.30497L33.6861 2.75341L32.9751 3.20985L32.522 2.97763C32.272 2.84149 31.8032 2.6413 31.4751 2.52118L30.8736 2.30497L30.6861 1.49618L30.5064 0.679384L28.147 0.655361C26.8501 0.647353 25.772 0.663369 25.7564 0.6954ZM29.6392 2.5372C29.7173 2.88153 29.8111 3.20985 29.8423 3.27392C29.8736 3.33798 30.1939 3.4661 30.5532 3.5702C30.9126 3.67431 31.6157 3.9706 32.1157 4.22685L33.0142 4.6913L33.6314 4.29892L34.2407 3.90653L35.2095 4.90751L36.1861 5.90048L35.4204 7.1497L35.8736 8.0786C36.1236 8.5911 36.4048 9.31181 36.5064 9.68017C36.6079 10.0485 36.7407 10.3768 36.8032 10.4089C36.8657 10.4409 37.1861 10.537 37.522 10.6091L38.1236 10.7452V13.596L37.522 13.7321C37.1861 13.8042 36.8657 13.9003 36.8032 13.9323C36.7407 13.9643 36.6079 14.2927 36.5064 14.661C36.4048 15.0294 36.1236 15.7501 35.8736 16.2626L35.4204 17.1915L36.1861 18.4407L35.2095 19.4337L34.2407 20.4347L33.022 19.6499L32.1157 20.1143C31.6157 20.3706 30.9126 20.6589 30.5532 20.763C30.1939 20.8671 29.8736 21.0032 29.8423 21.0673C29.8111 21.1313 29.7173 21.4597 29.6392 21.796L29.4986 22.4206H26.7486L26.6079 21.796C26.5298 21.4597 26.4361 21.1313 26.4048 21.0673C26.3736 21.0032 26.0532 20.8671 25.6939 20.763C25.3345 20.6589 24.6314 20.3706 24.1392 20.1143L23.2407 19.6499L22.0064 20.4347L21.0376 19.4337L20.0611 18.4407L20.4517 17.8081L20.8345 17.1755L20.4986 16.5349C20.3111 16.1825 20.0454 15.5899 19.9204 15.2136L19.6782 14.5409L19.8501 13.9964C20.1236 13.1075 19.9517 12.2827 19.3423 11.6261C19.0923 11.3458 18.4517 10.9694 18.2407 10.9694C18.1782 10.9694 18.1236 10.9214 18.1236 10.8653C18.1236 10.8013 18.3501 10.7052 18.7329 10.6171C19.0611 10.537 19.3814 10.4409 19.4439 10.4089C19.5064 10.3768 19.6392 10.0485 19.7407 9.68017C19.8423 9.31181 20.1236 8.5911 20.3736 8.08661L20.8189 7.15771L20.4439 6.5331L20.0611 5.90048L21.0454 4.90751L22.0298 3.92255L22.6314 4.30692L23.2329 4.69931L24.1392 4.22685C24.6314 3.9706 25.3345 3.68231 25.6939 3.57821C26.0532 3.47411 26.3736 3.33798 26.4048 3.27392C26.4361 3.20985 26.5298 2.88153 26.6079 2.5372L26.7486 1.9206H29.4986L29.6392 2.5372ZM8.1548 8.63114C8.86574 8.96747 9.31886 9.43192 9.67042 10.1526C9.94386 10.7292 9.95949 10.8013 9.95949 11.53C9.95949 12.2587 9.94386 12.3308 9.67042 12.9073C9.31886 13.636 8.86574 14.0845 8.13917 14.4368C7.66261 14.669 7.54542 14.6931 6.87355 14.6931C6.20167 14.6931 6.08449 14.669 5.60792 14.4368C4.88136 14.0845 4.42824 13.636 4.07667 12.9073C3.80324 12.3308 3.78761 12.2587 3.78761 11.538C3.78761 10.8413 3.81105 10.7212 4.03761 10.2327C4.35011 9.55204 4.79542 9.05556 5.38136 8.74325C5.99074 8.40692 6.33449 8.32685 7.04542 8.35888C7.52199 8.3829 7.76417 8.44696 8.1548 8.63114ZM18.4126 12.5069C18.7564 12.8593 18.8345 13.3477 18.6157 13.7481C18.4126 14.1165 14.147 17.4878 13.5923 17.72C13.1782 17.8882 13.0532 17.8962 10.3345 17.9202L7.49855 17.9442V24.9831H8.87355C10.5376 24.9831 10.7564 25.0392 11.2954 25.5837C11.8814 26.1843 11.8814 26.1923 11.8579 29.9239C11.8345 33.031 11.8267 33.1511 11.6704 33.3593C11.3657 33.7837 11.1157 33.9118 10.6235 33.9118C10.1314 33.9118 9.88136 33.7837 9.57667 33.3593C9.42042 33.1511 9.41261 33.0069 9.37355 30.7487C9.33449 28.4905 9.32667 28.3464 9.17042 28.1382C9.08449 28.0181 8.91261 27.8419 8.79542 27.7538C8.5923 27.5936 8.45167 27.5856 5.91261 27.5456C3.50636 27.5056 3.20949 27.4895 2.94386 27.3534C2.56105 27.1612 2.08449 26.5927 1.9673 26.2003C1.8423 25.7919 1.8423 20.3306 1.95949 19.6499C2.22511 18.1204 3.38136 16.7911 4.95949 16.2065C5.30324 16.0784 5.72511 16.0544 8.67042 16.0143C11.7173 15.9743 12.0142 15.9583 12.2564 15.8222C12.4048 15.7421 13.5064 14.9253 14.7017 13.9964C15.9048 13.0755 16.9595 12.2907 17.0532 12.2507C17.147 12.2026 17.4282 12.1866 17.6782 12.1946C18.0767 12.2186 18.1626 12.2587 18.4126 12.5069ZM38.1236 26.9851V39.0769H21.7095C6.10793 39.0769 5.29542 39.0688 5.35011 38.9327C5.53761 38.4683 5.62355 38.0118 5.62355 37.4032L5.63136 36.7145L7.20949 35.5854L8.79542 34.4643L9.13917 34.7206C9.93605 35.3132 10.9204 35.3852 11.8032 34.9048C12.3267 34.6165 12.5689 34.3602 12.8657 33.7597C13.0454 33.4073 13.0767 33.2151 13.1157 32.3583L13.1626 31.3653L14.9985 30.052C21.8267 25.1753 25.3892 22.6448 25.4439 22.6528C25.4751 22.6528 25.5611 22.877 25.6236 23.1573L25.7486 23.6618H30.5064L30.6861 22.845L30.8736 22.0362L31.4751 21.812C31.8032 21.6919 32.272 21.4917 32.522 21.3636L32.9751 21.1313L33.6861 21.5878L34.397 22.0362L37.7564 18.5929L37.3189 17.8722L36.8736 17.1595L37.1392 16.5669C37.2798 16.2386 37.4829 15.7501 37.5767 15.4778C37.7329 15.0374 37.8111 14.9413 38.0689 14.9013C38.1001 14.9013 38.1236 20.3306 38.1236 26.9851ZM18.7954 15.8302C18.8657 15.9983 19.022 16.3667 19.147 16.647L19.3736 17.1595L18.9361 17.8722L18.4907 18.5929L20.1782 20.3145L21.8579 22.0442L22.5611 21.5878L23.2564 21.1393L23.8657 21.4196C24.2017 21.5798 24.4517 21.7239 24.4361 21.7479C24.4126 21.772 21.8657 23.5897 18.7798 25.7919L13.1626 29.7958L13.0845 26.1362L12.7954 25.5276C12.4439 24.7989 11.9829 24.3425 11.2642 23.9981C10.7798 23.7659 10.6626 23.7419 9.74855 23.7179L8.74855 23.6858V19.2175H10.8423C13.9673 19.2175 13.9907 19.2015 16.7173 17.0153C17.7251 16.2065 18.5845 15.5419 18.6157 15.5419C18.647 15.5339 18.7329 15.67 18.7954 15.8302ZM3.67042 28.8108L4.37355 28.8509L4.35792 33.5595C4.33449 38.172 4.33449 38.2681 4.17042 38.4843C3.86574 38.9087 3.61574 39.0368 3.12355 39.0368C2.63136 39.0368 2.38136 38.9087 2.07667 38.4843C1.91261 38.2681 1.91261 38.172 1.88917 33.2392L1.87355 28.2102L2.41261 28.4905C2.87355 28.7227 3.06105 28.7708 3.67042 28.8108ZM8.12355 30.8608C8.12355 31.9739 8.13917 32.9909 8.16261 33.119C8.20167 33.3272 8.16261 33.3833 7.75636 33.6636C7.50636 33.8317 6.92824 34.2401 6.4673 34.5685L5.62355 35.169V28.8268H8.12355V30.8608Z" fill="white"/>
<path d="M26.8189 4.60322C25.2486 4.8915 23.9673 5.59619 22.8111 6.79736C21.8032 7.83837 21.1548 9.02353 20.8032 10.4569C20.6157 11.2177 20.6157 13.1235 20.8032 13.8843C21.1548 15.3177 21.8032 16.5028 22.8111 17.5438C24.1939 18.9852 25.8189 19.73 27.772 19.8341C29.9361 19.9462 31.8267 19.1854 33.397 17.5759C34.4673 16.4788 35.0845 15.3657 35.4439 13.8843C35.6314 13.1235 35.6314 11.2177 35.4439 10.4569C35.2486 9.66415 34.8814 8.77529 34.4673 8.08662C33.9829 7.26982 32.8579 6.14072 32.0376 5.62021C30.5064 4.65927 28.5611 4.2749 26.8189 4.60322ZM29.6079 5.94853C31.2407 6.40497 32.4751 7.31787 33.3657 8.71123C34.0532 9.78427 34.3345 10.7772 34.3345 12.1706C34.3345 13.9804 33.7486 15.4378 32.5298 16.687C30.1079 19.1694 26.1861 19.1854 23.7564 16.727C22.4986 15.4538 21.9126 14.0044 21.9126 12.1706C21.9126 10.7772 22.1939 9.79228 22.8892 8.69521C23.8111 7.2538 25.2564 6.24482 26.9517 5.87646C27.5767 5.74033 28.9986 5.78036 29.6079 5.94853Z" fill="white"/>
<path d="M27.1939 8.45498C25.2173 8.99951 23.9907 11.1056 24.4907 13.0915C25.0142 15.1415 27.0611 16.4147 29.022 15.8942C31.022 15.3577 32.2642 13.2597 31.7564 11.2657C31.2329 9.1917 29.1548 7.91045 27.1939 8.45498ZM29.3032 9.93642C29.8267 10.2247 30.0689 10.481 30.3736 11.0815C30.5454 11.4259 30.5767 11.594 30.5767 12.1706C30.5845 12.7952 30.5611 12.8913 30.3189 13.3558C30.022 13.9163 29.772 14.1565 29.1861 14.4769C28.8501 14.653 28.6861 14.6851 28.1236 14.6851C27.5611 14.6851 27.397 14.653 27.0611 14.4769C26.4751 14.1565 26.2251 13.9163 25.9282 13.3558C25.6861 12.8913 25.6626 12.7952 25.6704 12.1706C25.6704 11.3698 25.8579 10.8894 26.3657 10.3688C27.147 9.56806 28.3111 9.3999 29.3032 9.93642Z" fill="white"/>
<path d="M20.8267 27.4655C18.5532 29.0911 16.6626 30.4524 16.6314 30.4845C16.5454 30.5726 17.1939 31.5655 17.3111 31.5175C17.4439 31.4694 25.4048 25.7759 25.5845 25.6157C25.7329 25.4636 25.7329 25.4636 25.4204 25.0071C25.2486 24.7589 25.0689 24.5427 25.0298 24.5347C24.9907 24.5186 23.1001 25.8399 20.8267 27.4655Z" fill="white"/>
<path d="M35.6235 32.6706H36.8735V31.3893H35.6235V32.6706Z" fill="white"/>
<path d="M14.7876 31.7817C14.561 31.9419 14.3501 32.102 14.3267 32.1261C14.272 32.1821 14.9204 33.1511 15.0064 33.1511C15.0376 33.1511 15.2798 32.9989 15.5376 32.8147L16.0064 32.4864L15.6782 32.006C15.4985 31.7417 15.3189 31.5095 15.272 31.5015C15.2329 31.4854 15.0064 31.6136 14.7876 31.7817Z" fill="white"/>
<path d="M35.6235 35.2331H36.8735V33.9519H35.6235V35.2331Z" fill="white"/>
<path d="M6.87355 37.7956H8.12355V36.5144H6.87355V37.7956Z" fill="white"/>
<path d="M9.37355 37.7956H10.6236V36.5144H9.37355V37.7956Z" fill="white"/>
<path d="M11.8736 37.7956H13.1236V36.5144H11.8736V37.7956Z" fill="white"/>
<path d="M35.6235 37.7956H36.8735V36.5144H35.6235V37.7956Z" fill="white"/>
</svg>
