<svg width="40" height="37" viewBox="0 0 40 37" fill="none" xmlns="http://www.w3.org/2000/svg">
<path d="M28.0859 1.03354C25.9843 1.60227 24.1797 2.0909 24.0781 2.11493C23.8359 2.17902 23.6406 2.61158 23.7344 2.88393C23.789 3.01209 24.1875 3.34853 24.875 3.83716C25.7968 4.486 25.9218 4.60615 25.8515 4.73432C25.6484 5.12683 24.539 6.53665 23.7969 7.34569C22.9765 8.24285 22.8828 8.41107 23.0156 8.76352C23.1015 8.97179 23.5 9.12399 23.7578 9.02787C24.2734 8.84363 26.8437 5.62347 27.2343 4.67825C27.3984 4.26972 27.2656 4.06946 26.4765 3.51674C26.0937 3.2524 25.7734 3.00408 25.75 2.97204C25.7187 2.90796 31.6327 1.3139 31.6874 1.37798C31.7031 1.394 31.8437 2.66765 31.9921 4.20564C32.1406 5.74362 32.2812 7.16145 32.3124 7.3537L32.3593 7.70616L31.6249 7.18549C30.8046 6.60073 30.6171 6.51262 30.3984 6.64078C30.3124 6.68083 29.914 7.14543 29.5078 7.66611C26.7968 11.1506 23.6719 13.7379 19.7969 15.7245C15.9297 17.7031 11.7969 18.8405 6.70319 19.3372C6.21882 19.3852 6.17195 19.3772 6.17195 19.2411C6.17195 19.1289 6.39851 19.0168 7.32819 18.7044C11.5313 17.2865 15.3985 15.4361 18.5938 13.3054C19.4297 12.7527 21.5078 11.1826 22.0859 10.67C22.4453 10.3576 22.5 9.99712 22.2422 9.73278C21.9297 9.41236 21.6719 9.46042 21.0859 9.94906C17.4453 13.009 12.7032 15.5883 7.16413 17.5028C6.32038 17.7912 5.53914 18.1036 5.42976 18.1917C4.8282 18.6723 4.8282 19.7617 5.42976 20.2504C5.82039 20.5628 6.10163 20.6028 7.17194 20.4987C14.5782 19.8098 21.0937 17.2144 26.1484 12.9289C27.2734 11.9837 29.1015 10.0932 29.9609 9.00383C30.3437 8.5152 30.6718 8.09867 30.6953 8.06662C30.7187 8.03458 31.2187 8.355 31.7968 8.77153C32.3749 9.18807 32.9218 9.52451 33.0155 9.52451C33.289 9.52451 33.4374 9.43639 33.5468 9.2121C33.6327 9.03588 33.5937 8.41107 33.2343 4.7984C33.0077 2.48341 32.8202 0.536895 32.8124 0.464802C32.8124 0.224491 32.5077 -0.007809 32.2031 0.000201347C32.0468 0.000201347 30.1953 0.472812 28.0859 1.03354Z" fill="white"/>
<path d="M30.5078 14.8033C30.3828 14.8834 30.2109 15.0196 30.1328 15.1157C29.7656 15.5323 29.7734 15.292 29.7656 25.8416V35.7984H27.8906V27.9723C27.8906 20.1622 27.8906 20.1462 27.7265 19.7938C27.625 19.5855 27.4296 19.3612 27.2421 19.233L26.9218 19.0168H24.4219C21.9375 19.0168 21.9141 19.0168 21.625 19.201C21.4687 19.3051 21.2578 19.5214 21.1562 19.6816L20.9766 19.978L20.9375 35.7984H19.0625V30.2072C19.0547 24.3116 19.0547 24.2475 18.6953 23.847C18.6172 23.7589 18.4219 23.6147 18.2578 23.5346C17.9844 23.3824 17.8047 23.3744 15.4766 23.3984L12.9922 23.4225L12.7032 23.6548C12.125 24.1033 12.1094 24.1915 12.1094 27.3235C12.1094 29.222 12.1407 30.1672 12.1954 30.3033C12.3672 30.6798 12.9688 30.7519 13.1797 30.4155C13.211 30.3594 13.2578 29.0297 13.2813 27.4677L13.3203 24.624L15.5391 24.6C17.2656 24.584 17.7734 24.608 17.8281 24.6801C17.8594 24.7362 17.8906 27.2594 17.8906 30.2873V35.7984H13.2813V34.0121C13.2813 32.2419 13.2813 32.2178 13.1016 32.0496C12.8438 31.8013 12.4766 31.8173 12.2735 32.0816C12.1172 32.2819 12.1094 32.3941 12.1094 34.0442V35.7984H10.2344V32.4501C10.2344 30.3995 10.2032 28.9977 10.1563 28.8134C10.1094 28.6452 9.98443 28.4049 9.86724 28.2687C9.47662 27.7881 9.46099 27.7881 6.75007 27.7881C4.40633 27.7881 4.26571 27.7961 3.99227 27.9563C3.83602 28.0444 3.61727 28.2447 3.51571 28.4049L3.3204 28.7013L3.27353 35.7984H1.95322C1.22666 35.7984 0.539165 35.8385 0.421978 35.8786C-0.00770709 36.0468 -0.132706 36.5034 0.156355 36.8238L0.320416 37H39.6796L39.8436 36.8238C40.1327 36.5034 40.0077 36.0468 39.578 35.8786C39.4608 35.8385 38.7655 35.7984 38.039 35.7984H36.7187V30.1191C36.7187 26.9951 36.6952 24.3757 36.6718 24.3036C36.5937 24.1113 36.203 23.9351 35.9765 23.9912C35.5312 24.1033 35.5468 23.879 35.5468 30.0871V35.7984H30.9374V25.9217C30.9374 20.4987 30.9687 16.0049 30.9999 15.9488C31.0546 15.8767 31.5624 15.8527 33.289 15.8687L35.5077 15.8927L35.5312 19.1289C35.5468 22.3331 35.5546 22.3731 35.7187 22.5573C35.953 22.8217 36.3437 22.8057 36.5546 22.5333C36.7108 22.325 36.7187 22.2369 36.7187 19.0328C36.7187 15.8527 36.7108 15.7325 36.5546 15.3961C36.4452 15.1638 36.2812 14.9796 36.0624 14.8514L35.7265 14.6511H33.2343C30.9453 14.6511 30.7265 14.6671 30.5078 14.8033ZM26.625 20.2744C26.6953 20.3465 26.7187 22.1889 26.7187 28.0845V35.7984H22.1094V28.0845C22.1094 22.1889 22.1328 20.3465 22.2031 20.2744C22.3359 20.1382 26.4922 20.1382 26.625 20.2744ZM9.01568 29.1178C9.03912 29.1899 9.06256 30.7199 9.06256 32.5222V35.7984H4.45321V32.4501C4.45321 30.6077 4.47664 29.0698 4.50789 29.0457C4.53133 29.0137 5.54695 28.9897 6.76569 28.9897C8.70318 28.9897 8.97662 29.0057 9.01568 29.1178Z" fill="white"/>
</svg>
