<svg width="40" height="38" viewBox="0 0 40 38" fill="none" xmlns="http://www.w3.org/2000/svg">
<path d="M16.6554 0.0944672C14.1266 0.126633 13.8067 0.150757 13.6239 0.279423C13.304 0.496544 13.1973 0.729748 13.0755 1.50173C12.8622 2.79642 12.3976 3.73728 11.5521 4.58164C11.255 4.87918 10.798 5.24104 10.5238 5.39383C9.24419 6.09345 9.1147 6.43923 9.41938 8.29683C10.4096 14.3601 13.304 19.2735 17.6075 22.2328C18.7043 22.9807 19.8697 23.5999 20.1972 23.5999C20.6542 23.5999 22.4823 22.5142 23.7391 21.493C26.7934 19.0242 29.0937 15.301 30.2438 10.9907C30.7085 9.21356 31.0436 6.96997 30.9065 6.42315C30.8303 6.07736 30.4876 5.73158 29.9544 5.45012C28.3244 4.58164 27.418 3.27891 27.0905 1.35699C26.9686 0.649332 26.7934 0.335712 26.4126 0.142715C26.1841 0.0301342 25.7575 0.0140514 22.8098 0.0301342C20.9741 0.0381756 18.2016 0.070343 16.6554 0.0944672ZM25.9479 1.51782C26.2983 3.69707 27.4408 5.40188 29.2079 6.3749C29.7792 6.68852 29.7944 6.7046 29.7944 6.9941C29.7944 7.46855 29.5126 9.14119 29.2689 10.1464C28.0883 14.9552 25.6661 18.7186 22.1547 21.1954C21.7587 21.4688 21.1646 21.8468 20.8218 22.0318L20.2048 22.3775L19.725 22.1202C14.835 19.5389 11.3998 14.1832 10.501 7.73392C10.44 7.31576 10.402 6.92977 10.4248 6.88152C10.44 6.83327 10.6152 6.71264 10.8133 6.61615C12.6413 5.67529 13.8829 3.84986 14.218 1.60627L14.2637 1.3007L16.8687 1.27657C18.3006 1.26853 20.9208 1.25245 22.6879 1.23636L25.9022 1.22028L25.9479 1.51782Z" fill="white"/>
<path d="M18.5689 3.16713L15.2701 3.20707L15.0522 3.45466C14.9355 3.59843 14.7721 3.90194 14.7021 4.13356C14.2509 5.53928 13.2083 6.937 11.9557 7.7996C11.7301 7.95934 11.4967 8.19895 11.4266 8.35071C11.3022 8.61428 11.3099 8.67019 11.5044 9.66856C11.7456 10.8666 11.8234 11.0663 12.1035 11.226C12.2747 11.3219 12.3525 11.3219 12.5392 11.242C12.9438 11.0743 12.9749 10.8666 12.7571 9.93214C12.6481 9.48486 12.5626 9.06155 12.5626 8.98967C12.5626 8.91778 12.7493 8.71012 12.9827 8.52642C14.1186 7.62389 15.1845 6.2022 15.6435 4.96421L15.8692 4.36518H18.211C19.4947 4.36518 21.3931 4.34122 22.4123 4.30927L24.2796 4.26135L24.4274 4.65272C25.0265 6.29804 26.0301 7.56798 27.6562 8.74207C27.6718 8.75006 27.6095 9.17337 27.5084 9.66058C27.2983 10.7149 27.3139 10.8826 27.594 11.0982C27.7651 11.234 27.8507 11.25 28.0141 11.1861C28.3642 11.0663 28.4965 10.7708 28.7143 9.62863C28.9088 8.59032 28.9166 8.53441 28.7921 8.26285C28.7065 8.07915 28.4731 7.85551 28.1386 7.6159C27.5395 7.20058 26.6759 6.32999 26.3258 5.79486C26.0223 5.3396 25.5244 4.33324 25.3999 3.9259C25.1665 3.17512 24.9253 3.07927 23.2059 3.10323C22.4668 3.11122 20.3817 3.14317 18.5689 3.16713Z" fill="white"/>
<path d="M22.869 8.30401C22.7938 8.3519 21.9592 9.629 21.0117 11.1456L19.2973 13.9073L18.3348 12.9255C17.8009 12.3907 17.2896 11.9198 17.1993 11.8799C16.8609 11.7442 16.5 12.0236 16.5 12.4227C16.5 12.734 16.5526 12.7978 18.0716 14.3144C18.9965 15.2403 19.192 15.3999 19.395 15.3999C19.5454 15.3999 19.6883 15.336 19.786 15.2163C20.147 14.8092 23.7188 8.9665 23.7188 8.7909C23.7188 8.69512 23.636 8.51952 23.5308 8.41575C23.3353 8.20823 23.0946 8.16832 22.869 8.30401Z" fill="white"/>
<path d="M27.9693 12.4047C27.8892 12.4529 27.6327 12.8948 27.4003 13.3849C26.1018 16.1568 24.2825 18.302 21.9261 19.8446C21.5734 20.0776 21.2288 20.2705 21.1647 20.2705C20.9964 20.2705 19.6098 19.3465 18.9365 18.7841C17.2694 17.3861 15.9951 15.739 14.9611 13.642C14.6806 13.0635 14.3841 12.5493 14.3119 12.4931C13.9593 12.2279 13.4062 12.5413 13.4062 13.0073C13.4062 13.2965 14.2638 15.0239 14.881 15.98C16.2676 18.1092 18.095 19.8848 20.1949 21.1382C21.1166 21.6926 21.2608 21.6926 22.1906 21.1061C23.2726 20.4312 24.018 19.8366 24.9317 18.9528C25.9095 18.0047 26.4224 17.3861 27.1518 16.2934C27.7609 15.3774 28.875 13.1921 28.875 12.9028C28.875 12.7984 28.7868 12.6216 28.6746 12.5172C28.4662 12.3083 28.2098 12.2681 27.9693 12.4047Z" fill="white"/>
<path d="M1.02201 18.5407C0.613207 18.6692 0.345912 18.894 0.165094 19.2793C0 19.6245 0 19.6807 0 27.6691C0 33.1526 0.0235849 35.7779 0.0864779 35.9304C0.188679 36.2034 0.518867 36.5727 0.801886 36.7252C1.11635 36.8938 6.66666 36.8938 6.98899 36.7252C7.49213 36.4523 7.7437 36.0107 7.79874 35.2641L7.82232 35.0152L11.2028 36.3318C13.066 37.0464 14.8113 37.7127 15.0865 37.8011C15.9434 38.074 15.3695 38.1463 26.9261 36.4362C28.1368 36.2596 29.316 36.0589 29.5519 35.9866C30.0629 35.8341 30.8883 35.4166 31.3286 35.0955C31.6666 34.8385 39.489 27.6611 39.7169 27.3961C40.2437 26.7779 40.3852 25.5014 40 24.7548C39.7405 24.249 39.3081 23.8074 38.8443 23.5746C38.4041 23.3578 37.6336 23.2936 37.1226 23.4381C36.8632 23.5023 35.5267 24.3774 32.7437 26.2802L28.7343 29.0179L27.9088 28.9697L27.0833 28.9296L27.0283 28.4479C26.8317 26.8422 25.6761 25.5737 24.1352 25.2766C23.8994 25.2284 21.8475 25.0277 19.5755 24.827L15.4481 24.4657L14.7956 24.1928C14.434 24.0482 13.4748 23.5585 12.6494 23.1089C10.6289 22.001 9.97641 21.7521 8.51414 21.5674L7.79874 21.4711L7.76729 20.4595C7.7437 19.5202 7.72798 19.4238 7.53144 19.1188C7.13836 18.5006 7.08333 18.4925 4.00943 18.4765C2.35849 18.4684 1.18711 18.4925 1.02201 18.5407ZM6.50943 19.753C6.58018 19.8253 6.60377 20.4515 6.60377 22.0813V24.3212L6.80031 24.5139C6.90251 24.6263 7.08333 24.7146 7.19339 24.7146C7.30345 24.7146 7.48427 24.6263 7.58647 24.5139C7.76729 24.3373 7.78301 24.265 7.78301 23.5103C7.78301 22.571 7.7044 22.6272 8.82861 22.8279C9.7327 22.9885 10.6053 23.3257 11.6195 23.8957C12.8538 24.6022 14.1195 25.2284 14.7406 25.4613C15.228 25.6379 15.7468 25.7021 19.5361 26.0393C21.8711 26.24 23.9622 26.4648 24.1902 26.5291C25.0393 26.7699 25.7626 27.645 25.849 28.5603L25.8805 28.9376L20.338 29.2828C17.2956 29.4755 14.6777 29.612 14.5283 29.5799C14.3789 29.5558 14.1116 29.4033 13.9387 29.2507C13.4041 28.7851 12.8145 28.9456 12.8145 29.5478C12.8145 29.893 13.3569 30.4229 13.9701 30.6557C14.3946 30.8243 14.5126 30.8323 15.6053 30.7842C16.8003 30.736 19.8663 30.5433 24.2138 30.2543C26.1556 30.1258 26.8317 30.1098 27.7751 30.166C28.4198 30.2141 29.0016 30.2222 29.0723 30.1981C29.1431 30.166 31.0299 28.8975 33.2547 27.372C37.1934 24.6745 37.3113 24.6022 37.7358 24.5701C38.0896 24.546 38.2154 24.5701 38.4355 24.7307C39.0173 25.1321 39.2217 25.7744 38.9544 26.3524C38.86 26.5531 37.6336 27.7253 35 30.1579C32.9009 32.0848 31.0141 33.8029 30.8176 33.9715C30.3695 34.3568 29.6619 34.7101 29.0487 34.8626C28.7893 34.9269 25.8333 35.3845 22.4843 35.8823C17.9481 36.5486 16.2736 36.7654 15.9198 36.7333C15.4717 36.6931 14.544 36.3479 8.60848 34.0357L7.82232 33.7226L7.78301 30.1338L7.7437 26.5451L7.55503 26.3926C7.31918 26.1999 7.0676 26.1999 6.83176 26.3926L6.64308 26.5451L6.60377 31.0732L6.56446 35.5932H3.89151H1.21855L1.19497 27.7333C1.18711 21.993 1.20283 19.8493 1.26572 19.7691C1.39151 19.6165 6.36006 19.6005 6.50943 19.753Z" fill="white"/>
<path d="M3.44161 30.8598C3.16688 30.9529 2.71945 31.2629 2.51536 31.4954C1.81675 32.2861 1.94234 33.6503 2.78225 34.3557C3.11978 34.6425 3.7085 34.875 4.10883 34.875C4.83884 34.875 5.66305 34.3402 6.00058 33.6503C6.5108 32.6194 5.92993 31.2552 4.82314 30.8831C4.42281 30.7513 3.79484 30.7358 3.44161 30.8598ZM4.56411 32.038C5.15282 32.3326 5.14497 33.2007 4.56411 33.5573C4.25797 33.7433 4.02248 33.7511 3.71635 33.596C3.38667 33.4333 3.24537 33.1852 3.24537 32.7977C3.24537 32.5109 3.29247 32.4101 3.51226 32.1931C3.81054 31.8985 4.17947 31.8443 4.56411 32.038Z" fill="white"/>
</svg>
