<svg width="40" height="40" viewBox="0 0 40 40" fill="none" xmlns="http://www.w3.org/2000/svg">
<path d="M17.9289 0.132812C17.8263 0.21875 17.5263 0.875 17.1711 1.78906C16.8474 2.61719 16.5711 3.30469 16.5632 3.3125C16.5474 3.32812 16.1684 3.42969 15.7105 3.54688C14.2816 3.91406 12.9553 4.48438 11.1632 5.47656L10.8395 5.65625L9.28421 4.96875C7.87105 4.35156 7.70526 4.28906 7.50789 4.375C7.23158 4.48438 4.46053 7.24219 4.38947 7.47656C4.35 7.60938 4.52368 8.07031 5.02105 9.1875L5.71579 10.7266L5.53421 11.0469C4.53158 12.8203 3.95526 14.1328 3.58421 15.5469C3.46579 16 3.36316 16.375 3.34737 16.3906C3.33947 16.3984 2.64474 16.6719 1.80789 16.9922C0.884211 17.3438 0.221053 17.6406 0.142105 17.7422C0.0157895 17.8906 0 18.125 0 20C0 21.875 0.0157895 22.1094 0.142105 22.2578C0.221053 22.3594 0.884211 22.6562 1.80789 23.0078C2.64474 23.3281 3.33947 23.6016 3.34737 23.6094C3.36316 23.625 3.46579 24 3.58421 24.4531C3.95526 25.8672 4.53158 27.1797 5.53421 28.9531L5.71579 29.2734L5.02105 30.8125C4.52368 31.9297 4.35 32.3906 4.38947 32.5234C4.46053 32.7578 7.23158 35.5156 7.50789 35.625C7.70526 35.7109 7.87105 35.6562 9.25263 35.0469C10.0895 34.6797 10.8079 34.375 10.8395 34.375C10.8711 34.375 11.3132 34.6016 11.8184 34.875C12.9789 35.5156 14.4158 36.1016 15.6079 36.4219C16.1211 36.5625 16.5474 36.6797 16.5632 36.6875C16.5711 36.6953 16.8474 37.3828 17.1711 38.2109C17.5263 39.125 17.8263 39.7812 17.9289 39.8594C18.0789 39.9844 18.3158 40 20.2105 40C22.1053 40 22.3421 39.9844 22.4921 39.8594C22.65 39.7344 24 36.4141 24 36.1484C24 36.0859 23.9368 35.9531 23.8579 35.8516C23.6842 35.6484 23.2658 35.6094 23.0842 35.7891C23.0211 35.8516 22.7132 36.5703 22.3974 37.3906L21.8211 38.8672H20.2105H18.6L18.0316 37.3984C17.7158 36.5859 17.4158 35.875 17.3684 35.8203C17.3211 35.7578 17.0053 35.6484 16.6737 35.5781C15.1026 35.2422 13.1289 34.4453 11.7868 33.6094C11.4237 33.3828 11.0447 33.2031 10.9342 33.2031C10.8316 33.2031 10.0974 33.4844 9.31579 33.8281C8.53421 34.1719 7.86316 34.4531 7.83158 34.4531C7.76053 34.4531 5.60526 32.3203 5.60526 32.25C5.60526 32.2188 5.88947 31.5547 6.23684 30.7812C6.58421 30.0078 6.86842 29.2891 6.86842 29.1875C6.86842 29.0781 6.68684 28.7031 6.45789 28.3438C5.60526 26.9844 4.80789 25.0469 4.46842 23.5C4.39737 23.1719 4.28684 22.8594 4.22368 22.8125C4.16842 22.7656 3.45 22.4688 2.62895 22.1562L1.14474 21.5938V20V18.4062L2.62895 17.8438C3.45 17.5312 4.16842 17.2344 4.22368 17.1875C4.28684 17.1406 4.39737 16.8281 4.46842 16.5C4.80789 14.9531 5.60526 13.0156 6.45789 11.6562C6.68684 11.2969 6.86842 10.9219 6.86842 10.8125C6.86842 10.7109 6.58421 9.99219 6.23684 9.21875C5.88947 8.44531 5.60526 7.78125 5.60526 7.75C5.60526 7.67969 7.76053 5.54688 7.83158 5.54688C7.86316 5.54688 8.53421 5.82812 9.31579 6.17188C10.0974 6.51562 10.8237 6.79688 10.9263 6.79688C11.0368 6.79688 11.4158 6.61719 11.7789 6.39062C13.1526 5.54688 15.1105 4.75781 16.6737 4.42188C17.0053 4.35156 17.3211 4.24219 17.3684 4.17969C17.4158 4.125 17.7158 3.41406 18.0316 2.60156L18.6 1.13281H20.2105H21.8211L22.3974 2.60938C22.7132 3.42969 23.0211 4.14844 23.0842 4.21094C23.2658 4.39062 23.6842 4.35156 23.8579 4.14844C23.9368 4.04688 24 3.90625 24 3.83594C24 3.57031 22.6579 0.273438 22.4921 0.132812C22.3421 0.015625 22.1053 0 20.2105 0C18.3158 0 18.0789 0.015625 17.9289 0.132812Z" fill="white"/>
<path d="M28.0357 3.12485C26.6195 3.62439 25.9545 5.23058 26.6195 6.56779C26.8777 7.07501 27.4176 7.55918 27.934 7.73593L28.3095 7.87427V8.71963V9.565L26.5256 11.3172L24.7495 13.0617H22.6527H20.5636V11.0713C20.5636 9.15 20.5558 9.08083 20.3915 8.87333L20.2194 8.65815L19.3431 8.70426C17.1601 8.81954 15.0632 9.52657 13.1698 10.7792C12.2466 11.3941 10.7287 12.885 10.1027 13.7918C9.16384 15.1598 8.54573 16.5892 8.19365 18.2108C7.93545 19.3789 7.93545 21.6537 8.19365 22.8219C8.53791 24.4204 9.17949 25.8959 10.1027 27.2408C10.7287 28.1477 12.2466 29.6386 13.1698 30.2534C15.0554 31.4984 17.1679 32.2131 19.3431 32.3284L20.2194 32.3745L20.3915 32.1593C20.5558 31.9518 20.5636 31.8826 20.5636 29.9613V27.9709H22.6605H24.7495L26.5334 29.7231L28.3095 31.4676V32.313V33.1584L27.934 33.2967C27.4097 33.4735 26.8777 33.9576 26.6117 34.4879C26.4239 34.8645 26.3926 35.0182 26.3926 35.5792C26.4004 36.3477 26.5804 36.8088 27.0968 37.316C27.6132 37.8232 28.0748 38 28.8572 38C29.4284 38 29.5849 37.9693 29.9682 37.7848C30.4533 37.5543 30.868 37.1469 31.1419 36.6397C31.2905 36.3631 31.3218 36.194 31.3218 35.5792C31.3218 34.9106 31.2983 34.8107 31.0871 34.4341C30.7976 33.9192 30.2734 33.4658 29.7805 33.2967L29.4049 33.1584V32.0901V31.0142L27.3472 28.993L25.2972 26.9718H22.9265H20.5636V25.7422V24.5126H23.1925H25.8293L26.9403 25.5885L28.0513 26.6644H28.912H29.7726L29.8744 26.9641C30.0387 27.4714 30.4925 27.9709 31.048 28.2706C31.5252 28.5242 31.6035 28.5473 32.2216 28.5396C33.0353 28.5396 33.4813 28.3552 34.0368 27.8018C34.5454 27.2869 34.7488 26.7336 34.7097 25.9728C34.6549 25.0582 34.1855 24.3435 33.3561 23.9131C33.0118 23.7287 32.8788 23.7056 32.2216 23.7056C31.5409 23.7056 31.4392 23.7287 31.0558 23.9362C30.5316 24.2206 30.07 24.7355 29.8978 25.2196L29.757 25.5885H29.0919H28.4269L27.355 24.528L26.2752 23.4751L23.4194 23.452L20.5636 23.429V22.2455V21.0543H27.8401C34.7175 21.0543 35.1165 21.062 35.1165 21.1849C35.1165 21.2618 35.2182 21.5 35.3513 21.7152C36.3371 23.4136 38.7626 23.3906 39.7249 21.6691C39.9831 21.2003 40.0066 21.1234 39.9988 20.5163C39.9988 19.986 39.9597 19.7939 39.811 19.4788C39.0834 18.011 37.1508 17.596 35.9068 18.6411C35.5625 18.9332 35.1165 19.6095 35.1165 19.84C35.1165 19.9707 34.7175 19.9784 27.8401 19.9784H20.5636V18.7872V17.596H23.3177H26.064L27.3706 16.3279L28.6773 15.0599H29.1937H29.71L29.9213 15.521C30.1638 16.0589 30.7194 16.6046 31.267 16.8505C31.8147 17.0964 32.6676 17.0811 33.2544 16.8121C33.7708 16.5738 34.2559 16.1127 34.5062 15.6132C34.6549 15.3135 34.6862 15.129 34.6862 14.5603C34.6862 13.9609 34.6549 13.8149 34.4749 13.4767C33.4813 11.6169 30.8132 11.6784 29.9369 13.5766L29.7179 14.0608H28.9511H28.1922L26.9403 15.2904L25.6884 16.52H23.1299H20.5636V15.2904V14.0608H22.9265H25.2894L27.3472 12.0396L29.4049 10.0184V8.9425V7.87427L29.7805 7.73593C29.9917 7.66677 30.3203 7.47464 30.5081 7.30557C31.5565 6.40641 31.6504 4.83864 30.7272 3.81651C30.0934 3.10948 28.9355 2.80976 28.0357 3.12485ZM29.3814 4.15466C29.6475 4.25457 30.0074 4.57734 30.156 4.85401C30.3282 5.17678 30.2969 5.80696 30.0934 6.16048C29.757 6.74455 28.8337 7.0289 28.2469 6.72918C26.9168 6.0452 27.3472 4.08549 28.8337 4.07013C29.0137 4.07013 29.2562 4.10855 29.3814 4.15466ZM19.4682 20.5163V31.2755H19.2961C18.8971 31.2755 17.5826 31.0373 16.9254 30.8528C16.542 30.7452 15.8222 30.4686 15.3449 30.238C12.1761 28.7471 9.98538 26.0035 9.24208 22.5913C9.04648 21.6691 9.04648 19.3635 9.24208 18.4413C10.1106 14.4451 13.0524 11.2942 16.941 10.1798C17.6296 9.97999 18.7328 9.78018 19.2179 9.76481L19.4682 9.75713V20.5163ZM33.0353 13.4306C33.4891 13.738 33.6456 14.0762 33.6143 14.6449C33.5908 15.0214 33.5361 15.1751 33.3639 15.4057C32.9649 15.9206 32.2842 16.105 31.6974 15.8668C31.134 15.6363 30.8132 15.1521 30.8132 14.5603C30.8132 13.4229 32.0886 12.7697 33.0353 13.4306ZM38.1601 19.2713C38.3088 19.3405 38.5357 19.5326 38.6687 19.694C38.8878 19.963 38.9112 20.0475 38.9112 20.5163C38.9112 20.9851 38.8878 21.0696 38.6687 21.3386C38.3635 21.7152 37.988 21.8996 37.5107 21.8996C36.1024 21.8996 35.586 20.0322 36.7987 19.3174C37.1821 19.0946 37.7689 19.0715 38.1601 19.2713ZM32.9414 24.9045C33.5439 25.2042 33.8177 26.1111 33.4891 26.7336C32.8475 27.9786 30.9463 27.6251 30.8289 26.2417C30.735 25.0813 31.8539 24.3743 32.9414 24.9045ZM29.5927 34.3803C30.023 34.6262 30.2656 35.0643 30.2656 35.5715C30.2656 36.0172 30.1482 36.2862 29.8196 36.5936C28.9276 37.4236 27.4489 36.7934 27.4489 35.5792C27.4489 35.1949 27.5662 34.9029 27.8244 34.6262C28.2704 34.1574 29.0293 34.0575 29.5927 34.3803Z" fill="white"/>
<path d="M15.6704 13.3343C14.5461 14.0437 13.488 15.1975 12.868 16.3824C12.2315 17.6142 12 18.5653 12 19.9997C12 21.4341 12.2315 22.3852 12.868 23.6169C13.4963 24.8097 14.5627 25.9635 15.6787 26.6729C16.3069 27.0627 16.5053 27.0939 16.7864 26.821C17.1667 26.4702 17.0757 26.2909 16.216 25.6984C14.7445 24.6928 13.7856 23.3597 13.3061 21.668C13.0912 20.9118 13.0912 19.0876 13.3061 18.3314C13.7856 16.6397 14.7445 15.3066 16.216 14.301C17.0757 13.7085 17.1667 13.5292 16.7864 13.1784C16.5053 12.9055 16.2904 12.9367 15.6704 13.3343Z" fill="white"/>
</svg>
